<svg xmlns="http://www.w3.org/2000/svg" xmlns:xlink="http://www.w3.org/1999/xlink" width="1080" zoomAndPan="magnify" viewBox="0 0 810 809.999993" height="1080" preserveAspectRatio="xMidYMid meet" version="1.0"><path fill="#ffffff" d="M 799.875 91.847656 L 539.519531 12.292969 C 536.625 10.847656 533.730469 12.292969 530.839844 12.292969 L 274.820312 90.398438 L 18.804688 10.847656 C 14.464844 9.398438 10.125 10.847656 5.785156 13.738281 C 2.894531 16.632812 0 20.972656 0 25.308594 L 0 706.578125 C 0 712.363281 4.339844 718.148438 10.125 721.042969 L 270.480469 800.597656 C 271.929688 800.597656 273.375 800.597656 274.820312 800.597656 C 276.269531 800.597656 277.714844 800.597656 279.160156 800.597656 L 535.179688 721.042969 L 791.195312 799.148438 C 792.644531 799.148438 794.089844 799.148438 795.535156 799.148438 C 798.429688 799.148438 801.320312 797.703125 804.214844 796.257812 C 808.554688 793.363281 810 789.023438 810 784.683594 L 810 104.863281 C 810 99.078125 805.660156 93.292969 799.875 91.847656 Z M 781.070312 767.328125 L 549.644531 695.007812 L 549.644531 214.792969 L 520.714844 214.792969 L 520.714844 695.007812 L 289.285156 767.328125 L 289.285156 546.023438 L 260.355469 546.023438 L 260.355469 767.328125 L 28.929688 695.007812 L 28.929688 44.113281 L 260.355469 116.433594 L 260.355469 463.578125 L 289.285156 463.578125 L 289.285156 116.433594 L 520.714844 44.113281 L 520.714844 128.007812 L 549.644531 128.007812 L 549.644531 44.113281 L 781.070312 116.433594 Z M 781.070312 767.328125 " fill-opacity="1" fill-rule="nonzero"/><path fill="#ffffff" d="M 144.644531 340.632812 C 150.429688 340.632812 154.769531 337.738281 157.660156 333.398438 C 167.785156 314.597656 199.605469 250.953125 199.605469 226.363281 C 199.605469 195.988281 175.019531 171.398438 144.644531 171.398438 C 114.269531 171.398438 89.679688 195.988281 89.679688 226.363281 C 89.679688 249.507812 121.5 314.597656 131.625 333.398438 C 134.519531 337.738281 138.855469 340.632812 144.644531 340.632812 Z M 144.644531 200.328125 C 159.105469 200.328125 170.679688 211.898438 170.679688 226.363281 C 170.679688 235.042969 159.105469 263.972656 144.644531 294.347656 C 130.179688 265.417969 118.605469 236.488281 118.605469 226.363281 C 118.605469 211.898438 130.179688 200.328125 144.644531 200.328125 Z M 144.644531 200.328125 " fill-opacity="1" fill-rule="nonzero"/><path fill="#ffffff" d="M 312.429688 470.808594 L 328.339844 495.398438 C 342.804688 486.722656 354.375 475.148438 363.054688 462.132812 L 339.910156 444.773438 C 332.679688 454.898438 324 463.578125 312.429688 470.808594 Z M 312.429688 470.808594 " fill-opacity="1" fill-rule="nonzero"/><path fill="#ffffff" d="M 533.730469 180.078125 C 546.75 181.523438 559.769531 184.417969 571.339844 190.203125 L 582.910156 164.167969 C 568.445312 158.382812 552.535156 154.042969 536.625 152.597656 Z M 533.730469 180.078125 " fill-opacity="1" fill-rule="nonzero"/><path fill="#ffffff" d="M 159.105469 385.472656 L 159.105469 369.558594 L 130.179688 369.558594 L 130.179688 385.472656 C 130.179688 395.597656 131.625 405.722656 134.519531 415.847656 L 162 408.613281 C 160.554688 401.382812 159.105469 394.148438 159.105469 385.472656 Z M 159.105469 385.472656 " fill-opacity="1" fill-rule="nonzero"/><path fill="#ffffff" d="M 358.714844 311.703125 L 358.714844 327.613281 L 387.644531 327.613281 L 387.644531 311.703125 C 387.644531 303.023438 389.089844 295.792969 390.535156 287.113281 L 361.605469 281.328125 C 360.160156 291.453125 358.714844 301.578125 358.714844 311.703125 Z M 358.714844 311.703125 " fill-opacity="1" fill-rule="nonzero"/><path fill="#ffffff" d="M 177.910156 443.328125 L 154.769531 460.683594 C 164.894531 473.703125 176.464844 485.273438 189.480469 493.953125 L 205.394531 469.363281 C 193.820312 463.578125 185.144531 454.898438 177.910156 443.328125 Z M 177.910156 443.328125 " fill-opacity="1" fill-rule="nonzero"/><path fill="#ffffff" d="M 240.105469 483.828125 L 234.320312 512.757812 C 243 514.203125 250.230469 515.648438 258.910156 515.648438 C 267.589844 515.648438 274.820312 514.203125 282.054688 512.757812 L 276.269531 483.828125 C 264.695312 486.722656 251.679688 486.722656 240.105469 483.828125 Z M 240.105469 483.828125 " fill-opacity="1" fill-rule="nonzero"/><path fill="#ffffff" d="M 358.714844 385.472656 C 358.714844 394.148438 357.269531 402.828125 355.820312 410.058594 L 383.304688 417.292969 C 386.195312 407.167969 387.644531 395.597656 387.644531 385.472656 L 387.644531 371.007812 L 358.714844 371.007812 Z M 358.714844 385.472656 " fill-opacity="1" fill-rule="nonzero"/><path fill="#ffffff" d="M 650.894531 357.988281 L 679.820312 357.988281 L 679.820312 401.382812 L 650.894531 401.382812 Z M 650.894531 357.988281 " fill-opacity="1" fill-rule="nonzero"/><path fill="#ffffff" d="M 650.894531 311.703125 L 650.894531 314.597656 L 679.820312 314.597656 L 679.820312 311.703125 C 679.820312 297.238281 678.375 281.328125 674.035156 268.308594 L 646.554688 275.542969 C 649.445312 287.113281 650.894531 298.683594 650.894531 311.703125 Z M 650.894531 311.703125 " fill-opacity="1" fill-rule="nonzero"/><path fill="#ffffff" d="M 629.195312 239.382812 L 653.785156 223.472656 C 645.105469 210.453125 634.980469 198.882812 621.964844 187.308594 L 603.160156 209.007812 C 613.285156 219.132812 621.964844 229.257812 629.195312 239.382812 Z M 629.195312 239.382812 " fill-opacity="1" fill-rule="nonzero"/><path fill="#ffffff" d="M 650.894531 444.773438 L 679.820312 444.773438 L 679.820312 488.167969 L 650.894531 488.167969 Z M 650.894531 444.773438 " fill-opacity="1" fill-rule="nonzero"/><path fill="#ffffff" d="M 377.519531 236.488281 L 403.554688 249.507812 C 409.339844 237.933594 418.019531 227.808594 426.695312 217.683594 L 406.445312 197.433594 C 394.875 209.007812 384.75 222.023438 377.519531 236.488281 Z M 377.519531 236.488281 " fill-opacity="1" fill-rule="nonzero"/><path fill="#ffffff" d="M 444.054688 169.953125 L 457.070312 195.988281 C 468.644531 190.203125 480.214844 185.863281 493.230469 182.972656 L 487.445312 154.042969 C 472.980469 156.933594 458.519531 162.722656 444.054688 169.953125 Z M 444.054688 169.953125 " fill-opacity="1" fill-rule="nonzero"/><path fill="#ffffff" d="M 610.394531 572.058594 C 610.394531 602.433594 634.980469 627.023438 665.355469 627.023438 C 695.730469 627.023438 720.320312 602.433594 720.320312 572.058594 C 720.320312 541.683594 695.730469 517.097656 665.355469 517.097656 C 634.980469 517.097656 610.394531 541.683594 610.394531 572.058594 Z M 691.394531 572.058594 C 691.394531 586.523438 679.820312 598.097656 665.355469 598.097656 C 650.894531 598.097656 639.320312 586.523438 639.320312 572.058594 C 639.320312 557.597656 650.894531 546.023438 665.355469 546.023438 C 679.820312 546.023438 691.394531 557.597656 691.394531 572.058594 Z M 691.394531 572.058594 " fill-opacity="1" fill-rule="nonzero"/></svg>