<svg xmlns="http://www.w3.org/2000/svg" xmlns:xlink="http://www.w3.org/1999/xlink" width="1080" zoomAndPan="magnify" viewBox="0 0 810 809.999993" height="1080" preserveAspectRatio="xMidYMid meet" version="1.0"><defs><clipPath id="0f6ccb3262"><path d="M 20.25 1 L 616 1 L 616 809 L 20.25 809 Z M 20.25 1 " clip-rule="nonzero"/></clipPath></defs><g clip-path="url(#0f6ccb3262)"><path fill="#ffffff" d="M 199.804688 1.238281 C 195.667969 1.238281 191.746094 3.023438 189.039062 6.105469 L 23.300781 196.621094 C 21.042969 199.230469 19.789062 202.574219 19.828125 206.023438 L 19.828125 794.09375 C 19.828125 801.871094 26.160156 808.238281 33.996094 808.238281 L 601.367188 808.722656 C 609.203125 808.722656 615.574219 802.339844 615.574219 794.503906 L 615.574219 571.28125 C 615.785156 563.285156 609.363281 556.703125 601.367188 556.703125 C 593.371094 556.703125 586.941406 563.285156 587.101562 571.28125 L 587.101562 780.300781 L 48.269531 779.816406 L 48.269531 220.230469 L 219.867188 220.230469 C 227.703125 220.230469 234.074219 213.867188 234.074219 206.023438 L 234.074219 75.660156 C 234.246094 67.652344 227.652344 61.121094 219.648438 61.234375 C 211.8125 61.332031 205.550781 67.804688 205.640625 75.660156 L 205.640625 191.808594 L 65.1875 191.808594 L 206.222656 29.660156 L 587.113281 29.660156 L 587.113281 263.300781 C 586.949219 271.296875 593.382812 277.878906 601.378906 277.878906 C 609.375 277.878906 615.804688 271.296875 615.585938 263.300781 L 615.585938 15.464844 C 615.585938 7.617188 609.214844 1.238281 601.378906 1.238281 Z M 199.804688 1.238281 " fill-opacity="1" fill-rule="evenodd"/></g><path fill="#ffffff" d="M 185.4375 259.789062 C 177.492188 259.699219 171.011719 266.058594 171.011719 274.003906 C 171.011719 281.949219 177.492188 288.320312 185.4375 288.210938 L 449.984375 288.210938 C 457.871094 288.320312 464.414062 281.949219 464.414062 274.003906 C 464.414062 266.058594 457.882812 259.6875 449.984375 259.789062 Z M 185.4375 259.789062 " fill-opacity="1" fill-rule="nonzero"/><path fill="#ffffff" d="M 129.214844 335.191406 C 121.257812 335.082031 114.777344 341.464844 114.777344 349.410156 C 114.777344 357.34375 121.257812 363.726562 129.214844 363.617188 L 189.71875 363.617188 C 197.65625 363.726562 204.148438 357.34375 204.148438 349.410156 C 204.148438 341.464844 197.667969 335.082031 189.71875 335.191406 Z M 129.214844 335.191406 " fill-opacity="1" fill-rule="nonzero"/><path fill="#ffffff" d="M 247.148438 335.191406 C 239.203125 335.082031 232.71875 341.464844 232.71875 349.410156 C 232.71875 357.34375 239.203125 363.726562 247.148438 363.617188 L 506.109375 363.617188 C 514.0625 363.726562 520.535156 357.34375 520.535156 349.410156 C 520.535156 341.464844 514.0625 335.082031 506.109375 335.191406 Z M 247.148438 335.191406 " fill-opacity="1" fill-rule="nonzero"/><path fill="#ffffff" d="M 129.214844 410.597656 C 121.257812 410.488281 114.777344 416.867188 114.777344 424.804688 C 114.777344 432.75 121.257812 439.132812 129.214844 439.019531 L 427.472656 439.019531 C 435.417969 439.132812 441.898438 432.75 441.898438 424.804688 C 441.898438 416.867188 435.417969 410.488281 427.472656 410.597656 Z M 129.214844 410.597656 " fill-opacity="1" fill-rule="nonzero"/><path fill="#ffffff" d="M 456.839844 528.230469 L 492.996094 564.386719 L 469.230469 609.011719 L 420.160156 621.191406 L 461.703125 579.65625 C 471.054688 570.617188 464.3125 554.777344 451.308594 555.238281 C 447.589844 555.347656 444.097656 556.863281 441.527344 559.53125 L 400.132812 601.015625 L 412.273438 552.058594 Z M 684.71875 297 L 723.644531 335.984375 C 663.609375 418.90625 606.644531 481.871094 516 547.191406 L 474.085938 505.175781 C 539.296875 414.25 601.15625 355.832031 684.71875 297 Z M 738.535156 264.964844 C 743.078125 264.914062 747.414062 266.46875 751.90625 269.78125 C 758.015625 274.316406 760.214844 283.988281 751.074219 297.199219 C 747.472656 302.425781 743.980469 307.292969 740.371094 312.417969 L 708.707031 280.695312 C 713.773438 277.246094 718.578125 273.855469 723.867188 270.394531 C 729.191406 266.851562 734 265.074219 738.535156 264.964844 Z M 742.828125 236.914062 C 731.539062 236.179688 719.363281 239.203125 708.125 246.625 C 597.234375 319.894531 520.847656 388.394531 439.742188 505.285156 L 393.292969 529.796875 C 389.742188 531.730469 387.191406 535.074219 386.199219 538.996094 L 360.214844 643.804688 C 357.605469 654.160156 367.015625 663.621094 377.351562 661.0625 L 482.230469 635.039062 C 486.152344 634.09375 489.496094 631.484375 491.371094 627.875 L 515.929688 581.414062 C 632.929688 500.269531 699.136719 422.417969 774.480469 313.351562 C 789.78125 291.199219 787.230469 264.773438 772.074219 249.664062 C 764.507812 242.082031 754.105469 237.636719 742.828125 236.914062 Z M 742.828125 236.914062 " fill-opacity="1" fill-rule="nonzero"/><path fill="#ffffff" d="M 188.976562 545.988281 C 176.449219 554.296875 163.546875 567.457031 150.695312 583.1875 C 124.980469 614.75 100.21875 654.78125 95.453125 687.699219 C 91.941406 711.625 104.445312 729.234375 117.144531 736.296875 C 129.824219 743.347656 142.476562 743.238281 142.476562 743.238281 C 161.457031 743.601562 161.96875 715.167969 143.007812 714.816406 C 143.007812 714.816406 136.265625 714.40625 130.929688 711.414062 C 125.550781 708.445312 121.480469 706.449219 123.574219 691.761719 C 126.59375 671.175781 149.289062 630.011719 172.785156 601.21875 C 180.429688 591.867188 188.046875 583.410156 194.957031 577.449219 C 201.527344 571.863281 207.015625 570.757812 208.332031 580.792969 C 208.914062 585.535156 208.542969 591.246094 207.648438 598.039062 C 205.5625 614.179688 200.957031 633.101562 196.152344 651.28125 C 191.347656 669.460938 186.328125 686.867188 183.308594 701.03125 C 181.792969 708.136719 180.589844 714.40625 180.492188 720.464844 C 180.441406 723.503906 180.589844 726.472656 181.585938 730.035156 C 182.628906 733.539062 184.933594 738.132812 189.742188 741.113281 C 196.691406 745.457031 205.722656 746.339844 213.148438 744.253906 C 220.570312 742.164062 226.691406 738.03125 232.691406 732.816406 C 240.164062 726.375 248.039062 714.667969 255.734375 704.542969 C 255.683594 712.992188 255.835938 720.726562 255.683594 728.730469 C 255.574219 733.796875 258.121094 738.511719 262.425781 741.113281 C 268.6875 745.035156 276.582031 746.710938 283.957031 745.667969 C 291.320312 744.574219 298.003906 741.324219 304.324219 736.839844 C 316.984375 727.847656 329.101562 713.632812 342.527344 693.566406 C 353.089844 677.835938 329.453125 662.015625 318.910156 677.746094 C 308.15625 693.789062 298.214844 704.644531 291.160156 711.132812 C 284.878906 716.824219 284.21875 713.433594 284.296875 708.886719 C 284.46875 700.359375 284.828125 691.78125 283.996094 684.117188 C 282.851562 672.730469 278.820312 665.304688 270.984375 661.332031 C 260.589844 656.066406 251.8125 663.628906 246.164062 671.316406 C 234.34375 687.257812 225.144531 700.582031 217.320312 708.265625 C 212.515625 713.070312 210.207031 711.035156 212.042969 702.789062 C 214.710938 690.65625 219.308594 675.199219 223.640625 658.625 C 228.546875 640.074219 233.421875 620.28125 235.808594 601.769531 C 238.21875 583.269531 239.011719 565.972656 231.746094 550.875 C 218.5625 534.230469 204.199219 537.21875 188.976562 545.988281 Z M 188.976562 545.988281 " fill-opacity="1" fill-rule="nonzero"/></svg>