<svg xmlns="http://www.w3.org/2000/svg" xmlns:xlink="http://www.w3.org/1999/xlink" width="1080" zoomAndPan="magnify" viewBox="0 0 810 809.999993" height="1080" preserveAspectRatio="xMidYMid meet" version="1.0"><defs><clipPath id="91900a1742"><path d="M 6 0 L 803 0 L 803 809.976562 L 6 809.976562 Z M 6 0 " clip-rule="nonzero"/></clipPath></defs><g clip-path="url(#91900a1742)"><path fill="#ffffff" d="M 794.1875 492.800781 C 786.613281 480.152344 755.515625 442.605469 673.34375 490.464844 L 528.175781 575.015625 C 520.730469 579.351562 513.152344 582.390625 505.234375 584.164062 C 508.210938 579.492188 510.539062 574.175781 512.117188 568.277344 C 519.511719 540.683594 503.105469 511.875 474.769531 502.6875 C 474.226562 502.511719 473.675781 502.371094 473.113281 502.269531 C 431.371094 494.742188 390.1875 479.851562 357.089844 467.886719 C 345.597656 463.734375 334.742188 459.808594 325.511719 456.816406 C 288.402344 444.777344 254.859375 459.683594 226.945312 475.859375 L 118.785156 538.523438 L 110.878906 524.550781 C 106.414062 516.65625 99.113281 510.96875 90.332031 508.535156 C 81.550781 506.101562 72.367188 507.21875 64.472656 511.691406 L 23.738281 534.738281 C 7.394531 543.988281 1.625 564.808594 10.875 581.148438 L 130.625 792.734375 C 136.882812 803.792969 148.433594 810.007812 160.316406 810.007812 C 165.996094 810.007812 171.75 808.585938 177.03125 805.59375 L 217.761719 782.542969 C 234.105469 773.292969 239.875 752.476562 230.625 736.136719 L 215.789062 709.917969 L 240.652344 695.5625 L 426.664062 745.402344 C 437.148438 748.210938 447.4375 749.613281 457.507812 749.613281 C 477.578125 749.613281 496.765625 744.039062 514.824219 732.921875 L 778.269531 570.703125 C 802.199219 555.972656 809.785156 518.84375 794.1875 492.800781 Z M 205.269531 760.476562 L 164.542969 783.527344 C 160.367188 785.886719 155.054688 784.417969 152.691406 780.242188 L 32.945312 568.65625 C 30.625 564.554688 32.125 559.128906 36.230469 556.808594 L 76.960938 533.757812 C 78.261719 533.019531 79.710938 532.644531 81.183594 532.644531 C 81.972656 532.644531 82.769531 532.753906 83.558594 532.972656 C 85.8125 533.597656 87.675781 535.042969 88.804688 537.039062 C 88.804688 537.039062 88.804688 537.042969 88.808594 537.042969 L 208.554688 748.628906 C 210.878906 752.726562 209.375 758.152344 205.269531 760.476562 Z M 764.976562 549.109375 L 501.527344 711.328125 C 480.589844 724.222656 457.613281 727.445312 433.230469 720.910156 L 242.140625 669.707031 C 238.890625 668.835938 235.433594 669.289062 232.519531 670.976562 L 203.296875 687.847656 L 131.277344 560.59375 L 239.65625 497.800781 C 263.894531 483.761719 290.125 472 317.6875 480.9375 C 326.515625 483.800781 336.6875 487.476562 348.46875 491.734375 C 382.222656 503.9375 424.175781 519.105469 467.695312 527.0625 C 482.976562 532.390625 491.523438 547.15625 487.621094 561.710938 C 482.871094 579.4375 468.867188 582.808594 456.75 582.042969 C 432.964844 577.414062 411.578125 571.347656 389.160156 564.988281 C 379.519531 562.253906 369.550781 559.425781 359.0625 556.617188 C 352.300781 554.808594 345.347656 558.820312 343.53125 565.585938 C 341.71875 572.347656 345.734375 579.300781 352.5 581.113281 C 362.804688 583.875 372.6875 586.679688 382.242188 589.390625 C 403.574219 595.441406 424.003906 601.234375 446.617188 605.882812 C 447.75 606.390625 448.972656 606.738281 450.265625 606.898438 C 451.300781 607.027344 452.332031 607.132812 453.355469 607.222656 C 458.070312 608.121094 462.886719 608.972656 467.835938 609.765625 C 494.78125 614.078125 518.695312 609.878906 540.933594 596.929688 L 686.101562 512.375 C 728 487.972656 760.273438 485.527344 772.429688 505.824219 C 780.816406 519.832031 777.054688 541.671875 764.976562 549.109375 Z M 86.484375 570.570312 C 87.644531 578.515625 82.144531 585.902344 74.199219 587.0625 C 66.25 588.226562 58.867188 582.726562 57.707031 574.777344 C 56.542969 566.832031 62.042969 559.445312 69.992188 558.285156 C 77.941406 557.121094 85.324219 562.621094 86.484375 570.570312 Z M 265.566406 391.125 L 543.25 391.125 C 570.757812 391.125 595.390625 376.902344 609.140625 353.085938 C 622.894531 329.265625 622.894531 300.820312 609.140625 277 L 470.296875 36.515625 C 456.546875 12.695312 431.914062 -1.523438 404.410156 -1.523438 C 376.902344 -1.523438 352.273438 12.695312 338.519531 36.515625 L 199.675781 277 C 185.921875 300.820312 185.921875 329.261719 199.675781 353.082031 C 213.429688 376.902344 238.0625 391.125 265.566406 391.125 Z M 221.636719 289.679688 L 360.484375 49.195312 C 369.652344 33.316406 386.074219 23.835938 404.410156 23.835938 C 422.746094 23.835938 439.167969 33.316406 448.339844 49.195312 L 587.179688 289.679688 C 596.347656 305.5625 596.347656 324.523438 587.179688 340.402344 C 578.011719 356.285156 561.589844 365.765625 543.253906 365.765625 L 265.566406 365.765625 C 247.230469 365.765625 230.804688 356.285156 221.636719 340.402344 C 212.46875 324.523438 212.46875 305.5625 221.636719 289.679688 Z M 404.410156 264.660156 C 420.246094 264.660156 433.101562 252.261719 433.671875 236.4375 L 437.863281 120.246094 C 438.15625 112.113281 435.324219 104.71875 429.679688 98.863281 C 424.027344 93.007812 416.742188 89.910156 408.605469 89.910156 L 400.210938 89.910156 C 392.074219 89.910156 384.789062 93.007812 379.136719 98.863281 C 373.492188 104.71875 370.660156 112.113281 370.953125 120.246094 L 375.148438 236.4375 C 375.71875 252.261719 388.574219 264.660156 404.410156 264.660156 Z M 397.394531 116.46875 C 398.246094 115.582031 398.984375 115.269531 400.210938 115.269531 L 408.605469 115.269531 C 409.832031 115.269531 410.574219 115.585938 411.425781 116.472656 C 412.277344 117.355469 412.566406 118.101562 412.519531 119.332031 L 408.324219 235.523438 C 408.25 237.640625 406.527344 239.300781 404.40625 239.300781 C 402.289062 239.300781 400.566406 237.640625 400.492188 235.523438 L 396.296875 119.335938 C 396.253906 118.105469 396.539062 117.355469 397.394531 116.46875 Z M 404.410156 345.144531 C 423.128906 345.144531 438.355469 329.917969 438.355469 311.199219 C 438.355469 292.484375 423.128906 277.257812 404.410156 277.257812 C 385.691406 277.257812 370.464844 292.484375 370.464844 311.199219 C 370.464844 329.917969 385.691406 345.144531 404.410156 345.144531 Z M 404.410156 302.617188 C 409.140625 302.617188 412.996094 306.46875 412.996094 311.199219 C 412.996094 315.933594 409.140625 319.785156 404.410156 319.785156 C 399.675781 319.785156 395.824219 315.933594 395.824219 311.199219 C 395.824219 306.464844 399.675781 302.617188 404.410156 302.617188 Z M 404.410156 302.617188 " fill-opacity="1" fill-rule="nonzero"/></g></svg>