<svg xmlns="http://www.w3.org/2000/svg" xmlns:xlink="http://www.w3.org/1999/xlink" width="1080" zoomAndPan="magnify" viewBox="0 0 810 809.999993" height="1080" preserveAspectRatio="xMidYMid meet" version="1.0"><defs><clipPath id="c3a767bb56"><path d="M 0 55.179688 L 810 55.179688 L 810 754 L 0 754 Z M 0 55.179688 " clip-rule="nonzero"/></clipPath></defs><g clip-path="url(#c3a767bb56)"><path fill="#ffffff" d="M 785.332031 728.851562 L 652.9375 728.851562 L 652.9375 676.628906 C 652.9375 647.824219 676.367188 624.402344 705.164062 624.402344 L 733.109375 624.402344 C 761.902344 624.402344 785.332031 647.824219 785.332031 676.628906 Z M 719.128906 528.617188 C 738.417969 528.617188 754.117188 544.304688 754.117188 563.582031 C 754.117188 582.867188 738.417969 598.554688 719.128906 598.554688 C 699.851562 598.554688 684.167969 582.867188 684.167969 563.582031 C 684.167969 544.304688 699.855469 528.617188 719.128906 528.617188 Z M 761.503906 605.324219 C 772.089844 594.582031 778.660156 579.839844 778.660156 563.582031 C 778.660156 530.773438 751.953125 504.078125 719.128906 504.078125 C 686.316406 504.078125 659.613281 530.773438 659.613281 563.582031 C 659.613281 579.839844 666.160156 594.582031 676.769531 605.324219 C 648.460938 616.648438 628.394531 644.328125 628.394531 676.628906 L 628.394531 732.359375 C 628.394531 743.953125 637.839844 753.398438 649.445312 753.398438 L 788.839844 753.398438 C 800.433594 753.398438 809.878906 743.953125 809.878906 732.359375 L 809.878906 676.628906 C 809.878906 644.328125 789.8125 616.648438 761.503906 605.324219 Z M 290.320312 79.863281 L 439.316406 79.863281 L 439.316406 244.28125 L 404.949219 244.28125 C 399.621094 225.84375 382.589844 212.332031 362.464844 212.332031 C 342.335938 212.332031 325.316406 225.847656 319.988281 244.28125 L 290.324219 244.28125 L 290.324219 79.863281 Z M 522.128906 143.871094 C 525.441406 148.777344 554.347656 183.832031 554.636719 184.660156 L 554.667969 244.28125 L 552.980469 244.28125 C 547.648438 225.84375 530.628906 212.332031 510.511719 212.332031 C 490.375 212.332031 473.34375 225.847656 468.015625 244.28125 L 463.859375 244.28125 L 463.859375 143.871094 Z M 510.515625 276.234375 C 521.351562 276.234375 530.1875 267.410156 530.1875 256.558594 C 530.1875 245.699219 521.351562 236.875 510.515625 236.875 C 499.640625 236.875 490.828125 245.699219 490.828125 256.558594 C 490.828125 267.410156 499.640625 276.234375 510.515625 276.234375 Z M 362.464844 276.234375 C 373.324219 276.234375 382.136719 267.410156 382.136719 256.558594 C 382.136719 245.699219 373.324219 236.875 362.464844 236.875 C 351.613281 236.875 342.777344 245.699219 342.777344 256.558594 C 342.777344 267.410156 351.613281 276.234375 362.464844 276.234375 Z M 287.195312 268.824219 L 319.984375 268.824219 C 325.316406 287.261719 342.335938 300.777344 362.460938 300.777344 C 382.589844 300.777344 399.617188 287.261719 404.949219 268.824219 L 468.015625 268.824219 C 473.34375 287.261719 490.375 300.777344 510.511719 300.777344 C 530.628906 300.777344 547.648438 287.261719 552.980469 268.824219 L 566.957031 268.824219 C 573.738281 268.824219 579.234375 263.300781 579.234375 256.546875 L 579.179688 180.347656 C 579.160156 177.566406 578.214844 174.867188 576.484375 172.695312 L 541.8125 129.074219 C 540.40625 126.660156 536.125 119.316406 526.722656 119.316406 L 463.859375 119.316406 L 463.859375 76.734375 C 463.859375 64.917969 454.238281 55.316406 442.445312 55.316406 L 287.195312 55.316406 C 275.402344 55.316406 265.78125 64.921875 265.78125 76.734375 L 265.78125 247.410156 C 265.777344 259.214844 275.398438 268.824219 287.195312 268.824219 Z M 162.890625 704.917969 L 162.890625 650.667969 C 162.890625 641.644531 155.851562 634.308594 147.214844 634.308594 L 103.433594 634.308594 C 94.789062 634.308594 87.746094 641.644531 87.746094 650.667969 L 87.746094 704.917969 L 36.109375 704.917969 L 36.109375 598.054688 L 214.527344 598.054688 L 214.527344 704.917969 Z M 138.347656 704.917969 L 138.347656 658.851562 L 112.292969 658.851562 L 112.292969 704.917969 Z M 24.484375 573.121094 L 126.21875 524.757812 L 226.164062 573.058594 L 226.164062 573.507812 L 24.484375 573.507812 Z M 238.230469 551.628906 L 131.601562 500.097656 C 128.25 498.480469 124.359375 498.472656 121 500.066406 L 12.53125 551.621094 C 4.765625 555.3125 -0.0585938 562.960938 -0.0585938 571.566406 L -0.0585938 580.546875 C -0.0585938 588.132812 4.796875 594.597656 11.566406 597.023438 L 11.566406 717.183594 C 11.566406 723.960938 17.0625 729.457031 23.84375 729.457031 L 226.804688 729.457031 C 233.59375 729.457031 239.070312 723.960938 239.070312 717.183594 L 239.070312 597.023438 C 245.847656 594.597656 250.707031 588.144531 250.707031 580.546875 L 250.707031 571.523438 C 250.707031 562.972656 245.921875 555.355469 238.230469 551.628906 Z M 657.117188 482.007812 C 657.117188 420.308594 633.570312 361.828125 590.828125 317.324219 C 586.148438 312.433594 586.296875 304.671875 591.1875 299.96875 C 596.085938 295.277344 603.839844 295.433594 608.53125 300.324219 C 655.6875 349.414062 681.660156 413.9375 681.660156 482.007812 C 681.660156 488.785156 676.160156 494.273438 669.382812 494.273438 C 662.613281 494.273438 657.117188 488.785156 657.117188 482.007812 Z M 247.433594 299.96875 C 252.324219 304.671875 252.492188 312.4375 247.792969 317.328125 C 205.050781 361.828125 181.515625 420.308594 181.515625 482.007812 C 181.515625 488.789062 176.027344 494.273438 169.238281 494.273438 C 162.460938 494.273438 156.972656 488.785156 156.972656 482.007812 C 156.972656 413.941406 182.933594 349.414062 230.089844 300.328125 C 234.789062 295.4375 242.554688 295.277344 247.433594 299.96875 Z M 548.613281 696.449219 C 551.835938 702.410156 549.601562 709.847656 543.640625 713.070312 C 466.480469 754.722656 372.144531 754.757812 294.980469 713.070312 C 289.027344 709.847656 286.804688 702.410156 290.007812 696.449219 C 293.226562 690.480469 300.65625 688.242188 306.628906 691.464844 C 376.65625 729.230469 461.957031 729.234375 531.992188 691.464844 C 537.964844 688.242188 545.394531 690.480469 548.613281 696.449219 Z M 558.300781 493.457031 L 534.867188 501.074219 C 530.882812 502.363281 527.839844 505.617188 526.789062 509.6875 C 524.207031 519.75 520.199219 529.417969 514.878906 538.410156 C 512.726562 542.019531 512.59375 546.476562 514.503906 550.226562 L 525.699219 572.175781 L 509.496094 588.378906 L 487.535156 577.191406 C 483.789062 575.28125 479.339844 575.417969 475.710938 577.5625 C 466.738281 582.882812 457.074219 586.890625 446.988281 589.46875 C 442.929688 590.519531 439.675781 593.570312 438.382812 597.570312 L 430.753906 620.992188 L 407.867188 620.992188 L 400.261719 597.570312 C 398.949219 593.574219 395.707031 590.519531 391.636719 589.480469 C 381.574219 586.886719 371.910156 582.882812 362.914062 577.5625 C 359.304688 575.417969 354.835938 575.285156 351.089844 577.191406 L 329.136719 588.378906 L 312.945312 572.175781 L 324.121094 550.226562 C 326.042969 546.476562 325.894531 542.019531 323.765625 538.410156 C 318.445312 529.425781 314.4375 519.761719 311.855469 509.6875 C 310.808594 505.617188 307.753906 502.363281 303.753906 501.074219 L 280.34375 493.457031 L 280.34375 470.558594 L 303.753906 462.941406 C 307.753906 461.640625 310.804688 458.398438 311.855469 454.324219 C 314.4375 444.25 318.445312 434.585938 323.765625 425.605469 C 325.894531 421.984375 326.042969 417.535156 324.121094 413.789062 L 312.945312 391.824219 L 329.136719 375.636719 L 351.089844 386.820312 C 354.835938 388.722656 359.285156 388.585938 362.914062 386.445312 C 371.910156 381.125 381.5625 377.117188 391.636719 374.535156 C 395.707031 373.496094 398.949219 370.441406 400.261719 366.445312 L 407.867188 343.023438 L 430.753906 343.023438 L 438.382812 366.445312 C 439.675781 370.441406 442.925781 373.496094 446.988281 374.535156 C 457.074219 377.117188 466.726562 381.125 475.710938 386.445312 C 479.320312 388.585938 483.789062 388.730469 487.535156 386.820312 L 509.496094 375.636719 L 525.699219 391.824219 L 514.503906 413.789062 C 512.59375 417.53125 512.730469 421.984375 514.878906 425.605469 C 520.179688 434.585938 524.1875 444.25 526.789062 454.324219 C 527.816406 458.394531 530.882812 461.636719 534.867188 462.941406 L 558.300781 470.558594 Z M 574.355469 449.972656 L 548.6875 441.617188 C 546.242188 433.855469 543.117188 426.320312 539.339844 419.101562 L 551.605469 395.03125 C 554.019531 390.289062 553.09375 384.535156 549.347656 380.78125 L 520.542969 351.976562 C 516.777344 348.21875 511.027344 347.304688 506.285156 349.71875 L 482.222656 361.984375 C 475.003906 358.1875 467.460938 355.058594 459.707031 352.648438 L 451.363281 326.960938 C 449.703125 321.902344 444.992188 318.480469 439.671875 318.480469 L 398.949219 318.480469 C 393.625 318.480469 388.914062 321.902344 387.269531 326.960938 L 378.9375 352.636719 C 371.160156 355.0625 363.628906 358.1875 356.40625 361.988281 L 332.335938 349.722656 C 327.59375 347.308594 321.855469 348.222656 318.085938 351.976562 L 289.292969 380.78125 C 285.527344 384.539062 284.613281 390.289062 287.027344 395.03125 L 299.28125 419.101562 C 295.492188 426.324219 292.375 433.855469 289.960938 441.621094 L 264.265625 449.972656 C 259.214844 451.609375 255.796875 456.324219 255.796875 461.640625 L 255.796875 502.375 C 255.796875 507.683594 259.21875 512.40625 264.265625 514.042969 L 289.941406 522.394531 C 292.378906 530.160156 295.503906 537.695312 299.28125 544.914062 L 287.027344 568.984375 C 284.613281 573.71875 285.527344 579.46875 289.292969 583.234375 L 318.085938 612.039062 C 321.855469 615.796875 327.59375 616.707031 332.335938 614.296875 L 356.40625 602.027344 C 363.628906 605.828125 371.160156 608.945312 378.9375 611.367188 L 387.269531 637.054688 C 388.914062 642.101562 393.625 645.535156 398.949219 645.535156 L 439.671875 645.535156 C 444.992188 645.535156 449.703125 642.101562 451.363281 637.054688 L 459.707031 611.367188 C 467.460938 608.945312 475.003906 605.816406 482.222656 602.027344 L 506.285156 614.296875 C 511.027344 616.707031 516.777344 615.796875 520.542969 612.039062 L 549.347656 583.234375 C 553.09375 579.46875 554.019531 573.714844 551.605469 568.984375 L 539.339844 544.914062 C 543.136719 537.695312 546.265625 530.160156 548.6875 522.386719 L 574.355469 514.042969 C 579.414062 512.40625 582.84375 507.683594 582.84375 502.375 L 582.84375 461.640625 C 582.84375 456.320312 579.414062 451.609375 574.355469 449.972656 Z M 419.316406 546.355469 C 454.792969 546.355469 483.660156 517.488281 483.660156 482.007812 C 483.660156 446.519531 454.792969 417.664062 419.316406 417.664062 C 383.828125 417.664062 354.972656 446.519531 354.972656 482.007812 C 354.972656 517.488281 383.828125 546.355469 419.316406 546.355469 Z M 419.316406 393.121094 C 370.300781 393.121094 330.425781 432.992188 330.425781 482.007812 C 330.425781 531.023438 370.300781 570.898438 419.316406 570.898438 C 468.320312 570.898438 508.203125 531.023438 508.203125 482.007812 C 508.203125 432.992188 468.320312 393.121094 419.316406 393.121094 Z M 419.316406 393.121094 " fill-opacity="1" fill-rule="evenodd"/></g></svg>