<svg xmlns="http://www.w3.org/2000/svg" xmlns:xlink="http://www.w3.org/1999/xlink" width="1080" zoomAndPan="magnify" viewBox="0 0 810 809.999993" height="1080" preserveAspectRatio="xMidYMid meet" version="1.0"><defs><clipPath id="ba873ddbc9"><path d="M 1 18.410156 L 809 18.410156 L 809 791.660156 L 1 791.660156 Z M 1 18.410156 " clip-rule="nonzero"/></clipPath></defs><g clip-path="url(#ba873ddbc9)"><path fill="#ffffff" d="M 551.453125 791.699219 L 258.132812 791.699219 C 258.132812 735.195312 258.035156 582.515625 258.132812 538.792969 C 258.117188 537.578125 258.132812 536.359375 258.179688 535.144531 C 258.226562 533.929688 258.300781 532.714844 258.410156 531.5 C 258.515625 530.289062 258.652344 529.078125 258.820312 527.875 C 258.984375 526.667969 259.183594 525.46875 259.410156 524.273438 C 259.636719 523.078125 259.890625 521.886719 260.179688 520.703125 C 260.464844 519.519531 260.777344 518.347656 261.125 517.179688 C 261.46875 516.011719 261.839844 514.855469 262.242188 513.703125 C 262.644531 512.554688 263.078125 511.417969 263.535156 510.292969 C 263.996094 509.164062 264.480469 508.050781 264.996094 506.945312 C 265.511719 505.84375 266.054688 504.753906 266.621094 503.679688 C 267.191406 502.601562 267.785156 501.539062 268.40625 500.496094 C 269.03125 499.449219 269.675781 498.417969 270.351562 497.40625 C 271.023438 496.390625 271.722656 495.394531 272.445312 494.414062 C 273.167969 493.433594 273.914062 492.476562 274.683594 491.53125 C 275.457031 490.589844 276.25 489.667969 277.066406 488.765625 C 277.882812 487.863281 278.722656 486.984375 279.582031 486.121094 C 280.441406 485.261719 281.324219 484.421875 282.226562 483.605469 C 283.128906 482.789062 284.050781 481.996094 284.992188 481.226562 C 285.9375 480.457031 286.898438 479.707031 287.875 478.984375 C 288.855469 478.261719 289.851562 477.566406 290.867188 476.890625 C 291.878906 476.21875 292.910156 475.570312 293.957031 474.949219 C 295.003906 474.328125 296.0625 473.734375 297.140625 473.164062 C 298.214844 472.597656 299.304688 472.054688 300.410156 471.539062 C 301.511719 471.023438 302.625 470.539062 303.753906 470.078125 C 304.882812 469.621094 306.019531 469.191406 307.167969 468.789062 C 308.316406 468.386719 309.476562 468.011719 310.640625 467.667969 C 311.808594 467.324219 312.984375 467.007812 314.167969 466.722656 C 315.351562 466.4375 316.539062 466.179688 317.734375 465.953125 C 318.933594 465.726562 320.132812 465.53125 321.339844 465.363281 C 322.542969 465.199219 323.753906 465.0625 324.964844 464.957031 C 326.175781 464.847656 327.390625 464.773438 328.609375 464.726562 C 329.824219 464.679688 331.039062 464.664062 332.257812 464.679688 C 377.613281 464.566406 422.96875 464.566406 468.324219 464.679688 C 476.957031 464.4375 485.53125 465.058594 494.042969 466.539062 C 496.089844 466.972656 498.113281 467.496094 500.113281 468.105469 C 502.113281 468.71875 504.082031 469.414062 506.023438 470.195312 C 507.964844 470.976562 509.867188 471.839844 511.730469 472.785156 C 513.597656 473.734375 515.417969 474.757812 517.195312 475.859375 C 518.972656 476.964844 520.699219 478.144531 522.371094 479.398438 C 524.046875 480.648438 525.664062 481.972656 527.226562 483.367188 C 528.785156 484.757812 530.28125 486.21875 531.714844 487.742188 C 533.152344 489.261719 534.515625 490.84375 535.8125 492.484375 C 537.109375 494.128906 538.332031 495.820312 539.484375 497.566406 C 540.632812 499.316406 541.707031 501.109375 542.703125 502.949219 C 543.695312 504.789062 544.609375 506.667969 545.441406 508.585938 C 546.273438 510.507812 547.023438 512.457031 547.6875 514.441406 C 548.347656 516.425781 548.925781 518.433594 549.414062 520.46875 C 549.902344 522.5 550.304688 524.550781 550.617188 526.621094 C 550.929688 528.6875 551.148438 530.765625 551.28125 532.855469 C 551.414062 534.941406 551.457031 537.03125 551.40625 539.121094 C 551.539062 582.585938 551.453125 737.464844 551.453125 791.699219 Z M 210.296875 613.527344 C 209.078125 611.910156 207.765625 610.375 206.367188 608.914062 C 204.964844 607.453125 203.484375 606.078125 201.917969 604.792969 C 200.355469 603.507812 198.722656 602.316406 197.019531 601.222656 C 195.316406 600.128906 193.554688 599.140625 191.734375 598.253906 C 189.914062 597.371094 188.050781 596.59375 186.136719 595.929688 C 184.226562 595.261719 182.28125 594.710938 180.304688 594.277344 C 178.328125 593.839844 176.335938 593.519531 174.320312 593.320312 C 172.304688 593.121094 170.289062 593.039062 168.265625 593.074219 C 130.441406 592.917969 92.609375 592.636719 54.800781 593.074219 C 53.027344 593.046875 51.257812 593.109375 49.492188 593.261719 C 47.726562 593.414062 45.972656 593.652344 44.230469 593.984375 C 42.488281 594.3125 40.769531 594.730469 39.070312 595.230469 C 37.371094 595.734375 35.699219 596.320312 34.058594 596.992188 C 32.417969 597.664062 30.816406 598.417969 29.253906 599.253906 C 27.6875 600.085938 26.171875 600.996094 24.699219 601.984375 C 23.226562 602.972656 21.808594 604.03125 20.441406 605.160156 C 19.078125 606.292969 17.773438 607.488281 16.53125 608.75 C 15.285156 610.011719 14.109375 611.335938 12.996094 612.714844 C 11.886719 614.097656 10.847656 615.53125 9.882812 617.019531 C 8.917969 618.503906 8.03125 620.035156 7.21875 621.613281 C 6.410156 623.1875 5.679688 624.800781 5.03125 626.449219 C 4.382812 628.101562 3.820312 629.777344 3.34375 631.484375 C 2.863281 633.191406 2.472656 634.917969 2.171875 636.664062 C 1.867188 638.410156 1.652344 640.167969 1.527344 641.9375 C 1.402344 643.703125 1.363281 645.472656 1.417969 647.246094 C 1.417969 657.453125 1.417969 752.636719 1.417969 791.6875 L 221.476562 791.6875 C 221.476562 752.347656 221.476562 656.335938 221.476562 645.667969 C 221.488281 642.769531 221.257812 639.890625 220.78125 637.03125 C 220.308594 634.175781 219.59375 631.375 218.640625 628.640625 C 217.6875 625.902344 216.511719 623.265625 215.113281 620.726562 C 213.710938 618.191406 212.105469 615.789062 210.296875 613.527344 Z M 110.960938 482.886719 C 112.757812 482.902344 114.554688 482.824219 116.34375 482.664062 C 118.136719 482.5 119.914062 482.25 121.679688 481.914062 C 123.445312 481.574219 125.191406 481.152344 126.914062 480.644531 C 128.640625 480.132812 130.335938 479.542969 132.003906 478.867188 C 133.667969 478.191406 135.296875 477.4375 136.890625 476.601562 C 138.484375 475.765625 140.03125 474.855469 141.53125 473.867188 C 143.035156 472.878906 144.484375 471.820312 145.886719 470.691406 C 147.285156 469.558594 148.625 468.363281 149.90625 467.101562 C 151.1875 465.839844 152.402344 464.519531 153.554688 463.140625 C 154.707031 461.757812 155.785156 460.324219 156.796875 458.835938 C 157.808594 457.351562 158.742188 455.816406 159.605469 454.238281 C 160.464844 452.660156 161.246094 451.039062 161.945312 449.386719 C 162.648438 447.730469 163.265625 446.042969 163.800781 444.328125 C 164.335938 442.609375 164.789062 440.871094 165.152344 439.109375 C 165.515625 437.351562 165.792969 435.578125 165.984375 433.789062 C 166.175781 432 166.277344 430.207031 166.292969 428.410156 C 166.308594 426.609375 166.234375 424.816406 166.074219 423.027344 C 165.910156 421.234375 165.660156 419.457031 165.324219 417.691406 C 164.988281 415.921875 164.566406 414.179688 164.058594 412.453125 C 163.550781 410.726562 162.960938 409.03125 162.285156 407.367188 C 161.609375 405.699219 160.855469 404.070312 160.023438 402.476562 C 159.1875 400.882812 158.277344 399.335938 157.289062 397.832031 C 156.304688 396.328125 155.246094 394.878906 154.117188 393.476562 C 152.988281 392.078125 151.792969 390.738281 150.53125 389.457031 C 149.273438 388.171875 147.953125 386.957031 146.570312 385.804688 C 145.191406 384.652344 143.757812 383.570312 142.269531 382.558594 C 140.785156 381.546875 139.25 380.609375 137.671875 379.75 C 136.09375 378.886719 134.476562 378.105469 132.824219 377.402344 C 131.167969 376.703125 129.480469 376.082031 127.765625 375.546875 C 126.050781 375.007812 124.3125 374.558594 122.550781 374.191406 C 120.789062 373.824219 119.015625 373.546875 117.226562 373.355469 C 115.441406 373.164062 113.648438 373.058594 111.847656 373.042969 C 110.050781 373.027344 108.257812 373.101562 106.464844 373.261719 C 104.675781 373.421875 102.894531 373.667969 101.128906 374.003906 C 99.363281 374.339844 97.617188 374.761719 95.890625 375.269531 C 94.167969 375.773438 92.46875 376.363281 90.804688 377.039062 C 89.136719 377.710938 87.503906 378.464844 85.910156 379.296875 C 84.320312 380.132812 82.769531 381.042969 81.265625 382.027344 C 79.761719 383.011719 78.308594 384.070312 76.910156 385.199219 C 75.511719 386.328125 74.167969 387.519531 72.886719 388.78125 C 71.601562 390.039062 70.386719 391.359375 69.230469 392.738281 C 68.078125 394.121094 66.996094 395.550781 65.984375 397.039062 C 64.96875 398.523438 64.03125 400.054688 63.171875 401.632812 C 62.308594 403.210938 61.527344 404.828125 60.824219 406.484375 C 60.121094 408.136719 59.5 409.824219 58.960938 411.539062 C 58.421875 413.253906 57.972656 414.992188 57.605469 416.753906 C 57.238281 418.511719 56.957031 420.289062 56.765625 422.074219 C 56.570312 423.863281 56.46875 425.65625 56.449219 427.453125 C 56.425781 429.257812 56.488281 431.054688 56.644531 432.851562 C 56.796875 434.648438 57.039062 436.433594 57.367188 438.207031 C 57.695312 439.980469 58.113281 441.730469 58.617188 443.464844 C 59.121094 445.195312 59.707031 446.898438 60.378906 448.570312 C 61.050781 450.246094 61.800781 451.878906 62.636719 453.480469 C 63.46875 455.078125 64.378906 456.632812 65.367188 458.140625 C 66.355469 459.652344 67.414062 461.105469 68.542969 462.511719 C 69.675781 463.914062 70.875 465.261719 72.136719 466.546875 C 73.402344 467.832031 74.726562 469.050781 76.113281 470.207031 C 77.496094 471.359375 78.933594 472.445312 80.425781 473.457031 C 81.917969 474.46875 83.457031 475.40625 85.042969 476.265625 C 86.628906 477.125 88.25 477.90625 89.914062 478.605469 C 91.574219 479.304688 93.265625 479.921875 94.988281 480.453125 C 96.710938 480.984375 98.457031 481.429688 100.222656 481.789062 C 101.992188 482.148438 103.773438 482.421875 105.566406 482.605469 C 107.359375 482.789062 109.15625 482.882812 110.960938 482.886719 Z M 698.175781 482.960938 C 699.976562 482.964844 701.773438 482.878906 703.5625 482.707031 C 705.355469 482.535156 707.132812 482.273438 708.898438 481.925781 C 710.664062 481.578125 712.40625 481.144531 714.128906 480.625 C 715.851562 480.105469 717.546875 479.503906 719.210938 478.820312 C 720.871094 478.132812 722.5 477.367188 724.085938 476.523438 C 725.675781 475.675781 727.21875 474.757812 728.71875 473.757812 C 730.214844 472.761719 731.660156 471.695312 733.054688 470.554688 C 734.445312 469.417969 735.78125 468.210938 737.054688 466.941406 C 738.328125 465.671875 739.539062 464.34375 740.683594 462.953125 C 741.824219 461.566406 742.898438 460.125 743.902344 458.628906 C 744.902344 457.132812 745.832031 455.59375 746.679688 454.007812 C 747.53125 452.421875 748.304688 450.800781 748.996094 449.140625 C 749.6875 447.476562 750.292969 445.785156 750.820312 444.066406 C 751.34375 442.34375 751.785156 440.601562 752.136719 438.839844 C 752.492188 437.074219 752.757812 435.296875 752.9375 433.507812 C 753.117188 431.714844 753.207031 429.921875 753.210938 428.121094 C 753.210938 426.324219 753.128906 424.527344 752.953125 422.734375 C 752.78125 420.945312 752.519531 419.167969 752.171875 417.402344 C 751.820312 415.636719 751.386719 413.894531 750.867188 412.171875 C 750.347656 410.449219 749.746094 408.753906 749.058594 407.089844 C 748.375 405.429688 747.605469 403.800781 746.761719 402.214844 C 745.914062 400.625 744.992188 399.082031 743.996094 397.585938 C 743 396.089844 741.929688 394.644531 740.789062 393.25 C 739.652344 391.859375 738.445312 390.523438 737.175781 389.25 C 735.902344 387.976562 734.574219 386.769531 733.183594 385.625 C 731.796875 384.480469 730.351562 383.410156 728.859375 382.40625 C 727.363281 381.40625 725.824219 380.480469 724.238281 379.628906 C 722.652344 378.78125 721.027344 378.011719 719.367188 377.320312 C 717.703125 376.628906 716.011719 376.019531 714.292969 375.496094 C 712.570312 374.972656 710.828125 374.535156 709.0625 374.179688 C 707.300781 373.828125 705.523438 373.5625 703.730469 373.382812 C 701.941406 373.207031 700.144531 373.113281 698.347656 373.113281 C 696.546875 373.109375 694.753906 373.195312 692.960938 373.371094 C 691.171875 373.546875 689.394531 373.808594 687.628906 374.15625 C 685.863281 374.507812 684.117188 374.941406 682.398438 375.460938 C 680.675781 375.980469 678.980469 376.585938 677.320312 377.273438 C 675.65625 377.960938 674.03125 378.726562 672.441406 379.574219 C 670.855469 380.417969 669.3125 381.34375 667.816406 382.339844 C 666.316406 383.339844 664.875 384.40625 663.480469 385.546875 C 662.089844 386.6875 660.757812 387.894531 659.484375 389.164062 C 658.210938 390.4375 657.003906 391.765625 655.859375 393.15625 C 654.71875 394.546875 653.644531 395.988281 652.644531 397.484375 C 651.644531 398.980469 650.71875 400.519531 649.867188 402.105469 C 649.019531 403.691406 648.25 405.316406 647.558594 406.980469 C 646.871094 408.640625 646.261719 410.332031 645.738281 412.054688 C 645.214844 413.773438 644.777344 415.519531 644.425781 417.28125 C 644.074219 419.046875 643.808594 420.824219 643.632812 422.617188 C 643.453125 424.40625 643.363281 426.199219 643.363281 428 C 643.359375 429.796875 643.441406 431.589844 643.613281 433.378906 C 643.785156 435.167969 644.046875 436.945312 644.390625 438.707031 C 644.738281 440.472656 645.171875 442.214844 645.6875 443.933594 C 646.207031 445.65625 646.808594 447.347656 647.492188 449.007812 C 648.175781 450.671875 648.941406 452.292969 649.785156 453.882812 C 650.628906 455.46875 651.546875 457.007812 652.542969 458.503906 C 653.539062 460 654.605469 461.445312 655.742188 462.835938 C 656.878906 464.226562 658.082031 465.558594 659.351562 466.832031 C 660.621094 468.105469 661.949219 469.3125 663.335938 470.457031 C 664.722656 471.597656 666.164062 472.671875 667.65625 473.671875 C 669.148438 474.671875 670.6875 475.597656 672.269531 476.445312 C 673.855469 477.296875 675.476562 478.066406 677.136719 478.757812 C 678.792969 479.445312 680.484375 480.054688 682.203125 480.578125 C 683.921875 481.101562 685.664062 481.539062 687.425781 481.894531 C 689.1875 482.246094 690.960938 482.511719 692.75 482.691406 C 694.539062 482.867188 696.332031 482.957031 698.128906 482.960938 Z M 754.835938 593.074219 C 717.394531 592.832031 679.941406 592.804688 642.476562 592.988281 C 640.683594 592.945312 638.894531 592.992188 637.105469 593.128906 C 635.316406 593.265625 633.539062 593.492188 631.773438 593.8125 C 630.007812 594.128906 628.265625 594.535156 626.539062 595.03125 C 624.816406 595.527344 623.121094 596.109375 621.457031 596.777344 C 619.792969 597.445312 618.167969 598.195312 616.578125 599.027344 C 614.988281 599.863281 613.449219 600.773438 611.953125 601.761719 C 610.457031 602.753906 609.015625 603.816406 607.628906 604.953125 C 606.242188 606.089844 604.914062 607.292969 603.648438 608.566406 C 602.386719 609.839844 601.1875 611.171875 600.058594 612.5625 C 598.929688 613.957031 597.875 615.40625 596.890625 616.90625 C 595.910156 618.40625 595.003906 619.953125 594.179688 621.546875 C 593.355469 623.140625 592.613281 624.769531 591.957031 626.4375 C 591.296875 628.105469 590.722656 629.804688 590.238281 631.53125 C 589.75 633.257812 589.355469 635.003906 589.046875 636.769531 C 588.738281 638.535156 588.519531 640.3125 588.390625 642.101562 C 588.261719 643.890625 588.226562 645.683594 588.28125 647.476562 C 588.28125 657.539062 588.28125 752.773438 588.28125 791.699219 L 808.195312 791.699219 C 808.195312 758.925781 808.316406 655.753906 808.195312 646.601562 C 808.222656 644.84375 808.164062 643.089844 808.019531 641.339844 C 807.875 639.585938 807.640625 637.847656 807.320312 636.117188 C 807 634.390625 806.59375 632.683594 806.101562 630.996094 C 805.613281 629.304688 805.035156 627.648438 804.378906 626.015625 C 803.722656 624.386719 802.984375 622.792969 802.167969 621.238281 C 801.351562 619.679688 800.457031 618.167969 799.488281 616.703125 C 798.519531 615.234375 797.480469 613.820312 796.371094 612.457031 C 795.257812 611.097656 794.082031 609.792969 792.84375 608.546875 C 791.601562 607.300781 790.300781 606.121094 788.941406 605.007812 C 787.582031 603.894531 786.171875 602.847656 784.707031 601.875 C 783.246094 600.902344 781.734375 600.003906 780.183594 599.183594 C 778.628906 598.359375 777.039062 597.617188 775.410156 596.957031 C 773.78125 596.292969 772.125 595.710938 770.4375 595.214844 C 768.75 594.71875 767.046875 594.308594 765.316406 593.980469 C 763.589844 593.65625 761.851562 593.417969 760.101562 593.265625 C 758.347656 593.113281 756.59375 593.050781 754.835938 593.074219 Z M 585.464844 87.957031 C 585.042969 87.554688 584.601562 87.167969 584.144531 86.804688 C 583.6875 86.441406 583.210938 86.101562 582.71875 85.785156 C 582.226562 85.46875 581.722656 85.175781 581.203125 84.90625 C 580.683594 84.636719 580.148438 84.394531 579.605469 84.175781 C 579.0625 83.960938 578.511719 83.769531 577.949219 83.605469 C 577.386719 83.441406 576.820312 83.304688 576.246094 83.195312 C 575.667969 83.085938 575.089844 83.003906 574.507812 82.949219 C 573.925781 82.898438 573.339844 82.871094 572.757812 82.875 C 572.171875 82.875 571.585938 82.90625 571.003906 82.96875 C 570.421875 83.027344 569.84375 83.113281 569.273438 83.226562 C 568.699219 83.34375 568.132812 83.484375 567.570312 83.652344 C 567.011719 83.824219 566.460938 84.019531 565.917969 84.242188 C 565.378906 84.464844 564.847656 84.710938 564.332031 84.988281 C 563.8125 85.261719 563.3125 85.558594 562.824219 85.878906 C 562.335938 86.203125 561.863281 86.546875 561.40625 86.914062 C 560.953125 87.28125 560.515625 87.671875 560.097656 88.082031 C 556.214844 91.722656 552.449219 95.605469 548.6875 99.367188 C 539.21875 108.835938 529.632812 118.183594 520.40625 127.890625 C 519.738281 128.523438 519.121094 129.207031 518.5625 129.9375 C 518.003906 130.667969 517.503906 131.441406 517.070312 132.253906 C 516.632812 133.0625 516.265625 133.90625 515.964844 134.777344 C 515.664062 135.644531 515.4375 136.535156 515.277344 137.441406 C 515.121094 138.351562 515.035156 139.265625 515.027344 140.183594 C 515.015625 141.105469 515.078125 142.023438 515.214844 142.933594 C 515.351562 143.84375 515.558594 144.738281 515.839844 145.613281 C 516.121094 146.492188 516.46875 147.339844 516.886719 148.164062 C 517.300781 149.050781 517.785156 149.898438 518.332031 150.707031 C 518.878906 151.519531 519.488281 152.28125 520.15625 153 C 520.824219 153.714844 521.542969 154.375 522.3125 154.976562 C 523.082031 155.582031 523.898438 156.121094 524.753906 156.597656 C 525.605469 157.074219 526.496094 157.480469 527.414062 157.816406 C 528.332031 158.15625 529.269531 158.421875 530.230469 158.609375 C 531.191406 158.800781 532.160156 158.917969 533.140625 158.957031 C 534.117188 158.996094 535.09375 158.957031 536.0625 158.84375 C 539.628906 157.699219 542.90625 156 545.894531 153.746094 C 559.613281 140.636719 572.84375 127.285156 586.070312 113.691406 C 586.488281 113.261719 586.878906 112.8125 587.25 112.34375 C 587.621094 111.875 587.964844 111.390625 588.289062 110.886719 C 588.609375 110.382812 588.90625 109.867188 589.175781 109.335938 C 589.449219 108.804688 589.691406 108.257812 589.910156 107.703125 C 590.125 107.144531 590.316406 106.582031 590.476562 106.007812 C 590.636719 105.429688 590.769531 104.847656 590.871094 104.261719 C 590.976562 103.671875 591.050781 103.082031 591.09375 102.488281 C 591.140625 101.890625 591.15625 101.296875 591.140625 100.699219 C 591.125 100.101562 591.082031 99.507812 591.011719 98.914062 C 590.9375 98.320312 590.835938 97.734375 590.703125 97.152344 C 590.574219 96.570312 590.414062 95.996094 590.226562 95.429688 C 590.039062 94.859375 589.824219 94.304688 589.578125 93.761719 C 589.335938 93.214844 589.066406 92.683594 588.773438 92.164062 C 588.476562 91.644531 588.15625 91.140625 587.808594 90.65625 C 587.464844 90.167969 587.097656 89.699219 586.703125 89.25 C 586.3125 88.796875 585.898438 88.367188 585.464844 87.957031 Z M 404.855469 18.410156 C 404.261719 18.402344 403.667969 18.425781 403.074219 18.480469 C 402.484375 18.53125 401.898438 18.613281 401.3125 18.726562 C 400.730469 18.835938 400.152344 18.976562 399.582031 19.144531 C 399.015625 19.316406 398.453125 19.511719 397.90625 19.734375 C 397.355469 19.960938 396.816406 20.210938 396.292969 20.488281 C 395.765625 20.769531 395.257812 21.070312 394.761719 21.398438 C 394.269531 21.730469 393.789062 22.082031 393.332031 22.457031 C 392.871094 22.832031 392.433594 23.230469 392.011719 23.652344 C 391.589844 24.070312 391.195312 24.511719 390.816406 24.972656 C 390.441406 25.429688 390.089844 25.910156 389.761719 26.402344 C 389.429688 26.898438 389.128906 27.40625 388.851562 27.933594 C 388.570312 28.457031 388.320312 28.996094 388.097656 29.542969 C 387.871094 30.09375 387.675781 30.65625 387.507812 31.222656 C 387.335938 31.792969 387.195312 32.371094 387.085938 32.953125 C 386.972656 33.535156 386.890625 34.125 386.839844 34.714844 C 386.785156 35.308594 386.761719 35.902344 386.769531 36.496094 C 386.527344 45.71875 386.648438 54.824219 386.648438 64.046875 C 386.648438 73.273438 386.527344 82.375 386.648438 91.601562 C 386.617188 92.210938 386.621094 92.820312 386.652344 93.433594 C 386.683594 94.042969 386.75 94.652344 386.839844 95.253906 C 386.933594 95.859375 387.058594 96.457031 387.210938 97.050781 C 387.367188 97.640625 387.546875 98.226562 387.761719 98.800781 C 387.972656 99.371094 388.210938 99.933594 388.480469 100.484375 C 388.75 101.035156 389.042969 101.570312 389.367188 102.089844 C 389.6875 102.609375 390.035156 103.109375 390.410156 103.597656 C 390.78125 104.082031 391.175781 104.546875 391.597656 104.992188 C 392.015625 105.4375 392.457031 105.859375 392.917969 106.261719 C 393.378906 106.664062 393.859375 107.039062 394.359375 107.394531 C 394.859375 107.746094 395.375 108.074219 395.90625 108.375 C 396.4375 108.675781 396.984375 108.949219 397.546875 109.195312 C 398.105469 109.441406 398.675781 109.660156 399.257812 109.847656 C 399.839844 110.039062 400.429688 110.195312 401.027344 110.328125 C 401.625 110.457031 402.226562 110.554688 402.835938 110.625 C 403.441406 110.695312 404.050781 110.734375 404.664062 110.742188 C 405.277344 110.75 405.886719 110.726562 406.496094 110.675781 C 407.105469 110.621094 407.710938 110.539062 408.3125 110.421875 C 408.910156 110.308594 409.503906 110.164062 410.09375 109.992188 C 410.679688 109.820312 411.253906 109.617188 411.820312 109.386719 C 412.386719 109.152344 412.941406 108.894531 413.480469 108.609375 C 414.019531 108.320312 414.546875 108.007812 415.054688 107.667969 C 415.5625 107.328125 416.054688 106.964844 416.523438 106.574219 C 416.996094 106.1875 417.449219 105.777344 417.878906 105.339844 C 418.3125 104.90625 418.71875 104.453125 419.105469 103.976562 C 419.488281 103.503906 419.851562 103.007812 420.1875 102.5 C 420.523438 101.988281 420.832031 101.460938 421.113281 100.917969 C 421.398438 100.375 421.652344 99.820312 421.878906 99.253906 C 422.105469 98.683594 422.304688 98.105469 422.472656 97.519531 C 422.640625 96.929688 422.78125 96.335938 422.890625 95.734375 C 423 95.132812 423.078125 94.527344 423.128906 93.917969 C 423.175781 93.308594 423.195312 92.695312 423.183594 92.085938 C 423.304688 73.515625 423.425781 54.945312 423.183594 36.496094 C 423.1875 35.894531 423.160156 35.296875 423.105469 34.703125 C 423.050781 34.105469 422.964844 33.515625 422.851562 32.925781 C 422.738281 32.339844 422.59375 31.757812 422.421875 31.183594 C 422.25 30.613281 422.046875 30.046875 421.820312 29.496094 C 421.589844 28.941406 421.335938 28.402344 421.050781 27.875 C 420.769531 27.347656 420.460938 26.835938 420.125 26.335938 C 419.792969 25.839844 419.433594 25.363281 419.050781 24.902344 C 418.671875 24.441406 418.265625 24 417.839844 23.578125 C 417.414062 23.160156 416.96875 22.761719 416.5 22.382812 C 416.035156 22.007812 415.550781 21.65625 415.050781 21.328125 C 414.550781 21 414.035156 20.699219 413.503906 20.425781 C 412.972656 20.148438 412.425781 19.898438 411.871094 19.679688 C 411.316406 19.457031 410.75 19.265625 410.171875 19.097656 C 409.597656 18.933594 409.015625 18.796875 408.425781 18.691406 C 407.835938 18.585938 407.246094 18.507812 406.648438 18.460938 C 406.050781 18.414062 405.453125 18.398438 404.855469 18.410156 Z M 289.910156 128.621094 C 276.558594 114.660156 262.964844 101.066406 249.125 87.59375 C 248.707031 87.203125 248.269531 86.832031 247.8125 86.480469 C 247.359375 86.132812 246.886719 85.804688 246.402344 85.5 C 245.914062 85.195312 245.414062 84.914062 244.898438 84.660156 C 244.386719 84.402344 243.859375 84.171875 243.324219 83.96875 C 242.789062 83.761719 242.246094 83.582031 241.691406 83.429688 C 241.136719 83.277344 240.578125 83.152344 240.011719 83.050781 C 239.445312 82.953125 238.878906 82.882812 238.304688 82.835938 C 237.734375 82.792969 237.160156 82.777344 236.585938 82.789062 C 236.011719 82.800781 235.441406 82.839844 234.871094 82.902344 C 234.300781 82.96875 233.734375 83.0625 233.171875 83.183594 C 232.609375 83.304688 232.058594 83.453125 231.511719 83.628906 C 230.964844 83.804688 230.425781 84.003906 229.898438 84.230469 C 229.371094 84.457031 228.855469 84.707031 228.351562 84.984375 C 227.847656 85.257812 227.359375 85.558594 226.882812 85.882812 C 226.410156 86.203125 225.953125 86.550781 225.511719 86.917969 C 225.070312 87.285156 224.648438 87.671875 224.242188 88.082031 C 223.824219 88.460938 223.421875 88.863281 223.042969 89.28125 C 222.660156 89.703125 222.300781 90.140625 221.960938 90.59375 C 221.625 91.050781 221.308594 91.519531 221.015625 92.003906 C 220.722656 92.488281 220.453125 92.988281 220.207031 93.5 C 219.960938 94.011719 219.742188 94.535156 219.546875 95.066406 C 219.355469 95.597656 219.1875 96.140625 219.042969 96.6875 C 218.902344 97.238281 218.789062 97.792969 218.699219 98.351562 C 218.609375 98.914062 218.550781 99.476562 218.515625 100.042969 C 218.484375 100.609375 218.476562 101.175781 218.496094 101.742188 C 218.519531 102.308594 218.566406 102.871094 218.644531 103.433594 C 218.71875 103.996094 218.824219 104.554688 218.953125 105.105469 C 219.082031 105.65625 219.238281 106.203125 219.421875 106.738281 C 219.605469 107.277344 219.8125 107.804688 220.046875 108.320312 C 220.277344 108.835938 220.535156 109.339844 220.820312 109.832031 C 221.101562 110.324219 221.40625 110.800781 221.734375 111.261719 C 222.066406 111.726562 222.414062 112.171875 222.785156 112.597656 C 236.382812 126.921875 250.460938 140.878906 264.785156 154.59375 C 265.398438 155.195312 266.058594 155.746094 266.761719 156.238281 C 267.464844 156.734375 268.207031 157.171875 268.980469 157.546875 C 269.753906 157.921875 270.550781 158.234375 271.375 158.484375 C 272.199219 158.734375 273.035156 158.914062 273.890625 159.027344 C 274.742188 159.140625 275.597656 159.1875 276.457031 159.164062 C 277.320312 159.140625 278.171875 159.050781 279.015625 158.890625 C 279.863281 158.730469 280.6875 158.503906 281.5 158.210938 C 282.308594 157.917969 283.089844 157.5625 283.839844 157.144531 C 285.5 156.378906 287.027344 155.40625 288.425781 154.226562 C 289.820312 153.050781 291.039062 151.707031 292.074219 150.203125 C 293.109375 148.695312 293.929688 147.082031 294.527344 145.355469 C 295.128906 143.628906 295.492188 141.855469 295.613281 140.03125 C 294.296875 135.933594 292.398438 132.128906 289.910156 128.621094 Z M 228.25 238.710938 C 209.679688 238.46875 191.105469 238.46875 172.65625 238.710938 C 172.058594 238.714844 171.460938 238.75 170.867188 238.816406 C 170.273438 238.882812 169.683594 238.976562 169.097656 239.097656 C 168.511719 239.21875 167.933594 239.371094 167.363281 239.550781 C 166.792969 239.730469 166.230469 239.9375 165.679688 240.171875 C 165.128906 240.40625 164.59375 240.667969 164.066406 240.953125 C 163.542969 241.242188 163.035156 241.554688 162.539062 241.890625 C 162.046875 242.226562 161.570312 242.589844 161.109375 242.972656 C 160.652344 243.355469 160.210938 243.761719 159.792969 244.191406 C 159.375 244.617188 158.976562 245.0625 158.601562 245.53125 C 158.226562 245.996094 157.878906 246.480469 157.550781 246.980469 C 157.222656 247.480469 156.921875 247.996094 156.644531 248.527344 C 156.367188 249.058594 156.117188 249.601562 155.894531 250.15625 C 155.667969 250.710938 155.472656 251.273438 155.304688 251.847656 C 155.136719 252.421875 155 253.003906 154.886719 253.59375 C 154.777344 254.179688 154.695312 254.773438 154.640625 255.367188 C 154.589844 255.964844 154.566406 256.5625 154.574219 257.160156 C 154.578125 257.757812 154.613281 258.355469 154.679688 258.949219 C 154.742188 259.542969 154.835938 260.136719 154.957031 260.71875 C 155.082031 261.304688 155.230469 261.882812 155.410156 262.453125 C 155.589844 263.027344 155.796875 263.585938 156.03125 264.136719 C 156.265625 264.6875 156.527344 265.226562 156.816406 265.75 C 157.101562 266.273438 157.414062 266.785156 157.753906 267.277344 C 158.089844 267.773438 158.449219 268.25 158.835938 268.707031 C 159.21875 269.167969 159.625 269.605469 160.050781 270.023438 C 160.480469 270.441406 160.925781 270.839844 161.390625 271.214844 C 161.859375 271.589844 162.339844 271.941406 162.84375 272.269531 C 163.34375 272.59375 163.859375 272.898438 164.390625 273.175781 C 164.917969 273.449219 165.460938 273.703125 166.015625 273.925781 C 166.574219 274.148438 167.136719 274.34375 167.710938 274.511719 C 168.285156 274.679688 168.867188 274.820312 169.453125 274.929688 C 170.042969 275.039062 170.632812 275.121094 171.230469 275.175781 C 171.828125 275.226562 172.421875 275.25 173.023438 275.246094 L 199.96875 275.246094 C 209.3125 275.246094 218.660156 275.367188 228.007812 275.246094 C 228.605469 275.25 229.203125 275.222656 229.796875 275.167969 C 230.394531 275.113281 230.984375 275.03125 231.570312 274.917969 C 232.160156 274.804688 232.742188 274.664062 233.3125 274.496094 C 233.886719 274.324219 234.453125 274.125 235.007812 273.902344 C 235.558594 273.675781 236.101562 273.425781 236.632812 273.144531 C 237.160156 272.867188 237.675781 272.5625 238.175781 272.234375 C 238.675781 271.90625 239.15625 271.550781 239.621094 271.175781 C 240.085938 270.800781 240.53125 270.402344 240.957031 269.980469 C 241.382812 269.5625 241.789062 269.121094 242.171875 268.660156 C 242.554688 268.199219 242.914062 267.722656 243.25 267.226562 C 243.585938 266.734375 243.894531 266.222656 244.179688 265.695312 C 244.464844 265.171875 244.726562 264.632812 244.957031 264.082031 C 245.191406 263.53125 245.394531 262.96875 245.574219 262.398438 C 245.75 261.824219 245.898438 261.246094 246.019531 260.660156 C 246.140625 260.074219 246.234375 259.484375 246.296875 258.890625 C 246.359375 258.292969 246.390625 257.699219 246.394531 257.097656 C 246.398438 256.5 246.375 255.902344 246.320312 255.308594 C 246.265625 254.710938 246.179688 254.121094 246.066406 253.535156 C 245.953125 252.945312 245.8125 252.363281 245.644531 251.792969 C 245.472656 251.21875 245.277344 250.652344 245.050781 250.097656 C 244.824219 249.546875 244.574219 249.003906 244.296875 248.472656 C 244.015625 247.945312 243.710938 247.429688 243.382812 246.929688 C 243.054688 246.429688 242.703125 245.949219 242.324219 245.484375 C 241.949219 245.019531 241.550781 244.574219 241.128906 244.148438 C 240.710938 243.722656 240.269531 243.316406 239.808594 242.933594 C 239.351562 242.550781 238.871094 242.191406 238.378906 241.855469 C 237.882812 241.519531 237.371094 241.210938 236.847656 240.925781 C 236.320312 240.640625 235.78125 240.378906 235.230469 240.148438 C 234.679688 239.914062 234.117188 239.710938 233.546875 239.53125 C 232.976562 239.355469 232.394531 239.207031 231.808594 239.085938 C 231.222656 238.964844 230.632812 238.875 230.039062 238.8125 C 229.445312 238.746094 228.847656 238.714844 228.25 238.710938 Z M 636.445312 238.710938 C 627.582031 238.589844 618.84375 238.710938 609.984375 238.710938 C 600.636719 238.710938 591.292969 238.589844 581.945312 238.710938 C 581.347656 238.707031 580.75 238.734375 580.152344 238.792969 C 579.558594 238.847656 578.964844 238.933594 578.378906 239.046875 C 577.789062 239.164062 577.210938 239.304688 576.636719 239.476562 C 576.0625 239.648438 575.5 239.847656 574.945312 240.074219 C 574.390625 240.300781 573.851562 240.554688 573.320312 240.835938 C 572.792969 241.113281 572.277344 241.421875 571.78125 241.75 C 571.28125 242.082031 570.800781 242.4375 570.335938 242.8125 C 569.871094 243.191406 569.425781 243.59375 569.003906 244.015625 C 568.578125 244.433594 568.175781 244.875 567.792969 245.339844 C 567.410156 245.800781 567.054688 246.277344 566.71875 246.773438 C 566.386719 247.269531 566.074219 247.78125 565.792969 248.308594 C 565.507812 248.835938 565.25 249.375 565.019531 249.929688 C 564.789062 250.480469 564.585938 251.042969 564.410156 251.613281 C 564.234375 252.1875 564.085938 252.765625 563.96875 253.351562 C 563.847656 253.941406 563.757812 254.53125 563.699219 255.125 C 563.636719 255.722656 563.605469 256.320312 563.605469 256.917969 C 563.601562 257.515625 563.628906 258.113281 563.6875 258.710938 C 563.742188 259.304688 563.828125 259.894531 563.945312 260.484375 C 564.058594 261.070312 564.203125 261.652344 564.375 262.226562 C 564.546875 262.796875 564.746094 263.363281 564.972656 263.914062 C 565.199219 264.46875 565.453125 265.011719 565.734375 265.539062 C 566.015625 266.066406 566.320312 266.582031 566.652344 267.082031 C 566.984375 267.578125 567.335938 268.058594 567.714844 268.523438 C 568.09375 268.988281 568.496094 269.433594 568.917969 269.855469 C 569.339844 270.28125 569.78125 270.683594 570.242188 271.066406 C 570.703125 271.445312 571.183594 271.804688 571.679688 272.136719 C 572.175781 272.472656 572.6875 272.78125 573.214844 273.0625 C 573.742188 273.347656 574.28125 273.605469 574.832031 273.835938 C 575.386719 274.066406 575.949219 274.269531 576.519531 274.445312 C 577.09375 274.621094 577.671875 274.765625 578.257812 274.886719 C 578.847656 275.003906 579.4375 275.09375 580.03125 275.152344 C 580.628906 275.214844 581.226562 275.242188 581.824219 275.246094 C 600.152344 275.488281 618.480469 275.488281 636.929688 275.246094 C 637.542969 275.257812 638.152344 275.238281 638.761719 275.191406 C 639.371094 275.144531 639.976562 275.0625 640.578125 274.953125 C 641.179688 274.84375 641.773438 274.707031 642.363281 274.535156 C 642.949219 274.367188 643.527344 274.167969 644.097656 273.941406 C 644.664062 273.714844 645.21875 273.460938 645.761719 273.175781 C 646.304688 272.894531 646.832031 272.585938 647.34375 272.25 C 647.851562 271.914062 648.347656 271.550781 648.820312 271.167969 C 649.296875 270.78125 649.75 270.375 650.183594 269.941406 C 650.617188 269.511719 651.03125 269.058594 651.417969 268.589844 C 651.808594 268.117188 652.171875 267.625 652.511719 267.117188 C 652.851562 266.609375 653.164062 266.082031 653.453125 265.542969 C 653.738281 265.003906 653.996094 264.449219 654.230469 263.882812 C 654.460938 263.316406 654.664062 262.742188 654.835938 262.15625 C 655.007812 261.570312 655.152344 260.976562 655.265625 260.375 C 655.378906 259.773438 655.464844 259.167969 655.515625 258.558594 C 655.570312 257.949219 655.59375 257.339844 655.585938 256.726562 C 655.578125 256.117188 655.539062 255.503906 655.46875 254.898438 C 655.398438 254.289062 655.300781 253.6875 655.171875 253.089844 C 655.039062 252.492188 654.882812 251.902344 654.691406 251.320312 C 654.503906 250.738281 654.285156 250.167969 654.039062 249.609375 C 653.792969 249.046875 653.519531 248.503906 653.21875 247.96875 C 652.917969 247.4375 652.589844 246.921875 652.238281 246.421875 C 651.882812 245.921875 651.507812 245.441406 651.105469 244.980469 C 650.703125 244.519531 650.28125 244.078125 649.835938 243.660156 C 649.390625 243.238281 648.925781 242.84375 648.441406 242.472656 C 647.953125 242.097656 647.453125 241.75 646.933594 241.429688 C 646.414062 241.109375 645.878906 240.8125 645.328125 240.542969 C 644.777344 240.277344 644.214844 240.035156 643.644531 239.824219 C 643.070312 239.613281 642.484375 239.429688 641.894531 239.273438 C 641.300781 239.121094 640.703125 239 640.097656 238.90625 C 639.496094 238.8125 638.886719 238.75 638.277344 238.714844 C 637.664062 238.683594 637.054688 238.683594 636.445312 238.710938 Z M 404.101562 354.625 C 405.304688 354.640625 406.507812 354.628906 407.710938 354.582031 C 408.914062 354.539062 410.113281 354.464844 411.3125 354.363281 C 412.511719 354.257812 413.707031 354.125 414.902344 353.964844 C 416.09375 353.800781 417.28125 353.609375 418.464844 353.390625 C 419.648438 353.167969 420.824219 352.921875 421.996094 352.640625 C 423.164062 352.363281 424.328125 352.054688 425.484375 351.71875 C 426.640625 351.382812 427.789062 351.019531 428.925781 350.628906 C 430.0625 350.234375 431.191406 349.816406 432.308594 349.367188 C 433.425781 348.921875 434.53125 348.445312 435.625 347.941406 C 436.71875 347.441406 437.796875 346.910156 438.867188 346.355469 C 439.933594 345.800781 440.988281 345.21875 442.027344 344.613281 C 443.066406 344.003906 444.089844 343.371094 445.097656 342.714844 C 446.105469 342.058594 447.09375 341.375 448.070312 340.667969 C 449.042969 339.960938 450 339.230469 450.9375 338.476562 C 451.875 337.722656 452.796875 336.949219 453.695312 336.148438 C 454.597656 335.351562 455.476562 334.53125 456.335938 333.6875 C 457.195312 332.847656 458.035156 331.984375 458.851562 331.097656 C 459.667969 330.214844 460.464844 329.3125 461.234375 328.390625 C 462.007812 327.46875 462.757812 326.527344 463.484375 325.566406 C 464.210938 324.609375 464.914062 323.628906 465.59375 322.636719 C 466.269531 321.640625 466.921875 320.632812 467.550781 319.605469 C 468.179688 318.578125 468.785156 317.539062 469.359375 316.484375 C 469.9375 315.425781 470.488281 314.355469 471.015625 313.273438 C 471.539062 312.191406 472.035156 311.09375 472.507812 309.988281 C 472.976562 308.878906 473.421875 307.761719 473.835938 306.632812 C 474.253906 305.503906 474.640625 304.363281 475 303.214844 C 475.359375 302.066406 475.691406 300.910156 475.992188 299.746094 C 476.296875 298.582031 476.570312 297.410156 476.8125 296.230469 C 477.058594 295.050781 477.273438 293.867188 477.460938 292.679688 C 477.648438 291.492188 477.804688 290.296875 477.933594 289.101562 C 478.0625 287.90625 478.160156 286.707031 478.230469 285.503906 C 478.296875 284.300781 478.335938 283.101562 478.347656 281.898438 C 478.355469 280.691406 478.335938 279.492188 478.285156 278.289062 C 478.238281 277.085938 478.15625 275.886719 478.050781 274.6875 C 477.941406 273.488281 477.800781 272.292969 477.636719 271.101562 C 477.46875 269.910156 477.269531 268.722656 477.042969 267.539062 C 476.820312 266.359375 476.5625 265.183594 476.28125 264.011719 C 475.996094 262.84375 475.683594 261.679688 475.34375 260.527344 C 475 259.371094 474.632812 258.226562 474.234375 257.09375 C 473.835938 255.957031 473.410156 254.832031 472.957031 253.714844 C 472.507812 252.601562 472.027344 251.496094 471.519531 250.40625 C 471.011719 249.3125 470.476562 248.234375 469.917969 247.171875 C 469.355469 246.105469 468.769531 245.054688 468.160156 244.019531 C 467.546875 242.984375 466.910156 241.960938 466.246094 240.957031 C 465.585938 239.953125 464.898438 238.964844 464.1875 237.992188 C 463.476562 237.023438 462.742188 236.070312 461.984375 235.132812 C 461.226562 234.199219 460.445312 233.285156 459.644531 232.386719 C 458.839844 231.492188 458.015625 230.613281 457.167969 229.757812 C 456.324219 228.902344 455.457031 228.070312 454.570312 227.253906 C 453.683594 226.441406 452.777344 225.652344 451.851562 224.882812 C 450.921875 224.113281 449.980469 223.367188 449.015625 222.648438 C 448.054688 221.925781 447.074219 221.226562 446.078125 220.554688 C 445.078125 219.878906 444.066406 219.230469 443.035156 218.605469 C 442.007812 217.980469 440.964844 217.382812 439.90625 216.8125 C 438.847656 216.238281 437.773438 215.691406 436.6875 215.171875 C 435.605469 214.652344 434.507812 214.160156 433.394531 213.695312 C 432.285156 213.230469 431.167969 212.792969 430.035156 212.382812 C 428.902344 211.96875 427.761719 211.589844 426.613281 211.234375 C 425.460938 210.878906 424.304688 210.554688 423.136719 210.257812 C 421.972656 209.957031 420.800781 209.691406 419.621094 209.449219 C 418.441406 209.210938 417.253906 209 416.066406 208.820312 C 414.875 208.636719 413.683594 208.488281 412.484375 208.363281 C 411.289062 208.242188 410.089844 208.148438 408.886719 208.085938 C 407.683594 208.023438 406.480469 207.988281 405.277344 207.984375 C 404.074219 207.980469 402.871094 208.003906 401.671875 208.058594 C 400.46875 208.117188 399.269531 208.199219 398.070312 208.3125 C 396.871094 208.429688 395.675781 208.570312 394.484375 208.746094 C 393.296875 208.917969 392.109375 209.121094 390.929688 209.351562 C 389.746094 209.582031 388.574219 209.84375 387.40625 210.132812 C 386.234375 210.421875 385.074219 210.738281 383.921875 211.085938 C 382.769531 211.433594 381.628906 211.804688 380.492188 212.207031 C 379.359375 212.613281 378.234375 213.042969 377.121094 213.5 C 376.007812 213.957031 374.910156 214.441406 373.820312 214.953125 C 372.730469 215.46875 371.65625 216.003906 370.59375 216.570312 C 369.53125 217.136719 368.480469 217.726562 367.449219 218.34375 C 366.414062 218.960938 365.398438 219.601562 364.394531 220.269531 C 363.394531 220.9375 362.410156 221.628906 361.441406 222.34375 C 360.472656 223.058594 359.523438 223.796875 358.589844 224.558594 C 357.660156 225.320312 356.746094 226.105469 355.855469 226.914062 C 354.960938 227.71875 354.089844 228.546875 353.238281 229.398438 C 352.386719 230.246094 351.554688 231.117188 350.746094 232.007812 C 349.9375 232.898438 349.148438 233.808594 348.386719 234.738281 C 347.621094 235.667969 346.878906 236.617188 346.164062 237.582031 C 345.445312 238.550781 344.75 239.53125 344.082031 240.53125 C 343.414062 241.53125 342.769531 242.550781 342.148438 243.582031 C 341.53125 244.613281 340.9375 245.660156 340.371094 246.722656 C 339.800781 247.78125 339.261719 248.855469 338.746094 249.945312 C 338.230469 251.03125 337.742188 252.132812 337.28125 253.242188 C 336.820312 254.355469 336.390625 255.476562 335.984375 256.613281 C 335.578125 257.746094 335.203125 258.886719 334.851562 260.039062 C 334.503906 261.191406 334.183594 262.351562 333.890625 263.519531 C 333.597656 264.683594 333.335938 265.859375 333.101562 267.039062 C 332.867188 268.21875 332.660156 269.40625 332.484375 270.597656 C 332.308594 271.785156 332.164062 272.980469 332.046875 274.179688 C 331.929688 275.375 331.84375 276.578125 331.785156 277.777344 C 331.726562 278.980469 331.699219 280.183594 331.699219 281.386719 C 331.699219 282.578125 331.722656 283.769531 331.78125 284.957031 C 331.835938 286.144531 331.921875 287.332031 332.035156 288.519531 C 332.148438 289.703125 332.292969 290.886719 332.464844 292.0625 C 332.632812 293.242188 332.835938 294.414062 333.0625 295.582031 C 333.292969 296.75 333.550781 297.914062 333.835938 299.070312 C 334.121094 300.222656 334.433594 301.371094 334.777344 302.511719 C 335.117188 303.652344 335.488281 304.785156 335.886719 305.90625 C 336.28125 307.03125 336.707031 308.140625 337.160156 309.242188 C 337.609375 310.34375 338.085938 311.433594 338.59375 312.511719 C 339.097656 313.589844 339.628906 314.65625 340.183594 315.707031 C 340.742188 316.761719 341.324219 317.800781 341.929688 318.824219 C 342.539062 319.847656 343.167969 320.855469 343.828125 321.847656 C 344.484375 322.839844 345.164062 323.816406 345.867188 324.777344 C 346.574219 325.738281 347.300781 326.679688 348.050781 327.605469 C 348.800781 328.527344 349.574219 329.433594 350.367188 330.320312 C 351.164062 331.207031 351.976562 332.074219 352.816406 332.921875 C 353.652344 333.765625 354.507812 334.59375 355.386719 335.398438 C 356.265625 336.203125 357.160156 336.984375 358.074219 337.746094 C 358.992188 338.507812 359.925781 339.246094 360.875 339.960938 C 361.828125 340.675781 362.796875 341.367188 363.78125 342.035156 C 364.769531 342.703125 365.769531 343.347656 366.785156 343.964844 C 367.804688 344.585938 368.835938 345.179688 369.878906 345.75 C 370.925781 346.316406 371.984375 346.859375 373.058594 347.375 C 374.128906 347.894531 375.214844 348.382812 376.3125 348.847656 C 377.40625 349.3125 378.515625 349.75 379.632812 350.160156 C 380.75 350.570312 381.875 350.953125 383.011719 351.304688 C 384.148438 351.660156 385.292969 351.988281 386.445312 352.289062 C 387.597656 352.585938 388.757812 352.855469 389.921875 353.097656 C 391.089844 353.339844 392.257812 353.554688 393.433594 353.742188 C 394.613281 353.925781 395.792969 354.082031 396.976562 354.210938 C 398.160156 354.335938 399.34375 354.4375 400.535156 354.503906 C 401.722656 354.574219 402.910156 354.617188 404.101562 354.625 Z M 404.101562 354.625 " fill-opacity="1" fill-rule="nonzero"/></g></svg>