<?xml version="1.0" encoding="UTF-8"?>
<!DOCTYPE svg PUBLIC "-//W3C//DTD SVG 1.1//EN" "http://www.w3.org/Graphics/SVG/1.1/DTD/svg11.dtd">
<svg xmlns="http://www.w3.org/2000/svg" version="1.1" width="320px" height="75px" style="shape-rendering:geometricPrecision; text-rendering:geometricPrecision; image-rendering:optimizeQuality; fill-rule:evenodd; clip-rule:evenodd" xmlns:xlink="http://www.w3.org/1999/xlink">
<g><path style="opacity:0.973" fill="#3e0794" d="M 54.5,-0.5 C 59.1667,-0.5 63.8333,-0.5 68.5,-0.5C 88.3134,5.85369 97.1468,19.5204 95,40.5C 88.5665,61.5813 74.3999,70.4146 52.5,67C 43.7013,64.4506 37.0346,59.2839 32.5,51.5C 33.1667,51.5 33.5,51.1667 33.5,50.5C 34.1667,50.5 34.5,50.1667 34.5,49.5C 35.1667,49.5 35.5,49.1667 35.5,48.5C 36.1667,48.5 36.5,48.1667 36.5,47.5C 37.1667,47.5 37.8333,47.5 38.5,47.5C 47.9883,60.0391 59.9883,63.2058 74.5,57C 78.0705,54.9322 80.7371,52.0988 82.5,48.5C 85.1648,46.1645 86.4982,43.1645 86.5,39.5C 87.6453,35.6888 87.8119,31.6888 87,27.5C 86.5283,23.8895 85.0283,20.8895 82.5,18.5C 81.7974,16.2843 80.4641,14.451 78.5,13C 66.5807,5.3999 54.914,5.73323 43.5,14C 30.8333,26.6667 18.1667,39.3333 5.5,52C 4.83333,52.6667 4.16667,52.6667 3.5,52C 2.29493,50.6244 0.961599,49.4577 -0.5,48.5C -0.5,47.8333 -0.5,47.1667 -0.5,46.5C 4.29788,42.2033 8.96455,37.7033 13.5,33C 10.3699,30.872 7.53656,28.372 5,25.5C 4.31232,24.6683 4.47899,24.0016 5.5,23.5C 6.646,22.8551 7.646,22.0217 8.5,21C 12.7097,21.8443 15.8764,24.3443 18,28.5C 18.5,28 19,27.5 19.5,27C 16.6503,24.3176 13.9836,21.4843 11.5,18.5C 12.8333,16.5 14.5,14.8333 16.5,13.5C 19.4843,15.9836 22.3176,18.6503 25,21.5C 25.5,21 26,20.5 26.5,20C 23.3699,17.872 20.5366,15.372 18,12.5C 18.7918,10.5217 20.2918,8.85505 22.5,7.5C 25.5105,10.0115 28.3439,12.6782 31,15.5C 37.4109,7.89645 45.2443,2.56311 54.5,-0.5 Z M 75.5,24.5 C 69.0736,17.4008 61.4069,15.7341 52.5,19.5C 53.0577,18.2101 54.0577,17.3768 55.5,17C 61.0642,15.99 66.3975,16.6567 71.5,19C 73.4641,20.451 74.7974,22.2843 75.5,24.5 Z M 82.5,18.5 C 85.0283,20.8895 86.5283,23.8895 87,27.5C 87.8119,31.6888 87.6453,35.6888 86.5,39.5C 87.1923,32.075 85.8589,25.075 82.5,18.5 Z M 75.5,24.5 C 76.9663,25.347 77.7996,26.6803 78,28.5C 80.0827,37.4567 77.2494,44.1233 69.5,48.5C 77.436,42.0188 79.436,34.0188 75.5,24.5 Z M 49.5,34.5 C 52.4448,29.7105 56.6115,26.7105 62,25.5C 68.3911,26.931 70.7245,30.931 69,37.5C 67.1551,40.183 64.6551,41.8497 61.5,42.5C 56.8222,40.8293 52.8222,38.1627 49.5,34.5 Z M 45.5,38.5 C 50.654,48.4048 58.654,51.7381 69.5,48.5C 63.5547,52.4731 57.5547,52.3065 51.5,48C 49.1311,44.7742 46.1311,42.6076 42.5,41.5C 43.1667,40.1667 44.1667,39.1667 45.5,38.5 Z M 86.5,39.5 C 86.4982,43.1645 85.1648,46.1645 82.5,48.5C 83.5969,45.3135 84.9303,42.3135 86.5,39.5 Z M 38.5,45.5 C 38.5,46.1667 38.5,46.8333 38.5,47.5C 37.8333,47.5 37.1667,47.5 36.5,47.5C 36.8333,46.5 37.5,45.8333 38.5,45.5 Z M 38.5,47.5 C 42.6565,50.8105 46.9898,53.9772 51.5,57C 63.8441,61.159 74.1775,58.3256 82.5,48.5C 80.7371,52.0988 78.0705,54.9322 74.5,57C 59.9883,63.2058 47.9883,60.0391 38.5,47.5 Z"/></g>
<g><path style="opacity:0.975" fill="#3e0794" d="M 82.5,18.5 C 85.8589,25.075 87.1923,32.075 86.5,39.5C 84.9303,42.3135 83.5969,45.3135 82.5,48.5C 74.1775,58.3256 63.8441,61.159 51.5,57C 46.9898,53.9772 42.6565,50.8105 38.5,47.5C 38.5,46.8333 38.5,46.1667 38.5,45.5C 39.1667,45.5 39.5,45.1667 39.5,44.5C 40.1667,44.5 40.5,44.1667 40.5,43.5C 41.1667,43.5 41.5,43.1667 41.5,42.5C 42.1667,42.5 42.5,42.1667 42.5,41.5C 46.1311,42.6076 49.1311,44.7742 51.5,48C 57.5547,52.3065 63.5547,52.4731 69.5,48.5C 77.2494,44.1233 80.0827,37.4567 78,28.5C 77.7996,26.6803 76.9663,25.347 75.5,24.5C 74.7974,22.2843 73.4641,20.451 71.5,19C 66.3975,16.6567 61.0642,15.99 55.5,17C 54.0577,17.3768 53.0577,18.2101 52.5,19.5C 51.8333,19.5 51.5,19.8333 51.5,20.5C 50.7611,20.369 50.0944,20.5357 49.5,21C 36.6527,34.0141 23.6527,46.8475 10.5,59.5C 8.61324,57.4945 7.11324,55.4945 6,53.5C 19.8621,39.304 34.0287,25.4707 48.5,12C 61.4312,5.90025 72.7646,8.06692 82.5,18.5 Z M 75.5,24.5 C 69.0736,17.4008 61.4069,15.7341 52.5,19.5C 53.0577,18.2101 54.0577,17.3768 55.5,17C 61.0642,15.99 66.3975,16.6567 71.5,19C 73.4641,20.451 74.7974,22.2843 75.5,24.5 Z M 75.5,24.5 C 76.9663,25.347 77.7996,26.6803 78,28.5C 80.0827,37.4567 77.2494,44.1233 69.5,48.5C 77.436,42.0188 79.436,34.0188 75.5,24.5 Z M 49.5,34.5 C 52.8222,38.1627 56.8222,40.8293 61.5,42.5C 64.6551,41.8497 67.1551,40.183 69,37.5C 70.7245,30.931 68.3911,26.931 62,25.5C 56.6115,26.7105 52.4448,29.7105 49.5,34.5 Z M 45.5,38.5 C 50.654,48.4048 58.654,51.7381 69.5,48.5C 63.5547,52.4731 57.5547,52.3065 51.5,48C 49.1311,44.7742 46.1311,42.6076 42.5,41.5C 43.1667,40.1667 44.1667,39.1667 45.5,38.5 Z M 38.5,45.5 C 38.5,46.1667 38.5,46.8333 38.5,47.5C 37.8333,47.5 37.1667,47.5 36.5,47.5C 36.8333,46.5 37.5,45.8333 38.5,45.5 Z"/></g>
<g><path style="opacity:0.95" fill="#3e0793" d="M 104.5,10.5 C 113.506,10.3336 122.506,10.5002 131.5,11C 141.063,15.3597 144.23,22.5263 141,32.5C 138.571,37.2664 134.737,40.0998 129.5,41C 124.511,41.4993 119.511,41.6659 114.5,41.5C 114.5,46.5 114.5,51.5 114.5,56.5C 111.167,56.5 107.833,56.5 104.5,56.5C 104.5,41.1667 104.5,25.8333 104.5,10.5 Z M 114.5,19.5 C 119.179,19.3342 123.845,19.5008 128.5,20C 132.315,22.2175 133.315,25.3842 131.5,29.5C 130.335,30.5836 129.002,31.4169 127.5,32C 123.179,32.499 118.846,32.6657 114.5,32.5C 114.5,28.1667 114.5,23.8333 114.5,19.5 Z"/></g>
<g><path style="opacity:0.973" fill="#3e0794" d="M 206.5,28.5 C 206.5,28.1667 206.5,27.8333 206.5,27.5C 206.5,25.5 206.5,23.5 206.5,21.5C 208.167,21.5 209.833,21.5 211.5,21.5C 209.151,12.3444 212.318,9.34442 221,12.5C 221.498,15.4816 221.665,18.4816 221.5,21.5C 224.247,21.1866 226.914,21.52 229.5,22.5C 228.626,24.7466 228.292,27.0799 228.5,29.5C 226.167,29.5 223.833,29.5 221.5,29.5C 221.5,35.8333 221.5,42.1667 221.5,48.5C 227.702,47.3657 230.035,49.699 228.5,55.5C 223.186,58.476 218.353,57.8093 214,53.5C 213.027,51.6079 212.36,49.6079 212,47.5C 211.501,41.5092 211.334,35.5092 211.5,29.5C 209.708,29.634 208.042,29.3007 206.5,28.5 Z"/></g>
<g><path style="opacity:0.937" fill="#3e0893" d="M 263.5,29.5 C 263.5,26.8333 263.5,24.1667 263.5,21.5C 265.167,21.5 266.833,21.5 268.5,21.5C 268.5,18.1667 268.5,14.8333 268.5,11.5C 271.5,11.5 274.5,11.5 277.5,11.5C 277.5,14.8333 277.5,18.1667 277.5,21.5C 280.167,21.5 282.833,21.5 285.5,21.5C 285.5,24.1667 285.5,26.8333 285.5,29.5C 282.833,29.5 280.167,29.5 277.5,29.5C 277.334,35.1764 277.501,40.8431 278,46.5C 278.667,47.8333 279.667,48.8333 281,49.5C 282.049,48.4829 283.216,48.3162 284.5,49C 287.7,54.9907 285.7,57.824 278.5,57.5C 274.456,56.9676 271.289,54.9676 269,51.5C 268.5,44.1742 268.334,36.8409 268.5,29.5C 266.833,29.5 265.167,29.5 263.5,29.5 Z"/></g>
<g><path style="opacity:0.988" fill="#3e0793" d="M 75.5,24.5 C 79.436,34.0188 77.436,42.0188 69.5,48.5C 58.654,51.7381 50.654,48.4048 45.5,38.5C 44.1667,39.1667 43.1667,40.1667 42.5,41.5C 41.8333,41.5 41.5,41.8333 41.5,42.5C 40.8333,42.5 40.5,42.8333 40.5,43.5C 39.8333,43.5 39.5,43.8333 39.5,44.5C 38.8333,44.5 38.5,44.8333 38.5,45.5C 37.5,45.8333 36.8333,46.5 36.5,47.5C 35.8333,47.5 35.5,47.8333 35.5,48.5C 34.8333,48.5 34.5,48.8333 34.5,49.5C 33.8333,49.5 33.5,49.8333 33.5,50.5C 32.8333,50.5 32.5,50.8333 32.5,51.5C 27.7021,55.7967 23.0355,60.2967 18.5,65C 17.5,65.6667 16.5,65.6667 15.5,65C 14.0552,63.2897 13.2218,61.4564 13,59.5C 26.0353,46.6318 38.8686,33.6318 51.5,20.5C 52.1667,20.5 52.5,20.1667 52.5,19.5C 61.4069,15.7341 69.0736,17.4008 75.5,24.5 Z M 49.5,34.5 C 52.8222,38.1627 56.8222,40.8293 61.5,42.5C 64.6551,41.8497 67.1551,40.183 69,37.5C 70.7245,30.931 68.3911,26.931 62,25.5C 56.6115,26.7105 52.4448,29.7105 49.5,34.5 Z M 38.5,45.5 C 38.5,46.1667 38.5,46.8333 38.5,47.5C 37.8333,47.5 37.1667,47.5 36.5,47.5C 36.8333,46.5 37.5,45.8333 38.5,45.5 Z"/></g>
<g><path style="opacity:0.974" fill="#3e0793" d="M 206.5,27.5 C 206.5,27.8333 206.5,28.1667 206.5,28.5C 207.387,37.8006 207.721,47.1339 207.5,56.5C 204.5,56.5 201.5,56.5 198.5,56.5C 198.666,49.4921 198.5,42.4921 198,35.5C 196.764,29.7803 193.264,27.947 187.5,30C 186.667,30.8333 185.833,31.6667 185,32.5C 184.5,40.4931 184.334,48.4931 184.5,56.5C 181.5,56.5 178.5,56.5 175.5,56.5C 175.5,44.8333 175.5,33.1667 175.5,21.5C 179.111,21.0441 182.444,21.7108 185.5,23.5C 193.642,18.7116 200.642,20.0449 206.5,27.5 Z"/></g>
<g><path style="opacity:0.966" fill="#3e0793" d="M 263.5,29.5 C 268.473,43.055 264.139,52.2217 250.5,57C 234.334,57.4983 227.168,49.6649 229,33.5C 235.216,20.7614 244.716,17.5947 257.5,24C 259.37,26.0396 261.37,27.8729 263.5,29.5 Z M 246.5,28.5 C 255.477,31.254 257.977,36.9207 254,45.5C 248.807,50.4712 243.807,50.1379 239,44.5C 235.881,36.4073 238.381,31.074 246.5,28.5 Z"/></g>
<g><path style="opacity:0.972" fill="#3e0794" d="M 319.5,34.5 C 319.5,37.1667 319.5,39.8333 319.5,42.5C 311.16,42.3336 302.827,42.5003 294.5,43C 299.342,49.4067 305.175,50.2401 312,45.5C 313.667,47.1667 315.333,48.8333 317,50.5C 317.617,51.4491 317.451,52.2825 316.5,53C 299.732,61.8256 289.066,57.1589 284.5,39C 287.291,23.212 296.291,17.8787 311.5,23C 315.298,26.1117 317.964,29.9451 319.5,34.5 Z M 298.5,29.5 C 303.538,28.4482 307.538,29.9482 310.5,34C 305.467,34.8289 300.467,34.6623 295.5,33.5C 296.524,32.1482 297.524,30.8149 298.5,29.5 Z"/></g>
<g><path style="opacity:0.966" fill="#3e0793" d="M 152.5,20.5 C 160.022,19.3943 166.189,21.7277 171,27.5C 172.42,37.0862 172.92,46.7529 172.5,56.5C 168.889,56.9559 165.556,56.2892 162.5,54.5C 153.638,59.6706 146.472,58.004 141,49.5C 139.632,43.7309 141.466,39.2309 146.5,36C 151.968,34.2398 157.468,34.0731 163,35.5C 163.56,32.04 162.06,29.8733 158.5,29C 154.709,28.409 151.042,28.909 147.5,30.5C 144.892,28.9563 143.558,26.6229 143.5,23.5C 146.785,23.0719 149.785,22.0719 152.5,20.5 Z M 151.5,41.5 C 155.5,41.5 159.5,41.5 163.5,41.5C 163.751,46.9239 161.084,49.9239 155.5,50.5C 149.995,49.168 148.662,46.168 151.5,41.5 Z"/></g>
<g><path style="opacity:0.568" fill="#3f0896" d="M 280.5,74.5 C 279.5,74.5 278.5,74.5 277.5,74.5C 277.5,70.8333 277.5,67.1667 277.5,63.5C 278.5,63.5 279.5,63.5 280.5,63.5C 280.5,67.1667 280.5,70.8333 280.5,74.5 Z"/></g>
<g><path style="opacity:0.64" fill="#3e0794" d="M 291.5,74.5 C 289.5,74.5 287.5,74.5 285.5,74.5C 282.03,71.4818 281.696,68.1484 284.5,64.5C 290.789,61.9887 293.956,63.9887 294,70.5C 293.338,71.9839 292.504,73.3172 291.5,74.5 Z M 286.5,66.5 C 290.161,66.3501 291.161,67.8501 289.5,71C 288.551,71.6172 287.718,71.4506 287,70.5C 286.51,69.2068 286.343,67.8734 286.5,66.5 Z"/></g>
<g><path style="opacity:0.659" fill="#3e0795" d="M 316.5,74.5 C 314.167,74.5 311.833,74.5 309.5,74.5C 308.766,73.2921 308.433,71.9587 308.5,70.5C 312.243,70.5408 312.41,69.8741 309,68.5C 308.28,66.8876 308.446,65.3876 309.5,64C 311.833,63.3333 314.167,63.3333 316.5,64C 316.957,64.414 317.291,64.914 317.5,65.5C 315.922,66.2978 314.256,66.7978 312.5,67C 317.029,67.8283 318.363,70.3283 316.5,74.5 Z"/></g>
<g><path style="opacity:0.608" fill="#3f0896" d="M 252.5,74.5 C 249.833,74.5 247.167,74.5 244.5,74.5C 244.5,70.8333 244.5,67.1667 244.5,63.5C 245.5,63.5 246.5,63.5 247.5,63.5C 247.5,66.1667 247.5,68.8333 247.5,71.5C 249.167,71.5 250.833,71.5 252.5,71.5C 252.5,72.5 252.5,73.5 252.5,74.5 Z"/></g>
<g><path style="opacity:0.886" fill="#3e0795" d="M 227.5,74.5 C 225.5,74.5 223.5,74.5 221.5,74.5C 218.825,72.6244 219.158,71.1244 222.5,70C 220.637,68.5822 220.137,66.7489 221,64.5C 223.381,63.565 225.881,63.2317 228.5,63.5C 228.579,64.9305 228.246,66.2638 227.5,67.5C 230.148,69.8684 230.148,72.2017 227.5,74.5 Z"/></g>
<g><path style="opacity:0.986" fill="#3e0794" d="M 306.5,74.5 C 305.5,74.5 304.5,74.5 303.5,74.5C 300.975,69.8046 299.642,69.8046 299.5,74.5C 298.5,74.5 297.5,74.5 296.5,74.5C 296.5,70.8333 296.5,67.1667 296.5,63.5C 298.903,63.393 300.736,64.393 302,66.5C 302.483,65.552 302.649,64.552 302.5,63.5C 303.833,63.5 305.167,63.5 306.5,63.5C 306.5,67.1667 306.5,70.8333 306.5,74.5 Z"/></g>
<g><path style="opacity:0.843" fill="#3f0893" d="M 239.5,74.5 C 237.5,74.5 235.5,74.5 233.5,74.5C 229.973,71.3492 229.64,67.8492 232.5,64C 242.316,62.82 244.65,66.32 239.5,74.5 Z M 235.5,66.5 C 238.956,67.5362 239.29,69.2029 236.5,71.5C 234.296,70.218 233.962,68.5514 235.5,66.5 Z"/></g>
<g><path style="opacity:0.995" fill="#3f0794" d="M 261.5,74.5 C 259.833,74.5 258.167,74.5 256.5,74.5C 254.676,71.1538 254.01,67.4872 254.5,63.5C 255.5,63.5 256.5,63.5 257.5,63.5C 257.337,65.8568 257.503,68.1902 258,70.5C 258.414,70.9574 258.914,71.2907 259.5,71.5C 260.314,69.2338 260.814,66.9005 261,64.5C 262,63.1667 263,63.1667 264,64.5C 265.137,68.4631 264.303,71.7964 261.5,74.5 Z"/></g>
<g><path style="opacity:0.614" fill="#3e0794" d="M 272.5,74.5 C 271.5,74.5 270.5,74.5 269.5,74.5C 269.5,71.8333 269.5,69.1667 269.5,66.5C 268.167,66.5 266.833,66.5 265.5,66.5C 265.5,65.5 265.5,64.5 265.5,63.5C 268.833,63.5 272.167,63.5 275.5,63.5C 275.5,64.5 275.5,65.5 275.5,66.5C 274.5,66.5 273.5,66.5 272.5,66.5C 272.5,69.1667 272.5,71.8333 272.5,74.5 Z"/></g>
</svg>
