<?xml version="1.0" encoding="UTF-8"?>
<!DOCTYPE svg PUBLIC "-//W3C//DTD SVG 1.1//EN" "http://www.w3.org/Graphics/SVG/1.1/DTD/svg11.dtd">
<svg xmlns="http://www.w3.org/2000/svg" version="1.1" width="1770px" height="2048px" style="shape-rendering:geometricPrecision; text-rendering:geometricPrecision; image-rendering:optimizeQuality; fill-rule:evenodd; clip-rule:evenodd" xmlns:xlink="http://www.w3.org/1999/xlink">
<g><path style="opacity:0.994" fill="#25bec9" d="M -0.5,-0.5 C 186.5,-0.5 373.5,-0.5 560.5,-0.5C 646.078,3.13875 725.078,27.6387 797.5,73C 899.616,142.678 955.783,239.512 966,363.5C 972.886,464.356 945.886,554.69 885,634.5C 841.404,687.083 787.904,726.249 724.5,752C 816.695,882.695 908.695,1013.53 1000.5,1144.5C 892.168,1145.67 783.835,1145.83 675.5,1145C 591.833,1026 508.167,907 424.5,788C 378.168,787.5 331.835,787.333 285.5,787.5C 285.5,906.833 285.5,1026.17 285.5,1145.5C 190.167,1145.5 94.8333,1145.5 -0.5,1145.5C -0.5,916.5 -0.5,687.5 -0.5,458.5C 96.8333,458.5 194.167,458.5 291.5,458.5C 273.072,518.277 254.572,577.944 236,637.5C 288.351,599.495 340.684,561.495 393,523.5C 442.905,559.872 492.738,596.372 542.5,633C 545.278,634.529 547.945,635.862 550.5,637C 530.217,575.537 510.55,513.87 491.5,452C 491.833,451.167 492.167,450.333 492.5,449.5C 543.817,412.841 595.484,376.674 647.5,341C 583.834,340.5 520.168,340.333 456.5,340.5C 435.444,276.831 414.277,213.165 393,149.5C 371.545,211.642 350.545,273.975 330,336.5C 329.586,336.957 329.086,337.291 328.5,337.5C 218.874,336.502 109.207,336.169 -0.5,336.5C -0.5,224.167 -0.5,111.833 -0.5,-0.5 Z"/></g>
<g><path style="opacity:0.953" fill="#16435a" d="M 305.5,1319.5 C 328.784,1317.16 350.784,1321.32 371.5,1332C 378.207,1335.35 384.207,1339.69 389.5,1345C 382.661,1354.66 375.661,1364.16 368.5,1373.5C 353.623,1361.57 336.623,1354.9 317.5,1353.5C 305.953,1352.85 297.453,1357.52 292,1367.5C 291.333,1370.83 291.333,1374.17 292,1377.5C 293.793,1380.3 295.96,1382.8 298.5,1385C 304.275,1387.92 310.275,1390.26 316.5,1392C 334.8,1395.32 352.467,1400.66 369.5,1408C 392.099,1421.49 399.599,1440.99 392,1466.5C 383.83,1487.99 368.33,1500.82 345.5,1505C 306.541,1511.51 272.208,1502.01 242.5,1476.5C 249.845,1466.99 257.678,1457.99 266,1449.5C 276.494,1457.67 287.994,1464.17 300.5,1469C 315.281,1473.68 329.948,1473.51 344.5,1468.5C 354.265,1461.52 355.932,1453.02 349.5,1443C 346.066,1440.57 342.4,1438.57 338.5,1437C 324.531,1433.21 310.531,1429.54 296.5,1426C 251.656,1412.81 239.823,1385.31 261,1343.5C 272.917,1330.08 287.751,1322.08 305.5,1319.5 Z"/></g>
<g><path style="opacity:0.957" fill="#16435a" d="M 775.5,1319.5 C 808.368,1316.73 836.868,1326.4 861,1348.5C 861.667,1349.5 861.667,1350.5 861,1351.5C 851.326,1359.68 841.826,1368.01 832.5,1376.5C 812.091,1354.99 788.425,1350.49 761.5,1363C 735.59,1380.06 727.09,1403.56 736,1433.5C 749.809,1462.65 772.642,1474.15 804.5,1468C 810.446,1465.69 816.112,1462.86 821.5,1459.5C 822.498,1450.52 822.832,1441.52 822.5,1432.5C 808.5,1432.5 794.5,1432.5 780.5,1432.5C 780.5,1422.17 780.5,1411.83 780.5,1401.5C 807.5,1401.5 834.5,1401.5 861.5,1401.5C 861.667,1426.84 861.5,1452.17 861,1477.5C 827.94,1507.1 790.44,1514.26 748.5,1499C 698.155,1472.47 681.321,1431.97 698,1377.5C 708.866,1354.3 726.033,1337.47 749.5,1327C 758.114,1323.85 766.781,1321.35 775.5,1319.5 Z"/></g>
<g><path style="opacity:0.958" fill="#16435a" d="M 2.5,1322.5 C 32.5019,1322.33 62.5019,1322.5 92.5,1323C 133.265,1328.42 153.098,1351.59 152,1392.5C 147.949,1416.11 134.782,1432.27 112.5,1441C 127.028,1461.36 141.361,1481.86 155.5,1502.5C 155.291,1503.09 154.957,1503.59 154.5,1504C 140.167,1504.67 125.833,1504.67 111.5,1504C 97.2552,1484.84 83.2552,1465.51 69.5,1446C 60.5062,1445.5 51.5062,1445.33 42.5,1445.5C 42.6666,1464.84 42.5,1484.17 42,1503.5C 29,1504.83 16,1504.83 3,1503.5C 2.50001,1443.17 2.33334,1382.83 2.5,1322.5 Z M 42.5,1359.5 C 57.1705,1359.33 71.8371,1359.5 86.5,1360C 104.953,1362.78 112.787,1373.28 110,1391.5C 105.097,1401.72 96.9303,1407.22 85.5,1408C 71.1705,1408.5 56.8372,1408.67 42.5,1408.5C 42.5,1392.17 42.5,1375.83 42.5,1359.5 Z"/></g>
<g><path style="opacity:0.96" fill="#16435a" d="M 180.5,1322.5 C 193.833,1322.5 207.167,1322.5 220.5,1322.5C 220.667,1382.83 220.5,1443.17 220,1503.5C 213.577,1504.16 207.077,1504.49 200.5,1504.5C 193.923,1504.49 187.423,1504.16 181,1503.5C 180.5,1443.17 180.333,1382.83 180.5,1322.5 Z"/></g>
<g><path style="opacity:0.984" fill="#16435a" d="M 421.5,1322.5 C 434.5,1322.5 447.5,1322.5 460.5,1322.5C 460.5,1383.17 460.5,1443.83 460.5,1504.5C 447.587,1504.82 434.754,1504.49 422,1503.5C 421.5,1443.17 421.333,1382.83 421.5,1322.5 Z"/></g>
<g><path style="opacity:0.966" fill="#16435a" d="M 497.5,1322.5 C 510.837,1322.33 524.171,1322.5 537.5,1323C 565.545,1360.92 593.712,1398.76 622,1436.5C 622.5,1398.5 622.667,1360.5 622.5,1322.5C 635.833,1322.5 649.167,1322.5 662.5,1322.5C 662.667,1382.83 662.5,1443.17 662,1503.5C 649.242,1504.66 636.409,1504.82 623.5,1504C 594.082,1466.36 565.249,1428.19 537,1389.5C 536.667,1427.5 536.333,1465.5 536,1503.5C 523.333,1504.83 510.667,1504.83 498,1503.5C 497.5,1443.17 497.333,1382.83 497.5,1322.5 Z"/></g>
<g><path style="opacity:0.952" fill="#16435a" d="M 1119.5,1589.5 C 1146.94,1588.35 1171.61,1595.85 1193.5,1612C 1194.9,1613.06 1195.9,1614.39 1196.5,1616C 1190.74,1626.05 1183.91,1635.21 1176,1643.5C 1169.1,1638.96 1161.93,1634.79 1154.5,1631C 1141.4,1624.66 1127.73,1622.99 1113.5,1626C 1101.36,1630.13 1097.2,1638.3 1101,1650.5C 1105.69,1655.85 1111.52,1659.35 1118.5,1661C 1135.76,1664.78 1152.76,1669.45 1169.5,1675C 1194.4,1685.25 1204.9,1703.75 1201,1730.5C 1195.57,1754.6 1180.73,1769.43 1156.5,1775C 1125.9,1780.86 1096.9,1776.53 1069.5,1762C 1062.59,1757.76 1056.26,1752.76 1050.5,1747C 1058.01,1737.66 1065.67,1728.5 1073.5,1719.5C 1087.95,1731.89 1104.62,1739.73 1123.5,1743C 1134.11,1744.79 1144.11,1743.12 1153.5,1738C 1165.32,1725.29 1163.32,1715.29 1147.5,1708C 1130.16,1703.33 1112.83,1698.67 1095.5,1694C 1065.73,1683.97 1053.9,1663.47 1060,1632.5C 1065.22,1615.29 1076.05,1603.12 1092.5,1596C 1101.43,1592.99 1110.43,1590.82 1119.5,1589.5 Z"/></g>
<g><path style="opacity:0.969" fill="#16435a" d="M 1.5,1593.5 C 14.8333,1593.5 28.1667,1593.5 41.5,1593.5C 41.5,1641.83 41.5,1690.17 41.5,1738.5C 71.1667,1738.5 100.833,1738.5 130.5,1738.5C 130.5,1750.5 130.5,1762.5 130.5,1774.5C 87.5,1774.5 44.5,1774.5 1.5,1774.5C 1.5,1714.17 1.5,1653.83 1.5,1593.5 Z"/></g>
<g><path style="opacity:0.962" fill="#16435a" d="M 154.5,1593.5 C 201.167,1593.5 247.833,1593.5 294.5,1593.5C 294.5,1605.5 294.5,1617.5 294.5,1629.5C 261.167,1629.5 227.833,1629.5 194.5,1629.5C 194.5,1640.83 194.5,1652.17 194.5,1663.5C 224.5,1663.5 254.5,1663.5 284.5,1663.5C 284.5,1675.83 284.5,1688.17 284.5,1700.5C 254.5,1700.5 224.5,1700.5 194.5,1700.5C 194.5,1713.17 194.5,1725.83 194.5,1738.5C 227.833,1738.5 261.167,1738.5 294.5,1738.5C 294.5,1750.5 294.5,1762.5 294.5,1774.5C 247.833,1774.5 201.167,1774.5 154.5,1774.5C 154.5,1714.17 154.5,1653.83 154.5,1593.5 Z"/></g>
<g><path style="opacity:0.958" fill="#16435a" d="M 380.5,1593.5 C 395.515,1593.17 410.515,1593.5 425.5,1594.5C 450.625,1654.22 474.958,1714.22 498.5,1774.5C 483.485,1774.83 468.485,1774.5 453.5,1773.5C 449.686,1764.71 446.02,1755.88 442.5,1747C 416.167,1746.33 389.833,1746.33 363.5,1747C 359.935,1755.86 356.269,1764.69 352.5,1773.5C 337.515,1774.5 322.515,1774.83 307.5,1774.5C 331.532,1714.09 355.865,1653.76 380.5,1593.5 Z M 402.5,1649.5 C 411.59,1669.75 419.923,1690.42 427.5,1711.5C 410.83,1711.67 394.163,1711.5 377.5,1711C 386.324,1690.69 394.657,1670.19 402.5,1649.5 Z"/></g>
<g><path style="opacity:0.962" fill="#16435a" d="M 519.5,1593.5 C 546.835,1593.33 574.169,1593.5 601.5,1594C 635.035,1597.58 660.868,1613.42 679,1641.5C 688.45,1661.19 691.117,1681.86 687,1703.5C 678.078,1737.09 656.911,1758.92 623.5,1769C 615.269,1771.18 606.935,1772.85 598.5,1774C 572.169,1774.5 545.835,1774.67 519.5,1774.5C 519.5,1714.17 519.5,1653.83 519.5,1593.5 Z M 559.5,1629.5 C 571.505,1629.33 583.505,1629.5 595.5,1630C 627.615,1633.61 644.949,1651.45 647.5,1683.5C 645.661,1712.85 630.327,1730.68 601.5,1737C 587.504,1737.5 573.504,1737.67 559.5,1737.5C 559.5,1701.5 559.5,1665.5 559.5,1629.5 Z"/></g>
<g><path style="opacity:0.962" fill="#16435a" d="M 717.5,1593.5 C 764.167,1593.5 810.833,1593.5 857.5,1593.5C 857.5,1605.5 857.5,1617.5 857.5,1629.5C 824.167,1629.5 790.833,1629.5 757.5,1629.5C 757.5,1640.83 757.5,1652.17 757.5,1663.5C 787.502,1663.33 817.502,1663.5 847.5,1664C 848.833,1676 848.833,1688 847.5,1700C 817.502,1700.5 787.502,1700.67 757.5,1700.5C 757.5,1713.17 757.5,1725.83 757.5,1738.5C 790.833,1738.5 824.167,1738.5 857.5,1738.5C 857.5,1750.5 857.5,1762.5 857.5,1774.5C 810.833,1774.5 764.167,1774.5 717.5,1774.5C 717.5,1714.17 717.5,1653.83 717.5,1593.5 Z"/></g>
<g><path style="opacity:0.955" fill="#16435a" d="M 884.5,1593.5 C 918.202,1593.04 951.869,1593.54 985.5,1595C 1020.39,1603.94 1036.89,1626.44 1035,1662.5C 1030.72,1686.11 1017.56,1702.61 995.5,1712C 1010.03,1732.36 1024.36,1752.86 1038.5,1773.5C 1023.17,1774.83 1007.83,1774.83 992.5,1773.5C 979.361,1754.53 966.028,1735.69 952.5,1717C 943.506,1716.5 934.506,1716.33 925.5,1716.5C 925.5,1735.83 925.5,1755.17 925.5,1774.5C 911.833,1774.5 898.167,1774.5 884.5,1774.5C 884.5,1714.17 884.5,1653.83 884.5,1593.5 Z M 925.5,1629.5 C 938.171,1629.33 950.838,1629.5 963.5,1630C 977.027,1629.84 986.861,1635.67 993,1647.5C 995.068,1665.78 986.901,1676.28 968.5,1679C 954.171,1679.5 939.837,1679.67 925.5,1679.5C 925.5,1662.83 925.5,1646.17 925.5,1629.5 Z"/></g>
<g><path style="opacity:0.959" fill="#16435a" d="M 1228.5,1593.5 C 1241.83,1593.5 1255.17,1593.5 1268.5,1593.5C 1268.5,1616.83 1268.5,1640.17 1268.5,1663.5C 1295.17,1663.5 1321.83,1663.5 1348.5,1663.5C 1348.5,1640.17 1348.5,1616.83 1348.5,1593.5C 1361.83,1593.5 1375.17,1593.5 1388.5,1593.5C 1388.5,1653.83 1388.5,1714.17 1388.5,1774.5C 1375.17,1774.5 1361.83,1774.5 1348.5,1774.5C 1348.5,1749.83 1348.5,1725.17 1348.5,1700.5C 1321.83,1700.5 1295.17,1700.5 1268.5,1700.5C 1268.5,1725.17 1268.5,1749.83 1268.5,1774.5C 1255.17,1774.5 1241.83,1774.5 1228.5,1774.5C 1228.5,1714.17 1228.5,1653.83 1228.5,1593.5 Z"/></g>
<g><path style="opacity:0.944" fill="#16435a" d="M 1422.5,1593.5 C 1436.17,1593.5 1449.83,1593.5 1463.5,1593.5C 1463.5,1653.83 1463.5,1714.17 1463.5,1774.5C 1449.83,1774.5 1436.17,1774.5 1422.5,1774.5C 1422.5,1714.17 1422.5,1653.83 1422.5,1593.5 Z"/></g>
<g><path style="opacity:0.963" fill="#16435a" d="M 1497.5,1593.5 C 1529.17,1593.33 1560.84,1593.5 1592.5,1594C 1626.81,1599.8 1645.14,1619.97 1647.5,1654.5C 1645.39,1688.12 1627.72,1708.29 1594.5,1715C 1575.53,1716.39 1556.53,1716.89 1537.5,1716.5C 1537.5,1735.83 1537.5,1755.17 1537.5,1774.5C 1524.17,1774.5 1510.83,1774.5 1497.5,1774.5C 1497.5,1714.17 1497.5,1653.83 1497.5,1593.5 Z M 1537.5,1629.5 C 1550.17,1629.33 1562.84,1629.5 1575.5,1630C 1586.6,1629.97 1595.77,1634.14 1603,1642.5C 1609.76,1663.13 1602.26,1675.3 1580.5,1679C 1566.17,1679.5 1551.84,1679.67 1537.5,1679.5C 1537.5,1662.83 1537.5,1646.17 1537.5,1629.5 Z"/></g>
<g><path style="opacity:0.958" fill="#16435a" d="M 272.5,2047.5 C 262.5,2047.5 252.5,2047.5 242.5,2047.5C 198.747,2038.58 171.914,2012.25 162,1968.5C 158.276,1922.77 176.776,1889.6 217.5,1869C 263.689,1851.84 302.856,1861.67 335,1898.5C 355.394,1927.45 359.06,1958.45 346,1991.5C 330.533,2022.15 306.033,2040.81 272.5,2047.5 Z M 249.5,1897.5 C 278.006,1896 297.839,1908.33 309,1934.5C 317.656,1964.67 308.822,1988.17 282.5,2005C 252.081,2017.52 227.914,2010.02 210,1982.5C 195.798,1951.08 202.631,1925.25 230.5,1905C 236.604,1901.58 242.937,1899.08 249.5,1897.5 Z"/></g>
<g><path style="opacity:0.958" fill="#16435a" d="M 1494.5,2047.5 C 1484.83,2047.5 1475.17,2047.5 1465.5,2047.5C 1428,2039.84 1402.17,2018.18 1388,1982.5C 1376.34,1925.97 1397.18,1886.81 1450.5,1865C 1492.23,1853.91 1527.4,1864.41 1556,1896.5C 1583.52,1935.75 1583.19,1974.75 1555,2013.5C 1538.72,2031.98 1518.56,2043.32 1494.5,2047.5 Z M 1472.5,1897.5 C 1510.25,1897.92 1531.25,1916.92 1535.5,1954.5C 1534.08,1977.52 1523.41,1994.69 1503.5,2006C 1470.66,2017.72 1446.16,2008.22 1430,1977.5C 1418.83,1942.01 1430,1916.17 1463.5,1900C 1466.68,1899.34 1469.68,1898.51 1472.5,1897.5 Z"/></g>
<g><path style="opacity:0.952" fill="#16435a" d="M 2.5,1863.5 C 49.1667,1863.5 95.8333,1863.5 142.5,1863.5C 142.5,1875.83 142.5,1888.17 142.5,1900.5C 109.167,1900.5 75.8333,1900.5 42.5,1900.5C 42.5,1912.83 42.5,1925.17 42.5,1937.5C 72.5,1937.5 102.5,1937.5 132.5,1937.5C 132.5,1949.83 132.5,1962.17 132.5,1974.5C 102.5,1974.5 72.5,1974.5 42.5,1974.5C 42.5,1998.17 42.5,2021.83 42.5,2045.5C 29.1667,2045.5 15.8333,2045.5 2.5,2045.5C 2.5,1984.83 2.5,1924.17 2.5,1863.5 Z"/></g>
<g><path style="opacity:0.96" fill="#16435a" d="M 477.5,2047.5 C 467.5,2047.5 457.5,2047.5 447.5,2047.5C 415.933,2041.79 394.767,2023.79 384,1993.5C 382.363,1988.29 381.363,1982.95 381,1977.5C 380.5,1939.5 380.333,1901.5 380.5,1863.5C 393.833,1863.5 407.167,1863.5 420.5,1863.5C 420.333,1899.5 420.5,1935.5 421,1971.5C 423.905,1996.24 437.739,2009.57 462.5,2011.5C 487.056,2009.45 500.889,1996.12 504,1971.5C 504.5,1935.5 504.667,1899.5 504.5,1863.5C 517.833,1863.5 531.167,1863.5 544.5,1863.5C 544.667,1902.17 544.5,1940.83 544,1979.5C 537.34,2017.66 515.174,2040.32 477.5,2047.5 Z"/></g>
<g><path style="opacity:0.952" fill="#16435a" d="M 579.5,1863.5 C 592.837,1863.33 606.171,1863.5 619.5,1864C 648.052,1901.55 676.219,1939.38 704,1977.5C 704.5,1939.5 704.667,1901.5 704.5,1863.5C 718.167,1863.5 731.833,1863.5 745.5,1863.5C 745.5,1924.17 745.5,1984.83 745.5,2045.5C 731.829,2045.67 718.163,2045.5 704.5,2045C 676.333,2006.83 648.167,1968.67 620,1930.5C 619.5,1968.83 619.333,2007.17 619.5,2045.5C 606.167,2045.5 592.833,2045.5 579.5,2045.5C 579.5,1984.83 579.5,1924.17 579.5,1863.5 Z"/></g>
<g><path style="opacity:0.958" fill="#16435a" d="M 782.5,1863.5 C 810.859,1863.09 839.192,1863.59 867.5,1865C 896.957,1868.97 920.457,1882.8 938,1906.5C 954.368,1935.46 955.701,1965.12 942,1995.5C 924.714,2023.58 899.548,2039.75 866.5,2044C 838.521,2045.38 810.521,2045.88 782.5,2045.5C 782.5,1984.83 782.5,1924.17 782.5,1863.5 Z M 822.5,1900.5 C 835.837,1900.33 849.171,1900.5 862.5,1901C 897.318,1908.5 912.818,1930 909,1965.5C 902.196,1990.3 886.029,2004.47 860.5,2008C 847.838,2008.5 835.171,2008.67 822.5,2008.5C 822.5,1972.5 822.5,1936.5 822.5,1900.5 Z"/></g>
<g><path style="opacity:0.96" fill="#16435a" d="M 1028.5,1863.5 C 1043.41,1863.18 1058.24,1863.51 1073,1864.5C 1097.63,1924.9 1122.13,1985.23 1146.5,2045.5C 1131.5,2045.67 1116.5,2045.5 1101.5,2045C 1097.49,2035.63 1093.49,2026.3 1089.5,2017C 1063.5,2016.33 1037.5,2016.33 1011.5,2017C 1007.24,2026.19 1003.24,2035.52 999.5,2045C 984.489,2045.83 969.489,2045.67 954.5,2044.5C 979.198,1984.15 1003.86,1923.82 1028.5,1863.5 Z M 1049.5,1921.5 C 1050.75,1921.58 1051.58,1922.24 1052,1923.5C 1059.74,1942.91 1067.58,1962.24 1075.5,1981.5C 1058.83,1982.83 1042.17,1982.83 1025.5,1981.5C 1033.68,1961.62 1041.68,1941.62 1049.5,1921.5 Z"/></g>
<g><path style="opacity:0.944" fill="#16435a" d="M 1139.5,1863.5 C 1190.17,1863.5 1240.83,1863.5 1291.5,1863.5C 1291.5,1875.83 1291.5,1888.17 1291.5,1900.5C 1272.83,1900.5 1254.17,1900.5 1235.5,1900.5C 1235.5,1948.83 1235.5,1997.17 1235.5,2045.5C 1221.92,2045.82 1208.42,2045.49 1195,2044.5C 1194.5,1996.5 1194.33,1948.5 1194.5,1900.5C 1176.17,1900.5 1157.83,1900.5 1139.5,1900.5C 1139.5,1888.17 1139.5,1875.83 1139.5,1863.5 Z"/></g>
<g><path style="opacity:0.959" fill="#16435a" d="M 1316.5,1863.5 C 1329.83,1863.5 1343.17,1863.5 1356.5,1863.5C 1356.5,1924.17 1356.5,1984.83 1356.5,2045.5C 1343.17,2045.5 1329.83,2045.5 1316.5,2045.5C 1316.5,1984.83 1316.5,1924.17 1316.5,1863.5 Z"/></g>
<g><path style="opacity:0.966" fill="#16435a" d="M 1769.5,1863.5 C 1769.5,1924.17 1769.5,1984.83 1769.5,2045.5C 1756.15,2045.83 1742.82,2045.5 1729.5,2044.5C 1701.53,2006.69 1673.36,1969.03 1645,1931.5C 1644.5,1969.5 1644.33,2007.5 1644.5,2045.5C 1631.25,2045.82 1618.09,2045.49 1605,2044.5C 1604.33,1984.5 1604.33,1924.5 1605,1864.5C 1618.09,1863.34 1631.26,1863.18 1644.5,1864C 1673.39,1901.88 1701.89,1940.05 1730,1978.5C 1730.5,1940.17 1730.67,1901.83 1730.5,1863.5C 1743.5,1863.5 1756.5,1863.5 1769.5,1863.5 Z"/></g>
</svg>
