<?xml version="1.0" encoding="UTF-8"?>
<!DOCTYPE svg PUBLIC "-//W3C//DTD SVG 1.1//EN" "http://www.w3.org/Graphics/SVG/1.1/DTD/svg11.dtd">
<svg xmlns="http://www.w3.org/2000/svg" version="1.1" width="320px" height="60px" style="shape-rendering:geometricPrecision; text-rendering:geometricPrecision; image-rendering:optimizeQuality; fill-rule:evenodd; clip-rule:evenodd" xmlns:xlink="http://www.w3.org/1999/xlink">
<g><path style="opacity:1" fill="#52e6ce" d="M 26.5,-0.5 C 32.1667,-0.5 37.8333,-0.5 43.5,-0.5C 48.3941,1.22399 51.8941,4.55732 54,9.5C 54.6667,17.1667 54.6667,24.8333 54,32.5C 50.8673,38.9832 45.7006,42.3165 38.5,42.5C 37.8333,42.1667 37.1667,41.8333 36.5,41.5C 36.8774,34.7431 36.3774,28.0764 35,21.5C 30.4967,15.9413 24.6634,13.608 17.5,14.5C 16.8333,14.1667 16.1667,13.8333 15.5,13.5C 16.9506,7.05391 20.6173,2.38724 26.5,-0.5 Z"/></g>
<g><path style="opacity:0.963" fill="#04477c" d="M 79.5,8.5 C 85.7879,8.15417 91.4545,9.82084 96.5,13.5C 95.627,15.4134 94.627,17.2467 93.5,19C 90.0334,18.3703 86.5334,17.537 83,16.5C 78.3444,16.2516 76.8444,18.2516 78.5,22.5C 83.161,23.999 87.8276,25.499 92.5,27C 98.3709,32.3716 99.0376,38.3716 94.5,45C 84.6908,49.7402 75.3575,48.9069 66.5,42.5C 67.5804,40.0038 68.9138,37.6705 70.5,35.5C 75.8992,39.6839 81.8992,41.0172 88.5,39.5C 88.822,37.2776 88.1554,35.4443 86.5,34C 80.8677,32.7893 75.5343,30.7893 70.5,28C 66.0896,17.9907 69.0896,11.4907 79.5,8.5 Z"/></g>
<g><path style="opacity:0.989" fill="#04477b" d="M 166.5,9.5 C 168.857,9.33669 171.19,9.50335 173.5,10C 179.333,17.1667 185.167,24.3333 191,31.5C 191.5,24.1742 191.666,16.8409 191.5,9.5C 194.5,9.5 197.5,9.5 200.5,9.5C 200.5,22.1667 200.5,34.8333 200.5,47.5C 197.753,47.8134 195.086,47.48 192.5,46.5C 186.811,39.979 181.311,33.3123 176,26.5C 175.5,33.4921 175.334,40.4921 175.5,47.5C 172.5,47.5 169.5,47.5 166.5,47.5C 166.5,34.8333 166.5,22.1667 166.5,9.5 Z"/></g>
<g><path style="opacity:0.97" fill="#04477b" d="M 15.5,13.5 C 16.1667,13.8333 16.8333,14.1667 17.5,14.5C 17.1226,21.2569 17.6226,27.9236 19,34.5C 23.5033,40.0587 29.3366,42.392 36.5,41.5C 37.1667,41.8333 37.8333,42.1667 38.5,42.5C 37.2488,48.9224 33.5821,53.4224 27.5,56C 20.7506,56.8773 14.0839,56.544 7.5,55C 3.75528,52.6384 1.08861,49.4717 -0.5,45.5C -0.5,38.1667 -0.5,30.8333 -0.5,23.5C 2.87494,17.1406 8.20827,13.8073 15.5,13.5 Z"/></g>
<g><path style="opacity:0.932" fill="#04477c" d="M 110.5,18.5 C 123.855,17.1923 130.522,23.1923 130.5,36.5C 123.159,36.3337 115.826,36.5003 108.5,37C 109.828,40.0006 112.161,41.5006 115.5,41.5C 118.401,41.0465 121.067,40.0465 123.5,38.5C 125.135,39.0463 126.801,39.3796 128.5,39.5C 128.607,41.9032 127.607,43.7365 125.5,45C 112.075,51.6549 103.408,47.8216 99.5,33.5C 100.05,26.0147 103.717,21.0147 110.5,18.5 Z M 113.5,24.5 C 117.4,24.3399 120.067,26.0066 121.5,29.5C 117.205,30.6609 112.871,30.8275 108.5,30C 109.692,27.6451 111.359,25.8118 113.5,24.5 Z"/></g>
<g><path style="opacity:0.916" fill="#04477c" d="M 215.5,18.5 C 228.856,17.1928 235.522,23.1928 235.5,36.5C 228.159,36.3337 220.826,36.5003 213.5,37C 214.828,40.0006 217.161,41.5006 220.5,41.5C 223.401,41.0465 226.067,40.0465 228.5,38.5C 230.135,39.0463 231.801,39.3796 233.5,39.5C 233.607,41.9032 232.607,43.7365 230.5,45C 217.048,51.6509 208.381,47.8175 204.5,33.5C 204.787,25.8968 208.454,20.8968 215.5,18.5 Z M 218.5,24.5 C 222.4,24.3399 225.067,26.0066 226.5,29.5C 222.167,30.8333 217.833,30.8333 213.5,29.5C 214.882,27.4514 216.548,25.7847 218.5,24.5 Z"/></g>
<g><path style="opacity:0.943" fill="#04477c" d="M 238.5,18.5 C 241.167,18.5 243.833,18.5 246.5,18.5C 246.343,19.8734 246.51,21.2068 247,22.5C 249.408,19.3799 252.574,18.0466 256.5,18.5C 256.5,21.1667 256.5,23.8333 256.5,26.5C 252.538,26.067 249.372,27.4003 247,30.5C 246.501,36.1569 246.334,41.8236 246.5,47.5C 243.833,47.5 241.167,47.5 238.5,47.5C 238.5,37.8333 238.5,28.1667 238.5,18.5 Z"/></g>
<g><path style="opacity:0.908" fill="#04477c" d="M 276.5,59.5 C 273.5,59.5 270.5,59.5 267.5,59.5C 263.799,58.1339 260.465,55.9672 257.5,53C 259.017,51.3149 260.684,49.8149 262.5,48.5C 266.114,52.1655 270.447,53.3322 275.5,52C 278.689,50.4556 279.855,47.9556 279,44.5C 269.336,50.1666 262.336,47.8333 258,37.5C 256.538,24.1906 262.371,18.0239 275.5,19C 277.286,19.7845 278.786,20.9512 280,22.5C 280.49,21.2068 280.657,19.8734 280.5,18.5C 282.833,18.5 285.167,18.5 287.5,18.5C 287.667,29.1719 287.5,39.8385 287,50.5C 284.577,54.7895 281.077,57.7895 276.5,59.5 Z M 270.5,25.5 C 278.179,26.0177 281.012,30.0177 279,37.5C 275,41.5 271,41.5 267,37.5C 265.593,32.556 266.759,28.556 270.5,25.5 Z"/></g>
<g><path style="opacity:0.884" fill="#04477b" d="M 319.5,18.5 C 319.5,19.5 319.5,20.5 319.5,21.5C 314.871,32.2064 310.704,43.2064 307,54.5C 305.27,56.4019 303.437,58.0686 301.5,59.5C 298.833,59.5 296.167,59.5 293.5,59.5C 293.187,56.7531 293.52,54.0865 294.5,51.5C 297.979,52.7187 299.979,51.3853 300.5,47.5C 297.227,38.0141 293.56,28.6808 289.5,19.5C 292.5,18.1667 295.5,18.1667 298.5,19.5C 300.568,25.5381 302.735,31.5381 305,37.5C 307.466,31.6524 309.633,25.6524 311.5,19.5C 314.086,18.52 316.753,18.1866 319.5,18.5 Z"/></g>
<g><path style="opacity:0.924" fill="#04477c" d="M 142.5,18.5 C 155.855,17.1923 162.522,23.1923 162.5,36.5C 155.159,36.3337 147.826,36.5003 140.5,37C 141.828,40.0006 144.161,41.5006 147.5,41.5C 150.401,41.0465 153.067,40.0465 155.5,38.5C 157.135,39.0463 158.801,39.3796 160.5,39.5C 160.607,41.9032 159.607,43.7365 157.5,45C 144.075,51.6549 135.408,47.8216 131.5,33.5C 132.05,26.0147 135.717,21.0147 142.5,18.5 Z M 145.5,24.5 C 149.4,24.3399 152.067,26.0066 153.5,29.5C 149.205,30.6609 144.871,30.8275 140.5,30C 141.692,27.6451 143.359,25.8118 145.5,24.5 Z"/></g>
</svg>
