<svg xmlns="http://www.w3.org/2000/svg" xmlns:xlink="http://www.w3.org/1999/xlink" width="400" zoomAndPan="magnify" viewBox="0 0 300 599.999999" height="800" preserveAspectRatio="xMidYMid meet" version="1.0"><defs><clipPath id="c8b06839d4"><path d="M 8.625 30 L 291.375 30 L 291.375 555.75 L 8.625 555.75 Z M 8.625 30 " clip-rule="nonzero"/></clipPath><clipPath id="97d9d57218"><path d="M 95.242188 235.132812 L 191 235.132812 L 191 310 L 95.242188 310 Z M 95.242188 235.132812 " clip-rule="nonzero"/></clipPath></defs><g clip-path="url(#c8b06839d4)"><path fill="#ffffff" d="M 275.976562 510.589844 C 275.976562 527.324219 262.410156 540.890625 245.671875 540.890625 L 54.339844 540.890625 C 37.605469 540.890625 24.039062 527.324219 24.039062 510.589844 L 24.039062 75.453125 C 24.039062 58.714844 37.605469 45.152344 54.339844 45.152344 L 93.261719 45.152344 C 95.316406 45.152344 96.984375 46.820312 96.984375 48.875 L 96.984375 50.796875 C 96.984375 58.425781 103.167969 64.613281 110.796875 64.613281 L 189.214844 64.613281 C 196.84375 64.613281 203.035156 58.425781 203.035156 50.796875 L 203.035156 48.875 C 203.035156 46.820312 204.699219 45.152344 206.753906 45.152344 L 245.671875 45.152344 C 262.410156 45.152344 275.976562 58.714844 275.976562 75.453125 Z M 245.671875 30 L 54.339844 30 C 29.277344 30 8.886719 50.390625 8.886719 75.453125 L 8.886719 510.589844 C 8.886719 535.652344 29.277344 556.042969 54.339844 556.042969 L 245.671875 556.042969 C 270.734375 556.042969 291.125 535.652344 291.125 510.589844 L 291.125 75.453125 C 291.125 50.390625 270.734375 30 245.671875 30 " fill-opacity="1" fill-rule="nonzero"/></g><path fill="#ffffff" d="M 97.964844 332.496094 L 96.285156 328.199219 L 90.871094 328.199219 L 89.210938 332.496094 L 87.625 332.496094 L 92.957031 318.941406 L 94.285156 318.941406 L 99.585938 332.496094 Z M 95.792969 326.789062 L 94.226562 322.601562 C 94.023438 322.074219 93.8125 321.425781 93.601562 320.65625 C 93.460938 321.25 93.269531 321.902344 93.011719 322.601562 L 91.425781 326.789062 Z M 95.792969 326.789062 " fill-opacity="1" fill-rule="nonzero"/><path fill="#ffffff" d="M 118.660156 325.621094 C 118.660156 327.847656 118.050781 329.554688 116.839844 330.734375 C 115.636719 331.90625 113.898438 332.496094 111.625 332.496094 L 107.886719 332.496094 L 107.886719 319 L 112.023438 319 C 114.121094 319 115.75 319.582031 116.914062 320.746094 C 118.074219 321.90625 118.660156 323.53125 118.660156 325.621094 Z M 117 325.667969 C 117 323.910156 116.558594 322.585938 115.675781 321.699219 C 114.789062 320.804688 113.476562 320.355469 111.738281 320.355469 L 109.460938 320.355469 L 109.460938 331.136719 L 111.363281 331.136719 C 113.238281 331.136719 114.644531 330.675781 115.585938 329.757812 C 116.527344 328.835938 117 327.472656 117 325.667969 Z M 117 325.667969 " fill-opacity="1" fill-rule="nonzero"/><path fill="#ffffff" d="M 135.636719 332.496094 L 128.113281 332.496094 L 128.113281 319 L 135.636719 319 L 135.636719 320.386719 L 129.683594 320.386719 L 129.683594 324.738281 L 135.273438 324.738281 L 135.273438 326.121094 L 129.683594 326.121094 L 129.683594 331.089844 L 135.636719 331.089844 Z M 135.636719 332.496094 " fill-opacity="1" fill-rule="nonzero"/><path fill="#ffffff" d="M 145.070312 319 L 148.882812 319 C 150.675781 319 151.972656 319.265625 152.769531 319.800781 C 153.570312 320.335938 153.96875 321.183594 153.96875 322.339844 C 153.96875 323.140625 153.742188 323.800781 153.292969 324.316406 C 152.851562 324.839844 152.203125 325.171875 151.351562 325.328125 L 151.351562 325.421875 C 153.398438 325.769531 154.421875 326.847656 154.421875 328.652344 C 154.421875 329.859375 154.011719 330.800781 153.199219 331.480469 C 152.382812 332.15625 151.242188 332.496094 149.777344 332.496094 L 145.070312 332.496094 Z M 146.644531 324.777344 L 149.222656 324.777344 C 150.332031 324.777344 151.128906 324.605469 151.613281 324.253906 C 152.097656 323.90625 152.34375 323.316406 152.34375 322.492188 C 152.34375 321.734375 152.070312 321.191406 151.53125 320.855469 C 150.992188 320.523438 150.128906 320.355469 148.945312 320.355469 L 146.644531 320.355469 Z M 146.644531 326.105469 L 146.644531 331.152344 L 149.453125 331.152344 C 150.542969 331.152344 151.363281 330.945312 151.914062 330.527344 C 152.464844 330.105469 152.738281 329.441406 152.738281 328.542969 C 152.738281 327.707031 152.457031 327.09375 151.890625 326.699219 C 151.328125 326.304688 150.472656 326.105469 149.324219 326.105469 Z M 146.644531 326.105469 " fill-opacity="1" fill-rule="nonzero"/><path fill="#ffffff" d="M 172.25 332.496094 L 170.566406 328.199219 L 165.152344 328.199219 L 163.496094 332.496094 L 161.90625 332.496094 L 167.242188 318.941406 L 168.566406 318.941406 L 173.867188 332.496094 Z M 170.074219 326.789062 L 168.511719 322.601562 C 168.304688 322.074219 168.09375 321.425781 167.882812 320.65625 C 167.746094 321.25 167.550781 321.902344 167.296875 322.601562 L 165.707031 326.789062 Z M 170.074219 326.789062 " fill-opacity="1" fill-rule="nonzero"/><path fill="#ffffff" d="M 185.601562 325.746094 L 189.203125 319 L 190.902344 319 L 186.394531 327.261719 L 186.394531 332.496094 L 184.804688 332.496094 L 184.804688 327.335938 L 180.3125 319 L 182.027344 319 Z M 185.601562 325.746094 " fill-opacity="1" fill-rule="nonzero"/><path fill="#ffffff" d="M 210.917969 325.722656 C 210.917969 327.890625 210.371094 329.589844 209.277344 330.828125 C 208.183594 332.0625 206.667969 332.679688 204.71875 332.679688 C 202.734375 332.679688 201.199219 332.074219 200.117188 330.859375 C 199.035156 329.644531 198.496094 327.925781 198.496094 325.707031 C 198.496094 323.511719 199.039062 321.808594 200.125 320.601562 C 201.207031 319.390625 202.746094 318.785156 204.742188 318.785156 C 206.679688 318.785156 208.191406 319.402344 209.285156 320.632812 C 210.371094 321.863281 210.917969 323.558594 210.917969 325.722656 Z M 200.164062 325.722656 C 200.164062 327.554688 200.550781 328.945312 201.328125 329.890625 C 202.109375 330.835938 203.238281 331.304688 204.71875 331.304688 C 206.214844 331.304688 207.347656 330.835938 208.109375 329.890625 C 208.871094 328.949219 209.25 327.5625 209.25 325.722656 C 209.25 323.910156 208.871094 322.53125 208.109375 321.59375 C 207.351562 320.65625 206.230469 320.191406 204.742188 320.191406 C 203.246094 320.191406 202.109375 320.664062 201.328125 321.609375 C 200.550781 322.554688 200.164062 323.925781 200.164062 325.722656 Z M 200.164062 325.722656 " fill-opacity="1" fill-rule="nonzero"/><path fill="#ffffff" d="M 108.164062 348.039062 L 107.140625 345.429688 L 103.84375 345.429688 L 102.835938 348.039062 L 101.867188 348.039062 L 105.117188 339.792969 L 105.917969 339.792969 L 109.15625 348.039062 Z M 106.84375 344.5625 L 105.886719 342.023438 C 105.761719 341.699219 105.636719 341.304688 105.503906 340.832031 C 105.425781 341.191406 105.304688 341.589844 105.148438 342.023438 L 104.1875 344.5625 Z M 106.84375 344.5625 " fill-opacity="1" fill-rule="nonzero"/><path fill="#ffffff" d="M 124.847656 343.855469 C 124.847656 345.210938 124.476562 346.25 123.738281 346.96875 C 123.003906 347.683594 121.945312 348.039062 120.5625 348.039062 L 118.285156 348.039062 L 118.285156 339.824219 L 120.800781 339.824219 C 122.082031 339.824219 123.074219 340.179688 123.785156 340.886719 C 124.496094 341.597656 124.847656 342.585938 124.847656 343.855469 Z M 123.832031 343.886719 C 123.832031 342.816406 123.5625 342.007812 123.023438 341.46875 C 122.488281 340.921875 121.691406 340.648438 120.632812 340.648438 L 119.246094 340.648438 L 119.246094 347.214844 L 120.40625 347.214844 C 121.542969 347.214844 122.398438 346.933594 122.96875 346.375 C 123.542969 345.8125 123.832031 344.984375 123.832031 343.886719 Z M 123.832031 343.886719 " fill-opacity="1" fill-rule="nonzero"/><path fill="#ffffff" d="M 139.261719 348.039062 L 134.679688 348.039062 L 134.679688 339.824219 L 139.261719 339.824219 L 139.261719 340.671875 L 135.640625 340.671875 L 135.640625 343.316406 L 139.046875 343.316406 L 139.046875 344.15625 L 135.640625 344.15625 L 135.640625 347.183594 L 139.261719 347.183594 Z M 139.261719 348.039062 " fill-opacity="1" fill-rule="nonzero"/><path fill="#ffffff" d="M 149.089844 348.039062 L 149.089844 339.824219 L 150.050781 339.824219 L 150.050781 347.175781 L 153.667969 347.175781 L 153.667969 348.039062 Z M 149.089844 348.039062 " fill-opacity="1" fill-rule="nonzero"/><path fill="#ffffff" d="M 167.648438 348.039062 L 163.070312 348.039062 L 163.070312 339.824219 L 167.648438 339.824219 L 167.648438 340.671875 L 164.03125 340.671875 L 164.03125 343.316406 L 167.433594 343.316406 L 167.433594 344.15625 L 164.03125 344.15625 L 164.03125 347.183594 L 167.648438 347.183594 Z M 167.648438 348.039062 " fill-opacity="1" fill-rule="nonzero"/><path fill="#ffffff" d="M 183.414062 348.039062 L 182.285156 348.039062 L 179.292969 344.054688 L 178.4375 344.816406 L 178.4375 348.039062 L 177.476562 348.039062 L 177.476562 339.824219 L 178.4375 339.824219 L 178.4375 343.894531 L 182.160156 339.824219 L 183.289062 339.824219 L 179.984375 343.386719 Z M 183.414062 348.039062 " fill-opacity="1" fill-rule="nonzero"/><path fill="#ffffff" d="M 197.128906 348.039062 L 192.546875 348.039062 L 192.546875 339.824219 L 197.128906 339.824219 L 197.128906 340.671875 L 193.507812 340.671875 L 193.507812 343.316406 L 196.914062 343.316406 L 196.914062 344.15625 L 193.507812 344.15625 L 193.507812 347.183594 L 197.128906 347.183594 Z M 197.128906 348.039062 " fill-opacity="1" fill-rule="nonzero"/><g clip-path="url(#97d9d57218)"><path fill="#ffffff" d="M 190.894531 308.472656 L 156.507812 235.828125 C 156.191406 235.15625 155.089844 235.15625 154.773438 235.828125 L 143.125 260.425781 L 131.472656 235.816406 C 131.308594 235.480469 130.976562 235.269531 130.613281 235.269531 C 130.238281 235.269531 129.902344 235.480469 129.75 235.816406 L 95.355469 308.480469 C 95.125 308.960938 95.335938 309.535156 95.8125 309.757812 C 95.949219 309.820312 96.082031 309.851562 96.226562 309.851562 C 96.578125 309.851562 96.925781 309.648438 97.089844 309.304688 L 108.488281 285.195312 C 110.019531 285.195312 119.707031 285.222656 131.378906 285.246094 L 120.378906 308.480469 C 120.148438 308.960938 120.359375 309.527344 120.839844 309.757812 C 121.316406 309.984375 121.878906 309.785156 122.109375 309.296875 L 133.492188 285.246094 C 136.625 285.253906 139.859375 285.253906 143.09375 285.253906 C 146.664062 285.253906 149.871094 285.261719 152.753906 285.261719 L 164.136719 309.296875 C 164.296875 309.640625 164.644531 309.839844 165 309.839844 C 165.132812 309.839844 165.273438 309.8125 165.410156 309.746094 C 165.886719 309.515625 166.089844 308.949219 165.871094 308.472656 L 154.878906 285.261719 C 156.792969 285.261719 158.554688 285.261719 160.171875 285.261719 C 171.660156 285.261719 176 285.214844 177.691406 285.042969 L 189.171875 309.277344 C 189.332031 309.621094 189.675781 309.820312 190.03125 309.820312 C 190.164062 309.820312 190.308594 309.792969 190.441406 309.726562 C 190.921875 309.515625 191.125 308.949219 190.894531 308.472656 Z M 109.398438 283.28125 L 130.613281 238.457031 L 142.0625 262.664062 L 132.285156 283.328125 C 124.015625 283.308594 115.957031 283.289062 109.398438 283.28125 Z M 153.96875 283.347656 L 149.921875 274.804688 C 149.691406 274.328125 149.117188 274.128906 148.648438 274.347656 C 148.167969 274.574219 147.96875 275.140625 148.1875 275.621094 L 151.84375 283.347656 C 146.300781 283.347656 140.328125 283.339844 134.394531 283.328125 L 155.636719 238.46875 L 176.859375 283.308594 C 173.957031 283.347656 165 283.355469 153.96875 283.347656 Z M 153.96875 283.347656 " fill-opacity="1" fill-rule="nonzero"/></g></svg>