<svg xmlns="http://www.w3.org/2000/svg" xmlns:xlink="http://www.w3.org/1999/xlink" width="500" zoomAndPan="magnify" viewBox="0 0 375 277.499997" height="370" preserveAspectRatio="xMidYMid meet" version="1.0"><defs><g/><clipPath id="a74d698cd5"><path d="M 80 25 L 268.507812 25 L 268.507812 172.425781 L 80 172.425781 Z M 80 25 " clip-rule="nonzero"/></clipPath></defs><g fill="#ffffff" fill-opacity="1"><g transform="translate(65.007295, 216.619925)"><g><path d="M 20.359375 0 L 17.046875 -8.453125 L 6.390625 -8.453125 L 3.125 0 L 0 0 L 10.5 -26.671875 L 13.109375 -26.671875 L 23.546875 0 Z M 16.078125 -11.234375 L 13 -19.46875 C 12.59375 -20.507812 12.179688 -21.785156 11.765625 -23.296875 C 11.492188 -22.128906 11.109375 -20.851562 10.609375 -19.46875 L 7.484375 -11.234375 Z M 16.078125 -11.234375 "/></g></g></g><g fill="#ffffff" fill-opacity="1"><g transform="translate(101.241239, 216.619925)"><g><path d="M 24.859375 -13.53125 C 24.859375 -9.144531 23.664062 -5.789062 21.28125 -3.46875 C 18.90625 -1.15625 15.484375 0 11.015625 0 L 3.65625 0 L 3.65625 -26.5625 L 11.796875 -26.5625 C 15.921875 -26.5625 19.128906 -25.414062 21.421875 -23.125 C 23.710938 -20.84375 24.859375 -17.644531 24.859375 -13.53125 Z M 21.59375 -13.4375 C 21.59375 -16.894531 20.722656 -19.5 18.984375 -21.25 C 17.242188 -23.007812 14.660156 -23.890625 11.234375 -23.890625 L 6.75 -23.890625 L 6.75 -2.671875 L 10.5 -2.671875 C 14.1875 -2.671875 16.957031 -3.578125 18.8125 -5.390625 C 20.664062 -7.203125 21.59375 -9.882812 21.59375 -13.4375 Z M 21.59375 -13.4375 "/></g></g></g><g fill="#ffffff" fill-opacity="1"><g transform="translate(141.053904, 216.619925)"><g><path d="M 18.46875 0 L 3.65625 0 L 3.65625 -26.5625 L 18.46875 -26.5625 L 18.46875 -23.828125 L 6.75 -23.828125 L 6.75 -15.265625 L 17.75 -15.265625 L 17.75 -12.546875 L 6.75 -12.546875 L 6.75 -2.765625 L 18.46875 -2.765625 Z M 18.46875 0 "/></g></g></g><g fill="#ffffff" fill-opacity="1"><g transform="translate(174.435784, 216.619925)"><g><path d="M 3.65625 -26.5625 L 11.15625 -26.5625 C 14.6875 -26.5625 17.238281 -26.035156 18.8125 -24.984375 C 20.382812 -23.929688 21.171875 -22.265625 21.171875 -19.984375 C 21.171875 -18.410156 20.726562 -17.113281 19.84375 -16.09375 C 18.96875 -15.070312 17.691406 -14.410156 16.015625 -14.109375 L 16.015625 -13.921875 C 20.046875 -13.234375 22.0625 -11.113281 22.0625 -7.5625 C 22.0625 -5.1875 21.257812 -3.332031 19.65625 -2 C 18.050781 -0.664062 15.804688 0 12.921875 0 L 3.65625 0 Z M 6.75 -15.1875 L 11.828125 -15.1875 C 14.015625 -15.1875 15.582031 -15.53125 16.53125 -16.21875 C 17.488281 -16.90625 17.96875 -18.0625 17.96875 -19.6875 C 17.96875 -21.175781 17.4375 -22.25 16.375 -22.90625 C 15.3125 -23.5625 13.613281 -23.890625 11.28125 -23.890625 L 6.75 -23.890625 Z M 6.75 -12.578125 L 6.75 -2.640625 L 12.28125 -2.640625 C 14.425781 -2.640625 16.039062 -3.050781 17.125 -3.875 C 18.207031 -4.707031 18.75 -6.007812 18.75 -7.78125 C 18.75 -9.425781 18.191406 -10.632812 17.078125 -11.40625 C 15.972656 -12.1875 14.289062 -12.578125 12.03125 -12.578125 Z M 6.75 -12.578125 "/></g></g></g><g fill="#ffffff" fill-opacity="1"><g transform="translate(211.232882, 216.619925)"><g><path d="M 20.359375 0 L 17.046875 -8.453125 L 6.390625 -8.453125 L 3.125 0 L 0 0 L 10.5 -26.671875 L 13.109375 -26.671875 L 23.546875 0 Z M 16.078125 -11.234375 L 13 -19.46875 C 12.59375 -20.507812 12.179688 -21.785156 11.765625 -23.296875 C 11.492188 -22.128906 11.109375 -20.851562 10.609375 -19.46875 L 7.484375 -11.234375 Z M 16.078125 -11.234375 "/></g></g></g><g fill="#ffffff" fill-opacity="1"><g transform="translate(247.466818, 216.619925)"><g><path d="M 10.40625 -13.28125 L 17.5 -26.5625 L 20.84375 -26.5625 L 11.96875 -10.296875 L 11.96875 0 L 8.84375 0 L 8.84375 -10.15625 L 0 -26.5625 L 3.375 -26.5625 Z M 10.40625 -13.28125 "/></g></g></g><g fill="#ffffff" fill-opacity="1"><g transform="translate(280.994033, 216.619925)"><g><path d="M 26.71875 -13.328125 C 26.71875 -9.066406 25.640625 -5.71875 23.484375 -3.28125 C 21.335938 -0.851562 18.347656 0.359375 14.515625 0.359375 C 10.609375 0.359375 7.585938 -0.832031 5.453125 -3.21875 C 3.328125 -5.613281 2.265625 -8.992188 2.265625 -13.359375 C 2.265625 -17.679688 3.332031 -21.03125 5.46875 -23.40625 C 7.601562 -25.789062 10.632812 -26.984375 14.5625 -26.984375 C 18.375 -26.984375 21.351562 -25.769531 23.5 -23.34375 C 25.644531 -20.925781 26.71875 -17.585938 26.71875 -13.328125 Z M 5.546875 -13.328125 C 5.546875 -9.722656 6.3125 -6.988281 7.84375 -5.125 C 9.375 -3.269531 11.597656 -2.34375 14.515625 -2.34375 C 17.460938 -2.34375 19.6875 -3.269531 21.1875 -5.125 C 22.6875 -6.976562 23.4375 -9.710938 23.4375 -13.328125 C 23.4375 -16.898438 22.6875 -19.609375 21.1875 -21.453125 C 19.695312 -23.296875 17.488281 -24.21875 14.5625 -24.21875 C 11.613281 -24.21875 9.375 -23.285156 7.84375 -21.421875 C 6.3125 -19.566406 5.546875 -16.867188 5.546875 -13.328125 Z M 5.546875 -13.328125 "/></g></g></g><g fill="#ffffff" fill-opacity="1"><g transform="translate(93.047863, 247.213594)"><g><path d="M 12.390625 0 L 10.375 -5.140625 L 3.890625 -5.140625 L 1.90625 0 L 0 0 L 6.390625 -16.234375 L 7.96875 -16.234375 L 14.34375 0 Z M 9.796875 -6.84375 L 7.90625 -11.84375 C 7.664062 -12.476562 7.414062 -13.257812 7.15625 -14.1875 C 7 -13.476562 6.765625 -12.695312 6.453125 -11.84375 L 4.5625 -6.84375 Z M 9.796875 -6.84375 "/></g></g></g><g fill="#ffffff" fill-opacity="1"><g transform="translate(123.145108, 247.213594)"><g><path d="M 15.140625 -8.234375 C 15.140625 -5.566406 14.410156 -3.523438 12.953125 -2.109375 C 11.503906 -0.703125 9.421875 0 6.703125 0 L 2.21875 0 L 2.21875 -16.171875 L 7.171875 -16.171875 C 9.691406 -16.171875 11.648438 -15.472656 13.046875 -14.078125 C 14.441406 -12.679688 15.140625 -10.734375 15.140625 -8.234375 Z M 13.140625 -8.171875 C 13.140625 -10.285156 12.609375 -11.875 11.546875 -12.9375 C 10.492188 -14.007812 8.925781 -14.546875 6.84375 -14.546875 L 4.109375 -14.546875 L 4.109375 -1.625 L 6.390625 -1.625 C 8.628906 -1.625 10.3125 -2.175781 11.4375 -3.28125 C 12.570312 -4.382812 13.140625 -6.015625 13.140625 -8.171875 Z M 13.140625 -8.171875 "/></g></g></g><g fill="#ffffff" fill-opacity="1"><g transform="translate(155.420436, 247.213594)"><g><path d="M 11.234375 0 L 2.21875 0 L 2.21875 -16.171875 L 11.234375 -16.171875 L 11.234375 -14.5 L 4.109375 -14.5 L 4.109375 -9.296875 L 10.8125 -9.296875 L 10.8125 -7.640625 L 4.109375 -7.640625 L 4.109375 -1.6875 L 11.234375 -1.6875 Z M 11.234375 0 "/></g></g></g><g fill="#ffffff" fill-opacity="1"><g transform="translate(183.781845, 247.213594)"><g><path d="M 2.21875 0 L 2.21875 -16.171875 L 4.109375 -16.171875 L 4.109375 -1.703125 L 11.234375 -1.703125 L 11.234375 0 Z M 2.21875 0 "/></g></g></g><g fill="#ffffff" fill-opacity="1"><g transform="translate(211.302987, 247.213594)"><g><path d="M 11.234375 0 L 2.21875 0 L 2.21875 -16.171875 L 11.234375 -16.171875 L 11.234375 -14.5 L 4.109375 -14.5 L 4.109375 -9.296875 L 10.8125 -9.296875 L 10.8125 -7.640625 L 4.109375 -7.640625 L 4.109375 -1.6875 L 11.234375 -1.6875 Z M 11.234375 0 "/></g></g></g><g fill="#ffffff" fill-opacity="1"><g transform="translate(239.664404, 247.213594)"><g><path d="M 13.90625 0 L 11.6875 0 L 5.796875 -7.84375 L 4.109375 -6.34375 L 4.109375 0 L 2.21875 0 L 2.21875 -16.171875 L 4.109375 -16.171875 L 4.109375 -8.15625 L 11.4375 -16.171875 L 13.65625 -16.171875 L 7.15625 -9.15625 Z M 13.90625 0 "/></g></g></g><g fill="#ffffff" fill-opacity="1"><g transform="translate(269.330459, 247.213594)"><g><path d="M 11.234375 0 L 2.21875 0 L 2.21875 -16.171875 L 11.234375 -16.171875 L 11.234375 -14.5 L 4.109375 -14.5 L 4.109375 -9.296875 L 10.8125 -9.296875 L 10.8125 -7.640625 L 4.109375 -7.640625 L 4.109375 -1.6875 L 11.234375 -1.6875 Z M 11.234375 0 "/></g></g></g><g clip-path="url(#a74d698cd5)"><path fill="#ffffff" d="M 268.292969 169.339844 L 200.605469 26.367188 C 199.980469 25.046875 197.816406 25.046875 197.191406 26.367188 L 174.257812 74.777344 L 151.324219 26.347656 C 151.003906 25.6875 150.34375 25.273438 149.628906 25.273438 C 148.894531 25.273438 148.234375 25.6875 147.933594 26.347656 L 80.222656 169.359375 C 79.773438 170.300781 80.1875 171.433594 81.128906 171.867188 C 81.394531 171.996094 81.65625 172.054688 81.9375 172.054688 C 82.636719 172.054688 83.316406 171.65625 83.636719 170.980469 L 106.078125 123.527344 C 109.09375 123.527344 128.164062 123.585938 151.136719 123.625 L 129.484375 169.359375 C 129.03125 170.300781 129.445312 171.414062 130.390625 171.867188 C 131.332031 172.316406 132.441406 171.921875 132.894531 170.960938 L 155.300781 123.625 C 161.464844 123.640625 167.832031 123.640625 174.203125 123.640625 C 181.230469 123.640625 187.542969 123.660156 193.214844 123.660156 L 215.621094 170.960938 C 215.941406 171.640625 216.621094 172.035156 217.320312 172.035156 C 217.582031 172.035156 217.863281 171.976562 218.128906 171.847656 C 219.070312 171.394531 219.46875 170.28125 219.035156 169.339844 L 197.398438 123.660156 C 201.167969 123.660156 204.636719 123.660156 207.820312 123.660156 C 230.433594 123.660156 238.972656 123.566406 242.304688 123.226562 L 264.902344 170.921875 C 265.222656 171.601562 265.898438 171.996094 266.597656 171.996094 C 266.859375 171.996094 267.144531 171.941406 267.40625 171.808594 C 268.351562 171.394531 268.746094 170.28125 268.292969 169.339844 Z M 107.871094 119.761719 L 149.628906 31.546875 L 172.167969 79.1875 L 152.925781 119.855469 C 136.644531 119.816406 120.777344 119.777344 107.871094 119.761719 Z M 195.609375 119.890625 L 187.636719 103.082031 C 187.1875 102.140625 186.054688 101.746094 185.132812 102.179688 C 184.191406 102.628906 183.792969 103.742188 184.226562 104.683594 L 191.425781 119.890625 C 180.515625 119.890625 168.757812 119.875 157.074219 119.855469 L 198.890625 31.566406 L 240.667969 119.816406 C 234.957031 119.890625 217.320312 119.910156 195.609375 119.890625 Z M 195.609375 119.890625 " fill-opacity="1" fill-rule="nonzero"/></g></svg>