<svg xmlns="http://www.w3.org/2000/svg" xmlns:xlink="http://www.w3.org/1999/xlink" width="1080" zoomAndPan="magnify" viewBox="0 0 810 809.999993" height="1080" preserveAspectRatio="xMidYMid meet" version="1.0"><path fill="#bec4ed" d="M 213.828125 80.691406 C 360.34375 0.015625 556.625 83.828125 658.910156 176.746094 C 688.128906 203.285156 758.984375 269.507812 775.707031 375.636719 C 796.492188 507.464844 728.46875 667.257812 572.453125 735.609375 C 402.640625 810.003906 212.769531 739.496094 123.902344 625.046875 C 40.792969 518.007812 57.425781 391.976562 63.371094 346.953125 C 70.34375 294.132812 91.078125 148.277344 213.828125 80.691406 " fill-opacity="1" fill-rule="nonzero"/><path fill="#ffffff" d="M 663.953125 769.378906 L 623.664062 769.378906 L 623.664062 274.125 L 663.546875 271.304688 L 663.953125 769.378906 " fill-opacity="1" fill-rule="nonzero"/><path fill="#4f2b43" d="M 624.972656 768.070312 L 662.648438 768.070312 L 662.25 272.703125 L 624.972656 275.335938 Z M 663.957031 770.683594 L 623.664062 770.683594 C 622.941406 770.683594 622.359375 770.097656 622.359375 769.378906 L 622.359375 274.121094 C 622.359375 273.433594 622.886719 272.867188 623.574219 272.816406 L 663.460938 270.003906 C 663.820312 269.976562 664.179688 270.105469 664.441406 270.347656 C 664.707031 270.59375 664.855469 270.9375 664.855469 271.300781 L 665.257812 769.378906 C 665.257812 769.726562 665.125 770.054688 664.882812 770.300781 C 664.632812 770.542969 664.300781 770.683594 663.957031 770.683594 " fill-opacity="1" fill-rule="nonzero"/><path fill="#d2c7ff" d="M 771.984375 769.378906 L 663.957031 769.378906 C 663.730469 769.378906 663.550781 769.125 663.550781 768.8125 L 663.550781 271.890625 C 663.550781 271.566406 663.742188 271.3125 663.972656 271.328125 L 772 277.027344 C 772.21875 277.039062 772.390625 277.289062 772.390625 277.589844 L 772.390625 768.8125 C 772.390625 769.125 772.207031 769.378906 771.984375 769.378906 " fill-opacity="1" fill-rule="nonzero"/><path fill="#4f2b43" d="M 664.855469 768.074219 L 771.082031 768.074219 L 771.082031 278.289062 L 664.855469 272.679688 Z M 771.980469 770.683594 L 663.953125 770.683594 C 662.996094 770.683594 662.246094 769.863281 662.246094 768.8125 L 662.246094 271.890625 C 662.246094 271.34375 662.460938 270.828125 662.832031 270.480469 C 663.164062 270.164062 663.601562 270.003906 664.035156 270.027344 L 772.066406 275.730469 C 772.980469 275.777344 773.691406 276.59375 773.691406 277.59375 L 773.691406 768.8125 C 773.691406 769.863281 772.941406 770.683594 771.980469 770.683594 " fill-opacity="1" fill-rule="nonzero"/><path fill="#bec4ed" d="M 736.527344 511.046875 C 735.804688 511.046875 735.222656 510.460938 735.222656 509.742188 L 735.222656 308.621094 C 735.222656 307.902344 735.804688 307.320312 736.527344 307.320312 C 737.25 307.320312 737.832031 307.902344 737.832031 308.621094 L 737.832031 509.742188 C 737.832031 510.460938 737.25 511.046875 736.527344 511.046875 " fill-opacity="1" fill-rule="nonzero"/><path fill="#bec4ed" d="M 702.351562 439.386719 C 701.628906 439.386719 701.050781 438.800781 701.050781 438.078125 L 701.050781 378.746094 C 701.050781 378.023438 701.628906 377.441406 702.351562 377.441406 C 703.074219 377.441406 703.65625 378.023438 703.65625 378.746094 L 703.65625 438.078125 C 703.65625 438.800781 703.074219 439.386719 702.351562 439.386719 " fill-opacity="1" fill-rule="nonzero"/><path fill="#bec4ed" d="M 702.351562 642.832031 C 701.628906 642.832031 701.050781 642.25 701.050781 641.527344 L 701.050781 539.144531 C 701.050781 538.421875 701.628906 537.839844 702.351562 537.839844 C 703.074219 537.839844 703.65625 538.421875 703.65625 539.144531 L 703.65625 641.527344 C 703.65625 642.25 703.074219 642.832031 702.351562 642.832031 " fill-opacity="1" fill-rule="nonzero"/><path fill="#ffffff" d="M 528.097656 769.4375 L 487.988281 769.4375 L 487.988281 399.699219 L 527.875 387.097656 L 528.097656 769.4375 " fill-opacity="1" fill-rule="nonzero"/><path fill="#4f2b43" d="M 489.296875 768.132812 L 526.789062 768.132812 L 526.574219 388.875 L 489.296875 400.652344 Z M 528.097656 770.738281 L 487.988281 770.738281 C 487.269531 770.738281 486.683594 770.15625 486.683594 769.4375 L 486.683594 399.699219 C 486.683594 399.125 487.054688 398.625 487.59375 398.453125 L 527.484375 385.851562 C 527.878906 385.726562 528.3125 385.800781 528.648438 386.042969 C 528.984375 386.289062 529.179688 386.679688 529.179688 387.097656 L 529.398438 769.4375 C 529.398438 769.78125 529.265625 770.113281 529.019531 770.355469 C 528.769531 770.605469 528.4375 770.738281 528.097656 770.738281 " fill-opacity="1" fill-rule="nonzero"/><path fill="#d2c7ff" d="M 636.308594 769.4375 L 528.28125 769.4375 C 528.058594 769.4375 527.875 769.242188 527.875 769.003906 L 527.875 387.546875 C 527.875 387.304688 528.0625 387.105469 528.292969 387.117188 L 636.320312 391.492188 C 636.539062 391.5 636.714844 391.691406 636.714844 391.921875 L 636.714844 769.003906 C 636.714844 769.242188 636.53125 769.4375 636.308594 769.4375 " fill-opacity="1" fill-rule="nonzero"/><path fill="#4f2b43" d="M 529.179688 768.132812 L 635.410156 768.132812 L 635.410156 392.757812 L 529.179688 388.453125 Z M 636.3125 770.738281 L 528.285156 770.738281 C 527.339844 770.738281 526.578125 769.960938 526.578125 769 L 526.578125 387.546875 C 526.578125 387.070312 526.769531 386.605469 527.109375 386.277344 C 527.4375 385.964844 527.886719 385.792969 528.351562 385.8125 L 636.378906 390.1875 C 637.304688 390.226562 638.019531 390.988281 638.019531 391.921875 L 638.019531 769 C 638.019531 769.960938 637.253906 770.738281 636.3125 770.738281 " fill-opacity="1" fill-rule="nonzero"/><path fill="#bec4ed" d="M 582.324219 587.300781 C 581.601562 587.300781 581.015625 586.71875 581.015625 585.996094 L 581.015625 416.636719 C 581.015625 415.914062 581.601562 415.332031 582.324219 415.332031 C 583.039062 415.332031 583.625 415.914062 583.625 416.636719 L 583.625 585.996094 C 583.625 586.71875 583.039062 587.300781 582.324219 587.300781 " fill-opacity="1" fill-rule="nonzero"/><path fill="#bec4ed" d="M 553.796875 473.207031 C 553.082031 473.207031 552.492188 472.621094 552.492188 471.898438 L 552.492188 443.03125 C 552.492188 442.3125 553.082031 441.726562 553.796875 441.726562 C 554.519531 441.726562 555.105469 442.3125 555.105469 443.03125 L 555.105469 471.898438 C 555.105469 472.621094 554.519531 473.207031 553.796875 473.207031 " fill-opacity="1" fill-rule="nonzero"/><path fill="#bec4ed" d="M 553.796875 664.742188 C 553.082031 664.742188 552.492188 664.160156 552.492188 663.441406 L 552.492188 519.648438 C 552.492188 518.925781 553.082031 518.339844 553.796875 518.339844 C 554.519531 518.339844 555.105469 518.925781 555.105469 519.648438 L 555.105469 663.441406 C 555.105469 664.160156 554.519531 664.742188 553.796875 664.742188 " fill-opacity="1" fill-rule="nonzero"/><path fill="#bec4ed" d="M 610.835938 530.121094 C 610.121094 530.121094 609.535156 529.535156 609.535156 528.8125 L 609.535156 499.945312 C 609.535156 499.222656 610.121094 498.640625 610.835938 498.640625 C 611.558594 498.640625 612.144531 499.222656 612.144531 499.945312 L 612.144531 528.8125 C 612.144531 529.535156 611.558594 530.121094 610.835938 530.121094 " fill-opacity="1" fill-rule="nonzero"/><path fill="#ffffff" d="M 393.191406 769.4375 L 353.300781 769.4375 L 353.300781 556.929688 L 393.191406 548.183594 L 393.191406 769.4375 " fill-opacity="1" fill-rule="nonzero"/><path fill="#4f2b43" d="M 354.609375 768.132812 L 391.886719 768.132812 L 391.886719 549.808594 L 354.609375 557.980469 Z M 393.191406 770.738281 L 353.300781 770.738281 C 352.582031 770.738281 351.996094 770.15625 351.996094 769.4375 L 351.996094 556.929688 C 351.996094 556.316406 352.425781 555.789062 353.023438 555.652344 L 392.910156 546.90625 C 393.296875 546.824219 393.699219 546.917969 394.007812 547.167969 C 394.316406 547.417969 394.492188 547.789062 394.492188 548.183594 L 394.492188 769.4375 C 394.492188 770.15625 393.90625 770.738281 393.191406 770.738281 " fill-opacity="1" fill-rule="nonzero"/><path fill="#d2c7ff" d="M 502.027344 769.4375 L 393.191406 769.4375 L 393.191406 548.648438 C 393.191406 548.394531 393.398438 548.1875 393.652344 548.195312 L 502.027344 551.832031 L 502.027344 769.4375 " fill-opacity="1" fill-rule="nonzero"/><path fill="#4f2b43" d="M 394.492188 768.132812 L 500.71875 768.132812 L 500.71875 553.09375 L 394.492188 549.535156 Z M 503.332031 770.738281 L 391.886719 770.738281 L 391.886719 548.648438 C 391.886719 548.175781 392.078125 547.714844 392.417969 547.390625 C 392.757812 547.058594 393.207031 546.878906 393.695312 546.894531 L 503.332031 550.570312 L 503.332031 770.738281 " fill-opacity="1" fill-rule="nonzero"/><path fill="#bec4ed" d="M 422.121094 707.742188 C 421.402344 707.742188 420.816406 707.15625 420.816406 706.4375 L 420.816406 574.621094 C 420.816406 573.898438 421.402344 573.316406 422.121094 573.316406 C 422.839844 573.316406 423.425781 573.898438 423.425781 574.621094 L 423.425781 706.4375 C 423.425781 707.15625 422.839844 707.742188 422.121094 707.742188 " fill-opacity="1" fill-rule="nonzero"/><path fill="#bec4ed" d="M 479.160156 723.160156 C 478.445312 723.160156 477.859375 722.574219 477.859375 721.855469 L 477.859375 590.039062 C 477.859375 589.316406 478.445312 588.734375 479.160156 588.734375 C 479.882812 588.734375 480.46875 589.316406 480.46875 590.039062 L 480.46875 721.855469 C 480.46875 722.574219 479.882812 723.160156 479.160156 723.160156 " fill-opacity="1" fill-rule="nonzero"/><path fill="#bec4ed" d="M 450.644531 671.511719 C 449.921875 671.511719 449.335938 670.929688 449.335938 670.207031 L 449.335938 643.226562 C 449.335938 642.507812 449.921875 641.925781 450.644531 641.925781 C 451.359375 641.925781 451.945312 642.507812 451.945312 643.226562 L 451.945312 670.207031 C 451.945312 670.929688 451.359375 671.511719 450.644531 671.511719 " fill-opacity="1" fill-rule="nonzero"/><path fill="#ffffff" d="M 259.054688 769.4375 L 218.789062 769.4375 L 218.789062 664.039062 L 258.675781 656.175781 L 259.054688 769.4375 " fill-opacity="1" fill-rule="nonzero"/><path fill="#4f2b43" d="M 220.09375 768.132812 L 257.746094 768.132812 L 257.375 657.761719 L 220.09375 665.113281 Z M 259.054688 770.738281 L 218.789062 770.738281 C 218.070312 770.738281 217.484375 770.15625 217.484375 769.4375 L 217.484375 664.039062 C 217.484375 663.417969 217.925781 662.882812 218.539062 662.761719 L 258.421875 654.894531 C 258.804688 654.820312 259.203125 654.921875 259.503906 655.167969 C 259.804688 655.414062 259.980469 655.785156 259.980469 656.171875 L 260.359375 769.433594 C 260.363281 769.78125 260.222656 770.113281 259.980469 770.355469 C 259.734375 770.601562 259.402344 770.738281 259.054688 770.738281 " fill-opacity="1" fill-rule="nonzero"/><path fill="#d2c7ff" d="M 367.132812 769.4375 L 259.054688 769.4375 C 258.84375 769.4375 258.675781 769.265625 258.675781 769.058594 L 258.675781 656.5625 C 258.675781 656.347656 258.851562 656.179688 259.0625 656.183594 L 367.140625 657.945312 C 367.347656 657.949219 367.511719 658.121094 367.511719 658.324219 L 367.511719 769.058594 C 367.511719 769.265625 367.34375 769.4375 367.132812 769.4375 " fill-opacity="1" fill-rule="nonzero"/><path fill="#4f2b43" d="M 259.980469 768.132812 L 366.210938 768.132812 L 366.210938 659.234375 L 259.980469 657.503906 Z M 367.132812 770.738281 L 259.054688 770.738281 C 258.128906 770.738281 257.371094 769.984375 257.371094 769.058594 L 257.371094 656.5625 C 257.371094 656.105469 257.550781 655.679688 257.875 655.359375 C 258.199219 655.042969 258.636719 654.867188 259.082031 654.875 L 367.160156 656.640625 C 368.078125 656.65625 368.820312 657.414062 368.820312 658.324219 L 368.820312 769.058594 C 368.820312 769.984375 368.058594 770.738281 367.132812 770.738281 " fill-opacity="1" fill-rule="nonzero"/><path fill="#bec4ed" d="M 334.617188 743.972656 C 333.898438 743.972656 333.316406 743.386719 333.316406 742.664062 L 333.316406 675.605469 C 333.316406 674.882812 333.898438 674.296875 334.617188 674.296875 C 335.339844 674.296875 335.925781 674.882812 335.925781 675.605469 L 335.925781 742.664062 C 335.925781 743.386719 335.339844 743.972656 334.617188 743.972656 " fill-opacity="1" fill-rule="nonzero"/><path fill="#bec4ed" d="M 300.445312 720.078125 C 299.722656 720.078125 299.140625 719.492188 299.140625 718.769531 L 299.140625 698.984375 C 299.140625 698.261719 299.722656 697.679688 300.445312 697.679688 C 301.167969 697.679688 301.75 698.261719 301.75 698.984375 L 301.75 718.769531 C 301.75 719.492188 301.167969 720.078125 300.445312 720.078125 " fill-opacity="1" fill-rule="nonzero"/><path fill="#ffffff" d="M 124.863281 769.4375 L 84.597656 769.4375 L 84.597656 714.242188 L 124.484375 707.511719 L 124.863281 769.4375 " fill-opacity="1" fill-rule="nonzero"/><path fill="#4f2b43" d="M 85.902344 768.132812 L 123.550781 768.132812 L 123.1875 709.050781 L 85.902344 715.34375 Z M 124.863281 770.738281 L 84.597656 770.738281 C 83.878906 770.738281 83.292969 770.15625 83.292969 769.4375 L 83.292969 714.242188 C 83.292969 713.601562 83.753906 713.058594 84.382812 712.957031 L 124.269531 706.222656 C 124.640625 706.160156 125.03125 706.265625 125.324219 706.507812 C 125.617188 706.757812 125.789062 707.121094 125.789062 707.5 L 126.167969 769.429688 C 126.171875 769.777344 126.035156 770.105469 125.789062 770.355469 C 125.542969 770.601562 125.210938 770.738281 124.863281 770.738281 " fill-opacity="1" fill-rule="nonzero"/><path fill="#d2c7ff" d="M 232.945312 769.4375 L 124.863281 769.4375 C 124.65625 769.4375 124.484375 769.34375 124.484375 769.226562 L 124.484375 707.722656 C 124.484375 707.605469 124.65625 707.511719 124.871094 707.515625 L 232.949219 708.476562 C 233.15625 708.476562 233.324219 708.574219 233.324219 708.683594 L 233.324219 769.226562 C 233.324219 769.34375 233.152344 769.4375 232.945312 769.4375 " fill-opacity="1" fill-rule="nonzero"/><path fill="#4f2b43" d="M 125.789062 768.132812 L 232.015625 768.132812 L 232.015625 709.773438 L 125.789062 708.824219 Z M 232.945312 770.738281 L 124.863281 770.738281 C 123.917969 770.738281 123.179688 770.074219 123.179688 769.226562 L 123.179688 707.722656 C 123.179688 707.335938 123.335938 706.96875 123.613281 706.695312 C 123.929688 706.378906 124.40625 706.210938 124.882812 706.210938 L 232.960938 707.171875 C 233.910156 707.179688 234.628906 707.832031 234.628906 708.683594 L 234.628906 769.226562 C 234.628906 770.074219 233.886719 770.738281 232.945312 770.738281 " fill-opacity="1" fill-rule="nonzero"/><path fill="#bec4ed" d="M 200.429688 756.105469 C 199.707031 756.105469 199.125 755.519531 199.125 754.800781 L 199.125 718.128906 C 199.125 717.410156 199.707031 716.824219 200.429688 716.824219 C 201.148438 716.824219 201.734375 717.410156 201.734375 718.128906 L 201.734375 754.800781 C 201.734375 755.519531 201.148438 756.105469 200.429688 756.105469 " fill-opacity="1" fill-rule="nonzero"/><path fill="#bec4ed" d="M 166.253906 743.039062 C 165.535156 743.039062 164.949219 742.457031 164.949219 741.734375 L 164.949219 730.917969 C 164.949219 730.195312 165.535156 729.613281 166.253906 729.613281 C 166.976562 729.613281 167.558594 730.195312 167.558594 730.917969 L 167.558594 741.734375 C 167.558594 742.457031 166.976562 743.039062 166.253906 743.039062 " fill-opacity="1" fill-rule="nonzero"/><path fill="#9333ea" d="M 693.527344 262.871094 L 674.035156 262.871094 L 674.035156 210.90625 L 693.527344 210.90625 L 693.527344 262.871094 " fill-opacity="1" fill-rule="nonzero"/><path fill="#4f2b43" d="M 675.347656 261.566406 L 692.222656 261.566406 L 692.222656 212.210938 L 675.347656 212.210938 Z M 693.523438 264.175781 L 674.039062 264.175781 C 673.316406 264.175781 672.730469 263.589844 672.730469 262.867188 L 672.730469 210.902344 C 672.730469 210.1875 673.316406 209.601562 674.039062 209.601562 L 693.523438 209.601562 C 694.246094 209.601562 694.832031 210.1875 694.832031 210.902344 L 694.832031 262.867188 C 694.832031 263.589844 694.246094 264.175781 693.523438 264.175781 " fill-opacity="1" fill-rule="nonzero"/><path fill="#9333ea" d="M 699.121094 263.660156 L 668.226562 263.660156 C 666.972656 263.660156 665.960938 262.648438 665.960938 261.394531 L 665.960938 251.363281 C 665.960938 250.109375 666.972656 249.097656 668.226562 249.097656 L 699.121094 249.097656 C 700.378906 249.097656 701.390625 250.109375 701.390625 251.363281 L 701.390625 261.394531 C 701.390625 262.648438 700.378906 263.660156 699.121094 263.660156 " fill-opacity="1" fill-rule="nonzero"/><path fill="#4f2b43" d="M 672.925781 250.394531 C 669.8125 250.394531 667.273438 252.929688 667.273438 256.046875 L 667.273438 256.695312 C 667.273438 259.816406 669.8125 262.351562 672.925781 262.351562 L 694.4375 262.351562 C 697.554688 262.351562 700.089844 259.816406 700.089844 256.695312 L 700.089844 256.046875 C 700.089844 252.929688 697.554688 250.394531 694.4375 250.394531 Z M 694.4375 264.960938 L 672.925781 264.960938 C 668.371094 264.960938 664.664062 261.253906 664.664062 256.695312 L 664.664062 256.046875 C 664.664062 251.496094 668.371094 247.785156 672.925781 247.785156 L 694.4375 247.785156 C 698.992188 247.785156 702.703125 251.496094 702.703125 256.046875 L 702.703125 256.695312 C 702.703125 261.253906 698.992188 264.960938 694.4375 264.960938 " fill-opacity="1" fill-rule="nonzero"/><path fill="#9333ea" d="M 720.683594 272.714844 L 646.675781 272.714844 L 646.675781 264.851562 C 646.675781 262.890625 648.265625 261.296875 650.230469 261.296875 L 717.128906 261.296875 C 719.09375 261.296875 720.683594 262.890625 720.683594 264.851562 L 720.683594 272.714844 " fill-opacity="1" fill-rule="nonzero"/><path fill="#4f2b43" d="M 648.0625 271.410156 L 719.296875 271.410156 C 718.652344 266.449219 714.402344 262.601562 709.265625 262.601562 L 658.089844 262.601562 C 652.957031 262.601562 648.703125 266.449219 648.0625 271.410156 Z M 720.683594 274.019531 L 646.675781 274.019531 C 645.953125 274.019531 645.367188 273.433594 645.367188 272.714844 C 645.367188 265.699219 651.078125 259.992188 658.089844 259.992188 L 709.265625 259.992188 C 716.28125 259.992188 721.988281 265.699219 721.988281 272.714844 C 721.988281 273.433594 721.40625 274.019531 720.683594 274.019531 " fill-opacity="1" fill-rule="nonzero"/><path fill="#9333ea" d="M 668.730469 208.375 C 648.28125 196.890625 627.847656 179.5625 612.648438 160.832031 C 603.320312 149.335938 588.433594 127.8125 593.59375 112.898438 C 595.085938 108.597656 598.878906 103.1875 608.472656 101.871094 C 615.4375 100.917969 624.859375 102.234375 636.46875 105.792969 L 633.933594 116.042969 C 623.535156 112.855469 615.355469 111.636719 609.636719 112.421875 C 605.703125 112.957031 603.304688 114.410156 602.503906 116.722656 C 600.601562 122.214844 605.195312 135.789062 619.730469 153.707031 C 634.171875 171.503906 653.59375 187.964844 673.027344 198.882812 L 668.730469 208.375 " fill-opacity="1" fill-rule="nonzero"/><path fill="#4f2b43" d="M 613.199219 102.875 C 611.582031 102.875 610.058594 102.972656 608.652344 103.164062 C 599.710938 104.390625 596.199219 109.367188 594.832031 113.328125 C 589.875 127.648438 604.503906 148.722656 613.664062 160.011719 C 628.453125 178.242188 648.234375 195.128906 668.132812 206.53125 L 671.347656 199.429688 C 652.121094 188.4375 632.996094 172.128906 618.71875 154.53125 C 602.84375 134.96875 599.398438 121.707031 601.273438 116.292969 C 602.246094 113.476562 605.007812 111.738281 609.460938 111.128906 C 615.128906 110.347656 623.039062 111.453125 632.996094 114.398438 L 634.902344 106.683594 C 626.371094 104.148438 619.097656 102.875 613.199219 102.875 Z M 668.730469 209.675781 C 668.507812 209.675781 668.289062 209.621094 668.09375 209.507812 C 647.507812 197.953125 626.929688 180.507812 611.636719 161.65625 C 602.136719 149.945312 586.996094 127.988281 592.363281 112.472656 C 593.972656 107.824219 598.046875 101.984375 608.296875 100.578125 C 615.453125 99.597656 625.054688 100.933594 636.851562 104.546875 C 637.511719 104.75 637.902344 105.433594 637.734375 106.105469 L 635.203125 116.351562 C 635.113281 116.703125 634.894531 117 634.578125 117.175781 C 634.265625 117.351562 633.898438 117.394531 633.554688 117.289062 C 623.332031 114.15625 615.34375 112.957031 609.820312 113.714844 C 606.414062 114.183594 604.363281 115.339844 603.734375 117.152344 C 602.011719 122.136719 606.597656 135.449219 620.742188 152.886719 C 635.082031 170.558594 654.375 186.90625 673.664062 197.746094 C 674.261719 198.074219 674.496094 198.804688 674.21875 199.417969 L 669.917969 208.910156 C 669.769531 209.242188 669.484375 209.496094 669.140625 209.609375 C 669.007812 209.65625 668.867188 209.675781 668.730469 209.675781 " fill-opacity="1" fill-rule="nonzero"/><path fill="#9333ea" d="M 699.242188 207.777344 C 719.355469 196.296875 739.464844 178.96875 754.414062 160.238281 C 763.59375 148.738281 778.234375 127.21875 773.15625 112.304688 C 771.691406 108 767.960938 102.589844 758.519531 101.277344 C 751.667969 100.320312 742.402344 101.640625 730.984375 105.195312 L 733.46875 115.445312 C 743.710938 112.257812 751.75 111.039062 757.375 111.824219 C 761.246094 112.363281 763.609375 113.8125 764.394531 116.128906 C 766.265625 121.621094 761.746094 135.191406 747.445312 153.113281 C 733.242188 170.910156 714.132812 187.371094 695.015625 198.289062 L 699.242188 207.777344 " fill-opacity="1" fill-rule="nonzero"/><path fill="#4f2b43" d="M 696.679688 198.835938 L 699.839844 205.921875 C 719.398438 194.527344 738.855469 177.644531 753.390625 159.429688 C 762.40625 148.132812 776.796875 127.050781 771.921875 112.726562 C 770.574219 108.769531 767.125 103.792969 758.335938 102.570312 C 751.914062 101.675781 743.238281 102.859375 732.539062 106.089844 L 734.414062 113.796875 C 744.199219 110.855469 751.988281 109.757812 757.550781 110.539062 C 761.953125 111.148438 764.667969 112.890625 765.625 115.707031 C 767.464844 121.117188 764.082031 134.367188 748.464844 153.929688 C 734.417969 171.53125 715.589844 187.839844 696.679688 198.835938 Z M 699.242188 209.082031 C 699.101562 209.082031 698.964844 209.0625 698.832031 209.019531 C 698.480469 208.90625 698.199219 208.648438 698.046875 208.3125 L 693.820312 198.816406 C 693.546875 198.207031 693.785156 197.488281 694.363281 197.15625 C 713.34375 186.320312 732.320312 169.972656 746.421875 152.304688 C 760.34375 134.859375 764.855469 121.539062 763.15625 116.550781 C 762.539062 114.738281 760.535156 113.585938 757.191406 113.121094 C 751.757812 112.359375 743.90625 113.566406 733.855469 116.695312 C 733.511719 116.804688 733.140625 116.761719 732.824219 116.582031 C 732.515625 116.40625 732.285156 116.105469 732.203125 115.753906 L 729.707031 105.503906 C 729.546875 104.839844 729.933594 104.160156 730.589844 103.957031 C 742.199219 100.339844 751.65625 99.003906 758.699219 99.984375 C 768.800781 101.394531 772.8125 107.234375 774.390625 111.890625 C 779.667969 127.386719 764.777344 149.347656 755.429688 161.054688 C 740.386719 179.90625 720.140625 197.351562 699.882812 208.910156 C 699.6875 209.023438 699.460938 209.082031 699.242188 209.082031 " fill-opacity="1" fill-rule="nonzero"/><path fill="#9333ea" d="M 683.824219 217.597656 C 735.851562 218.175781 736.414062 144.273438 747.601562 85.40625 L 619.65625 84.929688 C 630 145.5 631.886719 218.578125 683.824219 217.597656 " fill-opacity="1" fill-rule="nonzero"/><path fill="#4f2b43" d="M 621.199219 86.246094 C 622.59375 94.542969 623.851562 103.171875 625.074219 111.527344 C 628.898438 137.679688 632.855469 164.726562 641.265625 184.46875 C 650.675781 206.554688 664.160156 216.667969 683.796875 216.292969 C 683.808594 216.292969 683.828125 216.292969 683.839844 216.292969 C 684.042969 216.296875 684.242188 216.296875 684.445312 216.296875 C 703.15625 216.296875 716.121094 206.582031 725.226562 185.753906 C 733.460938 166.917969 737.394531 141.132812 741.203125 116.207031 C 742.691406 106.421875 744.238281 96.3125 746.027344 86.703125 Z M 682.792969 218.914062 C 638.136719 218.914062 630.1875 164.523438 622.492188 111.90625 C 621.199219 103.050781 619.863281 93.894531 618.371094 85.15625 C 618.304688 84.777344 618.410156 84.386719 618.660156 84.09375 C 618.90625 83.800781 619.269531 83.628906 619.65625 83.628906 L 619.660156 83.628906 L 747.601562 84.105469 C 747.992188 84.105469 748.359375 84.28125 748.601562 84.578125 C 748.851562 84.875 748.953125 85.269531 748.878906 85.652344 C 746.976562 95.671875 745.355469 106.308594 743.785156 116.601562 C 736.101562 166.902344 728.160156 218.90625 684.429688 218.90625 C 684.226562 218.90625 684.03125 218.90625 683.828125 218.90625 C 683.480469 218.910156 683.136719 218.914062 682.792969 218.914062 " fill-opacity="1" fill-rule="nonzero"/><path fill="#bec4ed" d="M 729.078125 154.390625 C 728.988281 154.390625 728.902344 154.382812 728.8125 154.359375 C 728.105469 154.214844 727.652344 153.527344 727.800781 152.824219 C 730.167969 141.292969 731.773438 128.699219 733.328125 116.515625 C 734.359375 108.40625 735.429688 100.023438 736.710938 92.011719 C 736.828125 91.296875 737.5 90.8125 738.210938 90.925781 C 738.921875 91.042969 739.410156 91.710938 739.292969 92.425781 C 738.011719 100.394531 736.945312 108.753906 735.914062 116.847656 C 734.355469 129.078125 732.742188 141.726562 730.355469 153.347656 C 730.226562 153.96875 729.683594 154.390625 729.078125 154.390625 " fill-opacity="1" fill-rule="nonzero"/><path fill="#bec4ed" d="M 684.941406 212.261719 C 684.335938 212.261719 683.792969 211.839844 683.660156 211.230469 C 683.515625 210.519531 683.960938 209.828125 684.664062 209.679688 C 704.1875 205.542969 716.757812 192.03125 724.234375 167.160156 C 724.4375 166.472656 725.175781 166.078125 725.851562 166.289062 C 726.546875 166.496094 726.941406 167.222656 726.726562 167.910156 C 718.949219 193.792969 705.761719 207.878906 685.210938 212.234375 C 685.117188 212.253906 685.023438 212.261719 684.941406 212.261719 " fill-opacity="1" fill-rule="nonzero"/><path fill="#9333ea" d="M 752.484375 91.964844 L 616.007812 91.964844 C 614.5625 91.964844 613.390625 90.789062 613.390625 89.339844 L 613.390625 77.753906 C 613.390625 76.304688 614.5625 75.132812 616.007812 75.132812 L 752.484375 75.132812 C 753.933594 75.132812 755.105469 76.304688 755.105469 77.753906 L 755.105469 89.339844 C 755.105469 90.789062 753.933594 91.964844 752.484375 91.964844 " fill-opacity="1" fill-rule="nonzero"/><path fill="#4f2b43" d="M 621.804688 76.4375 C 617.882812 76.4375 614.695312 79.625 614.695312 83.546875 C 614.695312 87.464844 617.882812 90.65625 621.804688 90.65625 L 746.691406 90.65625 C 750.609375 90.65625 753.800781 87.464844 753.800781 83.546875 C 753.800781 79.625 750.609375 76.4375 746.691406 76.4375 Z M 746.691406 93.265625 L 621.804688 93.265625 C 616.441406 93.265625 612.082031 88.910156 612.082031 83.546875 C 612.082031 78.1875 616.441406 73.824219 621.804688 73.824219 L 746.691406 73.824219 C 752.046875 73.824219 756.410156 78.1875 756.410156 83.546875 C 756.410156 88.910156 752.046875 93.265625 746.691406 93.265625 " fill-opacity="1" fill-rule="nonzero"/><path fill="#bec4ed" d="M 711.464844 83.378906 C 710.75 83.378906 710.167969 82.804688 710.164062 82.085938 C 710.152344 81.367188 710.730469 80.777344 711.453125 80.769531 L 737.988281 80.472656 C 737.996094 80.472656 738 80.472656 738.003906 80.472656 C 738.714844 80.472656 739.300781 81.046875 739.3125 81.765625 C 739.316406 82.484375 738.734375 83.074219 738.019531 83.082031 L 711.480469 83.378906 C 711.476562 83.378906 711.46875 83.378906 711.464844 83.378906 " fill-opacity="1" fill-rule="nonzero"/><path fill="#bec4ed" d="M 689.726562 83.628906 C 689.007812 83.628906 688.429688 83.054688 688.425781 82.339844 C 688.414062 81.621094 688.996094 81.023438 689.714844 81.019531 L 704.492188 80.851562 C 704.5 80.851562 704.503906 80.851562 704.507812 80.851562 C 705.222656 80.851562 705.804688 81.425781 705.816406 82.144531 C 705.820312 82.863281 705.238281 83.453125 704.523438 83.464844 L 689.742188 83.628906 C 689.734375 83.628906 689.730469 83.628906 689.726562 83.628906 " fill-opacity="1" fill-rule="nonzero"/><path fill="#ffffff" d="M 250.4375 600.980469 L 246.492188 635.957031 L 261.367188 642.148438 L 266.847656 604.015625 L 250.4375 600.980469 " fill-opacity="1" fill-rule="nonzero"/><path fill="#4f2b43" d="M 247.898438 635.128906 L 260.316406 640.300781 L 265.378906 605.070312 L 251.574219 602.515625 Z M 261.367188 643.453125 C 261.199219 643.453125 261.027344 643.417969 260.867188 643.351562 L 245.988281 637.160156 C 245.457031 636.9375 245.128906 636.386719 245.195312 635.808594 L 249.136719 600.832031 C 249.179688 600.46875 249.367188 600.148438 249.660156 599.929688 C 249.949219 599.710938 250.316406 599.628906 250.671875 599.695312 L 267.085938 602.734375 C 267.773438 602.859375 268.238281 603.511719 268.140625 604.203125 L 262.660156 642.335938 C 262.601562 642.734375 262.363281 643.085938 262.015625 643.285156 C 261.816406 643.394531 261.589844 643.453125 261.367188 643.453125 " fill-opacity="1" fill-rule="nonzero"/><path fill="#d2c7ff" d="M 243.03125 632.652344 C 242.5625 635.96875 241.804688 642.117188 241.742188 647.632812 C 241.703125 651.097656 244.300781 654.019531 247.738281 654.457031 C 257.449219 655.703125 279.480469 657.070312 298.246094 655.367188 C 299.53125 655.25 301.804688 654.316406 302.4375 651.105469 C 304.558594 640.335938 285.824219 637.695312 265.277344 629.882812 C 264.472656 629.578125 263.5625 629.757812 262.945312 630.359375 L 260.730469 632.503906 C 258.511719 634.648438 255.226562 635.257812 252.386719 634.046875 L 245.648438 631.175781 C 244.5 630.6875 243.207031 631.417969 243.03125 632.652344 " fill-opacity="1" fill-rule="nonzero"/><path fill="#4f2b43" d="M 244.324219 632.835938 C 243.871094 636.015625 243.109375 642.167969 243.046875 647.648438 C 243.015625 650.433594 245.105469 652.804688 247.902344 653.164062 C 257.917969 654.449219 279.558594 655.753906 298.128906 654.066406 C 298.535156 654.027344 300.59375 653.703125 301.15625 650.851562 C 302.492188 644.070312 293.960938 640.917969 278.765625 635.929688 C 274.285156 634.464844 269.65625 632.941406 264.816406 631.101562 C 264.480469 630.976562 264.101562 631.050781 263.851562 631.292969 L 261.636719 633.4375 C 259.039062 635.957031 255.207031 636.664062 251.875 635.246094 L 245.136719 632.375 C 244.90625 632.273438 244.710938 632.351562 244.617188 632.402344 C 244.523438 632.457031 244.359375 632.582031 244.324219 632.835938 Z M 278.695312 657.476562 C 266.050781 657.476562 254.253906 656.613281 247.574219 655.753906 C 243.457031 655.226562 240.390625 651.730469 240.4375 647.621094 C 240.503906 641.996094 241.28125 635.714844 241.738281 632.46875 C 241.878906 631.476562 242.460938 630.621094 243.335938 630.128906 C 244.207031 629.636719 245.238281 629.582031 246.160156 629.976562 L 252.898438 632.847656 C 255.261719 633.851562 257.976562 633.351562 259.824219 631.5625 L 262.035156 629.417969 C 263.015625 628.476562 264.46875 628.179688 265.742188 628.660156 C 270.527344 630.484375 275.128906 631.992188 279.578125 633.457031 C 294.097656 638.21875 305.566406 641.980469 303.714844 651.355469 C 303.003906 654.984375 300.386719 656.480469 298.367188 656.667969 C 291.972656 657.246094 285.222656 657.476562 278.695312 657.476562 " fill-opacity="1" fill-rule="nonzero"/><path fill="#ffffff" d="M 241.757812 646.804688 C 241.757812 646.804688 241.746094 647.363281 241.742188 647.632812 C 241.703125 651.097656 244.300781 654.019531 247.738281 654.457031 C 257.449219 655.703125 279.480469 657.070312 298.246094 655.367188 C 299.53125 655.25 301.804688 654.316406 302.4375 651.105469 C 302.628906 650.121094 302.511719 648.351562 302.511719 648.351562 L 301.179688 648.414062 C 282.214844 649.351562 263.210938 648.894531 244.316406 647.054688 L 241.757812 646.804688 " fill-opacity="1" fill-rule="nonzero"/><path fill="#4f2b43" d="M 243.074219 648.246094 C 243.320312 650.765625 245.304688 652.832031 247.902344 653.164062 C 257.917969 654.449219 279.558594 655.753906 298.128906 654.066406 C 298.535156 654.027344 300.59375 653.703125 301.15625 650.851562 C 301.214844 650.5625 301.234375 650.136719 301.242188 649.722656 C 282.28125 650.65625 263.085938 650.195312 244.191406 648.355469 Z M 278.695312 657.476562 C 266.050781 657.476562 254.253906 656.613281 247.574219 655.753906 C 243.457031 655.226562 240.390625 651.730469 240.4375 647.621094 L 240.453125 646.777344 C 240.460938 646.414062 240.621094 646.070312 240.890625 645.828125 C 241.160156 645.589844 241.523438 645.46875 241.882812 645.507812 L 244.441406 645.753906 C 263.210938 647.585938 282.277344 648.042969 301.117188 647.113281 L 302.449219 647.046875 C 303.175781 647.011719 303.765625 647.554688 303.8125 648.265625 C 303.828125 648.460938 303.9375 650.238281 303.714844 651.355469 C 303.003906 654.984375 300.386719 656.480469 298.367188 656.667969 C 291.972656 657.246094 285.222656 657.476562 278.695312 657.476562 " fill-opacity="1" fill-rule="nonzero"/><path fill="#4f2b43" d="M 269.988281 642.820312 C 269.65625 642.820312 269.324219 642.691406 269.066406 642.4375 C 268.558594 641.929688 268.558594 641.101562 269.066406 640.589844 L 276.277344 633.378906 C 276.785156 632.871094 277.609375 632.871094 278.121094 633.378906 C 278.628906 633.886719 278.628906 634.71875 278.121094 635.226562 L 270.914062 642.4375 C 270.65625 642.691406 270.324219 642.820312 269.988281 642.820312 " fill-opacity="1" fill-rule="nonzero"/><path fill="#4f2b43" d="M 277.070312 643.566406 C 276.746094 643.566406 276.417969 643.445312 276.167969 643.203125 C 275.648438 642.703125 275.628906 641.875 276.132812 641.355469 L 281.890625 635.371094 C 282.390625 634.855469 283.21875 634.839844 283.734375 635.339844 C 284.253906 635.835938 284.269531 636.664062 283.769531 637.183594 L 278.011719 643.167969 C 277.753906 643.433594 277.414062 643.566406 277.070312 643.566406 " fill-opacity="1" fill-rule="nonzero"/><path fill="#4f2b43" d="M 304.464844 370.464844 C 304.464844 370.464844 295.40625 375.722656 291.871094 406.539062 C 288.339844 437.359375 289.519531 473.683594 264.90625 509.714844 C 245.25 538.484375 246.976562 587.046875 244.117188 618.875 C 243.980469 620.410156 245.164062 621.742188 246.703125 621.792969 L 265.546875 622.441406 C 266.75 622.484375 267.832031 621.726562 268.199219 620.585938 C 271.566406 610.15625 288.316406 559.835938 307.132812 530.660156 C 327.015625 499.828125 351.195312 419.792969 351.195312 419.792969 C 351.195312 419.792969 346.707031 399.5625 346.082031 380.175781 C 345.460938 360.785156 304.464844 370.464844 304.464844 370.464844 " fill-opacity="1" fill-rule="nonzero"/><path fill="#ffffff" d="M 415.441406 497.21875 L 407.492188 531.511719 L 421.554688 539.375 L 431.390625 502.128906 L 415.441406 497.21875 " fill-opacity="1" fill-rule="nonzero"/><path fill="#4f2b43" d="M 408.988281 530.851562 L 420.722656 537.414062 L 429.8125 503.007812 L 416.394531 498.878906 Z M 421.554688 540.683594 C 421.335938 540.683594 421.117188 540.628906 420.921875 540.515625 L 406.855469 532.652344 C 406.347656 532.367188 406.089844 531.78125 406.222656 531.21875 L 414.171875 496.921875 C 414.25 496.574219 414.476562 496.269531 414.789062 496.085938 C 415.101562 495.910156 415.476562 495.867188 415.824219 495.972656 L 431.777344 500.882812 C 432.445312 501.089844 432.835938 501.785156 432.652344 502.460938 L 422.816406 539.710938 C 422.714844 540.097656 422.4375 540.421875 422.066406 540.578125 C 421.902344 540.648438 421.730469 540.683594 421.554688 540.683594 " fill-opacity="1" fill-rule="nonzero"/><path fill="#d2c7ff" d="M 405.804688 529.484375 C 405.332031 532.800781 402.355469 539.085938 402.292969 544.601562 C 402.253906 548.0625 404.851562 550.988281 408.289062 551.425781 C 418 552.671875 442.253906 553.902344 461.019531 552.199219 C 462.304688 552.082031 464.578125 551.144531 465.207031 547.9375 C 467.335938 537.167969 448.59375 534.527344 428.054688 526.714844 C 427.25 526.410156 426.335938 526.589844 425.71875 527.191406 L 423.503906 529.335938 C 421.289062 531.484375 417.996094 532.089844 415.160156 530.878906 L 408.421875 528.007812 C 407.273438 527.519531 405.976562 528.25 405.804688 529.484375 " fill-opacity="1" fill-rule="nonzero"/><path fill="#4f2b43" d="M 407.097656 529.667969 C 406.910156 531 406.378906 532.667969 405.769531 534.589844 C 404.816406 537.597656 403.632812 541.339844 403.597656 544.617188 C 403.566406 547.398438 405.652344 549.773438 408.453125 550.132812 C 417.25 551.265625 441.664062 552.644531 460.902344 550.898438 C 461.308594 550.859375 463.367188 550.535156 463.929688 547.683594 C 465.265625 540.902344 456.734375 537.75 441.542969 532.765625 C 437.058594 531.296875 432.429688 529.773438 427.585938 527.933594 C 427.253906 527.808594 426.878906 527.882812 426.625 528.125 L 424.410156 530.273438 C 421.8125 532.789062 417.976562 533.5 414.648438 532.078125 L 407.910156 529.207031 C 407.675781 529.109375 407.484375 529.183594 407.390625 529.234375 C 407.292969 529.289062 407.132812 529.414062 407.097656 529.667969 Z M 439.988281 554.332031 C 427.28125 554.332031 414.929688 553.59375 408.121094 552.71875 C 404.007812 552.195312 400.941406 548.695312 400.984375 544.585938 C 401.03125 540.917969 402.28125 536.972656 403.28125 533.808594 C 403.859375 531.992188 404.355469 530.421875 404.511719 529.300781 C 404.652344 528.308594 405.234375 527.453125 406.105469 526.960938 C 406.980469 526.46875 408.011719 526.414062 408.933594 526.804688 L 415.671875 529.679688 C 418.03125 530.6875 420.75 530.183594 422.59375 528.398438 L 424.8125 526.25 C 425.785156 525.308594 427.242188 525.011719 428.515625 525.496094 C 433.300781 527.316406 437.90625 528.824219 442.355469 530.289062 C 456.871094 535.050781 468.339844 538.8125 466.488281 548.1875 C 465.777344 551.816406 463.160156 553.316406 461.140625 553.5 C 454.617188 554.089844 447.242188 554.332031 439.988281 554.332031 " fill-opacity="1" fill-rule="nonzero"/><path fill="#ffffff" d="M 402.820312 543.542969 C 402.820312 543.542969 402.808594 544.101562 402.804688 544.371094 C 402.765625 547.835938 405.367188 550.753906 408.800781 551.195312 C 418.515625 552.441406 442.253906 553.902344 461.019531 552.199219 C 462.304688 552.082031 464.578125 551.144531 465.207031 547.9375 C 465.40625 546.953125 465.28125 545.183594 465.28125 545.183594 L 463.953125 545.246094 C 444.988281 546.1875 425.988281 545.726562 407.089844 543.886719 L 402.820312 543.542969 " fill-opacity="1" fill-rule="nonzero"/><path fill="#4f2b43" d="M 404.132812 544.960938 C 404.371094 547.492188 406.359375 549.566406 408.96875 549.902344 C 417.472656 550.996094 441.351562 552.671875 460.902344 550.898438 C 461.308594 550.859375 463.367188 550.535156 463.929688 547.683594 C 463.984375 547.40625 464.007812 546.984375 464.011719 546.554688 C 445.050781 547.488281 425.855469 547.03125 406.960938 545.1875 Z M 441.789062 554.28125 C 427.710938 554.28125 414.527344 553.246094 408.636719 552.492188 C 404.519531 551.960938 401.457031 548.464844 401.503906 544.355469 L 401.515625 543.515625 C 401.523438 543.15625 401.679688 542.816406 401.945312 542.574219 C 402.210938 542.332031 402.5625 542.214844 402.929688 542.242188 L 407.195312 542.585938 C 425.988281 544.417969 445.050781 544.875 463.890625 543.945312 L 465.21875 543.878906 C 465.949219 543.84375 466.539062 544.386719 466.585938 545.09375 C 466.601562 545.292969 466.710938 547.074219 466.488281 548.195312 C 465.777344 551.816406 463.160156 553.316406 461.140625 553.5 C 454.914062 554.0625 448.261719 554.28125 441.789062 554.28125 " fill-opacity="1" fill-rule="nonzero"/><path fill="#4f2b43" d="M 432.765625 539.652344 C 432.429688 539.652344 432.097656 539.523438 431.839844 539.269531 C 431.332031 538.761719 431.332031 537.933594 431.839844 537.421875 L 439.046875 530.210938 C 439.558594 529.703125 440.386719 529.703125 440.894531 530.210938 C 441.402344 530.722656 441.402344 531.550781 440.894531 532.058594 L 433.6875 539.269531 C 433.429688 539.523438 433.097656 539.652344 432.765625 539.652344 " fill-opacity="1" fill-rule="nonzero"/><path fill="#4f2b43" d="M 439.84375 540.398438 C 439.519531 540.398438 439.195312 540.28125 438.9375 540.035156 C 438.421875 539.535156 438.40625 538.710938 438.902344 538.191406 L 444.664062 532.203125 C 445.167969 531.6875 445.992188 531.671875 446.507812 532.171875 C 447.03125 532.667969 447.042969 533.5 446.542969 534.015625 L 440.785156 540 C 440.527344 540.265625 440.1875 540.398438 439.84375 540.398438 " fill-opacity="1" fill-rule="nonzero"/><path fill="#4f2b43" d="M 340.765625 425.230469 C 340.765625 425.230469 383.105469 421.902344 430.363281 396.523438 C 431.757812 395.777344 432.65625 398.085938 431.8125 399.421875 C 429.433594 403.183594 428.167969 408.832031 424.621094 418.460938 C 420.25 430.316406 411.03125 491.65625 407.988281 510.742188 C 407.714844 512.472656 409.015625 514.042969 410.757812 514.097656 L 428.929688 514.6875 C 430.078125 514.722656 431.136719 514.085938 431.636719 513.050781 C 438.191406 499.394531 481 391.898438 479.363281 371.878906 C 477.597656 350.234375 452.886719 351.683594 442.578125 351.019531 C 431.917969 350.332031 335.257812 368.398438 335.257812 368.398438 L 340.765625 425.230469 " fill-opacity="1" fill-rule="nonzero"/><path fill="#ffffff" d="M 211.980469 393.617188 C 213.445312 391.875 215.339844 389.828125 216.96875 388.21875 C 219.074219 386.136719 226.101562 372.460938 226.101562 372.460938 L 238.386719 375.941406 C 238.386719 375.941406 232.644531 385.988281 234.023438 390.996094 C 235.308594 395.652344 236.324219 405.496094 229.5 412.660156 C 228.714844 413.484375 227 413.703125 226.40625 413.5625 C 224.625 413.148438 224.589844 410.671875 225.460938 409.066406 L 227.925781 404.527344 C 228.144531 404.128906 227.816406 403.65625 227.363281 403.71875 C 225.523438 403.980469 221.46875 405.15625 217.226562 410.394531 C 213.960938 414.421875 207.488281 423.410156 205.3125 421.917969 C 201.429688 419.261719 203.96875 403.164062 211.980469 393.617188 " fill-opacity="1" fill-rule="nonzero"/><path fill="#4f2b43" d="M 211.980469 393.617188 L 211.988281 393.617188 Z M 212.980469 394.457031 C 207.183594 401.367188 204.148438 412.289062 204.953125 418.152344 C 205.125 419.429688 205.488281 420.371094 205.957031 420.773438 C 207.605469 420.511719 212.453125 414.335938 214.546875 411.671875 C 215.15625 410.894531 215.71875 410.175781 216.210938 409.574219 C 220.671875 404.066406 225 402.730469 227.183594 402.425781 C 227.878906 402.324219 228.5625 402.625 228.964844 403.207031 C 229.367188 403.785156 229.410156 404.53125 229.074219 405.148438 L 226.609375 409.691406 C 226.210938 410.421875 226.09375 411.425781 226.339844 411.972656 C 226.4375 412.1875 226.554688 412.257812 226.703125 412.289062 C 227.0625 412.351562 228.191406 412.144531 228.554688 411.761719 C 235.820312 404.136719 233.339844 393.414062 232.765625 391.34375 C 231.566406 386.996094 234.84375 379.882812 236.464844 376.753906 L 226.769531 374.007812 C 225.046875 377.320312 219.8125 387.238281 217.886719 389.144531 C 216.265625 390.746094 214.386719 392.78125 212.980469 394.457031 Z M 205.863281 423.402344 C 205.410156 423.402344 204.976562 423.269531 204.578125 422.996094 C 203.410156 422.195312 202.664062 420.683594 202.367188 418.507812 C 201.488281 412.117188 204.535156 400.464844 210.980469 392.777344 C 212.457031 391.019531 214.355469 388.96875 216.050781 387.285156 C 217.476562 385.882812 222.261719 377.078125 224.941406 371.863281 C 225.222656 371.3125 225.859375 371.039062 226.457031 371.207031 L 238.742188 374.6875 C 239.128906 374.796875 239.445312 375.078125 239.597656 375.449219 C 239.75 375.816406 239.722656 376.238281 239.519531 376.585938 C 238 379.253906 234.269531 386.980469 235.28125 390.648438 C 237.125 397.335938 236.824219 406.867188 230.445312 413.5625 C 229.257812 414.808594 227.027344 415.046875 226.109375 414.835938 C 225.136719 414.605469 224.375 413.972656 223.957031 413.039062 C 223.367188 411.730469 223.507812 409.925781 224.316406 408.441406 L 225.976562 405.386719 C 224.097656 406.011719 221.230469 407.523438 218.238281 411.214844 C 217.753906 411.8125 217.199219 412.519531 216.597656 413.285156 C 211.902344 419.265625 208.433594 423.402344 205.863281 423.402344 " fill-opacity="1" fill-rule="nonzero"/><path fill="#9333ea" d="M 506.523438 239.160156 L 498.585938 225.777344 C 497.28125 223.574219 493.167969 222.910156 491.117188 224.4375 C 446.246094 257.886719 398.511719 244.238281 391.132812 242.484375 C 372.839844 238.128906 363.617188 237.464844 349.179688 236.585938 C 328.042969 235.296875 297.636719 247.519531 277.175781 267.980469 C 260.898438 284.257812 233.136719 337.046875 220.550781 373.726562 C 220.019531 375.269531 220.699219 376.960938 222.148438 377.710938 L 234.777344 384.265625 C 236.378906 385.097656 238.347656 384.488281 239.195312 382.894531 C 245.625 370.78125 273.46875 320.558594 302.617188 303.976562 C 304.757812 302.757812 307.984375 304.046875 307.859375 306.507812 C 307.472656 314.226562 302.679688 342.847656 301.21875 369.359375 C 301.027344 372.851562 303.441406 375.960938 306.886719 376.597656 L 319.636719 378.960938 C 341.875 384.144531 362.726562 378.371094 371.914062 375.09375 C 374.722656 374.085938 376.085938 371.375 376.511719 368.421875 C 377.222656 363.519531 387.09375 324.207031 405.09375 298.207031 C 407.359375 294.933594 410.789062 292.664062 414.765625 292.4375 C 430.816406 291.5 476.5 285.078125 506.328125 243.28125 C 507.203125 242.0625 507.285156 240.449219 506.523438 239.160156 " fill-opacity="1" fill-rule="nonzero"/><path fill="#ffffff" d="M 495.59375 229.800781 C 495.421875 228.804688 495.777344 227.796875 496.546875 227.140625 C 497.5625 226.277344 499.28125 224.804688 501.765625 222.625 C 506.15625 218.785156 511.648438 211.121094 516.433594 208.820312 C 521.21875 206.519531 538.582031 199.738281 541.359375 201.179688 C 544.132812 202.617188 542.753906 205.878906 538.816406 207.769531 C 534.875 209.664062 529.746094 211.609375 529.746094 211.609375 C 529.746094 211.609375 532.613281 211.441406 534.734375 214.757812 C 536.851562 218.070312 533.914062 219.410156 535.15625 221.046875 C 536.738281 223.148438 536.273438 225.59375 535.011719 226.660156 C 532.140625 229.101562 528.675781 224.28125 526.085938 229.269531 C 524.28125 232.738281 520.03125 235 511.40625 236.644531 C 509.089844 237.085938 506.886719 237.976562 504.886719 239.222656 C 504.066406 239.742188 503.011719 239.78125 502.164062 239.300781 C 500.105469 238.140625 496.535156 235.371094 495.59375 229.800781 " fill-opacity="1" fill-rule="nonzero"/><path fill="#4f2b43" d="M 540.089844 202.242188 C 536.40625 202.242188 522.660156 207.273438 517 209.992188 C 514.179688 211.351562 510.96875 214.855469 507.859375 218.25 C 506.015625 220.265625 504.277344 222.164062 502.628906 223.605469 C 500.128906 225.792969 498.414062 227.265625 497.390625 228.132812 C 496.976562 228.488281 496.785156 229.03125 496.878906 229.582031 C 497.730469 234.621094 500.957031 237.121094 502.804688 238.167969 C 503.230469 238.402344 503.765625 238.386719 504.195312 238.113281 C 506.375 236.757812 508.71875 235.828125 511.15625 235.363281 C 519.167969 233.832031 523.28125 231.828125 524.925781 228.671875 C 526.871094 224.921875 529.597656 225.492188 531.410156 225.867188 C 532.734375 226.144531 533.464844 226.269531 534.164062 225.667969 C 534.886719 225.050781 535.277344 223.375 534.113281 221.832031 C 533.160156 220.574219 533.605469 219.324219 533.898438 218.5 C 534.234375 217.5625 534.503906 216.824219 533.628906 215.460938 C 531.988281 212.890625 529.890625 212.910156 529.800781 212.910156 C 529.179688 212.9375 528.601562 212.484375 528.472656 211.859375 C 528.351562 211.234375 528.691406 210.613281 529.28125 210.386719 C 529.332031 210.367188 534.40625 208.441406 538.25 206.589844 C 540.472656 205.523438 541.496094 204.136719 541.511719 203.296875 C 541.511719 203.144531 541.519531 202.730469 540.757812 202.332031 C 540.601562 202.273438 540.378906 202.242188 540.089844 202.242188 Z M 503.457031 240.941406 C 502.789062 240.941406 502.121094 240.777344 501.523438 240.4375 C 499.265625 239.167969 495.335938 236.121094 494.308594 230.019531 C 494.0625 228.570312 494.59375 227.085938 495.699219 226.144531 C 496.71875 225.28125 498.425781 223.816406 500.90625 221.640625 C 502.449219 220.292969 504.144531 218.445312 505.9375 216.484375 C 509.214844 212.910156 512.597656 209.214844 515.871094 207.644531 C 516.082031 207.542969 537.878906 197.898438 541.957031 200.019531 C 543.351562 200.742188 544.140625 201.949219 544.121094 203.335938 C 544.089844 205.410156 542.269531 207.554688 539.378906 208.949219 C 537.433594 209.882812 535.222656 210.820312 533.457031 211.542969 C 534.261719 212.09375 535.089844 212.898438 535.832031 214.050781 C 537.390625 216.496094 536.769531 218.230469 536.355469 219.378906 C 536.089844 220.125 536.121094 220.164062 536.199219 220.265625 C 538.210938 222.933594 537.59375 226.179688 535.855469 227.65625 C 534.152344 229.105469 532.257812 228.714844 530.871094 228.421875 C 529.144531 228.058594 528.273438 227.882812 527.246094 229.871094 C 525.195312 233.820312 520.527344 236.230469 511.652344 237.925781 C 509.527344 238.332031 507.484375 239.136719 505.582031 240.332031 C 504.925781 240.738281 504.191406 240.941406 503.457031 240.941406 " fill-opacity="1" fill-rule="nonzero"/><path fill="#ffffff" d="M 379.589844 200.304688 L 355.851562 239.648438 C 355.527344 240.101562 352.042969 239.976562 348.113281 240.378906 C 346.277344 240.5625 344.359375 240.84375 342.765625 241.101562 C 341.460938 241.3125 341.09375 243.019531 342.199219 243.746094 L 346.445312 246.5625 C 355.355469 252.460938 365.933594 255.515625 376.589844 254.789062 C 379.554688 254.589844 382.394531 254.109375 384.921875 253.328125 L 394.015625 250.464844 C 395.375 250.035156 395.367188 248.101562 393.996094 247.6875 L 382.417969 244.175781 L 392.191406 223.433594 L 379.589844 200.304688 " fill-opacity="1" fill-rule="nonzero"/><path fill="#4f2b43" d="M 379.535156 202.917969 L 356.972656 240.320312 C 356.953125 240.351562 356.933594 240.382812 356.914062 240.414062 C 356.351562 241.183594 355.398438 241.234375 352.566406 241.375 C 351.339844 241.433594 349.808594 241.511719 348.246094 241.667969 C 346.714844 241.824219 344.945312 242.066406 342.980469 242.382812 C 342.945312 242.386719 342.878906 242.398438 342.859375 242.5 C 342.839844 242.597656 342.890625 242.636719 342.921875 242.65625 L 347.171875 245.46875 C 356.007812 251.320312 366.421875 254.167969 376.511719 253.480469 C 379.484375 253.28125 382.183594 252.804688 384.535156 252.074219 L 393.625 249.214844 C 393.667969 249.199219 393.730469 249.179688 393.730469 249.070312 C 393.730469 248.960938 393.664062 248.945312 393.621094 248.933594 L 382.042969 245.421875 C 381.683594 245.308594 381.386719 245.046875 381.230469 244.703125 C 381.074219 244.355469 381.082031 243.957031 381.242188 243.613281 L 390.734375 223.46875 Z M 373.550781 256.191406 C 363.894531 256.191406 354.128906 253.207031 345.730469 247.644531 L 341.480469 244.832031 C 340.527344 244.199219 340.0625 243.066406 340.304688 241.949219 C 340.546875 240.832031 341.433594 239.988281 342.566406 239.808594 C 344.578125 239.480469 346.402344 239.234375 347.980469 239.074219 C 349.609375 238.90625 351.179688 238.828125 352.4375 238.769531 C 353.390625 238.722656 354.449219 238.664062 354.96875 238.589844 L 378.476562 199.625 C 378.71875 199.222656 379.167969 198.988281 379.621094 198.996094 C 380.09375 199.003906 380.519531 199.261719 380.738281 199.671875 L 393.34375 222.800781 C 393.542969 223.167969 393.558594 223.601562 393.378906 223.976562 L 384.246094 243.359375 L 394.382812 246.433594 C 395.546875 246.785156 396.332031 247.839844 396.339844 249.058594 C 396.34375 250.273438 395.566406 251.339844 394.40625 251.703125 L 385.3125 254.5625 C 382.769531 255.359375 379.867188 255.871094 376.6875 256.085938 C 375.640625 256.15625 374.59375 256.191406 373.550781 256.191406 " fill-opacity="1" fill-rule="nonzero"/><path fill="#ffffff" d="M 390.1875 224.242188 C 391.4375 224.402344 392.71875 224.449219 394.03125 224.382812 L 396.378906 224.261719 C 396.378906 224.261719 409.820312 222.476562 411.976562 219.144531 C 414.132812 215.808594 409.570312 203.710938 409.570312 203.710938 C 411.652344 202.09375 412.117188 200.050781 411.671875 199.367188 C 411.230469 198.683594 408.234375 197.632812 407.015625 196.738281 C 406.027344 196.007812 403.804688 190.214844 402.855469 187.730469 C 402.855469 187.730469 401.09375 177.90625 385.335938 179.183594 C 349.242188 182.109375 375.195312 215.511719 375.195312 215.511719 C 375.753906 216.164062 376.332031 216.789062 376.921875 217.378906 L 390.1875 224.242188 " fill-opacity="1" fill-rule="nonzero"/><path fill="#4f2b43" d="M 410.652344 200.164062 Z M 392.902344 225.714844 C 390.863281 225.714844 388.867188 225.445312 386.9375 224.90625 C 386.242188 224.710938 385.84375 223.992188 386.035156 223.296875 C 386.230469 222.605469 386.945312 222.199219 387.640625 222.394531 C 389.675781 222.960938 391.800781 223.191406 393.96875 223.082031 L 396.261719 222.960938 C 401.589844 222.242188 409.625 220.378906 410.878906 218.4375 C 412.117188 216.519531 410.148438 208.9375 408.355469 204.167969 C 408.15625 203.632812 408.324219 203.027344 408.773438 202.675781 C 410.113281 201.636719 410.503906 200.515625 410.523438 200.070312 C 410.167969 199.832031 409.34375 199.4375 408.777344 199.164062 C 407.851562 198.71875 406.886719 198.261719 406.246094 197.789062 C 405.28125 197.082031 404.082031 194.570312 401.636719 188.195312 C 401.605469 188.121094 401.585938 188.039062 401.570312 187.960938 C 401.503906 187.613281 399.734375 179.324219 385.445312 180.484375 C 376.671875 181.191406 371.085938 183.691406 368.855469 187.902344 C 365.058594 195.050781 371.183594 205.882812 374.839844 212.355469 L 375.164062 212.9375 C 375.519531 213.566406 375.300781 214.363281 374.667969 214.714844 C 374.042969 215.070312 373.25 214.847656 372.894531 214.21875 L 372.566406 213.640625 C 368.644531 206.703125 362.085938 195.089844 366.546875 186.679688 C 369.226562 181.628906 375.515625 178.667969 385.238281 177.882812 C 400.863281 176.617188 403.769531 185.996094 404.105469 187.34375 C 406.5 193.585938 407.449219 195.34375 407.828125 195.71875 C 408.234375 196.015625 409.125 196.4375 409.902344 196.808594 C 411.449219 197.550781 412.351562 198.003906 412.769531 198.65625 C 413.554688 199.867188 413.097656 202.179688 411.109375 204.101562 C 412.292969 207.410156 415.230469 216.511719 413.074219 219.851562 C 410.710938 223.503906 398.894531 225.238281 396.550781 225.550781 C 396.515625 225.554688 396.480469 225.558594 396.449219 225.558594 L 394.101562 225.683594 C 393.703125 225.707031 393.300781 225.714844 392.902344 225.714844 " fill-opacity="1" fill-rule="nonzero"/><path fill="#4f2b43" d="M 377.972656 174.910156 C 381.90625 174.136719 386.390625 174.746094 388.308594 174.089844 C 391.402344 173.039062 391.328125 169.480469 395.691406 169.128906 C 399.519531 168.820312 403.089844 169.539062 405.023438 172.472656 C 405.347656 172.960938 405.628906 173.511719 405.851562 174.128906 C 408.875 182.425781 404.699219 186.425781 402.855469 187.730469 C 402.855469 187.730469 391.167969 193.34375 389.144531 194.957031 C 387.261719 196.46875 385.035156 200.0625 386.253906 205.257812 C 386.40625 205.929688 386.085938 206.621094 385.480469 206.960938 C 384.78125 207.355469 383.882812 207.160156 383.425781 206.492188 C 381.976562 204.398438 378.792969 200.347656 376.4375 201.285156 C 373.6875 202.375 372.753906 209.28125 377.808594 210.992188 C 379.359375 211.519531 379.875 213.554688 378.753906 214.753906 C 377.824219 215.753906 376.40625 216.453125 374.257812 215.90625 C 374.257812 215.90625 361.683594 206.9375 360.191406 195.125 C 358.707031 183.308594 372.730469 175.941406 377.972656 174.910156 " fill-opacity="1" fill-rule="nonzero"/><path fill="#4f2b43" d="M 354.363281 68.996094 L 354.371094 68.996094 Z M 359.039062 67.859375 C 358.777344 67.859375 358.519531 67.886719 358.257812 67.933594 C 357.105469 68.136719 356.101562 68.78125 355.433594 69.738281 C 354.765625 70.699219 354.511719 71.867188 354.71875 73.015625 C 354.925781 74.167969 355.566406 75.171875 356.527344 75.84375 C 358.511719 77.21875 361.246094 76.730469 362.625 74.75 C 363.296875 73.789062 363.546875 72.621094 363.34375 71.46875 C 363.136719 70.320312 362.496094 69.320312 361.53125 68.648438 C 360.792969 68.132812 359.925781 67.859375 359.039062 67.859375 Z M 359.019531 79.234375 C 357.644531 79.234375 356.25 78.828125 355.035156 77.980469 C 353.503906 76.917969 352.480469 75.3125 352.148438 73.480469 C 351.820312 71.640625 352.226562 69.78125 353.289062 68.25 C 354.359375 66.71875 355.957031 65.691406 357.796875 65.363281 C 359.636719 65.035156 361.492188 65.441406 363.023438 66.507812 C 364.558594 67.570312 365.582031 69.175781 365.910156 71.015625 C 366.242188 72.847656 365.835938 74.707031 364.765625 76.238281 C 363.410156 78.191406 361.230469 79.234375 359.019531 79.234375 " fill-opacity="1" fill-rule="nonzero"/><path fill="#4f2b43" d="M 757.808594 215.132812 C 757.445312 215.132812 757.078125 214.976562 756.816406 214.675781 C 756.347656 214.125 756.421875 213.304688 756.960938 212.835938 L 761.179688 209.242188 C 761.726562 208.773438 762.554688 208.839844 763.015625 209.390625 C 763.484375 209.9375 763.421875 210.761719 762.875 211.230469 L 758.65625 214.820312 C 758.410156 215.03125 758.113281 215.132812 757.808594 215.132812 " fill-opacity="1" fill-rule="nonzero"/><path fill="#4f2b43" d="M 744.496094 226.492188 C 744.121094 226.492188 743.757812 226.335938 743.5 226.03125 C 743.027344 225.484375 743.101562 224.660156 743.644531 224.191406 L 747.859375 220.597656 C 748.410156 220.132812 749.230469 220.199219 749.695312 220.746094 C 750.167969 221.296875 750.101562 222.117188 749.550781 222.585938 L 745.335938 226.179688 C 745.09375 226.386719 744.789062 226.492188 744.496094 226.492188 " fill-opacity="1" fill-rule="nonzero"/><path fill="#4f2b43" d="M 749.375 214.464844 C 749.003906 214.464844 748.636719 214.308594 748.378906 214.011719 L 744.789062 209.792969 C 744.324219 209.246094 744.386719 208.421875 744.933594 207.957031 C 745.484375 207.484375 746.304688 207.554688 746.777344 208.101562 L 750.363281 212.3125 C 750.835938 212.867188 750.769531 213.6875 750.21875 214.15625 C 749.972656 214.363281 749.675781 214.464844 749.375 214.464844 " fill-opacity="1" fill-rule="nonzero"/><path fill="#4f2b43" d="M 760.734375 227.78125 C 760.359375 227.78125 760 227.628906 759.738281 227.328125 L 756.144531 223.105469 C 755.679688 222.5625 755.738281 221.738281 756.289062 221.269531 C 756.84375 220.800781 757.664062 220.871094 758.132812 221.417969 L 761.726562 225.632812 C 762.191406 226.179688 762.125 227.003906 761.574219 227.46875 C 761.328125 227.679688 761.03125 227.78125 760.734375 227.78125 " fill-opacity="1" fill-rule="nonzero"/><path fill="#4f2b43" d="M 175.089844 635.347656 C 174.390625 635.347656 173.8125 634.796875 173.785156 634.09375 L 173.578125 628.558594 C 173.550781 627.835938 174.113281 627.234375 174.832031 627.207031 C 175.5625 627.179688 176.15625 627.738281 176.183594 628.460938 L 176.394531 633.996094 C 176.421875 634.710938 175.859375 635.320312 175.140625 635.347656 C 175.121094 635.347656 175.105469 635.347656 175.089844 635.347656 " fill-opacity="1" fill-rule="nonzero"/><path fill="#4f2b43" d="M 175.75 652.835938 C 175.050781 652.835938 174.472656 652.285156 174.445312 651.578125 L 174.238281 646.046875 C 174.210938 645.324219 174.773438 644.722656 175.492188 644.695312 C 176.222656 644.667969 176.816406 645.226562 176.84375 645.949219 L 177.054688 651.480469 C 177.082031 652.203125 176.519531 652.808594 175.796875 652.832031 C 175.78125 652.835938 175.765625 652.835938 175.75 652.835938 " fill-opacity="1" fill-rule="nonzero"/><path fill="#4f2b43" d="M 163.804688 641.757812 C 163.105469 641.757812 162.527344 641.207031 162.5 640.503906 C 162.472656 639.78125 163.035156 639.179688 163.753906 639.152344 L 169.289062 638.941406 C 170.03125 638.914062 170.617188 639.472656 170.644531 640.195312 C 170.671875 640.914062 170.109375 641.523438 169.386719 641.550781 L 163.855469 641.757812 C 163.835938 641.757812 163.820312 641.757812 163.804688 641.757812 " fill-opacity="1" fill-rule="nonzero"/><path fill="#4f2b43" d="M 181.289062 641.101562 C 180.59375 641.101562 180.015625 640.546875 179.988281 639.839844 C 179.960938 639.125 180.523438 638.515625 181.242188 638.492188 L 186.777344 638.28125 C 187.507812 638.253906 188.105469 638.816406 188.128906 639.539062 C 188.15625 640.253906 187.59375 640.863281 186.875 640.890625 L 181.339844 641.101562 C 181.324219 641.101562 181.308594 641.101562 181.289062 641.101562 " fill-opacity="1" fill-rule="nonzero"/><path fill="#4f2b43" d="M 122.179688 535.316406 C 121.707031 535.316406 121.253906 535.0625 121.019531 534.609375 C 95.625 485.488281 85.335938 430.328125 91.253906 375.109375 C 92.746094 361.203125 95.273438 347.34375 98.757812 333.910156 C 98.9375 333.214844 99.648438 332.796875 100.347656 332.976562 C 101.046875 333.15625 101.464844 333.871094 101.285156 334.570312 C 97.828125 347.875 95.328125 361.609375 93.851562 375.386719 C 87.984375 430.097656 98.179688 484.742188 123.339844 533.414062 C 123.671875 534.054688 123.417969 534.839844 122.777344 535.171875 C 122.585938 535.269531 122.382812 535.316406 122.179688 535.316406 " fill-opacity="1" fill-rule="nonzero"/><path fill="#4f2b43" d="M 125.785156 542.066406 C 125.328125 542.066406 124.882812 541.824219 124.640625 541.390625 C 123.414062 539.164062 122.195312 536.882812 121.019531 534.609375 C 120.691406 533.972656 120.941406 533.183594 121.582031 532.855469 C 122.222656 532.519531 123.007812 532.773438 123.339844 533.414062 C 124.503906 535.664062 125.707031 537.925781 126.925781 540.128906 C 127.273438 540.761719 127.046875 541.554688 126.414062 541.902344 C 126.214844 542.011719 126 542.066406 125.785156 542.066406 " fill-opacity="1" fill-rule="nonzero"/><path fill="#4f2b43" d="M 110.332031 569.683594 C 109.878906 569.683594 109.441406 569.445312 109.199219 569.023438 C 91.617188 538.296875 79.363281 504.992188 72.777344 470.039062 C 65.960938 433.867188 65.414062 396.851562 71.148438 360.011719 C 71.257812 359.296875 71.921875 358.8125 72.636719 358.921875 C 73.347656 359.03125 73.835938 359.699219 73.726562 360.410156 C 62.570312 432.070312 75.972656 505.699219 111.464844 567.730469 C 111.824219 568.355469 111.605469 569.152344 110.980469 569.507812 C 110.777344 569.625 110.554688 569.683594 110.332031 569.683594 " fill-opacity="1" fill-rule="nonzero"/><path fill="#4f2b43" d="M 72.777344 342.09375 L 80.207031 344.703125 L 80.007812 335.875 Z M 81.554688 347.863281 C 81.40625 347.863281 81.261719 347.839844 81.121094 347.789062 L 69.78125 343.808594 C 69.339844 343.65625 69.015625 343.277344 68.929688 342.816406 C 68.84375 342.359375 69.007812 341.890625 69.359375 341.585938 L 80.402344 332.09375 C 80.78125 331.765625 81.320312 331.6875 81.78125 331.890625 C 82.242188 332.09375 82.542969 332.546875 82.554688 333.054688 L 82.855469 346.53125 C 82.867188 346.957031 82.664062 347.363281 82.320312 347.617188 C 82.09375 347.777344 81.824219 347.863281 81.554688 347.863281 " fill-opacity="1" fill-rule="nonzero"/><path fill="#4f2b43" d="M 468.746094 339.800781 C 468.347656 339.800781 467.953125 339.617188 467.699219 339.269531 C 467.269531 338.691406 467.390625 337.875 467.96875 337.445312 L 505.996094 309.277344 C 506.574219 308.847656 507.390625 308.96875 507.820312 309.546875 C 508.25 310.128906 508.128906 310.945312 507.550781 311.375 L 469.523438 339.542969 C 469.292969 339.71875 469.019531 339.800781 468.746094 339.800781 " fill-opacity="1" fill-rule="nonzero"/><path fill="#4f2b43" d="M 467.003906 218.890625 C 466.609375 218.890625 466.214844 218.707031 465.960938 218.359375 C 465.53125 217.78125 465.652344 216.964844 466.230469 216.535156 L 563.253906 144.664062 C 563.835938 144.238281 564.652344 144.359375 565.078125 144.9375 C 565.507812 145.515625 565.386719 146.335938 564.804688 146.765625 L 467.78125 218.632812 C 467.550781 218.804688 467.28125 218.890625 467.003906 218.890625 " fill-opacity="1" fill-rule="nonzero"/><path fill="#4f2b43" d="M 535.613281 186.558594 C 535.21875 186.558594 534.824219 186.378906 534.566406 186.035156 C 534.140625 185.453125 534.261719 184.636719 534.839844 184.207031 L 585.871094 146.40625 C 586.445312 145.980469 587.265625 146.101562 587.6875 146.679688 C 588.121094 147.261719 588 148.078125 587.417969 148.503906 L 536.390625 186.304688 C 536.160156 186.476562 535.882812 186.558594 535.613281 186.558594 " fill-opacity="1" fill-rule="nonzero"/><path fill="#4f2b43" d="M 176.769531 347.742188 C 175.890625 347.742188 175.007812 347.578125 174.160156 347.25 C 172.324219 346.535156 170.875 345.132812 170.085938 343.300781 C 168.472656 339.5625 170.148438 335.183594 173.820312 333.535156 C 174.476562 333.238281 175.25 333.53125 175.542969 334.191406 C 175.839844 334.847656 175.546875 335.617188 174.886719 335.914062 C 172.511719 336.984375 171.429688 339.832031 172.480469 342.265625 C 172.992188 343.453125 173.925781 344.359375 175.109375 344.820312 C 176.261719 345.269531 177.519531 345.234375 178.648438 344.726562 C 181.027344 343.65625 182.105469 340.808594 181.054688 338.375 C 180.769531 337.710938 181.074219 336.945312 181.734375 336.660156 C 182.394531 336.371094 183.164062 336.679688 183.453125 337.34375 C 185.0625 341.078125 183.386719 345.457031 179.71875 347.105469 C 178.773438 347.53125 177.773438 347.742188 176.769531 347.742188 " fill-opacity="1" fill-rule="nonzero"/><path fill="#ffffff" d="M 253.671875 81.75 C 266.628906 78.367188 279.871094 86.128906 283.25 99.078125 C 286.628906 112.039062 278.871094 125.277344 265.914062 128.660156 C 252.960938 132.039062 239.722656 124.28125 236.339844 111.320312 C 232.957031 98.371094 240.71875 85.128906 253.671875 81.75 Z M 211.472656 112.949219 L 213.851562 122.058594 L 224.128906 121.71875 C 225.054688 123.726562 226.136719 125.636719 227.363281 127.425781 L 221.820312 136.074219 L 228.433594 142.773438 L 237.164062 137.335938 C 238.957031 138.59375 240.847656 139.703125 242.820312 140.648438 L 242.339844 150.921875 L 251.421875 153.421875 L 256.257812 144.363281 C 258.414062 144.550781 260.609375 144.5625 262.816406 144.390625 L 267.539062 153.527344 L 276.652344 151.152344 L 276.308594 140.871094 C 278.320312 139.941406 280.230469 138.863281 282.015625 137.636719 L 290.664062 143.179688 L 297.367188 136.5625 L 291.925781 127.832031 C 293.1875 126.042969 294.292969 124.152344 295.242188 122.179688 L 305.515625 122.65625 L 308.015625 113.578125 L 298.949219 108.742188 C 299.148438 106.582031 299.15625 104.390625 298.984375 102.183594 L 308.117188 97.457031 L 305.742188 88.347656 L 295.460938 88.691406 C 294.53125 86.675781 293.453125 84.769531 292.226562 82.984375 L 297.773438 74.335938 L 291.15625 67.632812 L 282.425781 73.070312 C 280.636719 71.808594 278.746094 70.703125 276.769531 69.753906 L 277.25 59.480469 L 268.171875 56.984375 L 263.332031 66.046875 C 261.171875 65.855469 258.980469 65.84375 256.773438 66.015625 L 252.050781 56.878906 L 242.9375 59.257812 L 243.28125 69.539062 C 241.269531 70.464844 239.363281 71.542969 237.574219 72.769531 L 228.925781 67.230469 L 222.222656 73.84375 L 227.664062 82.574219 C 226.402344 84.363281 225.296875 86.257812 224.347656 88.226562 L 214.074219 87.75 L 211.574219 96.828125 L 220.636719 101.664062 C 220.445312 103.824219 220.433594 106.015625 220.609375 108.226562 L 211.472656 112.949219 " fill-opacity="1" fill-rule="nonzero"/><path fill="#4f2b43" d="M 257.671875 84.09375 L 258 85.351562 C 252.074219 86.902344 247.101562 90.664062 244.003906 95.949219 C 240.90625 101.234375 240.050781 107.410156 241.597656 113.339844 C 244.792969 125.574219 257.347656 132.929688 269.582031 129.738281 C 275.511719 128.191406 280.480469 124.429688 283.578125 119.140625 C 286.679688 113.855469 287.53125 107.679688 285.984375 101.753906 C 282.792969 89.519531 270.238281 82.160156 258 85.351562 Z M 263.796875 133.097656 C 252.453125 133.097656 242.070312 125.472656 239.074219 113.996094 C 237.351562 107.394531 238.300781 100.519531 241.753906 94.628906 C 245.203125 88.742188 250.738281 84.550781 257.339844 82.828125 C 270.96875 79.273438 284.953125 87.464844 288.507812 101.09375 C 290.234375 107.695312 289.28125 114.578125 285.832031 120.464844 C 282.382812 126.351562 276.84375 130.542969 270.242188 132.261719 C 268.089844 132.828125 265.925781 133.097656 263.796875 133.097656 Z M 266.8125 145.429688 C 267.300781 145.429688 267.746094 145.699219 267.972656 146.132812 L 272.21875 154.34375 L 279.308594 152.492188 L 279 143.257812 C 278.984375 142.730469 279.28125 142.25 279.757812 142.03125 C 281.703125 141.128906 283.558594 140.078125 285.277344 138.898438 C 285.707031 138.605469 286.277344 138.597656 286.714844 138.878906 L 294.488281 143.859375 L 299.703125 138.714844 L 294.816406 130.863281 C 294.539062 130.421875 294.554688 129.851562 294.859375 129.421875 C 296.070312 127.699219 297.148438 125.859375 298.0625 123.957031 C 298.289062 123.484375 298.78125 123.195312 299.300781 123.21875 L 308.53125 123.648438 L 310.476562 116.582031 L 302.332031 112.234375 C 301.871094 111.984375 301.601562 111.488281 301.648438 110.964844 C 301.835938 108.898438 301.84375 106.761719 301.679688 104.628906 C 301.636719 104.105469 301.914062 103.605469 302.378906 103.363281 L 310.589844 99.121094 L 308.738281 92.027344 L 299.503906 92.335938 C 298.980469 92.359375 298.492188 92.058594 298.273438 91.582031 C 297.375 89.632812 296.324219 87.777344 295.148438 86.0625 C 294.851562 85.632812 294.84375 85.0625 295.125 84.621094 L 300.105469 76.847656 L 294.957031 71.636719 L 287.109375 76.523438 C 286.664062 76.796875 286.097656 76.78125 285.671875 76.480469 C 283.945312 75.269531 282.105469 74.191406 280.203125 73.28125 C 279.730469 73.050781 279.441406 72.5625 279.464844 72.039062 L 279.894531 62.804688 L 272.828125 60.863281 L 268.480469 69.003906 C 268.234375 69.464844 267.734375 69.738281 267.214844 69.6875 C 265.140625 69.5 263.007812 69.492188 260.871094 69.660156 C 260.34375 69.703125 259.851562 69.425781 259.609375 68.957031 L 255.367188 60.75 L 248.273438 62.597656 L 248.582031 71.839844 C 248.601562 72.359375 248.300781 72.84375 247.824219 73.066406 C 245.878906 73.960938 244.023438 75.015625 242.308594 76.191406 C 241.875 76.488281 241.308594 76.496094 240.867188 76.210938 L 233.097656 71.230469 L 227.878906 76.382812 L 232.765625 84.226562 C 233.042969 84.675781 233.027344 85.238281 232.726562 85.667969 C 231.511719 87.394531 230.433594 89.234375 229.523438 91.136719 C 229.296875 91.605469 228.800781 91.898438 228.285156 91.871094 L 219.050781 91.445312 L 217.109375 98.515625 L 225.25 102.855469 C 225.714844 103.105469 225.984375 103.601562 225.933594 104.125 C 225.746094 106.191406 225.738281 108.328125 225.90625 110.46875 C 225.945312 110.992188 225.667969 111.488281 225.203125 111.726562 L 216.996094 115.972656 L 218.84375 123.066406 L 228.082031 122.753906 C 228.597656 122.738281 229.089844 123.035156 229.308594 123.511719 C 230.207031 125.460938 231.257812 127.316406 232.433594 129.03125 C 232.730469 129.464844 232.738281 130.03125 232.457031 130.46875 L 227.476562 138.242188 L 232.625 143.460938 L 240.472656 138.574219 C 240.917969 138.292969 241.484375 138.308594 241.914062 138.609375 C 243.636719 139.824219 245.476562 140.898438 247.378906 141.816406 C 247.851562 142.039062 248.144531 142.527344 248.121094 143.050781 L 247.691406 152.285156 L 254.757812 154.230469 L 259.101562 146.085938 C 259.347656 145.625 259.851562 145.355469 260.371094 145.402344 C 262.445312 145.589844 264.578125 145.601562 266.710938 145.433594 C 266.746094 145.429688 266.78125 145.429688 266.8125 145.429688 Z M 271.539062 157.175781 C 271.058594 157.175781 270.605469 156.910156 270.375 156.464844 L 266.046875 148.09375 C 264.355469 148.191406 262.664062 148.183594 261.003906 148.074219 L 256.566406 156.378906 C 256.28125 156.917969 255.660156 157.1875 255.070312 157.019531 L 245.992188 154.53125 C 245.402344 154.363281 245.003906 153.820312 245.03125 153.207031 L 245.472656 143.785156 C 243.972656 143.027344 242.519531 142.175781 241.125 141.238281 L 233.121094 146.226562 C 232.601562 146.546875 231.929688 146.464844 231.5 146.035156 L 224.886719 139.328125 C 224.457031 138.898438 224.386719 138.226562 224.71875 137.714844 L 229.800781 129.785156 C 228.890625 128.390625 228.058594 126.921875 227.3125 125.390625 L 217.890625 125.707031 C 217.261719 125.730469 216.738281 125.324219 216.582031 124.734375 L 214.207031 115.621094 C 214.050781 115.035156 214.328125 114.410156 214.867188 114.132812 L 223.246094 109.804688 C 223.148438 108.105469 223.15625 106.417969 223.265625 104.757812 L 214.957031 100.320312 C 214.421875 100.039062 214.152344 99.414062 214.316406 98.824219 L 216.8125 89.746094 C 216.972656 89.160156 217.496094 88.761719 218.132812 88.789062 L 227.554688 89.226562 C 228.3125 87.730469 229.164062 86.273438 230.101562 84.878906 L 225.113281 76.875 C 224.789062 76.355469 224.871094 75.683594 225.304688 75.257812 L 232.003906 68.640625 C 232.441406 68.210938 233.113281 68.144531 233.625 68.46875 L 241.554688 73.554688 C 242.949219 72.644531 244.417969 71.8125 245.945312 71.066406 L 245.632812 61.644531 C 245.609375 61.035156 246.015625 60.492188 246.605469 60.339844 L 255.71875 57.960938 C 256.308594 57.804688 256.925781 58.082031 257.207031 58.625 L 261.535156 67 C 263.230469 66.898438 264.921875 66.910156 266.582031 67.023438 L 271.015625 58.714844 C 271.300781 58.175781 271.921875 57.910156 272.511719 58.070312 L 281.589844 60.566406 C 282.179688 60.730469 282.574219 61.277344 282.550781 61.882812 L 282.109375 71.308594 C 283.609375 72.066406 285.066406 72.914062 286.457031 73.855469 L 294.464844 68.867188 C 294.980469 68.542969 295.652344 68.625 296.082031 69.058594 L 302.695312 75.761719 C 303.125 76.195312 303.195312 76.871094 302.867188 77.382812 L 297.785156 85.308594 C 298.691406 86.699219 299.527344 88.171875 300.269531 89.699219 L 309.695312 89.382812 C 310.316406 89.363281 310.847656 89.773438 311 90.355469 L 313.378906 99.472656 C 313.53125 100.0625 313.257812 100.679688 312.714844 100.960938 L 304.339844 105.292969 C 304.433594 106.988281 304.425781 108.675781 304.316406 110.332031 L 312.625 114.769531 C 313.164062 115.054688 313.429688 115.675781 313.269531 116.265625 L 310.773438 125.34375 C 310.609375 125.933594 310.054688 126.328125 309.453125 126.304688 L 300.03125 125.863281 C 299.273438 127.359375 298.417969 128.816406 297.484375 130.210938 L 302.46875 138.214844 C 302.792969 138.734375 302.710938 139.410156 302.28125 139.839844 L 295.578125 146.449219 C 295.144531 146.882812 294.472656 146.953125 293.957031 146.621094 L 286.027344 141.539062 C 284.632812 142.449219 283.164062 143.28125 281.636719 144.027344 L 281.953125 153.445312 C 281.972656 154.058594 281.566406 154.601562 280.976562 154.757812 L 271.867188 157.128906 C 271.757812 157.160156 271.648438 157.175781 271.539062 157.175781 " fill-opacity="1" fill-rule="nonzero"/><path fill="#d2c7ff" d="M 129.148438 150.160156 C 151.316406 144.371094 173.976562 157.652344 179.761719 179.820312 C 185.546875 201.988281 172.265625 224.644531 150.101562 230.433594 C 127.933594 236.214844 105.273438 222.9375 99.488281 200.769531 C 93.703125 178.601562 106.984375 155.941406 129.148438 150.160156 Z M 56.933594 203.546875 L 61.003906 219.136719 L 78.59375 218.554688 C 80.179688 221.988281 82.03125 225.257812 84.125 228.320312 L 74.640625 243.117188 L 85.960938 254.582031 L 100.902344 245.28125 C 103.964844 247.433594 107.199219 249.332031 110.574219 250.949219 L 109.757812 268.535156 L 125.292969 272.804688 L 133.570312 257.300781 C 137.265625 257.632812 141.015625 257.644531 144.796875 257.355469 L 152.878906 272.984375 L 168.46875 268.914062 L 167.882812 251.328125 C 171.324219 249.734375 174.589844 247.886719 177.652344 245.792969 L 192.449219 255.28125 L 203.917969 243.957031 L 194.609375 229.015625 C 196.765625 225.953125 198.660156 222.722656 200.28125 219.34375 L 217.863281 220.164062 L 222.136719 204.628906 L 206.628906 196.351562 C 206.964844 192.65625 206.980469 188.902344 206.683594 185.121094 L 222.316406 177.039062 L 218.246094 161.445312 L 200.65625 162.039062 C 199.070312 158.59375 197.222656 155.328125 195.125 152.269531 L 204.609375 137.46875 L 193.289062 126 L 178.347656 135.3125 C 175.285156 133.15625 172.050781 131.257812 168.675781 129.640625 L 169.492188 112.054688 L 153.953125 107.785156 L 145.679688 123.289062 C 141.984375 122.957031 138.234375 122.941406 134.453125 123.238281 L 126.371094 107.601562 L 110.777344 111.667969 L 111.367188 129.265625 C 107.925781 130.847656 104.660156 132.699219 101.597656 134.792969 L 86.800781 125.308594 L 75.332031 136.628906 L 84.640625 151.570312 C 82.484375 154.636719 80.589844 157.867188 78.96875 161.242188 L 61.386719 160.429688 L 57.113281 175.964844 L 72.621094 184.238281 C 72.285156 187.933594 72.273438 191.691406 72.566406 195.464844 L 56.933594 203.546875 " fill-opacity="1" fill-rule="nonzero"/><path fill="#4f2b43" d="M 136.320312 155.429688 C 125.933594 158.136719 117.226562 164.726562 111.800781 173.988281 C 106.375 183.246094 104.878906 194.066406 107.589844 204.445312 C 110.300781 214.832031 116.890625 223.539062 126.148438 228.964844 C 135.40625 234.390625 146.226562 235.886719 156.609375 233.175781 C 166.992188 230.464844 175.699219 223.875 181.125 214.613281 C 186.550781 205.355469 188.046875 194.539062 185.335938 184.152344 C 182.628906 173.773438 176.039062 165.070312 166.777344 159.640625 C 157.519531 154.214844 146.703125 152.71875 136.320312 155.429688 Z M 146.390625 237.105469 C 138.882812 237.105469 131.480469 235.109375 124.832031 231.21875 C 114.972656 225.4375 107.953125 216.164062 105.066406 205.109375 C 102.179688 194.050781 103.773438 182.527344 109.550781 172.671875 C 115.328125 162.808594 124.601562 155.789062 135.660156 152.902344 C 146.722656 150.015625 158.238281 151.609375 168.097656 157.390625 C 177.957031 163.167969 184.976562 172.441406 187.863281 183.5 C 190.75 194.554688 189.15625 206.074219 183.378906 215.9375 C 177.597656 225.792969 168.328125 232.816406 157.269531 235.699219 C 153.667969 236.640625 150.015625 237.105469 146.390625 237.105469 Z M 151.636719 260.054688 C 152.121094 260.054688 152.570312 260.328125 152.796875 260.757812 L 160.398438 275.46875 L 173.972656 271.921875 L 173.417969 255.378906 C 173.402344 254.855469 173.699219 254.367188 174.175781 254.148438 C 177.550781 252.59375 180.773438 250.765625 183.753906 248.726562 C 184.183594 248.429688 184.753906 248.417969 185.195312 248.699219 L 199.113281 257.625 L 209.097656 247.769531 L 200.339844 233.714844 C 200.066406 233.269531 200.082031 232.703125 200.382812 232.273438 C 202.492188 229.277344 204.363281 226.085938 205.941406 222.789062 C 206.167969 222.3125 206.65625 222.023438 207.179688 222.050781 L 223.722656 222.820312 L 227.441406 209.292969 L 212.855469 201.507812 C 212.390625 201.261719 212.121094 200.761719 212.167969 200.238281 C 212.492188 196.644531 212.511719 192.941406 212.222656 189.234375 C 212.179688 188.710938 212.457031 188.214844 212.921875 187.96875 L 227.628906 180.371094 L 224.085938 166.792969 L 207.539062 167.347656 C 207.019531 167.367188 206.53125 167.070312 206.3125 166.589844 C 204.753906 163.210938 202.925781 159.988281 200.886719 157.015625 C 200.589844 156.582031 200.582031 156.011719 200.863281 155.570312 L 209.789062 141.652344 L 199.933594 131.667969 L 185.878906 140.425781 C 185.433594 140.703125 184.867188 140.683594 184.4375 140.382812 C 181.445312 138.277344 178.253906 136.40625 174.949219 134.824219 C 174.476562 134.597656 174.1875 134.109375 174.210938 133.589844 L 174.980469 117.042969 L 161.453125 113.324219 L 153.671875 127.914062 C 153.421875 128.378906 152.921875 128.644531 152.402344 128.601562 C 148.808594 128.277344 145.101562 128.257812 141.394531 128.546875 C 140.871094 128.585938 140.375 128.308594 140.132812 127.84375 L 132.53125 113.140625 L 118.957031 116.679688 L 119.511719 133.226562 C 119.527344 133.753906 119.230469 134.234375 118.753906 134.453125 C 115.375 136.015625 112.152344 137.839844 109.175781 139.882812 C 108.742188 140.179688 108.175781 140.183594 107.734375 139.902344 L 93.8125 130.976562 L 83.832031 140.835938 L 92.585938 154.890625 C 92.863281 155.332031 92.847656 155.902344 92.546875 156.328125 C 90.441406 159.324219 88.570312 162.511719 86.984375 165.816406 C 86.757812 166.289062 86.273438 166.582031 85.746094 166.554688 L 69.207031 165.789062 L 65.488281 179.3125 L 80.074219 187.097656 C 80.539062 187.34375 80.808594 187.84375 80.761719 188.363281 C 80.4375 191.960938 80.417969 195.664062 80.707031 199.371094 C 80.75 199.898438 80.472656 200.394531 80.007812 200.632812 L 65.300781 208.238281 L 68.839844 221.808594 L 85.390625 221.253906 C 85.914062 221.238281 86.398438 221.535156 86.617188 222.011719 C 88.175781 225.390625 90 228.613281 92.042969 231.59375 C 92.335938 232.023438 92.347656 232.589844 92.0625 233.03125 L 83.140625 246.949219 L 92.992188 256.933594 L 107.050781 248.179688 C 107.496094 247.902344 108.0625 247.917969 108.492188 248.21875 C 111.488281 250.328125 114.679688 252.199219 117.980469 253.78125 C 118.453125 254.007812 118.742188 254.492188 118.71875 255.019531 L 117.949219 271.558594 L 131.472656 275.277344 L 139.257812 260.691406 C 139.503906 260.230469 140.007812 259.957031 140.527344 260.003906 C 144.125 260.332031 147.828125 260.351562 151.535156 260.058594 C 151.570312 260.054688 151.601562 260.054688 151.636719 260.054688 Z M 159.71875 278.300781 C 159.238281 278.300781 158.789062 278.03125 158.558594 277.589844 L 150.871094 262.722656 C 147.605469 262.9375 144.347656 262.921875 141.15625 262.679688 L 133.285156 277.429688 C 132.996094 277.964844 132.375 278.230469 131.789062 278.070312 L 116.25 273.800781 C 115.664062 273.640625 115.265625 273.089844 115.292969 272.480469 L 116.070312 255.753906 C 113.175781 254.320312 110.371094 252.675781 107.703125 250.847656 L 93.488281 259.699219 C 92.972656 260.027344 92.296875 259.945312 91.871094 259.507812 L 80.550781 248.042969 C 80.121094 247.605469 80.050781 246.9375 80.378906 246.421875 L 89.402344 232.34375 C 87.632812 229.6875 86.027344 226.847656 84.617188 223.894531 L 67.886719 224.453125 C 67.25 224.464844 66.734375 224.070312 66.582031 223.476562 L 62.511719 207.886719 C 62.355469 207.292969 62.632812 206.679688 63.175781 206.394531 L 78.042969 198.710938 C 77.828125 195.445312 77.84375 192.183594 78.089844 188.996094 L 63.339844 181.121094 C 62.800781 180.835938 62.535156 180.214844 62.695312 179.625 L 66.96875 164.089844 C 67.128906 163.503906 67.660156 163.105469 68.285156 163.132812 L 85.011719 163.910156 C 86.449219 161.015625 88.09375 158.207031 89.917969 155.542969 L 81.066406 141.324219 C 80.742188 140.8125 80.824219 140.132812 81.257812 139.707031 L 92.722656 128.386719 C 93.15625 127.960938 93.832031 127.890625 94.34375 128.21875 L 108.417969 137.242188 C 111.078125 135.46875 113.917969 133.867188 116.875 132.457031 L 116.316406 115.726562 C 116.292969 115.113281 116.699219 114.574219 117.289062 114.417969 L 132.878906 110.351562 C 133.472656 110.195312 134.089844 110.472656 134.371094 111.011719 L 142.058594 125.882812 C 145.324219 125.664062 148.585938 125.679688 151.773438 125.925781 L 159.640625 111.175781 C 159.929688 110.636719 160.550781 110.371094 161.140625 110.535156 L 176.675781 114.808594 C 177.265625 114.96875 177.664062 115.511719 177.632812 116.125 L 176.855469 132.847656 C 179.753906 134.28125 182.5625 135.929688 185.226562 137.753906 L 199.441406 128.902344 C 199.957031 128.582031 200.628906 128.660156 201.058594 129.089844 L 212.378906 140.5625 C 212.808594 140.996094 212.878906 141.671875 212.546875 142.179688 L 203.523438 156.257812 C 205.296875 158.917969 206.902344 161.753906 208.3125 164.714844 L 225.042969 164.15625 C 225.65625 164.128906 226.195312 164.539062 226.347656 165.128906 L 230.417969 180.71875 C 230.570312 181.304688 230.296875 181.929688 229.753906 182.207031 L 214.882812 189.894531 C 215.101562 193.167969 215.085938 196.421875 214.839844 199.609375 L 229.589844 207.480469 C 230.128906 207.765625 230.394531 208.386719 230.234375 208.976562 L 225.960938 224.515625 C 225.800781 225.101562 225.253906 225.5 224.644531 225.472656 L 207.917969 224.695312 C 206.484375 227.585938 204.839844 230.394531 203.011719 233.066406 L 211.863281 247.277344 C 212.1875 247.796875 212.105469 248.464844 211.671875 248.894531 L 200.207031 260.214844 C 199.769531 260.640625 199.097656 260.714844 198.585938 260.386719 L 184.507812 251.363281 C 181.847656 253.136719 179.007812 254.742188 176.054688 256.152344 L 176.613281 272.882812 C 176.632812 273.488281 176.230469 274.03125 175.640625 274.1875 L 160.046875 278.257812 C 159.9375 278.285156 159.828125 278.300781 159.71875 278.300781 " fill-opacity="1" fill-rule="nonzero"/></svg>