<svg xmlns="http://www.w3.org/2000/svg" xmlns:xlink="http://www.w3.org/1999/xlink" width="1080" zoomAndPan="magnify" viewBox="0 0 810 809.999993" height="1080" preserveAspectRatio="xMidYMid meet" version="1.0"><path fill="#bec4ed" d="M 766.117188 173.847656 C 741.152344 123.535156 691.285156 96.34375 660.371094 79.476562 C 526.703125 6.582031 344.636719 25.941406 223.636719 93.863281 C 104.203125 160.898438 0.132812 319.664062 43.804688 492.195312 C 87.648438 665.390625 258.160156 754.472656 387.121094 773.378906 C 591.890625 803.398438 763.90625 667.050781 773.316406 619.714844 C 776.21875 605.117188 775.457031 592.179688 775.457031 592.179688 C 771.8125 558.003906 743.679688 537.695312 737.105469 459.816406 C 725.019531 316.515625 809.890625 262.078125 766.117188 173.847656 " fill-opacity="1" fill-rule="nonzero"/><path fill="#4f2b43" d="M 297.277344 592.257812 C 298.464844 591.601562 299.660156 590.96875 300.875 590.359375 C 311.5625 585.023438 323.101562 581.035156 334.3125 576.960938 C 375.867188 561.882812 418.691406 550.78125 461.027344 538.195312 C 476.015625 533.738281 490.996094 529.355469 506.070312 525.253906 C 564.105469 403.574219 668.476562 181.9375 658.738281 181.9375 L 94.09375 160.136719 C 80.664062 160.136719 69.742188 171.058594 69.742188 184.488281 L 69.742188 578.667969 C 69.742188 592.09375 80.664062 603.019531 94.09375 603.019531 L 298.117188 589.199219 L 297.277344 592.257812 " fill-opacity="1" fill-rule="nonzero"/><path fill="#ffffff" d="M 465.140625 552.625 L 321.152344 552.625 L 280.300781 701.722656 L 505.984375 701.722656 L 465.140625 552.625 " fill-opacity="1" fill-rule="nonzero"/><path fill="#4f2b43" d="M 282.066406 700.371094 L 504.21875 700.371094 L 464.109375 553.972656 L 322.179688 553.972656 Z M 505.984375 703.066406 L 280.300781 703.066406 C 279.882812 703.066406 279.488281 702.871094 279.230469 702.535156 C 278.976562 702.203125 278.890625 701.769531 279.003906 701.363281 L 319.847656 552.269531 C 320.011719 551.6875 320.542969 551.28125 321.152344 551.28125 L 465.140625 551.28125 C 465.746094 551.28125 466.277344 551.6875 466.4375 552.269531 L 507.28125 701.363281 C 507.394531 701.769531 507.308594 702.203125 507.054688 702.535156 C 506.800781 702.871094 506.402344 703.066406 505.984375 703.066406 " fill-opacity="1" fill-rule="nonzero"/><path fill="#ffffff" d="M 680.609375 161.511719 L 105.679688 161.511719 C 92.988281 161.511719 82.703125 171.800781 82.703125 184.488281 L 82.703125 578.667969 C 82.703125 591.359375 92.988281 601.644531 105.679688 601.644531 L 680.609375 601.644531 C 693.296875 601.644531 703.585938 591.359375 703.585938 578.667969 L 703.585938 184.488281 C 703.585938 171.800781 693.296875 161.511719 680.609375 161.511719 " fill-opacity="1" fill-rule="nonzero"/><path fill="#ffffff" d="M 530.492188 686.402344 L 255.792969 686.402344 C 247.898438 686.402344 241.496094 692.800781 241.496094 700.699219 C 241.496094 708.59375 247.898438 714.992188 255.792969 714.992188 L 530.492188 714.992188 C 538.390625 714.992188 544.789062 708.59375 544.789062 700.699219 C 544.789062 692.800781 538.390625 686.402344 530.492188 686.402344 " fill-opacity="1" fill-rule="nonzero"/><path fill="#4f2b43" d="M 255.792969 687.75 C 248.652344 687.75 242.84375 693.558594 242.84375 700.699219 C 242.84375 707.835938 248.652344 713.648438 255.792969 713.648438 L 530.496094 713.648438 C 537.632812 713.648438 543.441406 707.835938 543.441406 700.699219 C 543.441406 693.558594 537.632812 687.75 530.496094 687.75 Z M 530.496094 716.339844 L 255.792969 716.339844 C 247.167969 716.339844 240.148438 709.324219 240.148438 700.699219 C 240.148438 692.074219 247.167969 685.054688 255.792969 685.054688 L 530.496094 685.054688 C 539.117188 685.054688 546.136719 692.074219 546.136719 700.699219 C 546.136719 709.324219 539.117188 716.339844 530.496094 716.339844 " fill-opacity="1" fill-rule="nonzero"/><path fill="#4f2b43" d="M 680.605469 602.992188 L 105.679688 602.992188 C 92.265625 602.992188 81.355469 592.078125 81.355469 578.667969 L 81.355469 184.492188 C 81.355469 171.078125 92.265625 160.164062 105.679688 160.164062 L 181.660156 160.164062 C 182.40625 160.164062 183.007812 160.769531 183.007812 161.511719 C 183.007812 162.257812 182.40625 162.863281 181.660156 162.863281 L 105.679688 162.863281 C 93.753906 162.863281 84.050781 172.5625 84.050781 184.492188 L 84.050781 578.667969 C 84.050781 590.59375 93.753906 600.300781 105.679688 600.300781 L 680.605469 600.300781 C 692.53125 600.300781 702.238281 590.59375 702.238281 578.667969 L 701.878906 230.726562 C 701.875 229.984375 702.480469 229.378906 703.222656 229.378906 C 703.226562 229.378906 703.226562 229.378906 703.226562 229.378906 C 703.96875 229.378906 704.574219 229.984375 704.574219 230.726562 L 704.929688 578.664062 C 704.929688 592.078125 694.015625 602.992188 680.605469 602.992188 " fill-opacity="1" fill-rule="nonzero"/><path fill="#4f2b43" d="M 444.320312 162.855469 L 351.722656 162.855469 C 350.980469 162.855469 350.378906 162.257812 350.378906 161.511719 C 350.378906 160.765625 350.980469 160.164062 351.722656 160.164062 L 444.320312 160.164062 C 445.0625 160.164062 445.664062 160.765625 445.664062 161.511719 C 445.664062 162.257812 445.0625 162.855469 444.320312 162.855469 " fill-opacity="1" fill-rule="nonzero"/><path fill="#4f2b43" d="M 683.164062 520.101562 C 682.417969 520.101562 681.816406 519.496094 681.816406 518.753906 L 681.816406 422.097656 C 681.816406 421.355469 682.417969 420.75 683.164062 420.75 C 683.90625 420.75 684.507812 421.355469 684.507812 422.097656 L 684.507812 518.753906 C 684.507812 519.496094 683.90625 520.101562 683.164062 520.101562 " fill-opacity="1" fill-rule="nonzero"/><path fill="#4f2b43" d="M 539.15625 582.566406 L 232.261719 582.566406 C 231.515625 582.566406 230.914062 581.964844 230.914062 581.21875 C 230.914062 580.472656 231.515625 579.871094 232.261719 579.871094 L 539.15625 579.871094 C 539.898438 579.871094 540.5 580.472656 540.5 581.21875 C 540.5 581.964844 539.898438 582.566406 539.15625 582.566406 " fill-opacity="1" fill-rule="nonzero"/><path fill="#4f2b43" d="M 232.261719 582.566406 L 114.550781 582.566406 C 111.140625 582.566406 107.933594 581.238281 105.519531 578.824219 C 104.996094 578.300781 104.996094 577.445312 105.519531 576.921875 C 106.046875 576.394531 106.898438 576.394531 107.425781 576.921875 C 109.328125 578.824219 111.859375 579.871094 114.550781 579.871094 L 232.261719 579.871094 C 233.003906 579.871094 233.609375 580.472656 233.609375 581.21875 C 233.609375 581.964844 233.003906 582.566406 232.261719 582.566406 " fill-opacity="1" fill-rule="nonzero"/><path fill="#4f2b43" d="M 106.472656 579.21875 C 106.128906 579.21875 105.78125 579.089844 105.519531 578.824219 C 103.109375 576.410156 101.78125 573.207031 101.78125 569.796875 L 101.78125 193.359375 C 101.78125 186.316406 107.507812 180.585938 114.550781 180.585938 L 158.910156 180.585938 C 159.652344 180.585938 160.257812 181.191406 160.257812 181.933594 C 160.257812 182.675781 159.652344 183.277344 158.910156 183.277344 L 114.550781 183.277344 C 108.996094 183.277344 104.476562 187.804688 104.476562 193.359375 L 104.476562 569.796875 C 104.476562 572.484375 105.523438 575.015625 107.425781 576.921875 C 107.953125 577.445312 107.953125 578.300781 107.425781 578.824219 C 107.164062 579.089844 106.816406 579.21875 106.472656 579.21875 " fill-opacity="1" fill-rule="nonzero"/><path fill="#4f2b43" d="M 440.28125 183.277344 L 313.402344 183.277344 C 312.65625 183.277344 312.054688 182.675781 312.054688 181.933594 C 312.054688 181.191406 312.65625 180.585938 313.402344 180.585938 L 440.28125 180.585938 C 441.027344 180.585938 441.625 181.191406 441.625 181.933594 C 441.625 182.675781 441.027344 183.277344 440.28125 183.277344 " fill-opacity="1" fill-rule="nonzero"/><path fill="#9333ea" d="M 609.644531 692.550781 C 587.332031 702.625 561.078125 692.699219 551.007812 670.386719 C 540.933594 648.078125 550.855469 621.820312 573.167969 611.75 C 595.488281 601.675781 621.734375 611.601562 631.808594 633.910156 C 641.878906 656.226562 631.957031 682.480469 609.644531 692.550781 Z M 676.140625 623.347656 L 669.054688 607.65625 L 650.632812 611.429688 C 648.339844 608.089844 645.808594 604.980469 643.046875 602.132812 L 650.386719 584.84375 L 636.402344 574.792969 L 622.332031 587.277344 C 618.71875 585.5625 614.972656 584.140625 611.125 583.042969 L 608.832031 564.367188 L 591.695312 562.660156 L 585.765625 580.480469 C 581.808594 580.789062 577.851562 581.449219 573.929688 582.4375 L 562.609375 567.421875 L 546.914062 574.503906 L 550.691406 592.929688 C 547.347656 595.21875 544.238281 597.75 541.390625 600.507812 L 524.101562 593.175781 L 514.050781 607.15625 L 526.539062 621.222656 C 524.816406 624.835938 523.398438 628.585938 522.300781 632.433594 L 503.628906 634.730469 L 501.917969 651.859375 L 519.738281 657.796875 C 520.050781 661.746094 520.707031 665.703125 521.699219 669.632812 L 506.675781 680.953125 L 513.761719 696.648438 L 532.1875 692.871094 C 534.476562 696.210938 537.011719 699.320312 539.765625 702.167969 L 532.429688 719.457031 L 546.414062 729.507812 L 560.480469 717.023438 C 564.097656 718.742188 567.84375 720.15625 571.6875 721.261719 L 573.984375 739.929688 L 591.121094 741.640625 L 597.054688 723.820312 C 601.007812 723.511719 604.960938 722.851562 608.890625 721.863281 L 620.207031 736.882812 L 635.902344 729.796875 L 632.128906 711.375 C 635.464844 709.082031 638.578125 706.546875 641.421875 703.792969 L 658.71875 711.128906 L 668.765625 697.148438 L 656.28125 683.078125 C 658 679.464844 659.417969 675.710938 660.511719 671.867188 L 679.1875 669.574219 L 680.902344 652.4375 L 663.078125 646.503906 C 662.765625 642.554688 662.109375 638.59375 661.125 634.667969 L 676.140625 623.347656 " fill-opacity="1" fill-rule="nonzero"/><path fill="#9333ea" d="M 729.164062 602.417969 C 714.261719 609.144531 696.726562 602.515625 689.996094 587.609375 C 683.269531 572.710938 689.898438 555.171875 704.796875 548.445312 C 719.699219 541.71875 737.234375 548.351562 743.964844 563.25 C 750.695312 578.15625 744.0625 595.6875 729.164062 602.417969 Z M 773.570312 556.195312 L 768.835938 545.714844 L 756.535156 548.234375 C 755.003906 546.003906 753.316406 543.925781 751.472656 542.027344 L 756.371094 530.476562 L 747.03125 523.765625 L 737.636719 532.101562 C 735.21875 530.957031 732.71875 530.007812 730.144531 529.273438 L 728.621094 516.804688 L 717.171875 515.660156 L 713.207031 527.5625 C 710.574219 527.769531 707.925781 528.207031 705.304688 528.871094 L 697.738281 518.84375 L 687.261719 523.570312 L 689.78125 535.878906 C 687.554688 537.410156 685.472656 539.097656 683.574219 540.941406 L 672.027344 536.042969 L 665.3125 545.378906 L 673.648438 554.78125 C 672.5 557.191406 671.558594 559.695312 670.824219 562.261719 L 658.351562 563.792969 L 657.207031 575.238281 L 669.113281 579.203125 C 669.320312 581.839844 669.753906 584.484375 670.417969 587.105469 L 660.390625 594.667969 L 665.121094 605.152344 L 677.429688 602.628906 C 678.953125 604.859375 680.648438 606.9375 682.484375 608.839844 L 677.589844 620.386719 L 686.929688 627.101562 L 696.328125 618.757812 C 698.734375 619.910156 701.238281 620.855469 703.8125 621.589844 L 705.34375 634.0625 L 716.789062 635.207031 L 720.75 623.300781 C 723.386719 623.09375 726.03125 622.652344 728.65625 621.992188 L 736.21875 632.023438 L 746.699219 627.292969 L 744.175781 614.988281 C 746.40625 613.457031 748.488281 611.765625 750.386719 609.921875 L 761.9375 614.824219 L 768.648438 605.484375 L 760.3125 596.085938 C 761.457031 593.671875 762.40625 591.171875 763.140625 588.601562 L 775.609375 587.070312 L 776.753906 575.625 L 764.847656 571.660156 C 764.636719 569.019531 764.207031 566.378906 763.542969 563.753906 L 773.570312 556.195312 " fill-opacity="1" fill-rule="nonzero"/><path fill="#4f2b43" d="M 220.675781 137.828125 C 215.207031 137.828125 210.757812 133.382812 210.757812 127.917969 C 210.757812 122.457031 215.207031 118.015625 220.675781 118.015625 C 221.421875 118.015625 222.023438 118.621094 222.023438 119.363281 C 222.023438 120.109375 221.421875 120.714844 220.675781 120.714844 C 216.691406 120.714844 213.453125 123.949219 213.453125 127.917969 C 213.453125 131.898438 216.691406 135.132812 220.675781 135.132812 C 224.660156 135.132812 227.902344 131.898438 227.902344 127.917969 C 227.902344 127.175781 228.503906 126.578125 229.25 126.578125 C 229.992188 126.578125 230.59375 127.175781 230.59375 127.917969 C 230.59375 133.382812 226.148438 137.828125 220.675781 137.828125 " fill-opacity="1" fill-rule="nonzero"/><path fill="#4f2b43" d="M 477.472656 770.105469 C 472.003906 770.105469 467.550781 765.660156 467.550781 760.195312 C 467.550781 754.738281 472.003906 750.292969 477.472656 750.292969 C 478.214844 750.292969 478.824219 750.894531 478.824219 751.640625 C 478.824219 752.382812 478.214844 752.988281 477.472656 752.988281 C 473.488281 752.988281 470.25 756.222656 470.25 760.195312 C 470.25 764.175781 473.488281 767.410156 477.472656 767.410156 C 481.457031 767.410156 484.699219 764.175781 484.699219 760.195312 C 484.699219 759.457031 485.300781 758.851562 486.046875 758.851562 C 486.789062 758.851562 487.394531 759.457031 487.394531 760.195312 C 487.394531 765.660156 482.945312 770.105469 477.472656 770.105469 " fill-opacity="1" fill-rule="nonzero"/><path fill="#4f2b43" d="M 101.855469 152.886719 C 101.507812 152.886719 101.160156 152.753906 100.898438 152.484375 C 100.375 151.953125 100.378906 151.101562 100.910156 150.582031 L 157.082031 95.277344 C 157.613281 94.757812 158.464844 94.761719 158.988281 95.292969 C 159.507812 95.824219 159.503906 96.675781 158.972656 97.199219 L 102.800781 152.503906 C 102.539062 152.757812 102.199219 152.886719 101.855469 152.886719 " fill-opacity="1" fill-rule="nonzero"/><path fill="#4f2b43" d="M 103.359375 122.144531 C 103.011719 122.144531 102.664062 122.011719 102.402344 121.746094 C 101.878906 121.214844 101.886719 120.359375 102.417969 119.839844 L 131.980469 90.734375 C 132.507812 90.210938 133.363281 90.21875 133.882812 90.75 C 134.40625 91.28125 134.398438 92.128906 133.871094 92.65625 L 104.304688 121.761719 C 104.042969 122.019531 103.703125 122.144531 103.359375 122.144531 " fill-opacity="1" fill-rule="nonzero"/><path fill="#4f2b43" d="M 505.980469 335.773438 C 505.636719 335.773438 505.285156 335.640625 505.023438 335.371094 C 504.5 334.84375 504.511719 333.988281 505.039062 333.464844 L 590.523438 249.300781 C 591.050781 248.785156 591.90625 248.789062 592.429688 249.320312 C 592.949219 249.847656 592.945312 250.699219 592.414062 251.222656 L 506.929688 335.390625 C 506.664062 335.644531 506.324219 335.773438 505.980469 335.773438 " fill-opacity="1" fill-rule="nonzero"/><path fill="#4f2b43" d="M 512.132812 298.972656 C 511.78125 298.972656 511.4375 298.839844 511.171875 298.570312 C 510.652344 298.042969 510.65625 297.1875 511.1875 296.667969 L 551.382812 257.09375 C 551.910156 256.570312 552.765625 256.578125 553.285156 257.109375 C 553.804688 257.636719 553.804688 258.492188 553.269531 259.011719 L 513.078125 298.589844 C 512.816406 298.84375 512.472656 298.972656 512.132812 298.972656 " fill-opacity="1" fill-rule="nonzero"/><path fill="#4f2b43" d="M 247.453125 351.472656 C 247.117188 351.472656 246.78125 351.351562 246.519531 351.097656 C 245.980469 350.585938 245.960938 349.730469 246.476562 349.191406 L 250.71875 344.761719 C 251.234375 344.226562 252.085938 344.203125 252.625 344.71875 C 253.160156 345.234375 253.179688 346.085938 252.664062 346.625 L 248.425781 351.058594 C 248.160156 351.332031 247.804688 351.472656 247.453125 351.472656 " fill-opacity="1" fill-rule="nonzero"/><path fill="#4f2b43" d="M 232.609375 366.984375 C 232.277344 366.984375 231.9375 366.859375 231.679688 366.609375 C 231.140625 366.097656 231.121094 365.242188 231.636719 364.703125 L 235.878906 360.273438 C 236.390625 359.734375 237.246094 359.714844 237.78125 360.234375 C 238.320312 360.746094 238.339844 361.601562 237.824219 362.136719 L 233.582031 366.570312 C 233.316406 366.84375 232.964844 366.984375 232.609375 366.984375 " fill-opacity="1" fill-rule="nonzero"/><path fill="#4f2b43" d="M 236.769531 351.707031 C 236.429688 351.707031 236.085938 351.582031 235.824219 351.320312 L 231.519531 347.082031 C 230.988281 346.554688 230.984375 345.703125 231.507812 345.171875 C 232.027344 344.644531 232.882812 344.640625 233.410156 345.160156 L 237.714844 349.402344 C 238.246094 349.925781 238.253906 350.777344 237.730469 351.308594 C 237.464844 351.574219 237.117188 351.707031 236.769531 351.707031 " fill-opacity="1" fill-rule="nonzero"/><path fill="#4f2b43" d="M 251.835938 366.554688 C 251.492188 366.554688 251.152344 366.425781 250.890625 366.167969 L 246.585938 361.925781 C 246.054688 361.40625 246.050781 360.550781 246.570312 360.023438 C 247.09375 359.492188 247.949219 359.484375 248.476562 360.007812 L 252.78125 364.246094 C 253.3125 364.769531 253.316406 365.625 252.796875 366.152344 C 252.53125 366.421875 252.183594 366.554688 251.835938 366.554688 " fill-opacity="1" fill-rule="nonzero"/><path fill="#4f2b43" d="M 508.550781 748.839844 L 508.5625 748.839844 Z M 511.875 749.46875 C 510.933594 749.46875 509.992188 749.671875 509.105469 750.070312 C 505.609375 751.640625 504.019531 755.835938 505.566406 759.414062 C 506.3125 761.160156 507.6875 762.496094 509.429688 763.175781 C 511.132812 763.835938 512.984375 763.785156 514.648438 763.035156 C 518.148438 761.464844 519.734375 757.273438 518.191406 753.691406 C 517.4375 751.945312 516.0625 750.609375 514.320312 749.929688 C 513.527344 749.621094 512.703125 749.46875 511.875 749.46875 Z M 511.878906 766.332031 C 510.722656 766.332031 509.5625 766.117188 508.453125 765.6875 C 506.035156 764.746094 504.128906 762.898438 503.085938 760.480469 C 500.964844 755.558594 503.167969 749.78125 508 747.609375 C 510.328125 746.5625 512.921875 746.496094 515.296875 747.421875 C 517.71875 748.359375 519.625 750.207031 520.664062 752.625 C 522.789062 757.546875 520.582031 763.320312 515.753906 765.496094 C 514.511719 766.050781 513.199219 766.332031 511.878906 766.332031 " fill-opacity="1" fill-rule="nonzero"/><path fill="#4f2b43" d="M 394.117188 53.941406 C 393.769531 53.941406 393.425781 53.808594 393.164062 53.542969 L 389.25 49.625 C 388.722656 49.097656 388.726562 48.246094 389.25 47.722656 C 389.773438 47.195312 390.628906 47.195312 391.15625 47.722656 L 395.070312 51.636719 C 395.59375 52.164062 395.59375 53.019531 395.070312 53.546875 C 394.804688 53.808594 394.460938 53.941406 394.117188 53.941406 " fill-opacity="1" fill-rule="nonzero"/><path fill="#4f2b43" d="M 407.816406 67.648438 C 407.46875 67.648438 407.125 67.519531 406.863281 67.25 L 402.949219 63.335938 C 402.425781 62.808594 402.425781 61.957031 402.949219 61.425781 C 403.480469 60.902344 404.328125 60.902344 404.859375 61.433594 L 408.769531 65.351562 C 409.296875 65.871094 409.296875 66.726562 408.769531 67.253906 C 408.503906 67.519531 408.160156 67.648438 407.816406 67.648438 " fill-opacity="1" fill-rule="nonzero"/><path fill="#4f2b43" d="M 390.207031 67.648438 C 389.859375 67.648438 389.519531 67.519531 389.253906 67.253906 C 388.730469 66.726562 388.726562 65.871094 389.253906 65.351562 L 393.167969 61.433594 C 393.691406 60.902344 394.542969 60.902344 395.074219 61.425781 C 395.597656 61.957031 395.597656 62.808594 395.074219 63.335938 L 391.15625 67.25 C 390.898438 67.519531 390.550781 67.648438 390.207031 67.648438 " fill-opacity="1" fill-rule="nonzero"/><path fill="#4f2b43" d="M 403.902344 53.933594 C 403.5625 53.933594 403.214844 53.800781 402.949219 53.539062 C 402.425781 53.015625 402.425781 52.160156 402.949219 51.636719 L 406.863281 47.714844 C 407.390625 47.1875 408.246094 47.1875 408.769531 47.714844 C 409.296875 48.242188 409.296875 49.09375 408.769531 49.617188 L 404.859375 53.535156 C 404.59375 53.800781 404.25 53.933594 403.902344 53.933594 " fill-opacity="1" fill-rule="nonzero"/><path fill="#4f2b43" d="M 246.128906 103.8125 C 243.828125 104.855469 242.785156 107.609375 243.800781 109.972656 C 244.296875 111.121094 245.199219 112 246.34375 112.445312 C 247.457031 112.871094 248.667969 112.84375 249.761719 112.355469 C 252.0625 111.320312 253.105469 108.558594 252.089844 106.203125 C 251.59375 105.046875 250.691406 104.175781 249.546875 103.726562 C 248.433594 103.296875 247.222656 103.328125 246.128906 103.8125 Z M 247.949219 115.441406 C 247.078125 115.441406 246.203125 115.28125 245.367188 114.953125 C 243.542969 114.246094 242.109375 112.851562 241.328125 111.035156 C 239.730469 107.335938 241.390625 102.996094 245.023438 101.359375 C 246.78125 100.570312 248.734375 100.519531 250.523438 101.21875 C 252.347656 101.921875 253.78125 103.316406 254.5625 105.132812 C 256.160156 108.832031 254.5 113.175781 250.867188 114.808594 C 249.933594 115.230469 248.941406 115.441406 247.949219 115.441406 " fill-opacity="1" fill-rule="nonzero"/><path fill="#d2c7ff" d="M 761.398438 236.558594 L 608.144531 277.753906 C 600.210938 279.886719 597.3125 289.636719 602.792969 295.757812 L 618.828125 313.671875 C 622.886719 318.207031 622.507812 325.171875 617.980469 329.234375 L 530.558594 407.757812 C 526.03125 411.832031 519.0625 411.457031 514.992188 406.921875 L 421.546875 302.898438 C 417.476562 298.363281 410.507812 297.992188 405.972656 302.0625 L 171.945312 511.617188 C 167.417969 515.691406 167.042969 522.660156 171.113281 527.191406 L 205.269531 565.214844 C 209.339844 569.746094 216.3125 570.121094 220.84375 566.054688 L 400.46875 405.421875 C 405 401.347656 411.972656 401.722656 416.039062 406.253906 L 509.453125 510.246094 C 513.519531 514.777344 520.492188 515.148438 525.019531 511.082031 L 666.757812 383.769531 C 671.292969 379.699219 678.273438 380.074219 682.34375 384.621094 L 699.644531 403.945312 C 705.160156 410.109375 715.253906 408.226562 718.175781 400.484375 L 774.578125 251.097656 C 777.746094 242.695312 770.070312 234.226562 761.398438 236.558594 " fill-opacity="1" fill-rule="nonzero"/><path fill="#ffffff" d="M 205.046875 709.078125 L 209.128906 737.734375 L 217.964844 737.734375 L 218.457031 709.550781 L 205.046875 709.078125 " fill-opacity="1" fill-rule="nonzero"/><path fill="#4f2b43" d="M 210.296875 736.390625 L 216.640625 736.390625 L 217.085938 710.851562 L 206.609375 710.480469 Z M 217.964844 739.085938 L 209.128906 739.085938 C 208.460938 739.085938 207.890625 738.589844 207.796875 737.929688 L 203.714844 709.269531 C 203.65625 708.875 203.777344 708.472656 204.046875 708.179688 C 204.3125 707.882812 204.699219 707.710938 205.09375 707.730469 L 218.503906 708.203125 C 219.238281 708.230469 219.816406 708.839844 219.804688 709.574219 L 219.3125 737.761719 C 219.300781 738.496094 218.699219 739.085938 217.964844 739.085938 " fill-opacity="1" fill-rule="nonzero"/><path fill="#ffffff" d="M 208.777344 765.136719 C 213.003906 765.585938 219.921875 765.882812 227.984375 764.492188 C 230.628906 764.039062 232.304688 761.40625 231.578125 758.824219 C 229.554688 751.632812 225.195312 738.007812 219.710938 731.8125 L 218.515625 735.308594 L 216.597656 732.117188 C 216.332031 731.675781 215.878906 731.390625 215.371094 731.34375 L 211.390625 730.972656 C 210.558594 730.894531 209.808594 731.46875 209.660156 732.292969 L 209.128906 735.308594 L 207.617188 731.421875 L 204.785156 760.207031 C 204.542969 762.667969 206.320312 764.871094 208.777344 765.136719 " fill-opacity="1" fill-rule="nonzero"/><path fill="#4f2b43" d="M 208.472656 736.488281 L 206.125 760.339844 C 205.957031 762.0625 207.210938 763.613281 208.921875 763.796875 C 213.1875 764.253906 219.917969 764.519531 227.757812 763.167969 C 228.660156 763.011719 229.425781 762.5 229.910156 761.730469 C 230.394531 760.964844 230.527344 760.0625 230.28125 759.191406 C 228.414062 752.554688 224.761719 741.125 220.179688 734.597656 L 219.789062 735.746094 C 219.617188 736.242188 219.175781 736.597656 218.65625 736.648438 C 218.132812 736.710938 217.628906 736.453125 217.359375 736.003906 L 215.441406 732.808594 C 215.398438 732.738281 215.324219 732.695312 215.246094 732.6875 L 211.265625 732.316406 C 211.132812 732.296875 211.011719 732.394531 210.988281 732.527344 L 210.457031 735.542969 C 210.351562 736.140625 209.863281 736.59375 209.261719 736.652344 C 208.984375 736.679688 208.707031 736.617188 208.472656 736.488281 Z M 215.996094 766.863281 C 213.113281 766.863281 210.617188 766.6875 208.632812 766.472656 C 205.457031 766.136719 203.128906 763.265625 203.445312 760.074219 L 206.277344 731.289062 C 206.335938 730.667969 206.816406 730.167969 207.4375 730.085938 C 208.019531 730.007812 208.597656 730.324219 208.84375 730.855469 C 209.4375 730.03125 210.449219 729.523438 211.515625 729.632812 L 215.496094 730.003906 C 216.425781 730.089844 217.269531 730.621094 217.75 731.425781 L 218.175781 732.128906 L 218.433594 731.375 C 218.589844 730.921875 218.976562 730.582031 219.445312 730.488281 C 219.917969 730.394531 220.402344 730.558594 220.71875 730.917969 C 226.34375 737.273438 230.75 750.902344 232.875 758.457031 C 233.324219 760.054688 233.074219 761.769531 232.191406 763.167969 C 231.304688 764.574219 229.851562 765.539062 228.214844 765.820312 C 223.710938 766.597656 219.558594 766.863281 215.996094 766.863281 " fill-opacity="1" fill-rule="nonzero"/><path fill="#4f2b43" d="M 218.816406 761.972656 C 212.695312 761.972656 207.992188 760.820312 207.695312 760.746094 C 206.976562 760.5625 206.535156 759.832031 206.714844 759.109375 C 206.898438 758.390625 207.625 757.949219 208.351562 758.128906 C 208.453125 758.152344 218.730469 760.664062 228.34375 758.132812 C 229.066406 757.945312 229.800781 758.375 229.992188 759.09375 C 230.179688 759.816406 229.75 760.550781 229.03125 760.742188 C 225.523438 761.660156 221.980469 761.972656 218.816406 761.972656 " fill-opacity="1" fill-rule="nonzero"/><path fill="#4f2b43" d="M 222.382812 750.761719 L 212.90625 750.761719 C 212.160156 750.761719 211.558594 750.160156 211.558594 749.414062 C 211.558594 748.671875 212.160156 748.066406 212.90625 748.066406 L 222.382812 748.066406 C 223.125 748.066406 223.730469 748.671875 223.730469 749.414062 C 223.730469 750.160156 223.125 750.761719 222.382812 750.761719 " fill-opacity="1" fill-rule="nonzero"/><path fill="#ffffff" d="M 130.082031 711.636719 L 126.40625 745.039062 L 112.355469 747.980469 L 113.210938 708.8125 L 130.082031 711.636719 " fill-opacity="1" fill-rule="nonzero"/><path fill="#4f2b43" d="M 114.527344 710.398438 L 113.742188 746.3125 L 125.175781 743.921875 L 128.605469 712.757812 Z M 112.355469 749.328125 C 112.046875 749.328125 111.738281 749.222656 111.496094 749.019531 C 111.179688 748.753906 111 748.363281 111.011719 747.953125 L 111.867188 708.785156 C 111.875 708.394531 112.050781 708.027344 112.355469 707.777344 C 112.652344 707.527344 113.046875 707.421875 113.433594 707.488281 L 130.304688 710.304688 C 131.007812 710.425781 131.5 711.074219 131.421875 711.785156 L 127.746094 745.1875 C 127.683594 745.765625 127.253906 746.242188 126.683594 746.359375 L 112.632812 749.300781 C 112.542969 749.320312 112.449219 749.328125 112.355469 749.328125 " fill-opacity="1" fill-rule="nonzero"/><path fill="#ffffff" d="M 132.335938 762.554688 C 132.335938 762.554688 134.136719 746.480469 129.101562 739.140625 L 117.859375 743.144531 L 117.859375 740.738281 C 117.859375 739.964844 117.308594 739.332031 116.605469 739.289062 L 110.335938 738.929688 C 108 738.792969 105.667969 739.277344 103.53125 740.332031 C 96.023438 744.023438 78.738281 753.535156 79.289062 762.65625 C 79.289062 762.65625 92.890625 766.035156 132.335938 762.554688 " fill-opacity="1" fill-rule="nonzero"/><path fill="#4f2b43" d="M 132.335938 762.554688 L 132.347656 762.554688 Z M 80.664062 761.554688 C 84.484375 762.207031 99.121094 764.058594 131.097656 761.308594 C 131.367188 757.8125 131.898438 746.800781 128.53125 740.777344 L 118.3125 744.414062 C 117.898438 744.558594 117.441406 744.492188 117.085938 744.242188 C 116.726562 743.988281 116.515625 743.578125 116.515625 743.144531 L 116.515625 740.738281 C 116.515625 740.664062 116.484375 740.625 116.476562 740.617188 L 110.261719 740.277344 C 108.175781 740.15625 106.050781 740.59375 104.125 741.535156 C 89.941406 748.515625 81.324219 755.894531 80.664062 761.554688 Z M 100.460938 765.484375 C 85.339844 765.484375 79.332031 764.058594 78.960938 763.96875 C 78.390625 763.828125 77.980469 763.324219 77.945312 762.738281 C 77.367188 753.164062 93.355469 743.832031 102.9375 739.121094 C 105.277344 737.96875 107.859375 737.429688 110.414062 737.585938 L 116.683594 737.945312 C 118.097656 738.023438 119.207031 739.253906 119.207031 740.738281 L 119.207031 741.230469 L 128.648438 737.871094 C 129.226562 737.667969 129.867188 737.875 130.210938 738.378906 C 135.46875 746.039062 133.753906 762.023438 133.675781 762.699219 C 133.605469 763.339844 133.097656 763.839844 132.457031 763.890625 C 118.925781 765.089844 108.425781 765.484375 100.460938 765.484375 " fill-opacity="1" fill-rule="nonzero"/><path fill="#4f2b43" d="M 113.199219 760.53125 C 96.402344 760.53125 83.527344 757.976562 83.359375 757.941406 C 82.632812 757.796875 82.160156 757.082031 82.308594 756.355469 C 82.453125 755.625 83.167969 755.152344 83.894531 755.300781 C 84.113281 755.347656 105.984375 759.679688 129.785156 756.921875 C 130.523438 756.832031 131.195312 757.367188 131.28125 758.101562 C 131.367188 758.84375 130.835938 759.507812 130.097656 759.597656 C 124.257812 760.273438 118.527344 760.53125 113.199219 760.53125 " fill-opacity="1" fill-rule="nonzero"/><path fill="#4f2b43" d="M 99.835938 752.050781 C 99.417969 752.050781 99.003906 751.855469 98.742188 751.488281 C 98.304688 750.882812 98.445312 750.042969 99.046875 749.609375 L 109.867188 741.824219 C 110.472656 741.394531 111.3125 741.527344 111.75 742.136719 C 112.183594 742.734375 112.046875 743.578125 111.441406 744.015625 L 100.621094 751.792969 C 100.382812 751.964844 100.109375 752.050781 99.835938 752.050781 " fill-opacity="1" fill-rule="nonzero"/><path fill="#9333ea" d="M 125.699219 494.910156 C 125.699219 494.910156 105.542969 623.035156 109.832031 715.25 L 132.242188 715.828125 C 132.242188 715.828125 156.28125 585.785156 168.273438 562.515625 C 168.273438 562.515625 200.851562 681.082031 202.105469 714.832031 C 202.105469 714.832031 216.605469 716.292969 222.382812 714.214844 C 225.484375 681.640625 226.417969 653.933594 226.574219 632.773438 C 227.019531 572.199219 221.230469 544.683594 218.054688 531.628906 C 215.144531 519.644531 212.015625 509.902344 209.730469 503.3125 L 202.105469 481.5625 L 125.699219 494.910156 " fill-opacity="1" fill-rule="nonzero"/><path fill="#4f2b43" d="M 111.121094 713.933594 L 131.128906 714.453125 C 133.671875 700.789062 155.589844 584.183594 167.074219 561.902344 C 167.328125 561.410156 167.859375 561.132812 168.410156 561.179688 C 168.964844 561.234375 169.425781 561.625 169.570312 562.164062 C 170.886719 566.953125 201.488281 678.65625 203.398438 713.59375 C 206.707031 713.863281 216.273438 714.488281 221.125 713.191406 C 223.652344 686.398438 225.03125 659.339844 225.226562 632.761719 C 225.648438 575.390625 220.589844 547.746094 216.746094 531.945312 C 214.4375 522.4375 211.644531 512.953125 208.457031 503.757812 L 201.214844 483.085938 L 126.882812 496.066406 C 125.074219 507.929688 107.308594 627.167969 111.121094 713.933594 Z M 132.242188 717.175781 C 132.234375 717.175781 132.222656 717.175781 132.207031 717.175781 L 109.796875 716.59375 C 109.09375 716.578125 108.519531 716.015625 108.488281 715.3125 C 104.238281 624.015625 124.167969 495.980469 124.367188 494.695312 C 124.457031 494.125 124.902344 493.679688 125.464844 493.582031 L 201.875 480.234375 C 202.523438 480.117188 203.160156 480.496094 203.378906 481.117188 L 211.003906 502.871094 C 214.21875 512.148438 217.03125 521.71875 219.367188 531.3125 C 223.242188 547.25 228.34375 575.113281 227.921875 632.78125 C 227.722656 659.734375 226.308594 687.175781 223.722656 714.339844 C 223.671875 714.859375 223.328125 715.304688 222.835938 715.480469 C 216.84375 717.636719 202.574219 716.234375 201.972656 716.175781 C 201.300781 716.105469 200.785156 715.554688 200.761719 714.882812 C 199.644531 684.976562 173.398438 586.613281 167.953125 566.484375 C 155.773438 596.371094 133.800781 714.828125 133.570312 716.074219 C 133.449219 716.714844 132.890625 717.175781 132.242188 717.175781 " fill-opacity="1" fill-rule="nonzero"/><path fill="#4f2b43" d="M 167.085938 561.183594 C 166.484375 561.183594 165.9375 560.78125 165.78125 560.175781 L 162.539062 547.636719 L 154.792969 546.035156 C 154.066406 545.882812 153.597656 545.171875 153.746094 544.441406 C 153.898438 543.714844 154.609375 543.242188 155.339844 543.398438 L 163.902344 545.167969 C 164.40625 545.269531 164.808594 545.652344 164.9375 546.148438 L 168.390625 559.5 C 168.578125 560.21875 168.144531 560.953125 167.425781 561.140625 C 167.308594 561.171875 167.199219 561.183594 167.085938 561.183594 " fill-opacity="1" fill-rule="nonzero"/><path fill="#4f2b43" d="M 127.671875 381.265625 C 140.78125 379.789062 168.53125 377.15625 188.046875 378.777344 C 194.046875 379.273438 199.738281 381.617188 204.339844 385.5 C 218.199219 397.207031 248.238281 426.550781 248.632812 461.265625 L 217.863281 456.800781 C 217.863281 456.800781 228.726562 495.730469 227.984375 501.984375 C 227.246094 508.242188 208.199219 518.886719 184.382812 510.152344 C 160.566406 501.421875 126.285156 502.488281 115.1875 510.152344 L 114.113281 462.125 L 67.308594 462.125 C 67.308594 462.125 82.785156 411.75 112.816406 387.433594 C 117.066406 383.992188 122.234375 381.878906 127.671875 381.265625 " fill-opacity="1" fill-rule="nonzero"/><path fill="#ffffff" d="M 67.308594 462.125 C 67.308594 462.125 63.644531 478.871094 80.292969 483.902344 C 96.945312 488.929688 112.753906 458.621094 112.753906 458.621094 L 101.164062 451.902344 L 67.308594 462.125 " fill-opacity="1" fill-rule="nonzero"/><path fill="#4f2b43" d="M 68.492188 463.171875 C 68.03125 466.382812 67.226562 478.546875 80.683594 482.609375 C 94.324219 486.730469 107.910156 464.464844 110.9375 459.125 L 100.996094 453.363281 Z M 84.121094 485.816406 C 82.730469 485.816406 81.324219 485.617188 79.90625 485.191406 C 62.265625 479.863281 65.953125 462.019531 65.992188 461.835938 C 66.097656 461.359375 66.449219 460.976562 66.917969 460.832031 L 100.777344 450.613281 C 101.132812 450.507812 101.519531 450.550781 101.839844 450.738281 L 113.429688 457.457031 C 114.054688 457.820312 114.285156 458.609375 113.949219 459.242188 C 113.339844 460.417969 99.890625 485.816406 84.121094 485.816406 " fill-opacity="1" fill-rule="nonzero"/><path fill="#bec4ed" d="M 175.296875 500.289062 L 93.464844 500.289062 C 91.390625 500.289062 89.585938 498.878906 89.085938 496.863281 L 72.566406 430.257812 C 71.859375 427.410156 74.015625 424.660156 76.945312 424.660156 L 158.777344 424.660156 C 160.851562 424.660156 162.65625 426.074219 163.15625 428.085938 L 179.679688 494.691406 C 180.382812 497.539062 178.230469 500.289062 175.296875 500.289062 " fill-opacity="1" fill-rule="nonzero"/><path fill="#4f2b43" d="M 76.945312 426.007812 C 75.964844 426.007812 75.058594 426.449219 74.453125 427.222656 C 73.847656 427.992188 73.636719 428.980469 73.875 429.933594 L 90.394531 496.539062 C 90.746094 497.957031 92.007812 498.945312 93.464844 498.945312 L 175.296875 498.945312 C 176.277344 498.945312 177.1875 498.5 177.789062 497.726562 C 178.394531 496.957031 178.605469 495.96875 178.371094 495.019531 L 161.851562 428.414062 C 161.5 426.996094 160.234375 426.007812 158.777344 426.007812 Z M 175.296875 501.636719 L 93.464844 501.636719 C 90.765625 501.636719 88.425781 499.808594 87.777344 497.191406 L 71.257812 430.582031 C 70.820312 428.824219 71.210938 426.992188 72.332031 425.5625 C 73.449219 424.132812 75.132812 423.3125 76.945312 423.3125 L 158.777344 423.3125 C 161.476562 423.3125 163.816406 425.140625 164.464844 427.761719 L 180.984375 494.367188 C 181.421875 496.128906 181.03125 497.960938 179.914062 499.390625 C 178.792969 500.820312 177.113281 501.636719 175.296875 501.636719 " fill-opacity="1" fill-rule="nonzero"/><path fill="#ffffff" d="M 78.636719 457.769531 L 81.042969 464.433594 L 100.71875 455.0625 C 100.71875 455.0625 111.539062 464.433594 85.3125 476.4375 C 74.382812 481.441406 78.636719 457.769531 78.636719 457.769531 " fill-opacity="1" fill-rule="nonzero"/><path fill="#4f2b43" d="M 79.289062 463.542969 C 78.941406 468.484375 79.246094 473.800781 81.25 475.355469 C 81.542969 475.582031 82.433594 476.273438 84.75 475.214844 C 97.789062 469.25 101.070312 464.199219 101.523438 461.015625 C 101.8125 459 100.992188 457.5 100.394531 456.710938 L 81.621094 465.652344 C 81.277344 465.816406 80.882812 465.828125 80.53125 465.679688 C 80.179688 465.535156 79.90625 465.25 79.773438 464.890625 Z M 82.578125 478.472656 C 81.242188 478.472656 80.265625 478.003906 79.597656 477.484375 C 74.589844 473.597656 77.019531 459.164062 77.3125 457.535156 C 77.421875 456.933594 77.917969 456.480469 78.527344 456.429688 C 79.132812 456.390625 79.699219 456.742188 79.90625 457.316406 L 81.804688 462.578125 L 100.140625 453.847656 C 100.625 453.621094 101.195312 453.695312 101.601562 454.046875 C 101.734375 454.160156 104.832031 456.902344 104.191406 461.398438 C 103.390625 466.996094 97.226562 472.46875 85.875 477.664062 C 84.59375 478.25 83.5 478.472656 82.578125 478.472656 " fill-opacity="1" fill-rule="nonzero"/><path fill="#ffffff" d="M 194.378906 423.863281 C 194.378906 423.863281 231.160156 444.511719 238.75 450.996094 C 246.339844 457.480469 254.566406 462.402344 243.871094 476.578125 C 233.175781 490.753906 187.574219 433.96875 187.574219 433.96875 C 187.574219 433.96875 178.8125 435.417969 175.753906 423.488281 C 175.753906 423.488281 160.964844 424.015625 160.425781 419.375 L 181.289062 415.644531 C 183.984375 415.160156 186.746094 416.046875 188.660156 418.007812 L 194.378906 423.863281 " fill-opacity="1" fill-rule="nonzero"/><path fill="#4f2b43" d="M 187.566406 432.625 C 187.972656 432.625 188.367188 432.800781 188.621094 433.125 C 198.558594 445.492188 226.9375 477.5 239.125 477.503906 C 239.160156 477.503906 239.195312 477.503906 239.230469 477.5 C 240.765625 477.480469 241.933594 476.910156 242.796875 475.765625 C 251.890625 463.710938 246.757812 459.429688 239.652344 453.507812 C 239.0625 453.023438 238.464844 452.527344 237.875 452.019531 C 230.472656 445.691406 194.085938 425.242188 193.71875 425.035156 C 193.605469 424.972656 193.503906 424.894531 193.414062 424.800781 L 187.695312 418.945312 C 186.09375 417.304688 183.785156 416.5625 181.523438 416.96875 L 162.714844 420.335938 C 164.929688 421.636719 170.605469 422.324219 175.707031 422.140625 C 176.328125 422.089844 176.902344 422.539062 177.058594 423.15625 C 179.753906 433.671875 187.046875 432.683594 187.359375 432.640625 C 187.429688 432.628906 187.496094 432.625 187.566406 432.625 Z M 239.140625 480.199219 C 223.917969 480.199219 191.332031 440.738281 186.960938 435.351562 C 184.59375 435.402344 177.683594 434.632812 174.738281 424.863281 C 170.136719 424.929688 159.667969 424.546875 159.089844 419.53125 C 159.003906 418.820312 159.488281 418.175781 160.191406 418.050781 L 181.050781 414.316406 C 184.191406 413.757812 187.394531 414.78125 189.625 417.0625 L 195.207031 422.78125 C 198.253906 424.496094 232.207031 443.632812 239.625 449.96875 C 240.207031 450.46875 240.796875 450.957031 241.375 451.441406 C 248.363281 457.261719 255.589844 463.28125 244.945312 477.390625 C 243.570312 479.21875 241.660156 480.160156 239.273438 480.199219 C 239.226562 480.199219 239.183594 480.199219 239.140625 480.199219 " fill-opacity="1" fill-rule="nonzero"/><path fill="#4f2b43" d="M 142.472656 357.253906 C 141.804688 358.402344 143.183594 360.640625 143.195312 360.636719 C 143.21875 360.628906 142.535156 354.089844 138.890625 352.4375 C 136.777344 351.476562 135.683594 353.070312 132.535156 352.640625 C 129.1875 352.179688 125.507812 349.703125 124.128906 346.082031 C 122.460938 341.703125 124.863281 337.53125 126.378906 334.902344 C 127.886719 332.289062 129.804688 329.375 133.132812 328.117188 C 137.472656 326.476562 139.285156 328.996094 144.253906 327.449219 C 148.292969 326.191406 147.996094 324.246094 151.59375 323.222656 C 154.589844 322.371094 163.226562 322.855469 165.160156 327.449219 C 166.386719 330.363281 163.742188 332.136719 165.058594 336.453125 C 165.851562 339.046875 167.097656 339.363281 168.003906 341.363281 C 170.257812 346.328125 167.433594 355.046875 162.058594 357.96875 C 154.765625 361.933594 144.054688 354.523438 142.472656 357.253906 " fill-opacity="1" fill-rule="nonzero"/><path fill="#ffffff" d="M 145.597656 360.765625 L 143.902344 374.695312 C 143.578125 377.347656 141.667969 379.53125 139.082031 380.203125 L 131.917969 382.070312 L 154 398.886719 L 178.8125 380.066406 L 169.914062 378.074219 C 167.355469 377.503906 165.390625 375.457031 164.925781 372.878906 L 161.226562 352.359375 L 145.597656 360.765625 " fill-opacity="1" fill-rule="nonzero"/><path fill="#4f2b43" d="M 134.9375 382.675781 L 154 397.195312 L 175.683594 380.746094 L 169.621094 379.390625 C 166.523438 378.699219 164.164062 376.234375 163.601562 373.117188 L 160.230469 354.425781 L 146.851562 361.621094 L 145.238281 374.855469 C 144.84375 378.078125 142.5625 380.6875 139.421875 381.507812 Z M 154 400.234375 C 153.710938 400.234375 153.425781 400.140625 153.183594 399.957031 L 131.101562 383.140625 C 130.691406 382.832031 130.496094 382.308594 130.59375 381.804688 C 130.699219 381.300781 131.078125 380.898438 131.578125 380.769531 L 138.742188 378.902344 C 140.804688 378.363281 142.304688 376.648438 142.5625 374.53125 L 144.261719 360.601562 C 144.3125 360.167969 144.574219 359.785156 144.960938 359.578125 L 160.589844 351.171875 C 160.96875 350.96875 161.425781 350.957031 161.8125 351.144531 C 162.203125 351.332031 162.476562 351.695312 162.554688 352.117188 L 166.253906 372.636719 C 166.621094 374.6875 168.171875 376.304688 170.207031 376.761719 L 179.105469 378.746094 C 179.617188 378.859375 180.019531 379.261719 180.128906 379.773438 C 180.242188 380.289062 180.042969 380.816406 179.625 381.132812 L 154.8125 399.957031 C 154.574219 400.140625 154.285156 400.234375 154 400.234375 " fill-opacity="1" fill-rule="nonzero"/><path fill="#ffffff" d="M 159.449219 355.1875 C 159.449219 355.1875 164.945312 353.117188 162.882812 348.570312 C 160.816406 344.027344 157.457031 347.382812 157.457031 347.382812 C 157.457031 347.382812 154.332031 336.191406 147.769531 340.601562 C 141.207031 345.019531 134.988281 346.621094 134.988281 346.621094 C 134.988281 346.621094 137.296875 357.886719 141.449219 365.378906 C 143.953125 369.898438 147.128906 373.050781 150.867188 371.53125 C 161.101562 367.371094 159.449219 355.1875 159.449219 355.1875 " fill-opacity="1" fill-rule="nonzero"/><path fill="#4f2b43" d="M 136.574219 347.554688 C 137.292969 350.625 139.410156 358.914062 142.628906 364.726562 C 145.238281 369.441406 147.839844 371.308594 150.359375 370.28125 C 159.484375 366.578125 158.175781 355.824219 158.113281 355.367188 C 158.03125 354.742188 158.386719 354.148438 158.96875 353.925781 C 159.578125 353.695312 161.273438 352.792969 161.816406 351.464844 C 162.101562 350.765625 162.050781 350 161.65625 349.128906 C 161.355469 348.472656 160.867188 347.667969 160.234375 347.554688 C 159.507812 347.414062 158.59375 348.148438 158.40625 348.335938 C 158.070312 348.671875 157.578125 348.804688 157.117188 348.683594 C 156.652344 348.5625 156.289062 348.203125 156.160156 347.746094 C 155.722656 346.195312 154.0625 341.976562 151.640625 341.082031 C 150.695312 340.734375 149.671875 340.945312 148.519531 341.722656 C 143.527344 345.078125 138.765625 346.851562 136.574219 347.554688 Z M 148.980469 373.265625 C 146.476562 373.265625 143.390625 371.664062 140.273438 366.035156 C 136.066406 358.445312 133.761719 347.363281 133.667969 346.894531 C 133.523438 346.191406 133.957031 345.5 134.648438 345.320312 C 134.710938 345.304688 140.742188 343.707031 147.015625 339.484375 C 149.382812 337.898438 151.347656 338.105469 152.574219 338.558594 C 155.523438 339.644531 157.308594 343.121094 158.160156 345.289062 C 158.871094 344.957031 159.753906 344.730469 160.71875 344.902344 C 162.144531 345.160156 163.289062 346.207031 164.109375 348.011719 C 164.808594 349.558594 164.878906 351.109375 164.304688 352.503906 C 163.550781 354.320312 161.914062 355.445312 160.859375 356.011719 C 161 359.191406 160.644531 369.011719 151.371094 372.78125 C 150.664062 373.070312 149.859375 373.265625 148.980469 373.265625 " fill-opacity="1" fill-rule="nonzero"/><path fill="#ffffff" d="M 296.90625 679.695312 C 296.421875 680.453125 277.828125 707.039062 277.828125 707.039062 C 277.828125 707.039062 278.300781 713.808594 283.117188 715.132812 L 305.226562 691.207031 L 296.90625 679.695312 " fill-opacity="1" fill-rule="nonzero"/><path fill="#4f2b43" d="M 279.226562 707.394531 C 279.40625 708.664062 280.140625 712.296875 282.738281 713.558594 L 303.488281 691.101562 L 296.933594 682.03125 C 293.265625 687.316406 281.699219 703.851562 279.226562 707.394531 Z M 283.117188 716.480469 C 282.996094 716.480469 282.878906 716.464844 282.761719 716.429688 C 277.085938 714.875 276.507812 707.445312 276.484375 707.132812 C 276.464844 706.824219 276.546875 706.519531 276.722656 706.265625 C 281.871094 698.90625 295.328125 679.65625 295.773438 678.96875 C 296.015625 678.59375 296.425781 678.363281 296.871094 678.347656 C 297.296875 678.363281 297.738281 678.542969 298 678.90625 L 306.316406 690.417969 C 306.695312 690.933594 306.652344 691.652344 306.214844 692.117188 L 284.105469 716.042969 C 283.847656 716.324219 283.488281 716.480469 283.117188 716.480469 " fill-opacity="1" fill-rule="nonzero"/><path fill="#ffffff" d="M 267.699219 711.710938 C 267.699219 711.710938 269.28125 732.703125 278.550781 743.75 C 287.820312 754.796875 302.695312 751.265625 302.695312 751.265625 C 302.695312 751.265625 303.824219 741.917969 301.894531 739.492188 C 299.964844 737.058594 289.296875 724.074219 289.328125 712.402344 L 283.660156 704.683594 L 280.316406 709.015625 L 278.882812 701.941406 L 267.699219 711.710938 " fill-opacity="1" fill-rule="nonzero"/><path fill="#4f2b43" d="M 269.101562 712.273438 C 269.46875 715.890625 271.609375 733.382812 279.582031 742.882812 C 286.933594 751.644531 298.1875 750.632812 301.464844 750.121094 C 301.800781 746.566406 301.820312 741.566406 300.839844 740.328125 L 300.632812 740.070312 C 290.4375 727.292969 288.09375 718.277344 287.984375 712.851562 L 283.632812 706.925781 L 281.382812 709.839844 C 281.058594 710.257812 280.523438 710.445312 280.011719 710.328125 C 279.496094 710.210938 279.097656 709.804688 278.996094 709.285156 L 278.023438 704.484375 Z M 297.046875 753.167969 C 291.601562 753.167969 283.515625 751.761719 277.519531 744.613281 C 268.082031 733.363281 266.421875 712.6875 266.355469 711.8125 C 266.324219 711.390625 266.492188 710.972656 266.8125 710.699219 L 277.996094 700.925781 C 278.359375 700.609375 278.859375 700.515625 279.316406 700.667969 C 279.769531 700.824219 280.109375 701.207031 280.207031 701.675781 L 281.050781 705.859375 L 282.59375 703.863281 C 282.851562 703.527344 283.238281 703.351562 283.675781 703.335938 C 284.097656 703.34375 284.496094 703.546875 284.746094 703.886719 L 290.414062 711.605469 C 290.582031 711.835938 290.675781 712.117188 290.675781 712.40625 C 290.664062 717.351562 292.746094 725.867188 302.742188 738.390625 L 302.949219 738.652344 C 305.117188 741.382812 304.234375 749.773438 304.035156 751.425781 C 303.96875 751.984375 303.554688 752.445312 303.007812 752.578125 C 302.761719 752.632812 300.40625 753.167969 297.046875 753.167969 " fill-opacity="1" fill-rule="nonzero"/><path fill="#ffffff" d="M 271.4375 712.515625 C 271.4375 712.515625 273.84375 747.390625 299.722656 746.636719 L 271.4375 712.515625 " fill-opacity="1" fill-rule="nonzero"/><path fill="#4f2b43" d="M 298.902344 748 C 272.835938 748 270.117188 712.96875 270.09375 712.609375 C 270.042969 711.867188 270.601562 711.226562 271.347656 711.175781 C 272.101562 711.140625 272.730469 711.683594 272.78125 712.421875 C 272.878906 713.78125 275.355469 745.304688 298.902344 745.304688 C 299.164062 745.304688 299.421875 745.300781 299.683594 745.292969 C 300.425781 745.246094 301.046875 745.859375 301.070312 746.597656 C 301.09375 747.34375 300.503906 747.964844 299.761719 747.984375 C 299.472656 747.992188 299.183594 748 298.902344 748 " fill-opacity="1" fill-rule="nonzero"/><path fill="#4f2b43" d="M 338.527344 494.125 C 338.527344 494.125 360.410156 558.496094 360.519531 600.890625 C 360.625 643.28125 300.65625 699.5 300.65625 699.5 L 288.265625 688.753906 C 288.265625 688.753906 310.332031 665.363281 314.554688 633.714844 C 318.773438 602.070312 305.953125 542.316406 305.953125 542.316406 L 301.164062 500.105469 L 338.527344 494.125 " fill-opacity="1" fill-rule="nonzero"/><path fill="#ffffff" d="M 306.28125 702.511719 C 306.175781 703.648438 307.351562 719.578125 312.292969 729.585938 C 312.292969 729.585938 310.007812 736.921875 303.023438 735.605469 C 303.023438 735.605469 292.292969 715.171875 290.039062 701.941406 L 306.28125 702.511719 " fill-opacity="1" fill-rule="nonzero"/><path fill="#4f2b43" d="M 303.90625 734.375 C 308.316406 734.835938 310.273438 731.03125 310.832031 729.660156 C 306.722656 720.949219 305.226562 708.191406 304.972656 703.8125 L 291.679688 703.351562 C 294.136719 714.914062 302.210938 731.066406 303.90625 734.375 Z M 304.644531 737.113281 C 304.054688 737.113281 303.429688 737.058594 302.773438 736.929688 C 302.371094 736.855469 302.023438 736.597656 301.832031 736.234375 C 301.390625 735.394531 290.972656 715.453125 288.710938 702.167969 C 288.644531 701.769531 288.757812 701.363281 289.023438 701.058594 C 289.289062 700.753906 289.675781 700.585938 290.085938 700.597656 L 306.332031 701.164062 C 306.703125 701.175781 307.050781 701.339844 307.296875 701.621094 C 307.535156 701.898438 307.660156 702.257812 307.625 702.625 C 307.566406 703.65625 308.632812 719.128906 313.5 728.988281 C 313.652344 729.296875 313.679688 729.65625 313.578125 729.984375 C 312.761719 732.621094 309.902344 737.113281 304.644531 737.113281 " fill-opacity="1" fill-rule="nonzero"/><path fill="#ffffff" d="M 299.132812 727.960938 C 299.132812 727.960938 297.347656 748.863281 299.976562 754.78125 C 299.976562 754.78125 319.863281 765.011719 342.953125 764.980469 C 344.59375 764.980469 345.933594 763.65625 345.917969 762.015625 C 345.886719 758.066406 344.84375 750.847656 338.527344 745.132812 C 329.347656 736.820312 309.640625 723.179688 309.640625 723.179688 L 305.660156 727.992188 L 307.328125 735.605469 L 299.132812 727.960938 " fill-opacity="1" fill-rule="nonzero"/><path fill="#4f2b43" d="M 301.035156 753.800781 C 304.074219 755.273438 322.289062 763.636719 342.859375 763.636719 C 343.335938 763.644531 343.78125 763.484375 344.113281 763.152344 C 344.414062 762.851562 344.578125 762.445312 344.570312 762.027344 C 344.542969 758.410156 343.597656 751.535156 337.625 746.128906 C 329.800781 739.046875 314.03125 727.894531 309.886719 724.992188 L 307.117188 728.34375 L 308.648438 735.320312 C 308.769531 735.898438 308.507812 736.488281 307.996094 736.78125 C 307.484375 737.066406 306.839844 736.996094 306.410156 736.59375 L 300.265625 730.867188 C 299.832031 737.597656 299.464844 749.421875 301.035156 753.800781 Z M 342.855469 766.332031 C 319.75 766.332031 300.183594 756.402344 299.359375 755.980469 C 299.085938 755.839844 298.867188 755.609375 298.746094 755.332031 C 296.007812 749.164062 297.714844 728.71875 297.789062 727.847656 C 297.832031 727.335938 298.164062 726.890625 298.644531 726.703125 C 299.128906 726.523438 299.671875 726.628906 300.050781 726.976562 L 305.089844 731.675781 L 304.347656 728.28125 C 304.257812 727.875 304.359375 727.453125 304.621094 727.136719 L 308.597656 722.316406 C 309.046875 721.78125 309.832031 721.671875 310.40625 722.070312 C 310.601562 722.207031 330.292969 735.859375 339.4375 744.132812 C 346.167969 750.226562 347.230469 757.945312 347.265625 762.003906 C 347.277344 763.152344 346.839844 764.230469 346.027344 765.046875 C 345.1875 765.898438 344.050781 766.335938 342.855469 766.332031 " fill-opacity="1" fill-rule="nonzero"/><path fill="#ffffff" d="M 301.519531 748.605469 C 301.519531 748.605469 320.433594 760.546875 343.066406 759.179688 L 301.519531 748.605469 " fill-opacity="1" fill-rule="nonzero"/><path fill="#4f2b43" d="M 339.375 760.636719 C 318.3125 760.636719 301.546875 750.210938 300.800781 749.742188 C 300.171875 749.34375 299.984375 748.515625 300.382812 747.882812 C 300.777344 747.253906 301.609375 747.066406 302.238281 747.464844 C 302.425781 747.578125 321.078125 759.15625 342.984375 757.835938 C 343.726562 757.773438 344.363281 758.355469 344.410156 759.097656 C 344.453125 759.84375 343.886719 760.480469 343.144531 760.527344 C 341.878906 760.601562 340.621094 760.636719 339.375 760.636719 " fill-opacity="1" fill-rule="nonzero"/><path fill="#4f2b43" d="M 271.398438 494.125 C 271.398438 494.125 257.542969 587.027344 290.039062 709.851562 L 309.640625 707.039062 C 309.640625 707.039062 299.0625 599.671875 324.394531 542.914062 L 330.03125 491.613281 L 271.398438 494.125 " fill-opacity="1" fill-rule="nonzero"/><path fill="#4f2b43" d="M 277.6875 351.566406 C 275.066406 356.839844 278.792969 358.699219 276.972656 368.933594 C 275.636719 376.453125 272.933594 379.332031 274.726562 383.074219 C 276.34375 386.445312 280.234375 387.65625 282.804688 388.457031 C 294.476562 392.097656 305.71875 386.179688 312.625 382.546875 C 318.207031 379.609375 325.871094 375.582031 325.355469 371.496094 C 324.84375 367.457031 316.953125 368.019531 313.234375 361.261719 C 310.246094 355.824219 313.679688 352.40625 310.539062 347.804688 C 306.46875 341.851562 296.984375 342.101562 295.460938 342.140625 C 289.359375 342.300781 280.921875 345.074219 277.6875 351.566406 " fill-opacity="1" fill-rule="nonzero"/><path fill="#ffffff" d="M 342.894531 382.730469 L 312.207031 390.410156 C 311.648438 390.535156 311.082031 390.222656 310.894531 389.683594 C 308.808594 383.804688 312.0625 377.222656 313 375.515625 C 313.148438 375.246094 313.398438 375.054688 313.695312 374.976562 C 315.21875 374.5625 316.589844 374.019531 317.824219 373.371094 C 319.347656 372.566406 319.96875 370.699219 319.277344 369.121094 C 318.160156 366.578125 316.9375 363.15625 316.242188 361.75 C 316.074219 361.40625 316.082031 361 316.296875 360.683594 C 316.816406 359.910156 317.628906 359.320312 317.535156 358.15625 C 317.496094 357.71875 317.191406 357.328125 316.769531 357.199219 C 312.914062 356.0625 309.933594 350.273438 307.355469 348.515625 C 306.136719 347.679688 305.300781 347.453125 303.921875 346.703125 C 303.691406 346.578125 303.417969 346.519531 303.160156 346.578125 C 296.609375 347.996094 306.648438 356.128906 298.066406 360.894531 C 297.636719 361.136719 297.382812 361.621094 297.480469 362.097656 C 297.628906 362.808594 297.59375 363.761719 297.507812 364.640625 C 297.507812 364.648438 297.507812 364.65625 297.507812 364.667969 C 297.417969 365.550781 296.375 365.980469 295.683594 365.421875 C 294.386719 364.363281 293.054688 364.058594 292.273438 364.515625 C 291.164062 365.164062 291.234375 367.3125 291.628906 368.597656 C 292.410156 371.160156 295.085938 372.347656 296.609375 372.820312 C 297.191406 373.003906 297.519531 373.613281 297.347656 374.199219 C 296.335938 377.726562 293.261719 388.746094 293.027344 393.753906 C 293.003906 394.265625 292.648438 394.695312 292.144531 394.804688 L 286.289062 396.09375 C 277.46875 398.019531 267.003906 403.355469 260.257812 409.351562 L 251.550781 416.65625 C 250.875 417.257812 247.820312 419.066406 248.457031 419.707031 C 266.695312 438.253906 302.503906 426.65625 315.761719 420.773438 C 328.617188 415.074219 341.429688 388.464844 346.164062 393.773438 C 349.273438 397.269531 343.761719 382.539062 342.894531 382.730469 " fill-opacity="1" fill-rule="nonzero"/><path fill="#4f2b43" d="M 250.089844 419.429688 C 270.269531 438.648438 310.632812 421.574219 315.214844 419.546875 C 321.207031 416.890625 327.527344 409.039062 332.605469 402.738281 C 338.234375 395.757812 341.5625 391.808594 344.613281 391.730469 C 344.863281 391.726562 345.109375 391.746094 345.34375 391.792969 C 344.632812 389.363281 343.195312 385.660156 342.414062 384.238281 L 312.53125 391.71875 C 311.277344 392 310.042969 391.308594 309.621094 390.136719 C 307.367188 383.769531 310.734375 376.839844 311.816406 374.863281 C 312.140625 374.277344 312.683594 373.855469 313.34375 373.675781 C 314.730469 373.300781 316.023438 372.796875 317.195312 372.179688 C 318.085938 371.707031 318.457031 370.605469 318.046875 369.664062 C 317.496094 368.417969 316.921875 366.960938 316.414062 365.671875 C 315.878906 364.3125 315.371094 363.027344 315.035156 362.347656 C 314.648438 361.5625 314.699219 360.640625 315.179688 359.9375 C 315.328125 359.710938 315.496094 359.5 315.664062 359.292969 C 316.023438 358.847656 316.160156 358.648438 316.191406 358.429688 C 313.507812 357.546875 311.371094 354.960938 309.480469 352.675781 C 308.421875 351.398438 307.425781 350.195312 306.597656 349.628906 C 305.9375 349.175781 305.421875 348.933594 304.761719 348.625 C 304.328125 348.425781 303.875 348.207031 303.339844 347.917969 C 302.929688 348.019531 302.453125 348.1875 302.273438 348.46875 C 301.949219 348.976562 302.242188 350.242188 302.527344 351.46875 C 303.214844 354.445312 304.25 358.929688 298.835938 362.011719 C 298.957031 362.734375 298.960938 363.640625 298.847656 364.773438 C 298.757812 365.699219 298.179688 366.476562 297.339844 366.828125 C 296.5 367.179688 295.539062 367.039062 294.835938 366.46875 C 293.835938 365.65625 293.097656 365.605469 292.953125 365.679688 C 292.730469 365.851562 292.558594 367.035156 292.917969 368.207031 C 293.519531 370.175781 295.742188 371.136719 297.011719 371.535156 C 298.300781 371.9375 299.019531 373.273438 298.644531 374.570312 C 297.699219 377.851562 294.601562 388.929688 294.375 393.8125 C 294.324219 394.933594 293.523438 395.882812 292.433594 396.125 L 286.574219 397.40625 C 277.960938 399.296875 267.742188 404.5 261.152344 410.363281 L 252.417969 417.6875 C 252.226562 417.863281 251.894531 418.09375 251.476562 418.390625 C 251.148438 418.621094 250.53125 419.0625 250.089844 419.429688 Z M 276.519531 431.128906 C 265.898438 431.128906 255.253906 428.546875 247.496094 420.652344 C 247.152344 420.304688 246.984375 419.84375 247.027344 419.351562 C 247.125 418.253906 248.183594 417.425781 249.917969 416.191406 C 250.238281 415.96875 250.511719 415.777344 250.65625 415.648438 L 259.394531 408.324219 C 266.269531 402.207031 276.972656 396.753906 286 394.773438 L 291.691406 393.527344 C 291.972656 388.515625 294.742188 378.410156 295.996094 374.039062 C 294.191406 373.441406 291.265625 372.023438 290.339844 368.992188 C 289.828125 367.320312 289.742188 364.433594 291.59375 363.351562 C 292.832031 362.628906 294.570312 362.925781 296.203125 364.117188 C 296.269531 363.183594 296.21875 362.65625 296.160156 362.371094 C 295.945312 361.324219 296.445312 360.257812 297.410156 359.71875 C 301.183594 357.625 300.589844 355.054688 299.898438 352.074219 C 299.472656 350.230469 299.070312 348.484375 299.996094 347.027344 C 300.5625 346.136719 301.503906 345.558594 302.875 345.257812 C 303.433594 345.140625 304.035156 345.230469 304.566406 345.519531 C 305.074219 345.796875 305.503906 346 305.910156 346.1875 C 306.613281 346.515625 307.28125 346.828125 308.117188 347.402344 C 309.261719 348.183594 310.375 349.53125 311.554688 350.957031 C 313.25 353.003906 315.164062 355.320312 317.152344 355.90625 C 318.097656 356.1875 318.789062 357.046875 318.875 358.042969 C 318.996094 359.464844 318.25 360.382812 317.757812 360.992188 C 317.675781 361.089844 317.59375 361.1875 317.515625 361.289062 C 317.894531 362.078125 318.371094 363.292969 318.921875 364.683594 C 319.417969 365.949219 319.984375 367.386719 320.511719 368.578125 C 321.492188 370.804688 320.589844 373.433594 318.457031 374.558594 C 317.128906 375.261719 315.675781 375.828125 314.132812 376.25 C 313.371094 377.660156 310.347656 383.769531 312.101562 389.050781 L 342.570312 381.421875 C 342.582031 381.421875 342.59375 381.414062 342.605469 381.414062 C 343.835938 381.140625 344.554688 382.0625 346.113281 385.890625 C 349.53125 394.277344 348.371094 394.996094 347.679688 395.429688 C 347.136719 395.765625 346.257812 395.910156 345.15625 394.667969 C 344.949219 394.4375 344.808594 394.414062 344.679688 394.421875 C 342.726562 394.472656 338.464844 399.761719 334.703125 404.429688 C 329.167969 411.296875 322.894531 419.085938 316.308594 422.007812 C 313.257812 423.359375 294.929688 431.128906 276.519531 431.128906 " fill-opacity="1" fill-rule="nonzero"/><path fill="#ffffff" d="M 304.101562 375.300781 C 304.101562 375.300781 308.195312 376.960938 312.894531 375.191406 L 304.101562 375.300781 " fill-opacity="1" fill-rule="nonzero"/><path fill="#4f2b43" d="M 308.363281 377.355469 C 305.632812 377.355469 303.714844 376.597656 303.59375 376.546875 C 302.90625 376.269531 302.574219 375.484375 302.851562 374.796875 C 303.132812 374.105469 303.917969 373.769531 304.605469 374.050781 C 304.683594 374.078125 308.328125 375.472656 312.417969 373.929688 C 313.113281 373.667969 313.890625 374.019531 314.15625 374.71875 C 314.417969 375.414062 314.066406 376.191406 313.371094 376.453125 C 311.5625 377.128906 309.84375 377.355469 308.363281 377.355469 " fill-opacity="1" fill-rule="nonzero"/><path fill="#4f2b43" d="M 282.210938 348.847656 C 282.210938 348.847656 280.238281 336.882812 270.75 340.121094 C 261.257812 343.359375 270.460938 353.203125 277.632812 353.953125 C 284.804688 354.710938 282.210938 348.847656 282.210938 348.847656 " fill-opacity="1" fill-rule="nonzero"/><path fill="#ffffff" d="M 463.480469 303.597656 L 475.203125 292.246094 C 476.015625 291.460938 477.277344 291.367188 478.195312 292.027344 C 479.238281 292.777344 479.480469 294.230469 478.742188 295.277344 L 475.027344 300.542969 L 478.019531 307.9375 C 478.9375 310.214844 478.339844 312.824219 476.519531 314.476562 L 471.707031 318.839844 C 469.296875 321.023438 465.796875 321.507812 462.886719 320.054688 L 460.921875 319.082031 C 457.910156 317.578125 456.179688 314.328125 456.613281 310.984375 L 457.132812 307.046875 C 457.457031 304.578125 459.792969 302.890625 462.238281 303.359375 L 463.480469 303.597656 " fill-opacity="1" fill-rule="nonzero"/><path fill="#4f2b43" d="M 461.410156 304.625 C 460.792969 304.625 460.191406 304.820312 459.679688 305.195312 C 459.007812 305.679688 458.574219 306.398438 458.464844 307.222656 L 457.953125 311.160156 C 457.585938 313.929688 459.023438 316.628906 461.527344 317.875 L 463.484375 318.851562 C 465.917969 320.0625 468.789062 319.664062 470.804688 317.84375 L 475.617188 313.476562 C 477.011719 312.210938 477.472656 310.1875 476.769531 308.441406 L 473.777344 301.046875 C 473.605469 300.621094 473.660156 300.140625 473.921875 299.765625 L 477.644531 294.5 C 477.953125 294.058594 477.851562 293.4375 477.40625 293.125 C 477.015625 292.835938 476.484375 292.878906 476.140625 293.210938 L 464.414062 304.5625 C 464.101562 304.871094 463.660156 305 463.226562 304.917969 L 461.980469 304.683594 C 461.792969 304.644531 461.605469 304.625 461.410156 304.625 Z M 466.417969 322.242188 C 465.019531 322.242188 463.605469 321.917969 462.28125 321.265625 L 460.320312 320.285156 C 456.792969 318.527344 454.769531 314.722656 455.28125 310.8125 L 455.796875 306.871094 C 456 305.332031 456.839844 303.921875 458.101562 303.011719 C 459.359375 302.097656 460.960938 301.746094 462.492188 302.035156 L 463.042969 302.140625 L 474.265625 291.28125 C 475.546875 290.039062 477.53125 289.886719 478.984375 290.933594 C 480.617188 292.109375 481.003906 294.410156 479.84375 296.054688 L 476.550781 300.71875 L 479.265625 307.433594 C 480.394531 310.222656 479.652344 313.449219 477.429688 315.472656 L 472.609375 319.835938 C 470.863281 321.421875 468.660156 322.242188 466.417969 322.242188 " fill-opacity="1" fill-rule="nonzero"/><path fill="#ffffff" d="M 463.480469 303.597656 L 467.855469 306.835938 C 467.855469 306.835938 466.410156 311.066406 463.480469 309.335938 L 463.480469 303.597656 " fill-opacity="1" fill-rule="nonzero"/><path fill="#4f2b43" d="M 464.847656 311.09375 C 464.25 311.09375 463.558594 310.945312 462.792969 310.488281 C 462.152344 310.113281 461.941406 309.285156 462.320312 308.644531 C 462.703125 308.003906 463.527344 307.789062 464.167969 308.175781 C 464.710938 308.496094 464.992188 308.398438 465.097656 308.355469 C 465.507812 308.207031 465.886719 307.734375 466.167969 307.261719 L 462.679688 304.679688 C 462.078125 304.238281 461.953125 303.394531 462.398438 302.796875 C 462.839844 302.195312 463.683594 302.070312 464.28125 302.515625 L 468.660156 305.753906 C 469.132812 306.101562 469.328125 306.71875 469.132812 307.273438 C 469.03125 307.5625 468.105469 310.121094 466.03125 310.882812 C 465.710938 311 465.308594 311.09375 464.847656 311.09375 " fill-opacity="1" fill-rule="nonzero"/><path fill="#ffffff" d="M 475.820312 302.53125 L 470.882812 308.652344 L 475.820312 302.53125 " fill-opacity="1" fill-rule="nonzero"/><path fill="#4f2b43" d="M 470.882812 310 C 470.585938 310 470.285156 309.902344 470.039062 309.699219 C 469.460938 309.234375 469.367188 308.386719 469.835938 307.808594 L 474.769531 301.6875 C 475.238281 301.105469 476.089844 301.015625 476.667969 301.484375 C 477.242188 301.953125 477.335938 302.796875 476.871094 303.378906 L 471.933594 309.496094 C 471.667969 309.824219 471.277344 310 470.882812 310 " fill-opacity="1" fill-rule="nonzero"/><path fill="#ffffff" d="M 477.328125 307.335938 L 473.355469 312.164062 L 477.328125 307.335938 " fill-opacity="1" fill-rule="nonzero"/><path fill="#4f2b43" d="M 473.351562 313.511719 C 473.050781 313.511719 472.75 313.410156 472.496094 313.207031 C 471.921875 312.734375 471.839844 311.886719 472.3125 311.3125 L 476.289062 306.476562 C 476.761719 305.902344 477.609375 305.820312 478.183594 306.292969 C 478.757812 306.765625 478.84375 307.617188 478.367188 308.191406 L 474.390625 313.019531 C 474.128906 313.347656 473.742188 313.511719 473.351562 313.511719 " fill-opacity="1" fill-rule="nonzero"/><path fill="#ffffff" d="M 266.585938 520.125 C 266.585938 520.125 277.039062 512.277344 283.042969 510.96875 C 289.050781 509.652344 294.964844 513.671875 294.964844 513.671875 C 294.964844 513.671875 288.511719 517.261719 285.378906 517.675781 C 282.25 518.082031 274.105469 533.09375 264.375 528.285156 L 266.585938 520.125 " fill-opacity="1" fill-rule="nonzero"/><path fill="#4f2b43" d="M 265.984375 527.496094 C 271.484375 529.339844 276.519531 524.089844 280.257812 520.195312 C 282.382812 517.980469 283.78125 516.523438 285.207031 516.332031 C 286.878906 516.121094 289.882812 514.761719 292.105469 513.648438 C 290.015625 512.679688 286.648438 511.554688 283.332031 512.28125 C 278.292969 513.378906 269.648438 519.550781 267.761719 520.929688 Z M 268.335938 530.605469 C 266.871094 530.605469 265.351562 530.269531 263.777344 529.496094 C 263.199219 529.207031 262.90625 528.554688 263.074219 527.933594 L 265.285156 519.769531 C 265.363281 519.480469 265.535156 519.222656 265.777344 519.042969 C 266.210938 518.71875 276.535156 511.007812 282.757812 509.648438 C 289.25 508.234375 295.460938 512.382812 295.71875 512.558594 C 296.105469 512.824219 296.332031 513.265625 296.308594 513.734375 C 296.289062 514.203125 296.027344 514.625 295.617188 514.847656 C 294.933594 515.234375 288.847656 518.578125 285.554688 519.007812 C 285.003906 519.140625 283.386719 520.832031 282.203125 522.058594 C 278.796875 525.613281 274.003906 530.605469 268.335938 530.605469 " fill-opacity="1" fill-rule="nonzero"/><path fill="#bec4ed" d="M 275.824219 397.816406 L 280.898438 395.867188 C 280.898438 395.867188 311.589844 415.515625 324.910156 385.765625 L 331.945312 383.742188 L 346.164062 424.039062 L 274.679688 443.085938 L 275.824219 397.816406 " fill-opacity="1" fill-rule="nonzero"/><path fill="#9333ea" d="M 464.015625 324.589844 C 459.054688 323.03125 454.09375 321.472656 449.132812 319.910156 C 428.238281 344.234375 407.785156 356.726562 392.277344 363.683594 C 373.175781 372.246094 340.292969 381.945312 340.292969 381.945312 C 340.292969 381.945312 340.351562 397.53125 314.613281 415.3125 C 288.875 433.097656 249.464844 415.421875 249.464844 415.421875 C 249.464844 415.421875 205.796875 452.710938 203.269531 475.113281 C 199.070312 512.328125 263.859375 530.195312 263.859375 530.195312 L 266.585938 520.125 C 266.585938 520.125 240.511719 498.902344 246.167969 477.382812 C 251.824219 455.863281 266.390625 446.335938 266.390625 446.335938 C 270.730469 471.1875 268.863281 500.105469 268.863281 500.105469 C 311.671875 511.003906 348.613281 496.972656 364.921875 488.941406 C 370.476562 486.207031 373.574219 480.175781 372.625 474.0625 C 369.03125 451.046875 360.011719 421.996094 360.011719 421.996094 C 369.902344 421.480469 380.566406 419.578125 391.394531 415.371094 C 444.292969 394.832031 461.253906 334.933594 464.015625 324.589844 " fill-opacity="1" fill-rule="nonzero"/><path fill="#d2c7ff" d="M 317.425781 488.515625 C 316.898438 488.515625 316.394531 488.199219 316.183594 487.675781 C 315.898438 486.988281 316.226562 486.199219 316.914062 485.917969 C 348.191406 473.097656 352.78125 437.722656 352.824219 437.363281 C 352.914062 436.628906 353.589844 436.09375 354.324219 436.1875 C 355.0625 436.277344 355.589844 436.949219 355.5 437.683594 C 355.457031 438.058594 350.664062 474.992188 317.941406 488.414062 C 317.769531 488.480469 317.597656 488.515625 317.425781 488.515625 " fill-opacity="1" fill-rule="nonzero"/><path fill="#ffffff" d="M 312.105469 600.042969 C 311.363281 600.042969 310.761719 599.441406 310.753906 598.703125 C 310.671875 584.621094 314.578125 557.441406 320.648438 548.5625 C 321.074219 547.953125 321.910156 547.792969 322.527344 548.210938 C 323.140625 548.628906 323.296875 549.46875 322.875 550.082031 C 317.292969 558.25 313.371094 584.785156 313.453125 598.6875 C 313.457031 599.433594 312.855469 600.039062 312.109375 600.042969 L 312.105469 600.042969 " fill-opacity="1" fill-rule="nonzero"/><path fill="#ffffff" d="M 308.25 681.042969 C 307.539062 681.042969 306.945312 680.484375 306.90625 679.769531 C 306.171875 666.628906 308.28125 645.0625 308.300781 644.839844 C 308.375 644.101562 309.03125 643.554688 309.773438 643.632812 C 310.515625 643.707031 311.054688 644.367188 310.980469 645.105469 C 310.960938 645.320312 308.875 666.691406 309.597656 679.621094 C 309.640625 680.363281 309.070312 681 308.324219 681.039062 C 308.300781 681.042969 308.277344 681.042969 308.25 681.042969 " fill-opacity="1" fill-rule="nonzero"/><path fill="#ffffff" d="M 742.824219 215.953125 L 465.53125 215.953125 C 461.710938 215.953125 458.617188 212.859375 458.617188 209.039062 L 458.617188 111.636719 C 458.617188 107.816406 461.710938 104.722656 465.53125 104.722656 L 742.824219 104.722656 C 746.652344 104.722656 749.746094 107.816406 749.746094 111.636719 L 749.746094 209.039062 C 749.746094 212.859375 746.652344 215.953125 742.824219 215.953125 " fill-opacity="1" fill-rule="nonzero"/><path fill="#bec4ed" d="M 680.96875 137.667969 L 522.074219 137.667969 C 518.90625 137.667969 516.347656 135.101562 516.347656 131.9375 C 516.347656 128.773438 518.90625 126.207031 522.074219 126.207031 L 680.96875 126.207031 C 684.128906 126.207031 686.699219 128.773438 686.699219 131.9375 C 686.699219 135.101562 684.128906 137.667969 680.96875 137.667969 " fill-opacity="1" fill-rule="nonzero"/><path fill="#9333ea" d="M 509.324219 177.066406 L 496.835938 175.25 L 491.25 163.933594 C 490.050781 161.5 486.582031 161.5 485.378906 163.933594 L 479.789062 175.25 L 467.304688 177.066406 C 464.621094 177.453125 463.542969 180.75 465.488281 182.644531 L 474.523438 191.460938 L 472.394531 203.894531 C 471.933594 206.570312 474.742188 208.609375 477.140625 207.347656 L 488.3125 201.472656 L 499.488281 207.347656 C 501.882812 208.609375 504.691406 206.570312 504.234375 203.894531 L 502.101562 191.460938 L 511.136719 182.644531 C 513.082031 180.75 512.011719 177.453125 509.324219 177.066406 " fill-opacity="1" fill-rule="nonzero"/><path fill="#9333ea" d="M 566.988281 177.066406 L 554.5 175.25 L 548.914062 163.933594 C 547.710938 161.5 544.242188 161.5 543.042969 163.933594 L 537.457031 175.25 L 524.96875 177.066406 C 522.28125 177.453125 521.207031 180.75 523.15625 182.644531 L 532.191406 191.460938 L 530.058594 203.894531 C 529.601562 206.570312 532.410156 208.609375 534.804688 207.347656 L 545.976562 201.472656 L 557.148438 207.347656 C 559.550781 208.609375 562.359375 206.570312 561.898438 203.894531 L 559.765625 191.460938 L 568.804688 182.644531 C 570.746094 180.75 569.671875 177.453125 566.988281 177.066406 " fill-opacity="1" fill-rule="nonzero"/><path fill="#9333ea" d="M 624.652344 177.066406 L 612.164062 175.25 L 606.582031 163.933594 C 605.378906 161.5 601.90625 161.5 600.710938 163.933594 L 595.121094 175.25 L 582.636719 177.066406 C 579.949219 177.453125 578.875 180.75 580.820312 182.644531 L 589.855469 191.460938 L 587.722656 203.894531 C 587.265625 206.570312 590.074219 208.609375 592.472656 207.347656 L 603.644531 201.472656 L 614.820312 207.347656 C 617.214844 208.609375 620.023438 206.570312 619.566406 203.894531 L 617.433594 191.460938 L 626.46875 182.644531 C 628.40625 180.75 627.339844 177.453125 624.652344 177.066406 " fill-opacity="1" fill-rule="nonzero"/><path fill="#9333ea" d="M 682.316406 177.0625 L 669.828125 175.25 L 664.246094 163.933594 C 663.042969 161.5 659.574219 161.5 658.371094 163.933594 L 652.785156 175.25 L 640.296875 177.0625 C 637.605469 177.453125 636.539062 180.757812 638.480469 182.648438 L 647.519531 191.457031 L 645.382812 203.894531 C 644.925781 206.570312 647.734375 208.609375 650.136719 207.347656 L 661.304688 201.476562 L 672.480469 207.347656 C 674.878906 208.609375 677.6875 206.570312 677.230469 203.894531 L 675.097656 191.457031 L 684.136719 182.648438 C 686.074219 180.757812 685.007812 177.453125 682.316406 177.0625 " fill-opacity="1" fill-rule="nonzero"/><path fill="#d2c7ff" d="M 739.988281 177.0625 L 727.496094 175.246094 L 721.910156 163.925781 C 720.707031 161.5 717.242188 161.5 716.039062 163.925781 L 710.453125 175.246094 L 697.960938 177.0625 C 695.277344 177.449219 694.210938 180.75 696.152344 182.644531 L 705.1875 191.457031 L 703.054688 203.898438 C 702.597656 206.570312 705.402344 208.609375 707.808594 207.347656 L 718.976562 201.472656 L 730.148438 207.347656 C 732.550781 208.609375 735.351562 206.570312 734.894531 203.898438 L 732.761719 191.457031 L 741.800781 182.644531 C 743.742188 180.75 742.675781 177.449219 739.988281 177.0625 " fill-opacity="1" fill-rule="nonzero"/><path fill="#9333ea" d="M 706.226562 50.65625 L 679 59.457031 L 656.3125 42.011719 C 651.429688 38.261719 644.367188 41.734375 644.363281 47.882812 L 644.3125 76.507812 L 620.710938 92.691406 C 615.636719 96.171875 616.753906 103.957031 622.605469 105.871094 L 649.8125 114.757812 L 657.914062 142.203125 C 659.65625 148.105469 667.40625 149.449219 671.035156 144.480469 L 687.890625 121.355469 L 716.5 122.128906 C 722.648438 122.292969 726.320312 115.339844 722.714844 110.355469 L 705.925781 87.171875 L 715.507812 60.203125 C 717.570312 54.402344 712.082031 48.765625 706.226562 50.65625 " fill-opacity="1" fill-rule="nonzero"/><path fill="#4f2b43" d="M 711.164062 46.191406 L 711.171875 46.191406 Z M 656.746094 37.332031 C 655.835938 37.332031 654.910156 37.546875 654.035156 37.976562 C 651.917969 39.023438 650.648438 41.054688 650.644531 43.421875 L 650.601562 72.039062 C 650.59375 72.484375 650.378906 72.898438 650.011719 73.152344 L 626.410156 89.339844 C 624.460938 90.671875 623.5 92.871094 623.832031 95.210938 C 624.167969 97.554688 625.710938 99.390625 627.960938 100.125 L 655.164062 109.011719 C 655.585938 109.148438 655.914062 109.484375 656.039062 109.910156 L 664.140625 137.359375 C 664.8125 139.628906 666.605469 141.222656 668.933594 141.628906 C 671.257812 142.03125 673.484375 141.128906 674.878906 139.21875 L 691.734375 116.089844 C 691.992188 115.734375 692.4375 115.507812 692.863281 115.539062 L 721.472656 116.320312 C 723.847656 116.34375 725.90625 115.167969 727.007812 113.078125 C 728.117188 110.988281 727.945312 108.59375 726.554688 106.675781 L 709.773438 83.496094 C 709.515625 83.140625 709.445312 82.675781 709.597656 82.253906 L 719.171875 55.285156 C 719.964844 53.058594 719.453125 50.714844 717.804688 49.019531 C 716.160156 47.324219 713.832031 46.742188 711.578125 47.46875 L 684.347656 56.273438 C 683.925781 56.410156 683.464844 56.328125 683.109375 56.058594 L 660.417969 38.613281 C 659.324219 37.765625 658.042969 37.332031 656.746094 37.332031 Z M 669.996094 144.414062 C 669.492188 144.414062 668.980469 144.371094 668.472656 144.28125 C 665.15625 143.707031 662.507812 141.347656 661.554688 138.121094 L 653.652344 111.355469 L 627.121094 102.6875 C 623.925781 101.644531 621.644531 98.925781 621.164062 95.59375 C 620.691406 92.265625 622.109375 89.015625 624.886719 87.113281 L 647.90625 71.328125 L 647.945312 43.414062 C 647.953125 40.054688 649.828125 37.039062 652.847656 35.558594 C 655.867188 34.074219 659.398438 34.425781 662.066406 36.480469 L 684.191406 53.492188 L 710.753906 44.90625 C 713.949219 43.878906 717.394531 44.726562 719.738281 47.140625 C 722.082031 49.554688 722.839844 53.015625 721.710938 56.1875 L 712.367188 82.492188 L 728.738281 105.101562 C 730.714844 107.820312 730.964844 111.359375 729.398438 114.335938 C 727.824219 117.3125 724.78125 119.117188 721.398438 119.007812 L 693.496094 118.25 L 677.054688 140.808594 C 675.382812 143.105469 672.765625 144.414062 669.996094 144.414062 " fill-opacity="1" fill-rule="nonzero"/><path fill="#4f2b43" d="M 734.75 168.597656 C 734.441406 168.597656 734.125 168.488281 733.871094 168.265625 C 733.308594 167.78125 733.246094 166.929688 733.734375 166.367188 C 744.855469 153.519531 749.851562 139.90625 748.59375 125.90625 C 746.289062 100.238281 723.527344 81.636719 723.296875 81.457031 C 722.722656 80.988281 722.632812 80.136719 723.09375 79.554688 C 723.558594 78.980469 724.410156 78.886719 724.984375 79.351562 C 725.960938 80.132812 748.855469 98.820312 751.277344 125.644531 C 752.609375 140.410156 747.394531 154.707031 735.765625 168.132812 C 735.507812 168.441406 735.132812 168.597656 734.75 168.597656 " fill-opacity="1" fill-rule="nonzero"/><path fill="#4f2b43" d="M 703.046875 172.734375 C 702.871094 172.734375 702.691406 172.699219 702.519531 172.621094 C 701.832031 172.332031 701.519531 171.539062 701.8125 170.851562 C 711.695312 147.785156 695.316406 129.046875 695.152344 128.855469 C 694.652344 128.304688 694.699219 127.453125 695.257812 126.957031 C 695.8125 126.460938 696.664062 126.511719 697.160156 127.0625 C 697.335938 127.261719 714.839844 147.289062 704.285156 171.914062 C 704.0625 172.425781 703.566406 172.734375 703.046875 172.734375 " fill-opacity="1" fill-rule="nonzero"/><path fill="#4f2b43" d="M 734.472656 217.304688 L 473.886719 217.304688 C 464.722656 217.304688 457.269531 209.851562 457.269531 200.6875 L 457.269531 119.996094 C 457.269531 110.832031 464.722656 103.375 473.886719 103.375 L 609.0625 103.375 C 609.808594 103.375 610.410156 103.976562 610.410156 104.722656 C 610.410156 105.46875 609.808594 106.070312 609.0625 106.070312 L 473.886719 106.070312 C 466.207031 106.070312 459.957031 112.316406 459.957031 119.996094 L 459.957031 200.6875 C 459.957031 208.363281 466.207031 214.609375 473.886719 214.609375 L 734.472656 214.609375 C 742.152344 214.609375 748.398438 208.363281 748.398438 200.6875 L 748.398438 172.792969 C 748.398438 172.042969 749 171.441406 749.746094 171.441406 C 750.488281 171.441406 751.09375 172.042969 751.09375 172.792969 L 751.09375 200.6875 C 751.09375 209.851562 743.636719 217.304688 734.472656 217.304688 " fill-opacity="1" fill-rule="nonzero"/><path fill="#d2c7ff" d="M 151.628906 235.984375 C 151.628906 189.679688 189.160156 152.144531 235.464844 152.144531 C 281.765625 152.144531 319.300781 189.679688 319.300781 235.984375 C 319.300781 282.285156 281.765625 319.820312 235.464844 319.820312 C 189.160156 319.820312 151.628906 282.285156 151.628906 235.984375 " fill-opacity="1" fill-rule="nonzero"/><path fill="#4f2b43" d="M 235.464844 153.492188 C 189.980469 153.492188 152.972656 190.5 152.972656 235.984375 C 152.972656 281.46875 189.980469 318.476562 235.464844 318.476562 C 280.949219 318.476562 317.953125 281.46875 317.953125 235.984375 C 317.953125 190.5 280.949219 153.492188 235.464844 153.492188 Z M 235.464844 321.167969 C 188.492188 321.167969 150.28125 282.953125 150.28125 235.984375 C 150.28125 189.015625 188.492188 150.800781 235.464844 150.800781 C 282.433594 150.800781 320.648438 189.015625 320.648438 235.984375 C 320.648438 282.953125 282.433594 321.167969 235.464844 321.167969 " fill-opacity="1" fill-rule="nonzero"/><path fill="#ffffff" d="M 168.128906 235.980469 C 168.128906 198.789062 198.277344 168.640625 235.46875 168.640625 C 272.65625 168.640625 302.804688 198.789062 302.804688 235.980469 C 302.804688 273.167969 272.65625 303.316406 235.46875 303.316406 C 198.277344 303.316406 168.128906 273.167969 168.128906 235.980469 " fill-opacity="1" fill-rule="nonzero"/><path fill="#d2c7ff" d="M 183.667969 235.980469 C 183.667969 207.371094 206.859375 184.179688 235.46875 184.179688 C 264.074219 184.179688 287.265625 207.371094 287.265625 235.980469 C 287.265625 264.585938 264.074219 287.777344 235.46875 287.777344 C 206.859375 287.777344 183.667969 264.585938 183.667969 235.980469 " fill-opacity="1" fill-rule="nonzero"/><path fill="#ffffff" d="M 202.019531 235.980469 C 202.019531 217.507812 216.996094 202.53125 235.46875 202.53125 C 253.9375 202.53125 268.914062 217.507812 268.914062 235.980469 C 268.914062 254.449219 253.9375 269.425781 235.46875 269.425781 C 216.996094 269.425781 202.019531 254.449219 202.019531 235.980469 " fill-opacity="1" fill-rule="nonzero"/><path fill="#9333ea" d="M 217.203125 235.980469 C 217.203125 225.890625 225.378906 217.714844 235.46875 217.714844 C 245.554688 217.714844 253.730469 225.890625 253.730469 235.980469 C 253.730469 246.066406 245.554688 254.242188 235.46875 254.242188 C 225.378906 254.242188 217.203125 246.066406 217.203125 235.980469 " fill-opacity="1" fill-rule="nonzero"/><path fill="#9333ea" d="M 185.996094 252.730469 C 185.421875 252.730469 184.890625 252.363281 184.710938 251.785156 C 183.125 246.6875 182.320312 241.371094 182.320312 235.980469 C 182.320312 235.238281 182.921875 234.632812 183.667969 234.632812 C 184.410156 234.632812 185.015625 235.238281 185.015625 235.980469 C 185.015625 241.097656 185.777344 246.144531 187.28125 250.984375 C 187.503906 251.695312 187.105469 252.453125 186.394531 252.671875 C 186.261719 252.714844 186.128906 252.730469 185.996094 252.730469 " fill-opacity="1" fill-rule="nonzero"/><path fill="#9333ea" d="M 286.207031 226.894531 C 285.582031 226.894531 285.019531 226.453125 284.890625 225.816406 C 282.59375 214.597656 276.4375 204.386719 267.554688 197.054688 C 266.980469 196.582031 266.898438 195.730469 267.375 195.15625 C 267.847656 194.585938 268.695312 194.5 269.269531 194.972656 C 278.628906 202.699219 285.113281 213.457031 287.53125 225.273438 C 287.679688 226.007812 287.207031 226.71875 286.480469 226.863281 C 286.386719 226.886719 286.296875 226.894531 286.207031 226.894531 " fill-opacity="1" fill-rule="nonzero"/><path fill="#9333ea" d="M 183.667969 237.328125 C 182.921875 237.328125 182.320312 236.722656 182.320312 235.984375 C 182.320312 206.675781 206.160156 182.835938 235.464844 182.835938 C 241 182.835938 246.453125 183.683594 251.675781 185.351562 C 252.382812 185.582031 252.777344 186.339844 252.550781 187.042969 C 252.320312 187.753906 251.5625 188.148438 250.855469 187.917969 C 245.898438 186.335938 240.71875 185.527344 235.464844 185.527344 C 207.648438 185.527344 185.015625 208.164062 185.015625 235.984375 C 185.015625 236.722656 184.410156 237.328125 183.667969 237.328125 " fill-opacity="1" fill-rule="nonzero"/><path fill="#ffffff" d="M 235.484375 237.5625 L 251.164062 219.957031 L 253.507812 222.304688 L 235.9375 238.015625 C 235.636719 238.285156 235.210938 237.863281 235.484375 237.5625 " fill-opacity="1" fill-rule="nonzero"/><path fill="#4f2b43" d="M 251.21875 221.917969 L 248.480469 224.992188 L 251.550781 222.253906 Z M 235.722656 239.453125 C 235.296875 239.453125 234.875 239.285156 234.542969 238.957031 C 233.90625 238.320312 233.875 237.335938 234.476562 236.664062 L 250.160156 219.058594 C 250.40625 218.78125 250.753906 218.621094 251.125 218.613281 C 251.492188 218.589844 251.855469 218.742188 252.117188 219.003906 L 254.460938 221.355469 C 254.726562 221.617188 254.867188 221.976562 254.855469 222.347656 C 254.847656 222.714844 254.683594 223.0625 254.40625 223.3125 L 236.835938 239.023438 C 236.511719 239.308594 236.117188 239.453125 235.722656 239.453125 " fill-opacity="1" fill-rule="nonzero"/><path fill="#ffffff" d="M 251.367188 222.550781 L 250.921875 222.105469 C 250.136719 221.316406 250.136719 220.039062 250.921875 219.257812 L 257.601562 212.5625 L 260.890625 215.855469 L 254.210938 222.550781 C 253.425781 223.335938 252.152344 223.335938 251.367188 222.550781 " fill-opacity="1" fill-rule="nonzero"/><path fill="#4f2b43" d="M 257.605469 214.46875 L 251.875 220.207031 C 251.617188 220.464844 251.617188 220.886719 251.875 221.152344 L 252.320312 221.59375 C 252.488281 221.765625 252.6875 221.789062 252.789062 221.789062 C 252.890625 221.789062 253.085938 221.765625 253.257812 221.59375 L 258.988281 215.851562 Z M 252.789062 224.488281 C 251.890625 224.488281 251.046875 224.136719 250.414062 223.5 L 249.96875 223.054688 C 248.660156 221.742188 248.660156 219.613281 249.96875 218.304688 L 256.652344 211.605469 C 257.15625 211.101562 258.054688 211.101562 258.558594 211.605469 L 261.84375 214.902344 C 262.371094 215.429688 262.371094 216.28125 261.84375 216.804688 L 255.164062 223.5 C 254.53125 224.136719 253.6875 224.488281 252.789062 224.488281 " fill-opacity="1" fill-rule="nonzero"/><path fill="#ffffff" d="M 256.226562 218 L 255.460938 217.234375 C 254.117188 215.886719 254.117188 213.699219 255.460938 212.351562 L 331.550781 136.125 C 332.898438 134.773438 335.078125 134.773438 336.425781 136.125 L 337.1875 136.890625 C 338.535156 138.238281 338.535156 140.425781 337.1875 141.769531 L 261.101562 218 C 259.753906 219.347656 257.574219 219.347656 256.226562 218 " fill-opacity="1" fill-rule="nonzero"/><path fill="#4f2b43" d="M 257.179688 217.050781 C 257.972656 217.84375 259.351562 217.84375 260.144531 217.050781 L 336.234375 140.824219 C 337.050781 140 337.050781 138.667969 336.234375 137.84375 L 335.46875 137.078125 C 334.675781 136.28125 333.296875 136.28125 332.503906 137.078125 L 256.414062 213.304688 C 255.597656 214.125 255.597656 215.460938 256.414062 216.28125 Z M 258.660156 220.363281 C 257.382812 220.363281 256.175781 219.859375 255.273438 218.953125 L 254.507812 218.1875 C 252.640625 216.3125 252.640625 213.273438 254.507812 211.402344 L 330.597656 135.175781 C 331.5 134.265625 332.707031 133.765625 333.988281 133.765625 C 335.269531 133.765625 336.46875 134.265625 337.378906 135.175781 L 338.140625 135.9375 C 340.011719 137.808594 340.011719 140.855469 338.140625 142.722656 L 262.050781 218.953125 C 261.144531 219.859375 259.941406 220.363281 258.660156 220.363281 " fill-opacity="1" fill-rule="nonzero"/><path fill="#9333ea" d="M 309.15625 158.558594 L 306.824219 147.203125 C 305.90625 142.726562 307.292969 138.085938 310.519531 134.859375 L 324.96875 120.378906 C 325.492188 119.851562 326.394531 120.121094 326.542969 120.851562 L 330 137.679688 L 309.15625 158.558594 " fill-opacity="1" fill-rule="nonzero"/><path fill="#4f2b43" d="M 325.378906 121.875 L 311.472656 135.804688 C 308.558594 138.726562 307.3125 142.882812 308.144531 146.929688 L 309.972656 155.832031 L 328.539062 137.238281 Z M 309.15625 159.902344 C 309.03125 159.902344 308.898438 159.886719 308.769531 159.851562 C 308.296875 159.707031 307.941406 159.3125 307.835938 158.828125 L 305.507812 147.472656 C 304.492188 142.535156 306.011719 137.464844 309.5625 133.902344 L 324.015625 119.425781 C 324.609375 118.832031 325.476562 118.613281 326.285156 118.851562 C 327.089844 119.089844 327.695312 119.753906 327.867188 120.578125 L 331.320312 137.40625 C 331.414062 137.847656 331.277344 138.308594 330.953125 138.632812 L 310.113281 159.507812 C 309.855469 159.765625 309.511719 159.902344 309.15625 159.902344 " fill-opacity="1" fill-rule="nonzero"/><path fill="#9333ea" d="M 314.796875 164.207031 L 326.132812 166.542969 C 330.601562 167.464844 335.230469 166.074219 338.457031 162.84375 L 352.90625 148.367188 C 353.429688 147.839844 353.164062 146.9375 352.433594 146.789062 L 335.636719 143.324219 L 314.796875 164.207031 " fill-opacity="1" fill-rule="nonzero"/><path fill="#4f2b43" d="M 317.511719 163.390625 L 326.402344 165.226562 C 330.445312 166.054688 334.585938 164.8125 337.5 161.894531 L 351.414062 147.953125 L 336.078125 144.792969 Z M 328.882812 168.175781 C 327.875 168.175781 326.863281 168.074219 325.859375 167.867188 L 314.519531 165.527344 C 314.039062 165.425781 313.648438 165.070312 313.503906 164.597656 C 313.363281 164.121094 313.488281 163.605469 313.839844 163.253906 L 334.683594 142.378906 C 335.007812 142.054688 335.464844 141.910156 335.910156 142.007812 L 352.707031 145.472656 C 353.527344 145.640625 354.191406 146.25 354.429688 147.050781 C 354.671875 147.855469 354.449219 148.726562 353.855469 149.320312 L 339.40625 163.796875 C 336.574219 166.632812 332.792969 168.175781 328.882812 168.175781 " fill-opacity="1" fill-rule="nonzero"/><path fill="#ffffff" d="M 333.285156 149.214844 L 346.9375 151.773438 L 333.285156 149.214844 " fill-opacity="1" fill-rule="nonzero"/><path fill="#4f2b43" d="M 346.933594 153.121094 C 346.855469 153.121094 346.769531 153.113281 346.6875 153.097656 L 333.035156 150.539062 C 332.304688 150.402344 331.820312 149.699219 331.957031 148.96875 C 332.097656 148.234375 332.796875 147.757812 333.53125 147.890625 L 347.183594 150.449219 C 347.914062 150.585938 348.398438 151.292969 348.257812 152.023438 C 348.140625 152.671875 347.570312 153.121094 346.933594 153.121094 " fill-opacity="1" fill-rule="nonzero"/><path fill="#ffffff" d="M 327.734375 154.773438 L 341.386719 157.332031 L 327.734375 154.773438 " fill-opacity="1" fill-rule="nonzero"/><path fill="#4f2b43" d="M 341.390625 158.679688 C 341.304688 158.679688 341.222656 158.675781 341.136719 158.65625 L 327.488281 156.097656 C 326.753906 155.960938 326.273438 155.257812 326.410156 154.523438 C 326.546875 153.792969 327.25 153.3125 327.984375 153.449219 L 341.632812 156.007812 C 342.367188 156.144531 342.847656 156.847656 342.714844 157.582031 C 342.589844 158.226562 342.023438 158.679688 341.390625 158.679688 " fill-opacity="1" fill-rule="nonzero"/><path fill="#ffffff" d="M 306.945312 163.601562 L 309.765625 166.425781 L 306.945312 163.601562 " fill-opacity="1" fill-rule="nonzero"/><path fill="#4f2b43" d="M 309.765625 167.769531 C 309.417969 167.769531 309.074219 167.636719 308.808594 167.375 L 305.992188 164.554688 C 305.46875 164.027344 305.46875 163.171875 305.996094 162.648438 C 306.523438 162.121094 307.371094 162.121094 307.902344 162.648438 L 310.71875 165.472656 C 311.242188 166 311.242188 166.851562 310.71875 167.378906 C 310.453125 167.636719 310.105469 167.769531 309.765625 167.769531 " fill-opacity="1" fill-rule="nonzero"/><path fill="#ffffff" d="M 310.203125 160.335938 L 313.023438 163.160156 L 310.203125 160.335938 " fill-opacity="1" fill-rule="nonzero"/><path fill="#4f2b43" d="M 313.023438 164.503906 C 312.675781 164.503906 312.332031 164.375 312.066406 164.109375 L 309.25 161.285156 C 308.726562 160.765625 308.726562 159.910156 309.25 159.382812 C 309.78125 158.859375 310.628906 158.859375 311.160156 159.386719 L 313.976562 162.207031 C 314.5 162.734375 314.5 163.585938 313.972656 164.109375 C 313.710938 164.375 313.367188 164.503906 313.023438 164.503906 " fill-opacity="1" fill-rule="nonzero"/><path fill="#ffffff" d="M 313.464844 157.066406 L 316.28125 159.886719 L 313.464844 157.066406 " fill-opacity="1" fill-rule="nonzero"/><path fill="#4f2b43" d="M 316.28125 161.234375 C 315.9375 161.234375 315.59375 161.105469 315.328125 160.839844 L 312.511719 158.019531 C 311.988281 157.492188 311.988281 156.640625 312.511719 156.113281 C 313.042969 155.589844 313.890625 155.589844 314.421875 156.113281 L 317.238281 158.941406 C 317.761719 159.46875 317.761719 160.320312 317.234375 160.84375 C 316.972656 161.105469 316.628906 161.234375 316.28125 161.234375 " fill-opacity="1" fill-rule="nonzero"/></svg>