<svg xmlns="http://www.w3.org/2000/svg" xmlns:xlink="http://www.w3.org/1999/xlink" width="1080" zoomAndPan="magnify" viewBox="0 0 810 809.999993" height="1080" preserveAspectRatio="xMidYMid meet" version="1.0"><path fill="#bec4ed" d="M 196.683594 224.652344 C 276.03125 144.484375 253.3125 94.242188 307.605469 57.125 C 391.144531 0.0117188 547.058594 49.148438 639.042969 127.703125 C 751.699219 223.914062 809.820312 399.59375 743.613281 558.523438 C 673.097656 727.773438 487.5625 815.632812 322.007812 789.15625 C 174.167969 765.511719 28.835938 648.542969 14.273438 508.25 C 12.695312 493.046875 5.730469 410.847656 54.597656 339.984375 C 94.988281 281.410156 133.789062 288.199219 196.683594 224.652344 " fill-opacity="1" fill-rule="nonzero"/><path fill="#9333ea" d="M 754.003906 537.117188 L 88.996094 537.117188 C 77.851562 537.117188 69.355469 527.058594 71.140625 515.96875 L 71.117188 47.894531 C 72.535156 39.066406 80.101562 32.578125 88.976562 32.578125 L 753.980469 32.578125 C 765.128906 32.578125 771.585938 40.289062 771.839844 53.730469 L 771.863281 521.804688 C 771.394531 531.660156 762.882812 537.117188 754.003906 537.117188 " fill-opacity="1" fill-rule="nonzero"/><path fill="#ffffff" d="M 736.640625 537.683594 L 71.632812 537.683594 C 60.488281 537.683594 51.992188 527.59375 53.773438 516.472656 L 53.753906 48.859375 C 55.171875 40.003906 62.738281 33.5 71.609375 33.5 L 736.617188 33.5 C 747.769531 33.5 754.21875 41.234375 754.476562 54.710938 L 754.496094 522.324219 C 754.023438 532.210938 745.515625 537.683594 736.640625 537.683594 " fill-opacity="1" fill-rule="nonzero"/><path fill="#4f2b43" d="M 736.640625 537.953125 L 721.949219 537.953125 C 721.1875 537.953125 720.574219 537.335938 720.574219 536.574219 C 720.574219 535.808594 721.1875 535.191406 721.949219 535.191406 L 736.640625 535.191406 C 744.257812 535.191406 752.664062 530.808594 753.121094 521.183594 L 753.09375 54.667969 C 752.855469 41.910156 747 34.875 736.621094 34.875 L 71.609375 34.875 C 63.40625 34.875 56.492188 40.785156 55.128906 48.9375 L 55.144531 365.253906 C 55.144531 366.015625 54.527344 366.628906 53.769531 366.628906 C 53.007812 366.628906 52.390625 366.015625 52.390625 365.253906 L 52.375 48.824219 C 52.375 48.753906 52.378906 48.683594 52.390625 48.609375 C 53.929688 39.050781 62.011719 32.121094 71.609375 32.121094 L 736.621094 32.121094 C 748.566406 32.121094 755.578125 40.328125 755.855469 54.640625 L 755.878906 521.246094 C 755.351562 532.234375 745.804688 537.953125 736.640625 537.953125 " fill-opacity="1" fill-rule="nonzero"/><path fill="#ffffff" d="M 144.183594 207.710938 C 143.835938 195.613281 133.789062 186.304688 121.859375 187.207031 C 110.234375 188.089844 101.429688 198.207031 101.949219 210.078125 C 102.195312 215.796875 104.570312 220.871094 108.332031 224.507812 C 111.21875 227.292969 112.925781 231.128906 113.042969 235.21875 L 113.117188 237.644531 C 113.171875 239.652344 114.8125 241.203125 116.78125 241.105469 L 131.136719 240.421875 C 133.105469 240.324219 134.652344 238.625 134.597656 236.617188 L 134.527344 234.199219 C 134.410156 230.167969 135.789062 226.175781 138.496094 223.191406 C 142.195312 219.117188 144.355469 213.640625 144.183594 207.710938 " fill-opacity="1" fill-rule="nonzero"/><path fill="#4f2b43" d="M 123.464844 188.53125 C 122.964844 188.53125 122.46875 188.550781 121.964844 188.585938 C 111.023438 189.417969 102.832031 198.832031 103.320312 210.019531 C 103.550781 215.230469 105.667969 220.027344 109.289062 223.519531 C 112.46875 226.589844 114.292969 230.734375 114.421875 235.179688 L 114.492188 237.609375 C 114.507812 238.21875 114.757812 238.777344 115.191406 239.179688 C 115.605469 239.566406 116.140625 239.761719 116.714844 239.734375 L 131.070312 239.046875 C 132.292969 238.992188 133.253906 237.917969 133.21875 236.65625 L 133.148438 234.242188 C 133.019531 229.804688 134.597656 225.445312 137.476562 222.269531 C 141.070312 218.308594 142.960938 213.160156 142.804688 207.757812 C 142.644531 202.1875 140.324219 197.105469 136.269531 193.457031 C 132.710938 190.253906 128.210938 188.53125 123.464844 188.53125 Z M 116.609375 242.492188 C 115.382812 242.492188 114.226562 242.039062 113.320312 241.203125 C 112.339844 240.292969 111.773438 239.046875 111.734375 237.6875 L 111.664062 235.257812 C 111.558594 231.535156 110.035156 228.070312 107.375 225.503906 C 103.246094 221.515625 100.828125 216.0625 100.570312 210.136719 C 100.015625 197.457031 109.320312 186.78125 121.757812 185.839844 C 127.8125 185.382812 133.617188 187.359375 138.113281 191.410156 C 142.730469 195.566406 145.375 201.347656 145.558594 207.679688 C 145.734375 213.792969 143.589844 219.632812 139.515625 224.121094 C 137.109375 226.769531 135.792969 230.429688 135.902344 234.160156 L 135.972656 236.582031 C 136.050781 239.332031 133.914062 241.671875 131.203125 241.800781 L 116.847656 242.488281 C 116.765625 242.488281 116.6875 242.492188 116.609375 242.492188 " fill-opacity="1" fill-rule="nonzero"/><path fill="#ffffff" d="M 124.402344 255.464844 C 119.503906 255.699219 115.417969 251.839844 115.273438 246.835938 L 115.101562 240.960938 L 132.847656 240.109375 L 133.015625 245.988281 C 133.160156 250.988281 129.304688 255.230469 124.402344 255.464844 " fill-opacity="1" fill-rule="nonzero"/><path fill="#4f2b43" d="M 116.519531 242.269531 L 116.652344 246.796875 C 116.710938 248.871094 117.5625 250.777344 119.054688 252.160156 C 120.496094 253.492188 122.371094 254.175781 124.339844 254.085938 C 128.488281 253.886719 131.761719 250.269531 131.640625 246.023438 L 131.507812 241.550781 Z M 123.980469 256.847656 C 121.449219 256.847656 119.054688 255.910156 117.183594 254.179688 C 115.144531 252.289062 113.976562 249.695312 113.894531 246.871094 L 113.6875 239.644531 L 134.183594 238.664062 L 134.394531 245.941406 C 134.558594 251.683594 130.109375 256.566406 124.472656 256.835938 C 124.308594 256.84375 124.144531 256.847656 123.980469 256.847656 " fill-opacity="1" fill-rule="nonzero"/><path fill="#4f2b43" d="M 122.339844 172.984375 C 121.605469 172.984375 120.996094 172.40625 120.960938 171.667969 L 120.3125 157.1875 C 120.28125 156.429688 120.867188 155.785156 121.628906 155.75 C 122.398438 155.71875 123.03125 156.304688 123.066406 157.0625 L 123.714844 171.542969 C 123.75 172.304688 123.160156 172.945312 122.398438 172.984375 C 122.378906 172.984375 122.359375 172.984375 122.339844 172.984375 " fill-opacity="1" fill-rule="nonzero"/><path fill="#4f2b43" d="M 86.605469 216.351562 L 78.730469 216.34375 C 77.972656 216.335938 77.355469 215.722656 77.355469 214.957031 C 77.355469 214.199219 77.972656 213.585938 78.734375 213.585938 L 86.609375 213.59375 C 87.367188 213.59375 87.984375 214.214844 87.984375 214.972656 C 87.984375 215.730469 87.367188 216.351562 86.605469 216.351562 " fill-opacity="1" fill-rule="nonzero"/><path fill="#4f2b43" d="M 93.867188 187.929688 C 93.53125 187.929688 93.191406 187.808594 92.925781 187.558594 L 84.050781 179.25 C 83.492188 178.730469 83.464844 177.863281 83.984375 177.304688 C 84.503906 176.75 85.378906 176.722656 85.933594 177.242188 L 94.808594 185.546875 C 95.367188 186.070312 95.394531 186.941406 94.875 187.496094 C 94.601562 187.785156 94.234375 187.929688 93.867188 187.929688 " fill-opacity="1" fill-rule="nonzero"/><path fill="#4f2b43" d="M 159.867188 216.351562 C 159.109375 216.351562 158.492188 215.730469 158.488281 214.972656 C 158.488281 214.214844 159.105469 213.59375 159.867188 213.59375 L 167.738281 213.585938 C 168.5 213.585938 169.117188 214.199219 169.117188 214.957031 C 169.117188 215.722656 168.503906 216.335938 167.742188 216.34375 L 159.867188 216.351562 " fill-opacity="1" fill-rule="nonzero"/><path fill="#4f2b43" d="M 152.605469 187.929688 C 152.234375 187.929688 151.867188 187.785156 151.597656 187.496094 C 151.078125 186.941406 151.105469 186.070312 151.660156 185.546875 L 160.539062 177.242188 C 161.09375 176.722656 161.96875 176.75 162.488281 177.304688 C 163.007812 177.863281 162.976562 178.730469 162.421875 179.25 L 153.542969 187.558594 C 153.28125 187.808594 152.941406 187.929688 152.605469 187.929688 " fill-opacity="1" fill-rule="nonzero"/><path fill="#bec4ed" d="M 351.921875 139.828125 C 351.890625 174.613281 323.78125 202.792969 289.132812 202.765625 C 254.484375 202.738281 226.417969 174.519531 226.441406 139.734375 C 226.46875 104.949219 254.582031 76.769531 289.230469 76.796875 C 323.878906 76.824219 351.945312 105.042969 351.921875 139.828125 " fill-opacity="1" fill-rule="nonzero"/><path fill="#d2c7ff" d="M 290.28125 140.03125 L 323.476562 192.34375 C 340.433594 181.082031 351.625 161.773438 351.644531 139.832031 C 351.65625 125.929688 347.171875 113.070312 339.574219 102.644531 L 290.28125 140.03125 " fill-opacity="1" fill-rule="nonzero"/><path fill="#9333ea" d="M 302.617188 78.328125 L 290.285156 140.03125 L 339.582031 102.660156 C 330.75 90.539062 317.710938 81.707031 302.617188 78.328125 " fill-opacity="1" fill-rule="nonzero"/><path fill="#ffffff" d="M 308.296875 139.800781 C 308.289062 150.398438 299.722656 158.984375 289.167969 158.980469 C 278.605469 158.96875 270.054688 150.371094 270.0625 139.769531 C 270.070312 129.167969 278.636719 120.585938 289.195312 120.59375 C 299.753906 120.601562 308.308594 129.199219 308.296875 139.800781 " fill-opacity="1" fill-rule="nonzero"/><path fill="#4f2b43" d="M 455.371094 231.660156 C 455 231.660156 454.652344 231.511719 454.394531 231.25 L 428.007812 204.769531 C 427.472656 204.230469 427.472656 203.359375 428.015625 202.824219 C 428.554688 202.285156 429.429688 202.289062 429.960938 202.824219 L 455.371094 228.328125 L 572.96875 110.347656 C 573.503906 109.804688 574.378906 109.804688 574.917969 110.339844 C 575.453125 110.882812 575.460938 111.75 574.917969 112.292969 L 456.34375 231.253906 C 456.082031 231.511719 455.730469 231.660156 455.371094 231.660156 " fill-opacity="1" fill-rule="nonzero"/><path fill="#4f2b43" d="M 184.140625 350.578125 C 183.789062 350.578125 183.4375 350.441406 183.167969 350.179688 C 182.628906 349.640625 182.628906 348.765625 183.164062 348.226562 L 251.976562 279.148438 C 252.492188 278.628906 253.410156 278.628906 253.925781 279.148438 L 290.121094 315.488281 L 401.4375 203.742188 C 401.972656 203.199219 402.847656 203.199219 403.382812 203.734375 C 403.921875 204.273438 403.921875 205.144531 403.390625 205.6875 L 291.101562 318.410156 C 290.585938 318.929688 289.664062 318.929688 289.148438 318.410156 L 252.949219 282.070312 L 185.117188 350.171875 C 184.847656 350.441406 184.492188 350.578125 184.140625 350.578125 " fill-opacity="1" fill-rule="nonzero"/><path fill="#9333ea" d="M 246.246094 280.121094 C 246.246094 276.402344 249.246094 273.386719 252.953125 273.386719 C 256.65625 273.386719 259.660156 276.402344 259.660156 280.121094 C 259.660156 283.839844 256.65625 286.851562 252.953125 286.851562 C 249.246094 286.851562 246.246094 283.839844 246.246094 280.121094 " fill-opacity="1" fill-rule="nonzero"/><path fill="#4f2b43" d="M 252.953125 270.632812 C 247.734375 270.632812 243.488281 274.886719 243.488281 280.121094 C 243.488281 285.351562 247.734375 289.605469 252.953125 289.605469 C 258.171875 289.605469 262.414062 285.351562 262.414062 280.121094 C 262.414062 274.886719 258.171875 270.632812 252.953125 270.632812 Z M 252.953125 273.386719 C 256.65625 273.386719 259.660156 276.402344 259.660156 280.121094 C 259.660156 283.839844 256.65625 286.851562 252.953125 286.851562 C 249.246094 286.851562 246.246094 283.839844 246.246094 280.121094 C 246.246094 276.402344 249.246094 273.386719 252.953125 273.386719 " fill-opacity="1" fill-rule="nonzero"/><path fill="#d2c7ff" d="M 448.867188 230.003906 C 448.867188 226.285156 451.871094 223.273438 455.574219 223.273438 C 459.28125 223.273438 462.28125 226.285156 462.28125 230.003906 C 462.28125 233.722656 459.28125 236.738281 455.574219 236.738281 C 451.871094 236.738281 448.867188 233.722656 448.867188 230.003906 " fill-opacity="1" fill-rule="nonzero"/><path fill="#4f2b43" d="M 455.578125 220.515625 C 450.359375 220.515625 446.113281 224.769531 446.113281 230.003906 C 446.113281 235.234375 450.359375 239.492188 455.578125 239.492188 C 460.792969 239.492188 465.039062 235.234375 465.039062 230.003906 C 465.039062 224.769531 460.792969 220.515625 455.578125 220.515625 Z M 455.578125 223.269531 C 459.28125 223.269531 462.28125 226.285156 462.28125 230.003906 C 462.28125 233.722656 459.28125 236.734375 455.578125 236.734375 C 451.871094 236.734375 448.867188 233.722656 448.867188 230.003906 C 448.867188 226.285156 451.871094 223.269531 455.578125 223.269531 " fill-opacity="1" fill-rule="nonzero"/><path fill="#9333ea" d="M 568.800781 110.664062 C 568.800781 106.941406 571.804688 103.929688 575.503906 103.929688 C 579.210938 103.929688 582.214844 106.941406 582.214844 110.664062 C 582.214844 114.378906 579.210938 117.394531 575.503906 117.394531 C 571.804688 117.394531 568.800781 114.378906 568.800781 110.664062 " fill-opacity="1" fill-rule="nonzero"/><path fill="#4f2b43" d="M 575.503906 101.179688 C 570.285156 101.179688 566.039062 105.433594 566.039062 110.667969 C 566.039062 115.898438 570.285156 120.15625 575.503906 120.15625 C 580.71875 120.15625 584.964844 115.898438 584.964844 110.667969 C 584.964844 105.433594 580.71875 101.179688 575.503906 101.179688 Z M 575.503906 103.9375 C 579.207031 103.9375 582.210938 106.949219 582.210938 110.667969 C 582.210938 114.386719 579.207031 117.398438 575.503906 117.398438 C 571.800781 117.398438 568.792969 114.386719 568.792969 110.667969 C 568.792969 106.949219 571.800781 103.9375 575.503906 103.9375 " fill-opacity="1" fill-rule="nonzero"/><path fill="#d2c7ff" d="M 284.035156 316.65625 C 284.035156 312.9375 287.039062 309.921875 290.742188 309.921875 C 294.449219 309.921875 297.453125 312.9375 297.453125 316.65625 C 297.453125 320.375 294.449219 323.386719 290.742188 323.386719 C 287.039062 323.386719 284.035156 320.375 284.035156 316.65625 " fill-opacity="1" fill-rule="nonzero"/><path fill="#4f2b43" d="M 290.742188 307.167969 C 285.527344 307.167969 281.28125 311.421875 281.28125 316.65625 C 281.28125 321.886719 285.527344 326.140625 290.742188 326.140625 C 295.960938 326.140625 300.207031 321.886719 300.207031 316.65625 C 300.207031 311.421875 295.960938 307.167969 290.742188 307.167969 Z M 290.742188 309.921875 C 294.449219 309.921875 297.453125 312.9375 297.453125 316.65625 C 297.453125 320.375 294.449219 323.386719 290.742188 323.386719 C 287.039062 323.386719 284.035156 320.375 284.035156 316.65625 C 284.035156 312.9375 287.039062 309.921875 290.742188 309.921875 " fill-opacity="1" fill-rule="nonzero"/><path fill="#9333ea" d="M 409.429688 191.441406 C 409.429688 187.722656 412.4375 184.710938 416.144531 184.710938 C 419.847656 184.710938 422.847656 187.722656 422.847656 191.441406 C 422.847656 195.160156 419.847656 198.175781 416.144531 198.175781 C 412.4375 198.175781 409.429688 195.160156 409.429688 191.441406 " fill-opacity="1" fill-rule="nonzero"/><path fill="#4f2b43" d="M 416.144531 181.953125 C 410.925781 181.953125 406.679688 186.207031 406.679688 191.441406 C 406.679688 196.671875 410.925781 200.929688 416.144531 200.929688 C 421.363281 200.929688 425.605469 196.671875 425.605469 191.441406 C 425.605469 186.207031 421.363281 181.953125 416.144531 181.953125 Z M 416.144531 184.710938 C 419.847656 184.710938 422.851562 187.722656 422.851562 191.441406 C 422.851562 195.160156 419.847656 198.171875 416.144531 198.171875 C 412.4375 198.171875 409.4375 195.160156 409.4375 191.441406 C 409.4375 187.722656 412.4375 184.710938 416.144531 184.710938 " fill-opacity="1" fill-rule="nonzero"/><path fill="#d2c7ff" d="M 175.921875 349.722656 C 175.921875 346.003906 178.925781 342.984375 182.628906 342.984375 C 186.332031 342.984375 189.335938 346.003906 189.335938 349.722656 C 189.335938 353.4375 186.332031 356.457031 182.628906 356.457031 C 178.925781 356.457031 175.921875 353.4375 175.921875 349.722656 " fill-opacity="1" fill-rule="nonzero"/><path fill="#4f2b43" d="M 182.628906 340.230469 C 177.410156 340.230469 173.164062 344.492188 173.164062 349.722656 C 173.164062 354.957031 177.410156 359.210938 182.628906 359.210938 C 187.847656 359.210938 192.089844 354.957031 192.089844 349.722656 C 192.089844 344.492188 187.847656 340.230469 182.628906 340.230469 Z M 182.628906 342.984375 C 186.332031 342.984375 189.335938 346.003906 189.335938 349.722656 C 189.335938 353.4375 186.332031 356.457031 182.628906 356.457031 C 178.925781 356.457031 175.921875 353.4375 175.921875 349.722656 C 175.921875 346.003906 178.925781 342.984375 182.628906 342.984375 " fill-opacity="1" fill-rule="nonzero"/><path fill="#bec4ed" d="M 236.542969 446.984375 L 225.773438 446.753906 C 221.042969 446.652344 217.261719 442.769531 217.269531 438.019531 L 217.371094 386.132812 C 217.382812 381.265625 221.355469 377.347656 226.203125 377.425781 L 236.871094 377.605469 C 241.613281 377.683594 245.414062 381.558594 245.414062 386.324219 C 245.414062 399.554688 245.414062 424.835938 245.414062 438.265625 C 245.414062 443.152344 241.410156 447.085938 236.542969 446.984375 " fill-opacity="1" fill-rule="nonzero"/><path fill="#bec4ed" d="M 274.683594 446.984375 L 263.910156 446.753906 C 259.179688 446.652344 255.398438 442.769531 255.40625 438.023438 L 255.515625 353.378906 C 255.523438 348.511719 259.5 344.589844 264.347656 344.675781 L 275.011719 344.851562 C 279.753906 344.933594 283.554688 348.804688 283.554688 353.566406 C 283.554688 372.714844 283.554688 418.816406 283.554688 438.269531 C 283.554688 443.15625 279.550781 447.085938 274.683594 446.984375 " fill-opacity="1" fill-rule="nonzero"/><path fill="#bec4ed" d="M 312.824219 446.984375 L 302.050781 446.753906 C 297.320312 446.652344 293.539062 442.769531 293.546875 438.019531 L 293.65625 370.832031 C 293.660156 365.964844 297.636719 362.042969 302.488281 362.125 L 313.152344 362.300781 C 317.890625 362.382812 321.695312 366.257812 321.695312 371.019531 C 321.695312 387.152344 321.695312 421.878906 321.695312 438.265625 C 321.695312 443.152344 317.691406 447.085938 312.824219 446.984375 " fill-opacity="1" fill-rule="nonzero"/><path fill="#bec4ed" d="M 350.960938 446.984375 L 340.1875 446.753906 C 335.453125 446.652344 331.675781 442.773438 331.679688 438.027344 L 331.800781 305.859375 C 331.804688 300.992188 335.78125 297.070312 340.632812 297.148438 L 351.292969 297.328125 C 356.03125 297.410156 359.835938 301.285156 359.835938 306.046875 C 359.835938 332.320312 359.835938 411.558594 359.835938 438.269531 C 359.835938 443.15625 355.828125 447.085938 350.960938 446.984375 " fill-opacity="1" fill-rule="nonzero"/><path fill="#bec4ed" d="M 389.101562 446.984375 L 378.320312 446.753906 C 373.59375 446.652344 369.816406 442.773438 369.820312 438.027344 L 369.941406 271.832031 C 369.945312 266.960938 373.921875 263.039062 378.769531 263.121094 L 389.429688 263.296875 C 394.167969 263.378906 397.972656 267.25 397.972656 272.007812 C 397.972656 302.710938 397.972656 407.03125 397.972656 438.265625 C 397.972656 443.152344 393.96875 447.085938 389.101562 446.984375 " fill-opacity="1" fill-rule="nonzero"/><path fill="#d2c7ff" d="M 427.242188 446.984375 L 416.460938 446.753906 C 411.734375 446.65625 407.953125 442.773438 407.957031 438.027344 L 408.082031 246.527344 C 408.085938 241.65625 412.058594 237.734375 416.914062 237.8125 L 427.570312 237.996094 C 432.308594 238.070312 436.113281 241.945312 436.113281 246.703125 C 436.113281 280.445312 436.113281 403.933594 436.113281 438.261719 C 436.113281 443.15625 432.109375 447.082031 427.242188 446.984375 " fill-opacity="1" fill-rule="nonzero"/><path fill="#bec4ed" d="M 465.378906 446.984375 L 454.605469 446.753906 C 449.875 446.652344 446.09375 442.773438 446.097656 438.027344 L 446.21875 301.992188 C 446.222656 297.121094 450.199219 293.199219 455.050781 293.277344 L 465.710938 293.457031 C 470.449219 293.535156 474.25 297.417969 474.25 302.175781 C 474.25 328.980469 474.25 411.023438 474.25 438.269531 C 474.25 443.15625 470.25 447.085938 465.378906 446.984375 " fill-opacity="1" fill-rule="nonzero"/><path fill="#bec4ed" d="M 503.523438 446.984375 L 492.738281 446.753906 C 488.015625 446.652344 484.234375 442.773438 484.238281 438.023438 L 484.359375 257.511719 C 484.363281 252.640625 488.339844 248.71875 493.191406 248.796875 L 503.847656 248.976562 C 508.589844 249.058594 512.390625 252.9375 512.390625 257.695312 C 512.390625 290.148438 512.390625 405.269531 512.390625 438.269531 C 512.390625 443.15625 508.386719 447.082031 503.523438 446.984375 " fill-opacity="1" fill-rule="nonzero"/><path fill="#bec4ed" d="M 541.660156 446.988281 L 530.875 446.753906 C 526.148438 446.652344 522.371094 442.777344 522.371094 438.03125 L 522.496094 203.308594 C 522.5 198.4375 526.476562 194.511719 531.332031 194.59375 L 541.988281 194.769531 C 546.722656 194.851562 550.527344 198.730469 550.527344 203.488281 C 550.527344 242.03125 550.527344 399.0625 550.527344 438.269531 C 550.527344 443.160156 546.523438 447.085938 541.660156 446.988281 " fill-opacity="1" fill-rule="nonzero"/><path fill="#d2c7ff" d="M 580.316406 446.984375 L 569.535156 446.753906 C 564.804688 446.652344 561.03125 442.773438 561.03125 438.03125 L 561.15625 166.878906 C 561.160156 162.007812 565.132812 158.082031 569.992188 158.160156 L 580.640625 158.335938 C 585.382812 158.417969 589.1875 162.296875 589.1875 167.054688 C 589.1875 209.324219 589.1875 395.257812 589.1875 438.269531 C 589.1875 443.15625 585.183594 447.085938 580.316406 446.984375 " fill-opacity="1" fill-rule="nonzero"/><path fill="#bec4ed" d="M 672.296875 88.269531 L 619.144531 88.269531 C 618.0625 88.269531 617.191406 87.398438 617.191406 86.316406 L 617.191406 77.664062 C 617.191406 76.585938 618.0625 75.710938 619.144531 75.710938 L 672.296875 75.710938 C 673.382812 75.710938 674.257812 76.585938 674.257812 77.664062 L 674.257812 86.316406 C 674.257812 87.398438 673.382812 88.269531 672.296875 88.269531 " fill-opacity="1" fill-rule="nonzero"/><path fill="#bec4ed" d="M 722.070312 88.269531 L 692.351562 88.269531 C 691.273438 88.269531 690.402344 87.398438 690.402344 86.316406 L 690.402344 77.664062 C 690.402344 76.585938 691.273438 75.710938 692.351562 75.710938 L 722.070312 75.710938 C 723.148438 75.710938 724.027344 76.585938 724.027344 77.664062 L 724.027344 86.316406 C 724.027344 87.398438 723.148438 88.269531 722.070312 88.269531 " fill-opacity="1" fill-rule="nonzero"/><path fill="#bec4ed" d="M 722.820312 115.902344 L 620.394531 115.902344 C 619.316406 115.902344 618.4375 115.027344 618.4375 113.945312 L 618.4375 105.296875 C 618.4375 104.214844 619.316406 103.34375 620.394531 103.34375 L 722.820312 103.34375 C 723.902344 103.34375 724.777344 104.214844 724.777344 105.296875 L 724.777344 113.945312 C 724.777344 115.027344 723.902344 115.902344 722.820312 115.902344 " fill-opacity="1" fill-rule="nonzero"/><path fill="#bec4ed" d="M 724.078125 143.53125 L 641.523438 143.53125 C 640.441406 143.53125 639.570312 142.652344 639.570312 141.574219 L 639.570312 132.921875 C 639.570312 131.847656 640.441406 130.96875 641.523438 130.96875 L 724.078125 130.96875 C 725.15625 130.96875 726.035156 131.847656 726.035156 132.921875 L 726.035156 141.574219 C 726.035156 142.652344 725.15625 143.53125 724.078125 143.53125 " fill-opacity="1" fill-rule="nonzero"/><path fill="#bec4ed" d="M 711.660156 171.160156 L 622.898438 171.160156 C 621.816406 171.160156 620.941406 170.285156 620.941406 169.203125 L 620.941406 160.558594 C 620.941406 159.476562 621.816406 158.601562 622.898438 158.601562 L 711.660156 158.601562 C 712.738281 158.601562 713.617188 159.476562 713.617188 160.558594 L 713.617188 169.203125 C 713.617188 170.285156 712.738281 171.160156 711.660156 171.160156 " fill-opacity="1" fill-rule="nonzero"/><path fill="#bec4ed" d="M 722.304688 198.039062 L 642.089844 198.039062 C 641.011719 198.039062 640.136719 197.164062 640.136719 196.085938 L 640.136719 187.433594 C 640.136719 186.355469 641.011719 185.480469 642.089844 185.480469 L 722.304688 185.480469 C 723.390625 185.480469 724.265625 186.355469 724.265625 187.433594 L 724.265625 196.085938 C 724.265625 197.164062 723.390625 198.039062 722.304688 198.039062 " fill-opacity="1" fill-rule="nonzero"/><path fill="#ffffff" d="M 535.703125 214.550781 C 535.730469 193.195312 553.003906 175.804688 574.273438 175.714844 C 595.550781 175.621094 612.773438 192.855469 612.746094 214.210938 C 612.714844 235.566406 595.441406 252.953125 574.171875 253.046875 C 552.894531 253.140625 535.675781 235.90625 535.703125 214.550781 " fill-opacity="1" fill-rule="nonzero"/><path fill="#4f2b43" d="M 537.082031 214.550781 C 537.0625 224.539062 540.933594 233.902344 547.96875 240.917969 C 554.929688 247.855469 564.171875 251.671875 573.996094 251.671875 C 574.054688 251.671875 574.109375 251.671875 574.167969 251.671875 C 594.652344 251.578125 611.335938 234.773438 611.367188 214.207031 C 611.378906 204.21875 607.507812 194.855469 600.46875 187.839844 C 593.515625 180.90625 584.277344 177.09375 574.445312 177.09375 C 574.390625 177.09375 574.335938 177.09375 574.277344 177.09375 C 553.796875 177.183594 537.105469 193.984375 537.082031 214.550781 Z M 573.996094 254.421875 C 563.429688 254.421875 553.507812 250.324219 546.027344 242.871094 C 538.464844 235.332031 534.3125 225.277344 534.324219 214.546875 C 534.351562 192.472656 552.273438 174.433594 574.265625 174.335938 C 574.332031 174.335938 574.386719 174.335938 574.445312 174.335938 C 585.007812 174.335938 594.933594 178.433594 602.417969 185.894531 C 609.976562 193.429688 614.136719 203.488281 614.117188 214.214844 C 614.089844 236.289062 596.167969 254.324219 574.175781 254.421875 C 574.117188 254.421875 574.054688 254.421875 573.996094 254.421875 " fill-opacity="1" fill-rule="nonzero"/><path fill="#9333ea" d="M 593.761719 196.433594 L 582.023438 203.355469 C 581.417969 203.714844 581.398438 204.59375 581.992188 204.972656 L 583.722656 206.09375 C 584.167969 206.378906 584.289062 206.964844 584.015625 207.40625 L 578.570312 215.925781 C 578.285156 216.367188 577.699219 216.492188 577.261719 216.214844 L 567.164062 209.710938 C 566.726562 209.425781 566.140625 209.554688 565.855469 209.996094 L 553.710938 228.898438 C 553.429688 229.339844 553.558594 229.925781 553.996094 230.210938 L 557.6875 232.585938 C 558.125 232.871094 558.714844 232.738281 558.992188 232.300781 L 567.753906 218.707031 C 568.039062 218.261719 568.625 218.136719 569.0625 218.417969 L 579.15625 224.914062 C 579.59375 225.199219 580.183594 225.074219 580.460938 224.628906 L 589.285156 210.820312 C 589.566406 210.375 590.15625 210.25 590.597656 210.535156 L 592.46875 211.742188 C 593.066406 212.125 593.855469 211.742188 593.917969 211.03125 L 595.1875 197.339844 C 595.253906 196.570312 594.425781 196.039062 593.761719 196.433594 " fill-opacity="1" fill-rule="nonzero"/><path fill="#9333ea" d="M 152.984375 442.902344 L 152.984375 467.769531 C 152.984375 503.410156 181.015625 532.300781 215.597656 532.300781 C 250.175781 532.300781 278.207031 561.191406 278.207031 596.828125 C 278.207031 600.003906 275.644531 602.582031 272.480469 602.582031 L 106.75 602.582031 C 54.910156 602.582031 12.890625 559.269531 12.890625 505.84375 L 12.890625 439.660156 C 12.890625 418.414062 29.601562 401.183594 50.21875 401.183594 L 112.507812 401.183594 C 134.863281 401.183594 152.984375 419.863281 152.984375 442.902344 " fill-opacity="1" fill-rule="nonzero"/><path fill="#9333ea" d="M 153.230469 786.097656 L 170.675781 786.097656 L 170.675781 597.007812 L 153.230469 597.007812 L 153.230469 786.097656 " fill-opacity="1" fill-rule="nonzero"/><path fill="#9333ea" d="M 243.707031 783.296875 L 166.511719 776.492188 L 159.433594 776.492188 L 80.621094 783.296875 L 80.621094 788.695312 L 243.707031 788.695312 L 243.707031 783.296875 " fill-opacity="1" fill-rule="nonzero"/><path fill="#ffffff" d="M 133.886719 605.914062 L 110.242188 621.796875 L 122.21875 635.996094 L 149.449219 622.652344 L 133.886719 605.914062 " fill-opacity="1" fill-rule="nonzero"/><path fill="#4f2b43" d="M 112.285156 622.078125 L 122.578125 634.289062 L 147.179688 622.234375 L 133.679688 607.710938 Z M 122.21875 637.378906 C 121.824219 637.378906 121.433594 637.207031 121.167969 636.886719 L 109.1875 622.683594 C 108.9375 622.382812 108.824219 621.992188 108.878906 621.605469 C 108.929688 621.214844 109.148438 620.871094 109.472656 620.648438 L 133.117188 604.769531 C 133.679688 604.390625 134.433594 604.476562 134.894531 604.976562 L 150.460938 621.714844 C 150.757812 622.035156 150.882812 622.476562 150.804688 622.90625 C 150.726562 623.335938 150.449219 623.699219 150.054688 623.894531 L 122.828125 637.238281 C 122.632812 637.332031 122.425781 637.378906 122.21875 637.378906 " fill-opacity="1" fill-rule="nonzero"/><path fill="#9333ea" d="M 114.304688 614.632812 C 110.742188 616.828125 104.210938 621.011719 98.847656 625.363281 C 95.480469 628.09375 94.738281 632.945312 97.042969 636.613281 C 103.566406 647.003906 119.773438 669.398438 136.332031 686.191406 C 137.46875 687.339844 140.175781 688.792969 143.765625 686.835938 C 156.082031 680.148438 142.925781 659.183594 134.09375 632.261719 L 127.753906 631.550781 C 124.386719 631.171875 121.570312 628.804688 120.609375 625.539062 L 117.804688 615.984375 C 117.363281 614.488281 115.628906 613.816406 114.304688 614.632812 " fill-opacity="1" fill-rule="nonzero"/><path fill="#4f2b43" d="M 114.304688 614.632812 L 114.316406 614.632812 Z M 115.027344 615.808594 C 111.597656 617.917969 105.050781 622.109375 99.714844 626.433594 C 96.90625 628.714844 96.257812 632.773438 98.210938 635.882812 C 104.941406 646.609375 120.914062 668.597656 137.316406 685.222656 C 137.695312 685.609375 139.765625 687.445312 143.109375 685.625 C 151.277344 681.1875 146.457031 668.828125 139.789062 651.722656 C 137.640625 646.21875 135.21875 640.003906 133.0625 633.53125 L 127.601562 632.917969 C 123.671875 632.480469 120.410156 629.734375 119.289062 625.925781 L 116.484375 616.378906 C 116.394531 616.074219 116.175781 615.835938 115.886719 615.722656 C 115.71875 615.660156 115.382812 615.585938 115.027344 615.808594 Z M 140.304688 689.164062 C 138.179688 689.164062 136.433594 688.253906 135.351562 687.15625 C 118.796875 670.371094 102.671875 648.175781 95.878906 637.347656 C 93.183594 633.0625 94.089844 627.445312 97.980469 624.292969 C 103.4375 619.871094 110.097656 615.605469 113.582031 613.460938 C 114.578125 612.84375 115.78125 612.738281 116.871094 613.152344 C 117.96875 613.574219 118.792969 614.464844 119.125 615.597656 L 121.933594 625.152344 C 122.738281 627.890625 125.085938 629.863281 127.910156 630.179688 L 135.128906 630.988281 L 135.402344 631.832031 C 137.601562 638.53125 140.128906 645.007812 142.355469 650.722656 C 149.265625 668.449219 154.726562 682.453125 144.421875 688.050781 C 142.957031 688.84375 141.5625 689.164062 140.304688 689.164062 " fill-opacity="1" fill-rule="nonzero"/><path fill="#ffffff" d="M 99.660156 624.714844 C 99.660156 624.714844 99.109375 625.152344 98.847656 625.363281 C 95.480469 628.09375 94.738281 632.945312 97.042969 636.613281 C 103.566406 647.003906 119.773438 669.398438 136.332031 686.191406 C 137.46875 687.339844 140.175781 688.792969 143.765625 686.835938 C 144.867188 686.242188 146.480469 684.707031 146.480469 684.707031 L 145.359375 683.472656 C 129.378906 665.882812 114.707031 647.136719 101.453125 627.386719 L 99.660156 624.714844 " fill-opacity="1" fill-rule="nonzero"/><path fill="#4f2b43" d="M 99.359375 626.742188 C 96.855469 629.066406 96.34375 632.910156 98.210938 635.882812 C 104.941406 646.609375 120.914062 668.597656 137.316406 685.222656 C 137.695312 685.609375 139.765625 687.445312 143.109375 685.625 C 143.507812 685.410156 144.042969 685 144.519531 684.601562 L 144.335938 684.398438 C 128.367188 666.816406 113.550781 647.890625 100.308594 628.15625 Z M 140.304688 689.164062 C 138.179688 689.164062 136.433594 688.253906 135.351562 687.15625 C 118.796875 670.371094 102.671875 648.175781 95.878906 637.347656 C 93.183594 633.0625 94.089844 627.445312 97.980469 624.292969 C 98.242188 624.078125 98.800781 623.636719 98.800781 623.636719 C 99.101562 623.394531 99.488281 623.296875 99.867188 623.355469 C 100.246094 623.414062 100.585938 623.625 100.800781 623.945312 L 102.597656 626.621094 C 115.765625 646.246094 130.496094 665.0625 146.378906 682.546875 L 147.5 683.78125 C 148.003906 684.335938 147.972656 685.191406 147.429688 685.707031 C 147.25 685.878906 145.648438 687.382812 144.421875 688.050781 C 142.957031 688.84375 141.5625 689.164062 140.304688 689.164062 " fill-opacity="1" fill-rule="nonzero"/><path fill="#4f2b43" d="M 138.394531 649.09375 C 138.359375 649.09375 138.320312 649.09375 138.285156 649.085938 L 126.261719 648.136719 C 125.503906 648.074219 124.9375 647.414062 125 646.652344 C 125.058594 645.894531 125.71875 645.328125 126.480469 645.390625 L 138.5 646.339844 C 139.261719 646.398438 139.828125 647.0625 139.765625 647.824219 C 139.710938 648.546875 139.105469 649.09375 138.394531 649.09375 " fill-opacity="1" fill-rule="nonzero"/><path fill="#4f2b43" d="M 130.714844 657.441406 C 129.957031 657.441406 129.339844 656.824219 129.335938 656.0625 C 129.335938 655.300781 129.949219 654.683594 130.710938 654.679688 L 142.449219 654.652344 C 143.253906 654.652344 143.828125 655.261719 143.832031 656.023438 C 143.832031 656.785156 143.21875 657.402344 142.457031 657.40625 L 130.71875 657.441406 C 130.71875 657.441406 130.714844 657.441406 130.714844 657.441406 " fill-opacity="1" fill-rule="nonzero"/><path fill="#4f2b43" d="M 302.644531 501.515625 C 312.347656 501.550781 345.273438 507.023438 346.238281 537.183594 C 346.566406 547.457031 354.789062 566.421875 293.210938 578.449219 C 219.785156 592.796875 165.179688 620.699219 152.875 627.339844 C 151.082031 628.304688 148.984375 628.515625 147.039062 627.921875 C 140.875 626.023438 127.882812 620.75 126.25 609.582031 C 125.886719 607.078125 127 604.582031 129.042969 603.097656 L 144.199219 592.070312 L 129.824219 584.378906 C 113.417969 575.597656 100.445312 561.140625 94.554688 543.425781 C 89.289062 527.578125 86.675781 500.46875 86.675781 500.46875 L 302.644531 501.515625 " fill-opacity="1" fill-rule="nonzero"/><path fill="#ffffff" d="M 573.53125 789.835938 L 511.273438 574.015625 L 449.015625 789.835938 L 434.09375 789.835938 L 502.496094 546.304688 L 520.042969 546.28125 L 588.457031 789.835938 L 573.53125 789.835938 " fill-opacity="1" fill-rule="nonzero"/><path fill="#ffffff" d="M 313.644531 735.273438 C 315.992188 744.121094 316.585938 753.34375 315.390625 762.414062 L 350.734375 756.515625 C 341.988281 753.226562 335.296875 746.007812 332.65625 737.019531 L 330.636719 730.160156 L 313.644531 735.273438 " fill-opacity="1" fill-rule="nonzero"/><path fill="#4f2b43" d="M 315.304688 736.210938 C 317.285156 744.265625 317.847656 752.507812 316.972656 760.753906 L 346.113281 755.890625 C 339.035156 751.941406 333.652344 745.285156 331.332031 737.410156 L 329.707031 731.882812 Z M 315.390625 763.792969 C 315.035156 763.792969 314.691406 763.65625 314.429688 763.40625 C 314.113281 763.101562 313.964844 762.667969 314.023438 762.234375 C 315.199219 753.292969 314.625 744.339844 312.308594 735.625 C 312.117188 734.910156 312.53125 734.167969 313.242188 733.957031 L 330.242188 728.84375 C 330.589844 728.734375 330.96875 728.777344 331.292969 728.949219 C 331.617188 729.121094 331.855469 729.417969 331.957031 729.773438 L 333.976562 736.632812 C 336.480469 745.15625 342.925781 752.109375 351.214844 755.222656 C 351.800781 755.441406 352.167969 756.027344 352.101562 756.648438 C 352.042969 757.269531 351.574219 757.769531 350.960938 757.875 L 315.613281 763.773438 C 315.539062 763.785156 315.464844 763.792969 315.390625 763.792969 " fill-opacity="1" fill-rule="nonzero"/><path fill="#9333ea" d="M 314.089844 751.054688 C 312.953125 755.464844 310.609375 767.875 309.675781 775.328125 C 309.089844 780.007812 312.140625 784.359375 316.703125 785.484375 C 329.582031 788.675781 360.214844 787.894531 385.734375 788.484375 C 387.484375 788.527344 390.6875 787.613281 392.03125 783.371094 C 396.640625 768.828125 369.101562 765.03125 342.023438 750.675781 C 342.023438 750.675781 340.460938 751.996094 338.132812 753.261719 C 334.242188 755.371094 327.851562 755.183594 324.003906 752.988281 L 317.839844 749.46875 C 316.375 748.628906 314.515625 749.414062 314.089844 751.054688 " fill-opacity="1" fill-rule="nonzero"/><path fill="#4f2b43" d="M 315.421875 751.402344 C 314.269531 755.863281 311.9375 768.355469 311.042969 775.5 C 310.546875 779.464844 313.121094 783.183594 317.03125 784.148438 C 326.457031 786.480469 346.3125 786.660156 365.515625 786.832031 C 372.253906 786.894531 379.21875 786.957031 385.769531 787.113281 C 386.367188 787.125 389.4375 786.988281 390.71875 782.957031 C 393.382812 774.554688 383.539062 770.085938 365.910156 762.917969 C 358.621094 759.953125 350.386719 756.601562 342.167969 752.308594 C 341.457031 752.84375 340.273438 753.664062 338.792969 754.46875 C 334.5625 756.769531 327.621094 756.640625 323.320312 754.183594 L 317.15625 750.667969 C 316.832031 750.480469 316.453125 750.457031 316.109375 750.601562 C 315.769531 750.746094 315.519531 751.039062 315.421875 751.402344 Z M 385.851562 789.867188 C 385.800781 789.867188 385.75 789.867188 385.703125 789.867188 C 379.175781 789.710938 372.214844 789.648438 365.488281 789.585938 C 345.234375 789.40625 326.109375 789.234375 316.367188 786.824219 C 311.105469 785.523438 307.636719 780.511719 308.308594 775.160156 C 309.238281 767.722656 311.574219 755.292969 312.757812 750.710938 C 313.070312 749.507812 313.898438 748.546875 315.039062 748.0625 C 316.175781 747.582031 317.449219 747.660156 318.523438 748.269531 L 324.6875 751.792969 C 328.191406 753.792969 334.050781 753.910156 337.476562 752.046875 C 339.636719 750.875 341.117188 749.636719 341.132812 749.621094 L 341.84375 749.019531 L 342.664062 749.453125 C 351.023438 753.886719 359.484375 757.332031 366.949219 760.367188 C 383.683594 767.175781 396.90625 772.554688 393.34375 783.789062 C 391.917969 788.285156 388.453125 789.867188 385.851562 789.867188 " fill-opacity="1" fill-rule="nonzero"/><path fill="#ffffff" d="M 308.972656 778.714844 C 308.949219 778.84375 308.933594 778.933594 308.929688 778.972656 C 308.347656 783.652344 312.855469 786.429688 317.148438 788.324219 C 330.148438 794.074219 382.828125 789.351562 382.828125 789.351562 C 382.828125 789.351562 389.894531 789.429688 391.773438 785.171875 C 392.046875 784.546875 392.175781 783.617188 392.242188 782.847656 C 392.308594 782.015625 392.226562 781.175781 392.027344 780.367188 L 391.558594 778.464844 C 384.390625 781.324219 352.117188 783.503906 328.691406 780.589844 C 318.867188 779.367188 313.175781 775.113281 309.902344 773.488281 C 309.902344 773.488281 309.441406 776.039062 308.972656 778.714844 " fill-opacity="1" fill-rule="nonzero"/><path fill="#4f2b43" d="M 310.332031 778.953125 L 310.296875 779.148438 C 309.917969 782.1875 312.199219 784.628906 317.707031 787.066406 C 330.230469 792.605469 382.183594 788.027344 382.710938 787.984375 C 382.753906 787.976562 382.800781 787.976562 382.847656 787.972656 C 384.5625 788 389.28125 787.40625 390.511719 784.613281 C 390.585938 784.445312 390.773438 783.921875 390.863281 782.734375 C 390.917969 782.078125 390.859375 781.390625 390.6875 780.699219 L 390.578125 780.234375 C 381.074219 782.886719 350.726562 784.71875 328.523438 781.957031 C 320.292969 780.9375 314.917969 777.878906 311.363281 775.859375 C 311.210938 775.773438 311.0625 775.691406 310.921875 775.609375 C 310.753906 776.546875 310.542969 777.734375 310.332031 778.953125 Z M 344.136719 792.5625 C 332.625 792.5625 321.726562 791.855469 316.589844 789.585938 C 312.371094 787.71875 306.84375 784.570312 307.5625 778.800781 C 307.566406 778.753906 307.585938 778.644531 307.617188 778.476562 C 307.617188 778.476562 307.617188 778.476562 307.617188 778.472656 C 308.085938 775.800781 308.542969 773.246094 308.542969 773.246094 C 308.621094 772.820312 308.894531 772.453125 309.28125 772.257812 C 309.664062 772.0625 310.121094 772.0625 310.507812 772.253906 C 311.167969 772.582031 311.886719 772.992188 312.726562 773.46875 C 316.089844 775.375 321.175781 778.265625 328.863281 779.222656 C 352.042969 782.105469 384.011719 779.988281 391.046875 777.183594 C 391.417969 777.035156 391.835938 777.054688 392.191406 777.238281 C 392.542969 777.417969 392.800781 777.746094 392.898438 778.132812 L 393.363281 780.039062 C 393.605469 781.023438 393.6875 782 393.609375 782.957031 C 393.519531 784.136719 393.324219 785.070312 393.03125 785.726562 C 390.90625 790.554688 383.753906 790.730469 382.890625 790.730469 C 381.113281 790.886719 361.898438 792.5625 344.136719 792.5625 " fill-opacity="1" fill-rule="nonzero"/><path fill="#4f2b43" d="M 344.960938 764.023438 C 344.550781 764.023438 344.152344 763.84375 343.878906 763.5 C 343.40625 762.902344 343.507812 762.035156 344.105469 761.566406 L 351.722656 755.542969 C 352.316406 755.070312 353.183594 755.171875 353.65625 755.769531 C 354.125 756.363281 354.023438 757.230469 353.429688 757.707031 L 345.816406 763.726562 C 345.5625 763.925781 345.261719 764.023438 344.960938 764.023438 " fill-opacity="1" fill-rule="nonzero"/><path fill="#4f2b43" d="M 355.320312 768.003906 C 354.914062 768.003906 354.507812 767.820312 354.234375 767.476562 C 353.765625 766.875 353.875 766.007812 354.476562 765.539062 L 361.136719 760.34375 C 361.734375 759.878906 362.601562 759.988281 363.070312 760.585938 C 363.539062 761.1875 363.429688 762.050781 362.832031 762.519531 L 356.167969 767.710938 C 355.917969 767.90625 355.617188 768.003906 355.320312 768.003906 " fill-opacity="1" fill-rule="nonzero"/><path fill="#4f2b43" d="M 239.265625 548.613281 C 239.265625 548.613281 266.175781 554.558594 286.203125 568.417969 C 303.554688 580.421875 321.851562 603.386719 338.519531 723.738281 C 339.640625 731.820312 332.738281 737.601562 328.019531 738.703125 C 321.339844 740.265625 315.84375 739.652344 310.195312 735.988281 C 300.566406 729.734375 264.210938 637.164062 242.539062 617.523438 C 220.871094 597.878906 129.339844 593.683594 111.683594 568.679688 C 94.027344 543.679688 137.363281 543.679688 137.363281 543.679688 L 239.265625 548.613281 " fill-opacity="1" fill-rule="nonzero"/><path fill="#bec4ed" d="M 189.429688 612.738281 C 188.917969 612.738281 188.429688 612.457031 188.191406 611.96875 C 187.855469 611.285156 188.140625 610.457031 188.824219 610.121094 C 190.589844 609.257812 192.289062 608.417969 193.941406 607.605469 C 215.726562 596.871094 228.875 590.394531 268.722656 583.417969 C 269.472656 583.285156 270.183594 583.789062 270.316406 584.539062 C 270.449219 585.285156 269.945312 586.003906 269.195312 586.128906 C 229.738281 593.042969 216.722656 599.453125 195.15625 610.078125 C 193.503906 610.894531 191.804688 611.730469 190.035156 612.597656 C 189.839844 612.695312 189.632812 612.738281 189.429688 612.738281 " fill-opacity="1" fill-rule="nonzero"/><path fill="#d2c7ff" d="M 433.289062 524.746094 L 256.996094 524.746094 C 255.347656 524.746094 254.007812 523.410156 254.007812 521.757812 L 254.007812 514.925781 L 436.277344 514.925781 L 436.277344 521.757812 C 436.277344 523.410156 434.9375 524.746094 433.289062 524.746094 " fill-opacity="1" fill-rule="nonzero"/><path fill="#4f2b43" d="M 255.386719 516.300781 L 255.386719 518.15625 C 255.386719 521.035156 257.722656 523.367188 260.59375 523.367188 L 429.6875 523.367188 C 432.5625 523.367188 434.902344 521.035156 434.902344 518.15625 L 434.902344 516.300781 Z M 429.6875 526.125 L 260.59375 526.125 C 256.203125 526.125 252.628906 522.550781 252.628906 518.15625 L 252.628906 514.925781 C 252.628906 514.160156 253.246094 513.542969 254.007812 513.542969 L 436.277344 513.542969 C 437.039062 513.542969 437.65625 514.160156 437.65625 514.925781 L 437.65625 518.15625 C 437.65625 522.550781 434.078125 526.125 429.6875 526.125 " fill-opacity="1" fill-rule="nonzero"/><path fill="#d2c7ff" d="M 436.28125 515.097656 L 331.984375 515.097656 L 362.84375 424.035156 C 364.820312 420.972656 368.277344 419.113281 371.992188 419.113281 L 460.15625 419.113281 C 464.15625 419.113281 466.730469 423.007812 465.425781 426.445312 C 464.90625 427.816406 436.28125 515.097656 436.28125 515.097656 " fill-opacity="1" fill-rule="nonzero"/><path fill="#4f2b43" d="M 333.90625 513.722656 L 435.28125 513.722656 C 438.546875 503.761719 463.640625 427.28125 464.140625 425.960938 C 464.59375 424.757812 464.417969 423.386719 463.664062 422.300781 C 462.871094 421.148438 461.59375 420.492188 460.15625 420.492188 L 371.996094 420.492188 C 368.78125 420.492188 365.839844 422.039062 364.089844 424.640625 Z M 436.28125 516.480469 L 331.984375 516.480469 C 331.542969 516.480469 331.125 516.261719 330.867188 515.902344 C 330.609375 515.542969 330.539062 515.078125 330.679688 514.65625 L 361.535156 423.59375 C 361.574219 423.484375 361.621094 423.378906 361.683594 423.28125 C 363.933594 419.808594 367.789062 417.730469 371.996094 417.730469 L 460.15625 417.730469 C 462.507812 417.730469 464.617188 418.828125 465.929688 420.734375 C 467.199219 422.570312 467.492188 424.886719 466.714844 426.9375 C 466.234375 428.234375 447.453125 485.453125 437.589844 515.527344 C 437.402344 516.09375 436.875 516.480469 436.28125 516.480469 " fill-opacity="1" fill-rule="nonzero"/><path fill="#ffffff" d="M 429.652344 506.597656 L 343.835938 506.597656 L 370.28125 427.792969 L 455.847656 427.675781 L 429.652344 506.597656 " fill-opacity="1" fill-rule="nonzero"/><path fill="#bec4ed" d="M 366.859375 496.714844 L 356.832031 496.714844 L 359.921875 487.507812 L 369.921875 487.496094 L 366.859375 496.714844 " fill-opacity="1" fill-rule="nonzero"/><path fill="#d2c7ff" d="M 385.472656 496.714844 L 374.726562 496.714844 L 382.816406 472.609375 L 393.484375 472.574219 L 385.472656 496.714844 " fill-opacity="1" fill-rule="nonzero"/><path fill="#9333ea" d="M 406.269531 496.714844 L 394.710938 496.714844 L 410.707031 449.050781 L 422.113281 448.980469 L 406.269531 496.714844 " fill-opacity="1" fill-rule="nonzero"/><path fill="#ffffff" d="M 48.335938 390.6875 C 52.890625 380.621094 65.007812 374.121094 74.429688 370.429688 C 80.941406 367.875 87.847656 366.484375 94.832031 366.207031 L 119.53125 365.234375 C 128.867188 364.566406 139.855469 365 151.855469 367.136719 C 167.796875 369.976562 182.097656 378.714844 192.265625 391.363281 C 196.863281 397.078125 200.917969 402.03125 201.246094 402.132812 C 214.605469 420.957031 216.410156 424.269531 226.066406 431.296875 C 242.1875 443.027344 270.398438 433.464844 270.398438 433.464844 C 279.796875 432.050781 283.207031 439.09375 284.921875 443.011719 C 286.980469 447.710938 284.988281 453.449219 283.171875 457.132812 C 282.011719 459.492188 280.03125 461.332031 277.605469 462.324219 C 265.507812 467.273438 224.363281 482.695312 205.496094 471.964844 C 189.769531 463.019531 179.207031 444.347656 170.785156 435.171875 C 169.933594 434.25 168.410156 434.933594 168.519531 436.183594 C 170.300781 456.792969 187.21875 481.257812 192.367188 488.28125 C 193.289062 489.535156 194.683594 490.347656 196.230469 490.527344 L 233.460938 494.78125 C 233.96875 494.820312 234.53125 495.03125 235.082031 495.328125 C 237.523438 496.640625 239.109375 499.132812 239.476562 501.886719 C 240.066406 506.289062 239.695312 514.539062 238.347656 517.199219 L 237.070312 519.71875 C 236.039062 521.753906 233.976562 523.050781 231.707031 523.089844 C 211.917969 523.410156 122.738281 523.441406 98.515625 523.304688 C 76.371094 523.175781 67.472656 512.214844 55.652344 481.214844 C 50.957031 468.894531 36.183594 417.542969 48.335938 390.6875 " fill-opacity="1" fill-rule="nonzero"/><path fill="#4f2b43" d="M 49.589844 391.253906 C 37.65625 417.640625 52.601562 469.339844 56.941406 480.722656 C 69.230469 512.953125 78.167969 521.808594 98.523438 521.925781 C 122.960938 522.066406 212.007812 522.03125 231.683594 521.707031 C 233.449219 521.679688 235.042969 520.679688 235.84375 519.101562 L 237.117188 516.578125 C 238.292969 514.261719 238.679688 506.3125 238.109375 502.070312 C 237.792969 499.675781 236.417969 497.609375 234.429688 496.546875 C 233.851562 496.234375 233.511719 496.167969 233.359375 496.15625 L 196.070312 491.894531 C 194.15625 491.679688 192.398438 490.65625 191.257812 489.09375 C 186.058594 482.003906 168.960938 457.25 167.144531 436.304688 C 167.042969 435.136719 167.671875 434.070312 168.746094 433.597656 C 169.808594 433.125 171.007812 433.378906 171.796875 434.242188 C 174.265625 436.929688 176.9375 440.445312 179.761719 444.167969 C 186.652344 453.242188 195.226562 464.535156 206.175781 470.765625 C 224.476562 481.175781 265.074219 465.960938 277.082031 461.046875 C 279.203125 460.183594 280.929688 458.570312 281.9375 456.527344 C 283.722656 452.898438 285.472656 447.703125 283.660156 443.5625 C 281.496094 438.625 278.269531 433.730469 270.71875 434.804688 C 268.402344 435.578125 241.386719 444.148438 225.253906 432.410156 C 216.410156 425.976562 214.003906 422.570312 203.890625 408.25 C 202.769531 406.664062 201.550781 404.9375 200.214844 403.058594 C 199.410156 402.324219 197.46875 400.03125 191.191406 392.222656 C 181.101562 379.671875 167.042969 371.246094 151.613281 368.496094 C 140.667969 366.542969 129.609375 365.890625 119.632812 366.613281 L 94.886719 367.585938 C 87.925781 367.855469 81.214844 369.246094 74.933594 371.710938 C 65.78125 375.300781 53.957031 381.601562 49.589844 391.253906 Z M 143.6875 524.757812 C 124.425781 524.757812 107.292969 524.730469 98.507812 524.679688 C 74.707031 524.546875 65.652344 511.316406 54.367188 481.699219 C 49.660156 469.359375 34.632812 417.636719 47.082031 390.121094 C 51.828125 379.625 64.300781 372.921875 73.925781 369.144531 C 80.496094 366.570312 87.511719 365.117188 94.777344 364.832031 L 119.476562 363.859375 C 129.636719 363.128906 140.933594 363.789062 152.097656 365.78125 C 168.183594 368.648438 182.832031 377.425781 193.339844 390.5 C 199.664062 398.363281 201.433594 400.390625 201.925781 400.902344 L 202.101562 400.949219 L 202.371094 401.335938 C 203.742188 403.269531 204.992188 405.035156 206.140625 406.664062 C 216.042969 420.683594 218.394531 424.011719 226.875 430.183594 C 242.238281 441.367188 269.679688 432.25 269.957031 432.15625 L 270.195312 432.101562 C 280.941406 430.484375 284.75 439.183594 286.183594 442.457031 C 288.421875 447.566406 286.453125 453.589844 284.410156 457.742188 C 283.101562 460.394531 280.871094 462.472656 278.125 463.597656 C 268.921875 467.359375 243.28125 477.027344 222.839844 477.027344 C 215.96875 477.027344 209.691406 475.9375 204.816406 473.164062 C 193.371094 466.652344 184.609375 455.109375 177.566406 445.832031 C 174.835938 442.234375 172.253906 438.832031 169.90625 436.257812 C 171.753906 456.460938 188.402344 480.546875 193.476562 487.464844 C 194.167969 488.410156 195.226562 489.027344 196.386719 489.15625 L 233.617188 493.417969 C 234.230469 493.457031 234.941406 493.691406 235.734375 494.117188 C 238.496094 495.601562 240.40625 498.4375 240.84375 501.703125 C 241.421875 506.046875 241.144531 514.722656 239.578125 517.824219 L 238.296875 520.339844 C 237.035156 522.835938 234.515625 524.417969 231.726562 524.464844 C 219.117188 524.671875 178.019531 524.757812 143.6875 524.757812 " fill-opacity="1" fill-rule="nonzero"/><path fill="#9333ea" d="M 248.011719 524.027344 L 291.230469 524.027344 L 291.230469 514.835938 C 291.230469 512.539062 289.367188 510.683594 287.078125 510.683594 L 252.167969 510.683594 C 249.871094 510.683594 248.011719 512.539062 248.011719 514.835938 L 248.011719 524.027344 " fill-opacity="1" fill-rule="nonzero"/><path fill="#4f2b43" d="M 249.46875 522.648438 L 289.773438 522.648438 C 289.089844 516.6875 284.03125 512.0625 277.910156 512.0625 L 261.332031 512.0625 C 255.203125 512.0625 250.140625 516.699219 249.46875 522.648438 Z M 291.230469 525.40625 L 248.011719 525.40625 C 247.25 525.40625 246.636719 524.789062 246.636719 524.027344 L 246.636719 524 C 246.636719 515.898438 253.226562 509.304688 261.332031 509.304688 L 277.910156 509.304688 C 286.015625 509.304688 292.605469 515.898438 292.605469 524 C 292.605469 524.761719 291.988281 525.40625 291.230469 525.40625 " fill-opacity="1" fill-rule="nonzero"/><path fill="#ffffff" d="M 229.304688 503.625 C 230.066406 502.125 231.351562 500.9375 232.929688 500.371094 C 234.0625 499.960938 235.175781 499.425781 236.234375 498.859375 L 250.941406 491.035156 C 253.695312 489.683594 257.632812 492.835938 260.496094 493.777344 C 269.125 496.621094 286.988281 503.316406 285.519531 509.605469 C 283.929688 516.390625 268.574219 513.175781 263.125 511.808594 C 261.878906 511.496094 250.597656 515.59375 247.03125 515.863281 C 242.101562 516.242188 240.964844 514.984375 238.554688 513.714844 C 237.457031 513.136719 236.230469 512.875 234.90625 512.863281 C 232.871094 512.851562 230.941406 512 229.667969 510.40625 L 229.640625 510.371094 C 228.238281 508.613281 227.992188 506.195312 229.015625 504.191406 L 229.304688 503.625 " fill-opacity="1" fill-rule="nonzero"/><path fill="#4f2b43" d="M 229.304688 503.625 L 229.3125 503.625 Z M 252.460938 492.082031 C 252.128906 492.082031 251.816406 492.140625 251.550781 492.273438 L 236.882812 500.074219 C 235.554688 500.785156 234.445312 501.289062 233.398438 501.667969 C 232.175781 502.109375 231.15625 503.027344 230.53125 504.253906 L 230.242188 504.820312 C 229.46875 506.339844 229.65625 508.179688 230.714844 509.511719 C 231.722656 510.769531 233.242188 511.476562 234.914062 511.484375 C 236.507812 511.496094 237.945312 511.835938 239.195312 512.492188 C 239.59375 512.703125 239.957031 512.910156 240.308594 513.117188 C 241.988281 514.078125 243.203125 514.773438 246.925781 514.492188 C 248.628906 514.359375 252.675781 513.15625 255.929688 512.1875 C 261.171875 510.625 262.609375 510.261719 263.457031 510.472656 C 272.535156 512.746094 279.730469 513.027344 282.714844 511.207031 C 283.507812 510.722656 283.988281 510.09375 284.175781 509.289062 C 285.003906 505.757812 275.539062 500.183594 260.0625 495.085938 C 259.109375 494.773438 258.125 494.273438 257.082031 493.75 C 255.511719 492.957031 253.769531 492.082031 252.460938 492.082031 Z M 245.410156 517.308594 C 242.078125 517.308594 240.546875 516.429688 238.9375 515.503906 C 238.613281 515.320312 238.277344 515.125 237.910156 514.933594 C 237.046875 514.472656 236.058594 514.25 234.894531 514.242188 C 232.386719 514.226562 230.089844 513.140625 228.59375 511.265625 C 226.828125 509.054688 226.523438 506.046875 227.789062 503.566406 L 228.078125 503 C 229.019531 501.144531 230.582031 499.753906 232.464844 499.074219 C 233.386719 498.742188 234.378906 498.289062 235.589844 497.644531 L 250.292969 489.820312 C 252.882812 488.550781 255.769531 490.007812 258.320312 491.289062 C 259.269531 491.769531 260.167969 492.21875 260.925781 492.46875 C 279.417969 498.5625 288.140625 504.429688 286.859375 509.917969 C 286.5 511.457031 285.585938 512.679688 284.148438 513.5625 C 279.175781 516.589844 268.746094 514.632812 262.890625 513.175781 C 262.128906 513.214844 259.132812 514.105469 256.714844 514.828125 C 252.988281 515.9375 249.128906 517.085938 247.132812 517.238281 C 246.507812 517.285156 245.9375 517.308594 245.410156 517.308594 " fill-opacity="1" fill-rule="nonzero"/><path fill="#ffffff" d="M 337.246094 444.953125 C 338.074219 443.953125 337.710938 442.421875 336.519531 441.898438 L 310.425781 430.460938 C 306.722656 428.839844 302.5625 428.679688 298.808594 430.050781 C 294.953125 431.457031 289.398438 433.3125 283.03125 434.921875 C 266.601562 439.089844 265.371094 460.785156 282.363281 452.429688 C 287.769531 449.773438 291.023438 447.761719 291.023438 447.761719 C 290.976562 447.773438 297.195312 456.121094 307.144531 452.355469 C 311.679688 450.644531 314.574219 448.589844 316.289062 447.058594 C 317.734375 445.761719 319.746094 445.285156 321.621094 445.769531 C 326.117188 446.949219 332.722656 450.414062 337.246094 444.953125 " fill-opacity="1" fill-rule="nonzero"/><path fill="#4f2b43" d="M 337.246094 444.953125 L 337.253906 444.953125 Z M 304.078125 430.496094 C 302.453125 430.496094 300.832031 430.78125 299.277344 431.34375 C 295.652344 432.667969 289.949219 434.59375 283.371094 436.261719 C 276.519531 438 272.578125 442.96875 271.710938 447.128906 C 271.242188 449.371094 271.679688 451.203125 272.910156 452.164062 C 274.605469 453.476562 277.832031 453.125 281.757812 451.195312 C 287.035156 448.605469 290.261719 446.613281 290.296875 446.589844 C 290.792969 446.28125 291.425781 446.324219 291.882812 446.6875 C 292.003906 446.789062 292.109375 446.902344 292.195312 447.035156 C 292.527344 447.480469 297.957031 454.359375 306.65625 451.066406 C 311.082031 449.394531 313.835938 447.40625 315.367188 446.03125 C 317.164062 444.425781 319.632812 443.828125 321.96875 444.441406 C 322.738281 444.640625 323.546875 444.898438 324.398438 445.167969 C 329.429688 446.78125 333.222656 447.644531 336.183594 444.074219 C 336.347656 443.882812 336.324219 443.671875 336.300781 443.566406 C 336.277344 443.457031 336.199219 443.261719 335.96875 443.164062 L 309.871094 431.722656 C 308.007812 430.90625 306.042969 430.496094 304.078125 430.496094 Z M 275.625 455.71875 C 273.589844 455.71875 272.179688 455.082031 271.222656 454.335938 C 269.128906 452.714844 268.324219 449.878906 269.015625 446.566406 C 270.058594 441.570312 274.691406 435.617188 282.695312 433.589844 C 289.160156 431.953125 294.769531 430.054688 298.335938 428.753906 C 302.433594 427.261719 306.921875 427.421875 310.980469 429.203125 L 337.070312 440.640625 C 338.042969 441.0625 338.738281 441.898438 338.980469 442.933594 C 339.226562 443.960938 338.980469 445.019531 338.304688 445.832031 C 333.925781 451.117188 327.933594 449.195312 323.558594 447.796875 C 322.738281 447.535156 321.96875 447.289062 321.269531 447.105469 C 319.832031 446.730469 318.316406 447.09375 317.210938 448.082031 C 315.503906 449.613281 312.453125 451.820312 307.632812 453.648438 C 300.214844 456.449219 294.699219 453.09375 292.070312 450.84375 C 291.488281 450.339844 291.042969 449.917969 290.703125 449.558594 C 289.324219 450.359375 286.65625 451.859375 282.972656 453.667969 C 279.910156 455.171875 277.503906 455.71875 275.625 455.71875 " fill-opacity="1" fill-rule="nonzero"/><path fill="#4f2b43" d="M 297.917969 445.800781 C 295.292969 445.800781 292.980469 444.140625 291.867188 442.90625 C 291.355469 442.339844 291.402344 441.46875 291.964844 440.960938 C 292.53125 440.449219 293.402344 440.496094 293.910156 441.058594 C 294.03125 441.191406 297.015625 444.378906 299.957031 442.378906 C 302.066406 440.945312 305.183594 439.742188 307.601562 440.6875 C 312.914062 442.757812 314.988281 441.742188 315.335938 441.171875 C 315.714844 440.445312 315.582031 440.054688 315.535156 439.933594 C 315.34375 439.375 314.625 438.785156 313.519531 438.273438 L 306.066406 435.226562 C 305.363281 434.941406 305.023438 434.136719 305.3125 433.429688 C 305.601562 432.726562 306.402344 432.390625 307.109375 432.675781 L 314.613281 435.746094 C 316.523438 436.625 317.691406 437.722656 318.140625 439.035156 C 318.511719 440.113281 318.394531 441.257812 317.78125 442.441406 C 317.609375 442.832031 315.546875 446.742188 306.601562 443.253906 C 305.464844 442.8125 303.371094 443.386719 301.507812 444.652344 C 300.300781 445.480469 299.078125 445.800781 297.917969 445.800781 " fill-opacity="1" fill-rule="nonzero"/><path fill="#4f2b43" d="M 196.230469 491.902344 C 196.167969 491.902344 196.105469 491.898438 196.046875 491.890625 C 193.800781 491.589844 190.960938 491.308594 187.671875 490.984375 C 173.269531 489.550781 151.5 487.394531 130.714844 479.222656 C 105.535156 469.316406 89.128906 453.160156 81.949219 431.191406 C 81.710938 430.464844 82.105469 429.683594 82.828125 429.449219 C 83.550781 429.214844 84.332031 429.609375 84.566406 430.328125 C 100.664062 479.585938 159.613281 485.433594 187.945312 488.238281 C 191.257812 488.570312 194.121094 488.851562 196.414062 489.160156 C 197.167969 489.261719 197.695312 489.957031 197.59375 490.710938 C 197.5 491.402344 196.910156 491.902344 196.230469 491.902344 " fill-opacity="1" fill-rule="nonzero"/><path fill="#ffffff" d="M 123.984375 358.121094 C 124.382812 356.714844 125.632812 355.722656 127.078125 355.664062 L 137.921875 355.304688 C 139.308594 355.246094 140.492188 354.265625 140.8125 352.898438 L 143.738281 340.503906 L 148.621094 338.28125 C 149.003906 338.109375 149.183594 337.660156 149.019531 337.269531 L 145.183594 328.019531 C 144.042969 324.617188 144.074219 317.320312 142.308594 317.28125 C 142.308594 317.28125 109.175781 302.816406 101.984375 319.359375 C 100.894531 321.859375 100.835938 324.695312 101.699219 327.28125 L 103.46875 332.558594 C 105.234375 337.835938 105.242188 343.644531 103.082031 348.789062 C 102.636719 349.859375 100.953125 353.335938 98.191406 357.511719 C 95.863281 361.03125 91 364.6875 87.5 367.03125 C 85.523438 368.359375 85.398438 371.234375 87.246094 372.730469 C 90.835938 375.632812 96.25 379.714844 100.15625 381.296875 C 109.378906 385.023438 114.027344 385.988281 118.734375 385.46875 C 123.316406 384.964844 125.910156 380.261719 124.332031 375.921875 C 121.046875 366.890625 123.984375 358.121094 123.984375 358.121094 " fill-opacity="1" fill-rule="nonzero"/><path fill="#4f2b43" d="M 123.984375 358.121094 L 123.992188 358.121094 Z M 117.191406 312.789062 C 109.984375 312.789062 105.304688 315.175781 103.246094 319.90625 C 102.3125 322.054688 102.230469 324.515625 103.007812 326.84375 L 104.773438 332.121094 C 106.71875 337.9375 106.570312 344.046875 104.351562 349.320312 C 103.808594 350.617188 102.0625 354.15625 99.339844 358.273438 C 96.910156 361.953125 91.976562 365.6875 88.269531 368.175781 C 87.695312 368.5625 87.347656 369.179688 87.316406 369.875 C 87.285156 370.570312 87.574219 371.226562 88.117188 371.65625 C 93.332031 375.882812 97.792969 378.855469 100.675781 380.015625 C 109.472656 383.578125 113.992188 384.605469 118.585938 384.097656 C 120.257812 383.914062 121.667969 383.03125 122.550781 381.609375 C 123.507812 380.074219 123.683594 378.167969 123.035156 376.390625 C 119.691406 367.195312 122.441406 358.398438 122.664062 357.714844 C 123.238281 355.746094 124.988281 354.371094 127.019531 354.285156 L 137.878906 353.925781 C 138.632812 353.894531 139.289062 353.34375 139.472656 352.578125 L 142.398438 340.1875 C 142.496094 339.773438 142.78125 339.425781 143.167969 339.25 L 147.527344 337.269531 L 143.910156 328.546875 C 143.898438 328.519531 143.886719 328.484375 143.875 328.457031 C 143.402344 327.046875 143.128906 325.128906 142.867188 323.273438 C 142.636719 321.675781 142.300781 319.300781 141.902344 318.597656 C 141.851562 318.582031 141.804688 318.566406 141.757812 318.546875 C 141.675781 318.507812 133.484375 314.964844 124.570312 313.46875 C 121.875 313.015625 119.414062 312.789062 117.191406 312.789062 Z M 116.378906 386.976562 C 112.070312 386.976562 107.402344 385.710938 99.640625 382.574219 C 95.632812 380.953125 90.21875 376.910156 86.382812 373.800781 C 85.15625 372.808594 84.492188 371.332031 84.5625 369.75 C 84.632812 368.167969 85.425781 366.765625 86.734375 365.886719 C 90.234375 363.539062 94.863281 360.050781 97.042969 356.757812 C 99.75 352.664062 101.402344 349.234375 101.8125 348.253906 C 103.769531 343.59375 103.894531 338.175781 102.160156 332.996094 L 100.394531 327.714844 C 99.398438 324.746094 99.515625 321.578125 100.71875 318.808594 C 102.203125 315.394531 104.796875 312.941406 108.421875 311.515625 C 120.46875 306.78125 140.316406 314.9375 142.660156 315.933594 C 144.648438 316.257812 145.066406 319.203125 145.59375 322.886719 C 145.835938 324.597656 146.089844 326.367188 146.472656 327.539062 L 150.292969 336.742188 C 150.742188 337.824219 150.257812 339.054688 149.195312 339.535156 L 144.925781 341.480469 L 142.152344 353.214844 C 141.691406 355.171875 139.976562 356.597656 137.980469 356.679688 L 127.121094 357.039062 C 126.28125 357.078125 125.546875 357.660156 125.308594 358.5 C 125.300781 358.519531 125.292969 358.539062 125.289062 358.558594 C 125.261719 358.644531 122.554688 367.007812 125.625 375.449219 C 126.5625 378.027344 126.296875 380.800781 124.890625 383.066406 C 123.574219 385.1875 121.382812 386.5625 118.886719 386.839844 C 118.050781 386.929688 117.222656 386.976562 116.378906 386.976562 " fill-opacity="1" fill-rule="nonzero"/><path fill="#4f2b43" d="M 151.515625 291.109375 C 143.742188 288.289062 151.261719 299.457031 124.554688 282.121094 C 113.917969 275.21875 115.761719 290.675781 113 288.894531 C 102.792969 282.304688 103.148438 282.523438 97.269531 282.339844 C 93.375 282.21875 89.046875 288.222656 88.246094 293.4375 C 87.1875 300.316406 93.339844 316.875 98.152344 329.558594 C 100.628906 336.09375 109.695312 339.421875 113.71875 331.738281 C 114.828125 329.617188 110.078125 322.886719 113.753906 320.132812 C 120.519531 315.070312 120.675781 325.59375 125.910156 324.148438 C 130.9375 322.75 133.203125 321.550781 138.886719 318.859375 C 145.761719 315.597656 152.488281 326 158.960938 315.910156 C 162.335938 310.648438 162.15625 294.976562 151.515625 291.109375 " fill-opacity="1" fill-rule="nonzero"/><path fill="#ffffff" d="M 149.988281 788.09375 L 87.730469 572.242188 L 25.472656 788.09375 L 10.546875 788.09375 L 78.953125 544.535156 L 96.5 544.507812 L 164.910156 788.09375 L 149.988281 788.09375 " fill-opacity="1" fill-rule="nonzero"/><path fill="#4f2b43" d="M 151.023438 786.714844 L 163.09375 786.714844 L 95.457031 545.886719 L 79.996094 545.90625 L 12.367188 786.714844 L 24.433594 786.714844 L 87.730469 567.273438 Z M 166.730469 789.472656 L 148.949219 789.472656 L 148.664062 788.476562 L 87.730469 577.214844 L 26.507812 789.472656 L 8.730469 789.472656 L 77.910156 543.15625 L 97.542969 543.128906 L 97.824219 544.136719 L 166.730469 789.472656 " fill-opacity="1" fill-rule="nonzero"/><path fill="#ffffff" d="M 10.410156 548.183594 L 586.835938 548.183594 L 586.835938 524.730469 L 10.410156 524.730469 L 10.410156 548.183594 " fill-opacity="1" fill-rule="nonzero"/><path fill="#4f2b43" d="M 11.785156 546.804688 L 585.453125 546.804688 L 585.453125 526.109375 L 11.785156 526.109375 Z M 588.207031 549.566406 L 9.03125 549.566406 L 9.03125 523.355469 L 588.207031 523.355469 L 588.207031 549.566406 " fill-opacity="1" fill-rule="nonzero"/><path fill="#9333ea" d="M 149.511719 544.050781 C 148.75 544.050781 148.132812 543.433594 148.132812 542.675781 L 148.132812 529.613281 C 148.132812 528.851562 148.75 528.234375 149.511719 528.234375 C 150.273438 528.234375 150.886719 528.851562 150.886719 529.613281 L 150.886719 542.675781 C 150.886719 543.433594 150.273438 544.050781 149.511719 544.050781 " fill-opacity="1" fill-rule="nonzero"/><path fill="#ffffff" d="M 467.464844 733.792969 L 470.804688 771.761719 L 434.988281 775.535156 L 446.113281 760.328125 C 449.078125 756.269531 450.09375 751.09375 448.882812 746.207031 L 445.839844 733.949219 L 467.464844 733.792969 " fill-opacity="1" fill-rule="nonzero"/><path fill="#4f2b43" d="M 447.597656 735.3125 L 450.21875 745.875 C 451.53125 751.175781 450.441406 756.738281 447.222656 761.144531 L 437.933594 773.839844 L 469.316406 770.535156 L 466.203125 735.179688 Z M 432.042969 777.230469 L 445 759.515625 C 447.734375 755.773438 448.660156 751.042969 447.542969 746.535156 L 444.085938 732.585938 L 468.726562 732.40625 L 472.292969 772.992188 L 432.042969 777.230469 " fill-opacity="1" fill-rule="nonzero"/><path fill="#9333ea" d="M 473.28125 765.269531 L 476.269531 780.890625 C 476.269531 780.890625 476.6875 786.597656 470.878906 787.59375 C 463.320312 788.890625 433.929688 792.921875 413.101562 789.140625 C 408.324219 788.273438 406.175781 785.273438 405.78125 783.707031 C 404.679688 779.382812 407.449219 773.179688 416.164062 769.957031 C 431.714844 764.203125 437.644531 762.324219 445.210938 757.191406 C 446.890625 756.054688 449.425781 757.265625 450.574219 758.785156 C 450.574219 758.785156 453.316406 762.792969 453.273438 767.011719 C 453.257812 768.523438 454.828125 769.539062 456.21875 768.941406 L 469.476562 763.242188 C 471.101562 762.542969 472.949219 763.527344 473.28125 765.269531 " fill-opacity="1" fill-rule="nonzero"/><path fill="#4f2b43" d="M 446.753906 758.121094 C 446.464844 758.121094 446.199219 758.1875 445.980469 758.335938 C 439.132812 762.980469 433.625 765.003906 421.558594 769.4375 C 420.03125 770 418.398438 770.601562 416.644531 771.25 C 408.726562 774.179688 406.152344 779.585938 407.113281 783.363281 C 407.34375 784.261719 408.972656 786.988281 413.347656 787.78125 C 431.898438 791.152344 458.941406 788.246094 470.644531 786.234375 C 474.914062 785.5 474.925781 781.644531 474.898438 781.054688 L 471.929688 765.527344 C 471.847656 765.109375 471.589844 764.753906 471.214844 764.558594 C 470.84375 764.355469 470.410156 764.339844 470.023438 764.507812 L 456.757812 770.207031 C 455.671875 770.675781 454.429688 770.5625 453.441406 769.902344 C 452.460938 769.253906 451.886719 768.167969 451.894531 767 C 451.933594 763.28125 449.460938 759.597656 449.433594 759.558594 C 448.839844 758.777344 447.675781 758.121094 446.753906 758.121094 Z M 433.734375 792.113281 C 426.625 792.113281 419.382812 791.679688 412.855469 790.496094 C 407.238281 789.472656 404.894531 785.832031 404.441406 784.042969 C 403.1875 779.105469 406.171875 772.183594 415.691406 768.667969 C 417.441406 768.015625 419.082031 767.410156 420.605469 766.851562 C 432.457031 762.5 437.863281 760.511719 444.4375 756.054688 C 446.730469 754.496094 450.027344 755.78125 451.671875 757.953125 C 451.832031 758.1875 454.695312 762.429688 454.648438 767.023438 C 454.648438 767.347656 454.851562 767.535156 454.96875 767.613281 C 455.066406 767.679688 455.339844 767.820312 455.671875 767.679688 L 468.929688 761.972656 C 470.089844 761.476562 471.390625 761.53125 472.507812 762.125 C 473.621094 762.714844 474.398438 763.765625 474.636719 765.011719 L 477.644531 780.785156 C 477.820312 783.195312 476.683594 787.992188 471.109375 788.953125 C 470.097656 789.128906 452.402344 792.113281 433.734375 792.113281 " fill-opacity="1" fill-rule="nonzero"/><path fill="#4f2b43" d="M 434.34375 786.488281 C 428.074219 786.488281 421.421875 786.15625 414.792969 785.265625 C 414.039062 785.164062 413.511719 784.46875 413.613281 783.714844 C 413.714844 782.960938 414.402344 782.429688 415.160156 782.535156 C 441.238281 786.046875 467.894531 780.773438 468.160156 780.71875 C 468.90625 780.574219 469.632812 781.050781 469.785156 781.796875 C 469.9375 782.542969 469.453125 783.269531 468.707031 783.417969 C 468.503906 783.460938 453.1875 786.488281 434.34375 786.488281 " fill-opacity="1" fill-rule="nonzero"/><path fill="#ffffff" d="M 545.109375 722.011719 C 545.859375 731.550781 550.46875 742.585938 554.257812 748.226562 L 537.453125 760.972656 L 524.738281 748.378906 C 527.710938 744.320312 530.367188 734.804688 526.363281 722.261719 L 545.109375 722.011719 " fill-opacity="1" fill-rule="nonzero"/><path fill="#4f2b43" d="M 526.515625 748.199219 L 537.574219 759.152344 L 552.40625 747.902344 C 548.699219 741.929688 544.832031 732.148438 543.859375 723.40625 L 528.207031 723.613281 C 531.285156 734.707031 529.394531 743.476562 526.515625 748.199219 Z M 537.335938 762.792969 L 522.925781 748.527344 L 523.628906 747.566406 C 526.050781 744.257812 529.074219 735.292969 525.050781 722.679688 L 524.484375 720.910156 L 546.378906 720.617188 L 546.484375 721.90625 C 547.191406 730.941406 551.605469 741.8125 555.398438 747.457031 L 556.125 748.539062 L 537.335938 762.792969 " fill-opacity="1" fill-rule="nonzero"/><path fill="#9333ea" d="M 554.835938 744.625 L 561.785156 756.929688 C 561.785156 756.929688 564.277344 762.230469 559.089844 765.328125 C 554.203125 768.246094 538.332031 777.449219 522.398438 783.359375 C 516.367188 785.597656 498.824219 786.773438 494.691406 781.378906 C 491.921875 777.757812 492.984375 773.042969 500.238281 769.15625 C 516.441406 760.476562 520.210938 747.023438 522.542969 743.878906 C 526.101562 739.074219 532.179688 747.46875 533.824219 753.875 C 534.21875 755.410156 536.054688 756.019531 537.277344 755.019531 L 550.9375 743.886719 C 552.1875 742.875 554.042969 743.222656 554.835938 744.625 " fill-opacity="1" fill-rule="nonzero"/><path fill="#4f2b43" d="M 525.011719 743.832031 C 524.628906 743.832031 524.167969 744 523.644531 744.695312 C 523.25 745.234375 522.742188 746.246094 522.097656 747.523438 C 519.34375 753.015625 514.214844 763.230469 500.886719 770.371094 C 497.355469 772.261719 495.234375 774.425781 494.765625 776.613281 C 494.46875 777.953125 494.8125 779.277344 495.785156 780.542969 C 499.242188 785.054688 515.847656 784.316406 521.917969 782.070312 C 537.289062 776.367188 552.539062 767.632812 558.382812 764.144531 C 562.226562 761.847656 560.8125 758.152344 560.554688 757.554688 L 553.628906 745.300781 C 553.390625 744.871094 553.007812 744.742188 552.796875 744.703125 C 552.585938 744.660156 552.1875 744.644531 551.808594 744.953125 L 538.148438 756.089844 C 537.210938 756.855469 535.964844 757.089844 534.816406 756.710938 C 533.664062 756.332031 532.792969 755.402344 532.488281 754.21875 C 531.265625 749.460938 527.707031 744.332031 525.316406 743.867188 C 525.21875 743.84375 525.121094 743.832031 525.011719 743.832031 Z M 508.710938 786.636719 C 502.410156 786.636719 496.113281 785.5 493.601562 782.21875 C 492.136719 780.308594 491.609375 778.171875 492.066406 776.035156 C 492.714844 773.027344 495.316406 770.230469 499.585938 767.941406 C 512.140625 761.214844 517.019531 751.503906 519.636719 746.289062 C 520.339844 744.890625 520.894531 743.789062 521.433594 743.058594 C 522.585938 741.503906 524.152344 740.828125 525.839844 741.160156 C 530.054688 741.980469 533.960938 748.875 535.152344 753.53125 C 535.253906 753.917969 535.550781 754.050781 535.679688 754.09375 C 535.828125 754.140625 536.117188 754.1875 536.40625 753.957031 L 550.074219 742.820312 C 550.976562 742.078125 552.148438 741.777344 553.304688 741.996094 C 554.460938 742.210938 555.449219 742.925781 556.023438 743.945312 L 563.03125 756.347656 C 564.078125 758.570312 564.746094 763.554688 559.796875 766.507812 C 553.886719 770.035156 538.460938 778.871094 522.878906 784.652344 C 519.96875 785.726562 514.34375 786.636719 508.710938 786.636719 " fill-opacity="1" fill-rule="nonzero"/><path fill="#4f2b43" d="M 507.679688 779.753906 C 505.707031 779.753906 503.816406 779.605469 502.183594 779.253906 C 501.4375 779.097656 500.960938 778.363281 501.121094 777.621094 C 501.28125 776.875 502.015625 776.40625 502.757812 776.558594 C 507.042969 777.476562 513.863281 776.828125 518.394531 775.714844 C 538.699219 770.734375 553.90625 758.050781 554.058594 757.925781 C 554.640625 757.433594 555.511719 757.507812 556.003906 758.089844 C 556.492188 758.667969 556.417969 759.539062 555.839844 760.03125 C 555.199219 760.570312 540.003906 773.25 519.054688 778.390625 C 515.925781 779.15625 511.640625 779.753906 507.679688 779.753906 " fill-opacity="1" fill-rule="nonzero"/><path fill="#ffffff" d="M 487.011719 601.355469 C 484.296875 631.082031 509.058594 700.023438 518.203125 722.1875 C 519.226562 724.675781 521.496094 726.566406 524.402344 726.566406 L 545.480469 726.566406 C 549.046875 726.566406 551.933594 723.882812 551.898438 720.59375 C 551.660156 697.222656 541.054688 631.273438 556.738281 606.738281 C 565.816406 592.539062 592.792969 598.53125 603.917969 591.769531 C 630.605469 575.550781 620.558594 522.71875 620.558594 522.71875 C 620.558594 522.71875 490.796875 559.914062 487.011719 601.355469 " fill-opacity="1" fill-rule="nonzero"/><path fill="#4f2b43" d="M 488.382812 601.480469 C 485.851562 629.214844 508.234375 694.425781 519.476562 721.664062 C 520.175781 723.367188 521.835938 725.183594 524.398438 725.183594 L 545.480469 725.183594 C 546.914062 725.183594 548.285156 724.628906 549.242188 723.664062 C 550.074219 722.820312 550.53125 721.738281 550.519531 720.609375 C 550.464844 715.210938 549.847656 707.472656 549.136719 698.511719 C 546.808594 669.320312 543.296875 625.210938 555.578125 606 C 561.433594 596.835938 574.101562 595.582031 585.277344 594.472656 C 592.375 593.765625 599.078125 593.101562 603.195312 590.597656 C 626.289062 576.558594 620.804688 533.136719 619.453125 524.480469 C 605.089844 528.773438 491.828125 563.800781 488.382812 601.480469 Z M 545.480469 727.941406 L 524.398438 727.941406 C 521.121094 727.941406 518.261719 725.9375 516.925781 722.71875 C 507.921875 700.898438 482.855469 631.742188 485.640625 601.230469 C 489.464844 559.332031 614.84375 522.925781 620.175781 521.398438 L 621.632812 520.980469 L 621.90625 522.464844 C 622.328125 524.65625 631.824219 576.421875 604.628906 592.949219 C 599.96875 595.78125 592.96875 596.476562 585.546875 597.210938 C 574.480469 598.308594 563.035156 599.445312 557.898438 607.480469 C 546.117188 625.914062 549.585938 669.472656 551.882812 698.296875 C 552.597656 707.308594 553.21875 715.089844 553.273438 720.582031 C 553.292969 722.449219 552.554688 724.234375 551.203125 725.601562 C 549.730469 727.089844 547.644531 727.941406 545.480469 727.941406 " fill-opacity="1" fill-rule="nonzero"/><path fill="#ffffff" d="M 529.824219 528.339844 C 529.824219 528.339844 441.820312 529.070312 414.066406 559.792969 C 389.125 587.402344 426.101562 712.625 433.839844 736.953125 C 434.644531 739.472656 437.148438 741.199219 440 741.199219 L 473.066406 741.199219 C 473.757812 741.199219 474.324219 740.679688 474.324219 740.035156 L 469.066406 692.429688 C 463.425781 629.238281 470.296875 615.878906 470.296875 615.878906 C 475.867188 598.007812 523.503906 598.769531 549.40625 598.949219 C 631.652344 599.515625 607.488281 527.285156 607.488281 527.285156 L 529.824219 528.339844 " fill-opacity="1" fill-rule="nonzero"/><path fill="#4f2b43" d="M 529.820312 528.34375 L 529.824219 528.34375 Z M 529.824219 529.71875 C 528.957031 529.726562 442.109375 530.796875 415.085938 560.714844 C 404.972656 571.914062 404.269531 602.5625 413.050781 649.351562 C 420.929688 691.359375 433.71875 732.035156 435.15625 736.535156 C 435.765625 738.472656 437.753906 739.820312 439.996094 739.820312 L 472.90625 739.820312 L 467.6875 692.578125 C 462.292969 632.082031 468.289062 616.9375 469.007812 615.375 C 474.878906 597.035156 520.398438 597.363281 547.609375 597.558594 L 549.410156 597.570312 C 574.238281 597.75 591.699219 591.214844 601.171875 578.152344 C 614.457031 559.84375 607.984375 533.949219 606.46875 528.679688 Z M 473.058594 742.578125 L 439.996094 742.578125 C 436.519531 742.578125 433.511719 740.488281 432.523438 737.371094 C 431.089844 732.851562 418.257812 692.023438 410.339844 649.855469 C 401.261719 601.507812 402.171875 570.898438 413.035156 558.871094 C 440.875 528.054688 526.1875 526.992188 529.808594 526.964844 L 608.472656 525.898438 L 608.789062 526.851562 C 609.210938 528.121094 619.027344 558.226562 603.410156 579.761719 C 593.382812 593.589844 575.1875 600.5 549.390625 600.332031 L 547.585938 600.316406 C 522.824219 600.136719 476.742188 599.800781 471.613281 616.292969 L 471.519531 616.511719 C 471.457031 616.636719 464.941406 630.746094 470.429688 692.308594 L 475.699219 740.035156 C 475.699219 741.4375 474.511719 742.578125 473.058594 742.578125 " fill-opacity="1" fill-rule="nonzero"/><path fill="#ffffff" d="M 468.324219 472.917969 C 467.769531 472.769531 455.238281 473.386719 454.054688 472.988281 C 448.140625 470.980469 435.6875 466.460938 429.828125 466.421875 C 423.21875 466.378906 416.941406 465.285156 413.144531 464.476562 C 410.855469 463.988281 409.210938 464.914062 408.777344 466.398438 C 408.398438 467.707031 408.804688 470.722656 412.195312 471.492188 C 416.117188 472.382812 420.023438 473.371094 423.367188 474.164062 C 424.421875 474.414062 425.503906 474.449219 424.511719 474.800781 C 422.203125 475.613281 419.699219 476.917969 419.535156 478.789062 C 419.234375 482.304688 427.921875 490.3125 437.472656 490.894531 C 445.660156 491.398438 447.921875 487.367188 451.054688 486.777344 C 451.570312 486.683594 465.207031 487.015625 465.804688 486.890625 C 471.980469 485.609375 471.648438 473.78125 468.324219 472.917969 " fill-opacity="1" fill-rule="nonzero"/><path fill="#4f2b43" d="M 411.96875 465.726562 C 411.003906 465.726562 410.296875 466.109375 410.101562 466.785156 C 409.988281 467.171875 409.984375 468.015625 410.433594 468.777344 C 410.84375 469.46875 411.535156 469.933594 412.5 470.148438 C 414.976562 470.710938 417.441406 471.3125 419.769531 471.878906 C 421.132812 472.207031 422.445312 472.53125 423.683594 472.820312 C 423.90625 472.875 424.136719 472.917969 424.339844 472.953125 C 425.074219 473.097656 426.1875 473.304688 426.273438 474.464844 C 426.316406 474.984375 426.121094 475.695312 424.964844 476.101562 C 422.066406 477.121094 420.96875 478.21875 420.910156 478.90625 C 420.871094 479.402344 421.285156 480.515625 422.601562 482.046875 C 425.484375 485.382812 431.390625 489.144531 437.554688 489.519531 C 442.636719 489.832031 445.109375 488.332031 447.296875 487.011719 C 448.445312 486.320312 449.523438 485.664062 450.796875 485.421875 C 451.109375 485.363281 451.785156 485.359375 457.808594 485.457031 C 460.816406 485.507812 464.917969 485.570312 465.585938 485.527344 C 468.210938 484.941406 469.222656 481.609375 469.292969 478.925781 C 469.359375 476.214844 468.542969 474.523438 468.039062 474.277344 C 467.507812 474.253906 465.574219 474.3125 463.863281 474.359375 C 457.015625 474.550781 454.433594 474.570312 453.613281 474.292969 C 452.984375 474.078125 452.28125 473.839844 451.523438 473.574219 C 445.28125 471.429688 434.832031 467.832031 429.820312 467.796875 C 423.273438 467.757812 416.980469 466.703125 412.855469 465.824219 C 412.542969 465.757812 412.242188 465.726562 411.96875 465.726562 Z M 438.84375 492.316406 C 438.375 492.316406 437.890625 492.304688 437.382812 492.269531 C 430.386719 491.839844 423.871094 487.730469 420.519531 483.847656 C 419.355469 482.5 418.007812 480.515625 418.164062 478.671875 C 418.285156 477.269531 419.191406 476.035156 420.863281 474.980469 C 420.292969 474.84375 419.710938 474.699219 419.121094 474.554688 C 416.804688 473.992188 414.351562 473.394531 411.894531 472.835938 C 409.730469 472.34375 408.613281 471.121094 408.058594 470.179688 C 407.164062 468.652344 407.171875 466.984375 407.453125 466.015625 C 408.125 463.710938 410.585938 462.527344 413.429688 463.132812 C 417.433594 463.980469 423.523438 465.003906 429.835938 465.042969 C 435.300781 465.082031 445.601562 468.625 452.421875 470.96875 C 453.175781 471.230469 453.871094 471.472656 454.496094 471.683594 C 455.28125 471.84375 460.816406 471.6875 463.785156 471.605469 C 467.960938 471.488281 468.324219 471.492188 468.667969 471.582031 C 471.117188 472.21875 472.128906 475.761719 472.046875 478.992188 C 471.953125 482.710938 470.335938 487.359375 466.085938 488.238281 C 465.710938 488.320312 464.695312 488.320312 457.765625 488.210938 C 455.109375 488.171875 451.816406 488.121094 451.246094 488.144531 C 450.484375 488.300781 449.703125 488.773438 448.722656 489.371094 C 446.636719 490.628906 443.84375 492.316406 438.84375 492.316406 " fill-opacity="1" fill-rule="nonzero"/><path fill="#4f2b43" d="M 535.03125 397.097656 C 517.683594 410.691406 512.011719 450.046875 500.914062 458.933594 C 491.285156 466.636719 456.816406 469.085938 456.816406 469.085938 L 456.554688 491.171875 L 486.640625 492.34375 C 504.738281 493.027344 522.066406 485.679688 528.480469 479.664062 C 549.792969 459.636719 594.109375 417.285156 605.289062 389.027344 L 574.175781 385.765625 C 574.175781 385.765625 554.257812 382.027344 535.03125 397.097656 " fill-opacity="1" fill-rule="nonzero"/><path fill="#4f2b43" d="M 538.742188 466.050781 C 538.742188 466.050781 536.996094 474.125 540.242188 484.035156 C 544.269531 496.363281 541.417969 509.96875 532.140625 519.046875 C 528.246094 522.859375 523.894531 526.234375 519.367188 528.171875 C 519.367188 528.171875 521.546875 541.683594 542.042969 543.585938 C 550.378906 544.355469 572.394531 546.210938 588.839844 546.0625 C 611.296875 545.855469 628.03125 542.511719 628.03125 542.511719 L 631.230469 438.542969 C 631.230469 438.542969 634.535156 394.894531 604.425781 388.949219 L 561.035156 386.238281 L 538.742188 466.050781 " fill-opacity="1" fill-rule="nonzero"/><path fill="#bec4ed" d="M 535.976562 475.792969 C 535.636719 475.792969 535.304688 475.671875 535.042969 475.425781 C 534.480469 474.910156 534.445312 474.039062 534.960938 473.480469 C 544.359375 463.296875 551.660156 452.609375 556.066406 442.578125 C 556.371094 441.882812 557.183594 441.566406 557.875 441.871094 C 558.578125 442.179688 558.894531 442.996094 558.585938 443.6875 C 554.058594 453.996094 546.589844 464.941406 536.984375 475.34375 C 536.710938 475.640625 536.34375 475.792969 535.976562 475.792969 " fill-opacity="1" fill-rule="nonzero"/><path fill="#4f2b43" d="M 536.34375 336.898438 C 536.34375 336.898438 525.417969 337.230469 526.945312 317.824219 C 528.480469 298.289062 549.859375 299.464844 557.238281 296.882812 C 564.609375 294.292969 576.800781 278.535156 581.5 274.332031 C 586.191406 270.128906 600.65625 252.640625 630.527344 269.230469 C 630.527344 269.230469 635.789062 274.179688 655.953125 268.765625 C 673.496094 264.054688 706.726562 268.613281 700.460938 294.355469 C 698.660156 301.777344 694.171875 308.054688 688.097656 312.132812 C 687 312.878906 685.78125 313.617188 684.441406 314.339844 C 680.570312 316.429688 678.007812 320.464844 677.746094 325.113281 C 676.914062 340.242188 669.105469 370.582031 617.242188 351.074219 C 613.332031 349.601562 609.078125 350.109375 605.695312 352.394531 C 601.53125 355.203125 597.972656 363.761719 575.691406 364.539062 C 561.382812 365.039062 554.296875 350.515625 549.402344 344.214844 C 543.660156 336.820312 536.34375 336.898438 536.34375 336.898438 " fill-opacity="1" fill-rule="nonzero"/><path fill="#ffffff" d="M 539.542969 336.90625 C 539.542969 336.90625 539.507812 340.378906 539.460938 341.90625 C 539.421875 343.355469 539.871094 348.015625 537.292969 353.613281 C 537.042969 354.148438 537.257812 354.789062 537.75 355.105469 L 541.589844 357.515625 C 541.851562 357.683594 542.035156 357.949219 542.09375 358.257812 C 542.441406 360.167969 543.746094 367.179688 544.207031 368.449219 C 544.738281 369.921875 546.183594 371.054688 546.835938 371.277344 C 548.5625 371.863281 555.246094 369.777344 555.246094 369.777344 C 555.246094 369.777344 554.261719 368.519531 559.582031 377.71875 C 563.328125 384.1875 555.324219 394.789062 555.324219 394.789062 C 555.324219 394.789062 585.484375 406.960938 602.390625 392.402344 C 603.4375 391.5 602.976562 389.617188 601.636719 389.28125 C 585.648438 385.328125 583.53125 377.28125 577.230469 364.78125 C 576.9375 364.191406 576.230469 363.921875 575.570312 363.863281 C 572.878906 363.621094 565.816406 363.886719 563.429688 352.574219 C 563.367188 352.285156 563.386719 351.976562 563.46875 351.695312 C 564.226562 349.34375 567.441406 337.886719 557.113281 342.710938 C 550.300781 345.898438 546.449219 341.390625 545.058594 339.195312 C 544.605469 338.476562 543.882812 337.972656 543.046875 337.769531 L 539.542969 336.90625 " fill-opacity="1" fill-rule="nonzero"/><path fill="#4f2b43" d="M 540.859375 358.675781 L 540.867188 358.675781 Z M 557.46875 394.101562 C 563.875 396.308594 587.621094 403.308594 601.5 391.347656 C 601.632812 391.230469 601.582031 391.003906 601.578125 390.953125 C 601.542969 390.820312 601.457031 390.65625 601.308594 390.621094 C 586.5 386.949219 582.933594 379.605469 578 369.445312 C 577.367188 368.152344 576.714844 366.804688 576.007812 365.402344 C 575.980469 365.367188 575.785156 365.257812 575.453125 365.230469 C 575.289062 365.214844 575.105469 365.203125 574.910156 365.191406 C 571.804688 364.96875 564.539062 364.464844 562.082031 352.851562 C 561.972656 352.328125 562 351.78125 562.164062 351.273438 C 563.378906 347.46875 563.5 344.167969 562.457031 343.25 C 561.738281 342.625 560.007812 342.878906 557.703125 343.953125 C 549.644531 347.722656 545.097656 341.824219 543.898438 339.925781 C 543.644531 339.527344 543.214844 339.222656 542.722656 339.105469 L 540.898438 338.652344 C 540.890625 339.757812 540.867188 341.128906 540.839844 341.9375 C 540.839844 342.113281 540.839844 342.335938 540.84375 342.601562 C 540.871094 344.667969 540.925781 348.929688 538.628906 354.019531 L 542.328125 356.347656 C 542.914062 356.714844 543.324219 357.320312 543.449219 358.003906 C 544.425781 363.304688 545.234375 367.222656 545.507812 367.980469 C 545.890625 369.035156 547.003906 369.863281 547.285156 369.96875 C 547.992188 370.179688 551.226562 369.550781 554.375 368.605469 C 554.386719 368.59375 554.398438 368.585938 554.414062 368.578125 C 555.011719 368.167969 555.890625 368.355469 556.332031 368.929688 C 556.492188 369.125 556.585938 369.363281 556.617188 369.609375 C 556.910156 370.207031 557.84375 371.957031 560.777344 377.023438 C 564.070312 382.714844 559.628906 390.773438 557.46875 394.101562 Z M 580.074219 400.972656 C 567.210938 400.972656 555.589844 396.375 554.808594 396.066406 C 554.414062 395.90625 554.117188 395.566406 554 395.15625 C 553.886719 394.746094 553.972656 394.300781 554.230469 393.953125 C 556.296875 391.207031 561.085938 383.050781 558.394531 378.402344 C 556.613281 375.324219 555.34375 373.078125 554.617188 371.730469 C 554.566406 371.636719 554.515625 371.539062 554.46875 371.453125 C 551.988281 372.167969 548.035156 373.132812 546.398438 372.578125 C 545.40625 372.242188 543.613281 370.84375 542.914062 368.914062 C 542.460938 367.65625 541.382812 361.976562 540.761719 358.617188 L 537.023438 356.265625 C 535.929688 355.585938 535.511719 354.191406 536.042969 353.03125 C 538.164062 348.433594 538.113281 344.515625 538.085938 342.632812 C 538.085938 342.320312 538.082031 342.066406 538.085938 341.863281 C 538.128906 340.34375 538.171875 336.886719 538.171875 336.886719 C 538.175781 336.464844 538.371094 336.070312 538.703125 335.8125 C 539.03125 335.558594 539.46875 335.464844 539.875 335.566406 L 543.382812 336.429688 C 544.578125 336.722656 545.582031 337.441406 546.226562 338.453125 C 547.65625 340.707031 550.894531 344.097656 556.535156 341.460938 C 560.027344 339.828125 562.632812 339.738281 564.277344 341.1875 C 566.996094 343.574219 565.765625 349.054688 564.785156 352.113281 C 564.773438 352.167969 564.773438 352.226562 564.78125 352.285156 C 566.800781 361.863281 572.203125 362.238281 575.105469 362.441406 C 575.320312 362.453125 575.515625 362.472656 575.695312 362.484375 C 576.976562 362.597656 577.988281 363.207031 578.46875 364.160156 C 579.183594 365.574219 579.847656 366.9375 580.476562 368.242188 C 585.425781 378.433594 588.414062 384.589844 601.972656 387.941406 C 603.097656 388.222656 603.972656 389.132812 604.257812 390.3125 C 604.535156 391.488281 604.167969 392.6875 603.296875 393.4375 C 596.628906 399.179688 588.113281 400.972656 580.074219 400.972656 " fill-opacity="1" fill-rule="nonzero"/><path fill="#4f2b43" d="M 559.054688 352.199219 Z M 560.066406 354.988281 C 558.640625 354.988281 557.230469 354.464844 556.730469 353.679688 C 556.320312 353.039062 556.511719 352.183594 557.15625 351.777344 C 557.730469 351.414062 558.460938 351.523438 558.90625 352.003906 C 559.171875 352.144531 560.089844 352.410156 560.941406 352.085938 C 561.71875 351.789062 562.265625 351.035156 562.5625 349.851562 C 562.753906 349.113281 563.5 348.664062 564.238281 348.847656 C 564.976562 349.035156 565.421875 349.789062 565.238281 350.527344 C 564.386719 353.890625 562.167969 354.726562 560.917969 354.925781 C 560.640625 354.972656 560.351562 354.988281 560.066406 354.988281 " fill-opacity="1" fill-rule="nonzero"/><path fill="#4f2b43" d="M 536.402344 354.222656 C 534.886719 354.222656 533.542969 353.726562 532.460938 352.753906 C 528.890625 349.535156 529.253906 342.265625 529.304688 341.449219 C 529.351562 340.734375 529.9375 340.171875 530.652344 340.15625 L 556.167969 339.625 C 556.921875 339.601562 557.5625 340.210938 557.578125 340.972656 C 557.59375 341.734375 556.988281 342.363281 556.226562 342.378906 L 532.03125 342.886719 C 532.0625 345.234375 532.5 349.085938 534.300781 350.707031 C 535.050781 351.378906 536.003906 351.605469 537.21875 351.398438 C 537.96875 351.265625 538.675781 351.769531 538.808594 352.527344 C 538.941406 353.269531 538.433594 353.980469 537.679688 354.109375 C 537.246094 354.1875 536.816406 354.222656 536.402344 354.222656 " fill-opacity="1" fill-rule="nonzero"/><path fill="#9333ea" d="M 558.78125 358.214844 C 558.679688 357.171875 559.429688 356.246094 560.457031 356.152344 C 561.484375 356.050781 562.402344 356.816406 562.503906 357.859375 C 562.609375 358.90625 561.863281 359.828125 560.828125 359.925781 C 559.800781 360.019531 558.886719 359.253906 558.78125 358.214844 " fill-opacity="1" fill-rule="nonzero"/><path fill="#9333ea" d="M 572.503906 445.542969 L 572.503906 470.414062 C 572.503906 506.050781 544.476562 534.941406 509.898438 534.941406 L 509.894531 534.941406 C 475.316406 534.941406 447.292969 563.832031 447.292969 599.46875 C 447.292969 602.644531 449.847656 605.21875 453.011719 605.21875 L 618.742188 605.21875 C 670.578125 605.21875 712.601562 561.90625 712.601562 508.484375 L 712.601562 442.300781 C 712.601562 421.050781 695.886719 403.828125 675.269531 403.828125 L 612.980469 403.828125 C 590.628906 403.828125 572.503906 422.503906 572.503906 445.542969 " fill-opacity="1" fill-rule="nonzero"/><path fill="#bec4ed" d="M 485.097656 581.269531 C 484.824219 581.269531 484.546875 581.191406 484.304688 581.019531 C 483.691406 580.582031 483.535156 579.722656 483.972656 579.101562 C 492.753906 566.589844 506.769531 559.421875 525.632812 557.785156 C 536.816406 556.820312 547.65625 553.835938 555.363281 549.597656 C 574.6875 538.972656 600.375 520.164062 600.375 479.585938 L 600.375 474.902344 C 600.375 433.886719 614.542969 431.808594 637.660156 431.808594 C 638.417969 431.808594 639.039062 432.421875 639.039062 433.183594 C 639.039062 433.945312 638.417969 434.5625 637.660156 434.5625 C 614.972656 434.5625 603.128906 436.359375 603.128906 474.902344 L 603.128906 479.585938 C 603.128906 521.625 576.625 541.054688 556.691406 552.011719 C 548.652344 556.429688 537.425781 559.53125 525.867188 560.53125 C 507.601562 562.113281 494.636719 568.703125 486.222656 580.683594 C 485.957031 581.066406 485.535156 581.269531 485.097656 581.269531 " fill-opacity="1" fill-rule="nonzero"/><path fill="#9333ea" d="M 597.851562 789.167969 L 580.410156 789.167969 L 580.410156 600.074219 L 597.851562 600.074219 L 597.851562 789.167969 " fill-opacity="1" fill-rule="nonzero"/><path fill="#9333ea" d="M 507.375 786.359375 L 584.574219 779.554688 L 591.652344 779.554688 L 670.460938 786.359375 L 670.460938 791.757812 L 507.375 791.757812 L 507.375 786.359375 " fill-opacity="1" fill-rule="nonzero"/><path fill="#4f2b43" d="M 383.355469 83.292969 C 382.996094 83.292969 382.640625 83.152344 382.371094 82.878906 L 379.738281 80.207031 C 379.203125 79.660156 379.210938 78.789062 379.753906 78.257812 C 380.296875 77.722656 381.167969 77.726562 381.699219 78.273438 L 384.332031 80.945312 C 384.867188 81.488281 384.863281 82.363281 384.324219 82.894531 C 384.050781 83.164062 383.699219 83.292969 383.355469 83.292969 " fill-opacity="1" fill-rule="nonzero"/><path fill="#4f2b43" d="M 395.976562 96.109375 C 395.617188 96.109375 395.261719 95.972656 394.992188 95.695312 L 392.355469 93.023438 C 391.820312 92.480469 391.832031 91.605469 392.371094 91.074219 C 392.914062 90.539062 393.785156 90.542969 394.320312 91.089844 L 396.957031 93.769531 C 397.492188 94.304688 397.480469 95.179688 396.9375 95.714844 C 396.671875 95.976562 396.320312 96.109375 395.976562 96.109375 " fill-opacity="1" fill-rule="nonzero"/><path fill="#4f2b43" d="M 380.722656 96.109375 C 380.371094 96.109375 380.019531 95.976562 379.753906 95.714844 C 379.210938 95.179688 379.203125 94.304688 379.738281 93.769531 L 382.371094 91.089844 C 382.90625 90.542969 383.78125 90.539062 384.320312 91.074219 C 384.863281 91.605469 384.867188 92.480469 384.332031 93.023438 L 381.699219 95.695312 C 381.429688 95.972656 381.074219 96.109375 380.722656 96.109375 " fill-opacity="1" fill-rule="nonzero"/><path fill="#4f2b43" d="M 393.339844 83.292969 C 392.992188 83.292969 392.640625 83.164062 392.375 82.894531 C 391.832031 82.359375 391.824219 81.488281 392.355469 80.945312 L 394.996094 78.273438 C 395.527344 77.726562 396.398438 77.722656 396.941406 78.257812 C 397.480469 78.789062 397.488281 79.660156 396.953125 80.207031 L 394.320312 82.878906 C 394.050781 83.152344 393.695312 83.292969 393.339844 83.292969 " fill-opacity="1" fill-rule="nonzero"/><path fill="#4f2b43" d="M 706.128906 666.828125 C 706.125 666.828125 706.121094 666.828125 706.121094 666.828125 L 702.367188 666.808594 C 701.613281 666.804688 700.996094 666.183594 701 665.417969 C 701.007812 664.667969 701.625 664.050781 702.378906 664.050781 C 702.386719 664.050781 702.386719 664.050781 702.386719 664.050781 L 706.136719 664.074219 C 706.898438 664.078125 707.507812 664.699219 707.503906 665.460938 C 707.5 666.214844 706.882812 666.828125 706.128906 666.828125 " fill-opacity="1" fill-rule="nonzero"/><path fill="#4f2b43" d="M 724.078125 666.933594 C 724.078125 666.933594 724.078125 666.933594 724.070312 666.933594 L 720.324219 666.910156 C 719.566406 666.90625 718.945312 666.285156 718.953125 665.523438 C 718.957031 664.769531 719.570312 664.15625 720.332031 664.15625 C 720.339844 664.15625 720.339844 664.15625 720.339844 664.15625 L 724.085938 664.179688 C 724.847656 664.183594 725.460938 664.804688 725.457031 665.566406 C 725.453125 666.320312 724.835938 666.933594 724.078125 666.933594 " fill-opacity="1" fill-rule="nonzero"/><path fill="#4f2b43" d="M 713.296875 677.761719 C 712.539062 677.761719 711.921875 677.148438 711.917969 676.390625 L 711.898438 672.628906 C 711.890625 671.871094 712.503906 671.25 713.265625 671.246094 C 714.066406 671.253906 714.644531 671.851562 714.648438 672.613281 L 714.671875 676.375 C 714.675781 677.136719 714.0625 677.757812 713.304688 677.761719 C 713.300781 677.761719 713.300781 677.761719 713.296875 677.761719 " fill-opacity="1" fill-rule="nonzero"/><path fill="#4f2b43" d="M 713.1875 659.738281 C 712.433594 659.738281 711.816406 659.132812 711.808594 658.371094 L 711.789062 654.609375 C 711.785156 653.847656 712.394531 653.226562 713.160156 653.222656 C 713.160156 653.222656 713.164062 653.222656 713.167969 653.222656 C 713.925781 653.222656 714.542969 653.835938 714.542969 654.59375 L 714.5625 658.355469 C 714.574219 659.113281 713.957031 659.734375 713.199219 659.738281 C 713.195312 659.738281 713.195312 659.738281 713.1875 659.738281 " fill-opacity="1" fill-rule="nonzero"/><path fill="#bec4ed" d="M 757.558594 644.777344 C 757.558594 649.648438 753.621094 653.605469 748.765625 653.605469 C 743.910156 653.605469 739.972656 649.648438 739.972656 644.777344 C 739.972656 639.902344 743.910156 635.953125 748.765625 635.953125 C 753.621094 635.953125 757.558594 639.902344 757.558594 644.777344 " fill-opacity="1" fill-rule="nonzero"/></svg>