<svg xmlns="http://www.w3.org/2000/svg" xmlns:xlink="http://www.w3.org/1999/xlink" width="1080" zoomAndPan="magnify" viewBox="0 0 810 809.999993" height="1080" preserveAspectRatio="xMidYMid meet" version="1.0"><defs><clipPath id="bdbbd708ce"><path d="M 43.03125 25 L 752 25 L 752 736 L 43.03125 736 Z M 43.03125 25 " clip-rule="nonzero"/></clipPath></defs><g clip-path="url(#bdbbd708ce)"><path fill="#bec4ed" d="M 459.167969 30.480469 C 295.460938 0.078125 170.761719 113.742188 161.515625 122.445312 C 146.863281 136.242188 44.457031 228.277344 43.957031 390.976562 C 43.046875 687.75 147.601562 699.324219 219.226562 719.007812 C 272.015625 733.515625 717.371094 809.941406 749.925781 440.140625 C 766.980469 246.34375 635.152344 63.160156 459.167969 30.480469 " fill-opacity="1" fill-rule="nonzero"/></g><path fill="#4f2b43" d="M 60.382812 452.972656 C 59.679688 452.972656 59.105469 452.398438 59.101562 451.695312 C 58.871094 424.050781 60.34375 393.1875 63.472656 359.960938 C 67.757812 314.492188 80.417969 271.359375 101.109375 231.757812 C 101.4375 231.128906 102.210938 230.886719 102.835938 231.214844 C 103.464844 231.539062 103.707031 232.320312 103.378906 232.945312 C 82.847656 272.253906 70.277344 315.066406 66.027344 360.195312 C 62.90625 393.34375 61.4375 424.117188 61.664062 451.675781 C 61.671875 452.382812 61.101562 452.964844 60.394531 452.972656 C 60.390625 452.972656 60.386719 452.972656 60.382812 452.972656 " fill-opacity="1" fill-rule="nonzero"/><path fill="#4f2b43" d="M 551.226562 86.03125 C 551.015625 86.03125 550.796875 85.980469 550.59375 85.863281 C 529.691406 74.039062 507.605469 64.8125 484.960938 58.4375 C 443.773438 46.839844 400.632812 44.597656 356.738281 51.765625 C 356.027344 51.882812 355.378906 51.410156 355.261719 50.707031 C 355.144531 50.011719 355.621094 49.351562 356.324219 49.238281 C 400.59375 42.003906 444.109375 44.269531 485.65625 55.96875 C 508.496094 62.402344 530.777344 71.707031 551.855469 83.632812 C 552.476562 83.984375 552.691406 84.765625 552.339844 85.378906 C 552.109375 85.796875 551.675781 86.03125 551.226562 86.03125 " fill-opacity="1" fill-rule="nonzero"/><path fill="#4f2b43" d="M 398.476562 715.207031 C 368.707031 715.207031 337.589844 712.871094 305.40625 708.207031 C 304.707031 708.105469 304.222656 707.457031 304.324219 706.757812 C 304.425781 706.058594 305.078125 705.570312 305.773438 705.671875 C 394.703125 718.558594 520.042969 720.082031 612.160156 654.152344 C 612.734375 653.738281 613.535156 653.871094 613.941406 654.449219 C 614.359375 655.023438 614.21875 655.824219 613.652344 656.238281 C 572.175781 685.917969 519.976562 704.621094 458.496094 711.820312 C 439.207031 714.078125 419.167969 715.207031 398.476562 715.207031 " fill-opacity="1" fill-rule="nonzero"/><path fill="#4f2b43" d="M 398.621094 685.613281 C 395.410156 685.613281 392.1875 685.582031 388.933594 685.523438 C 388.226562 685.507812 387.664062 684.921875 387.675781 684.21875 C 387.6875 683.507812 388.28125 682.945312 388.980469 682.957031 C 444.695312 683.96875 494.25 676.277344 536.257812 660.09375 C 536.917969 659.839844 537.664062 660.167969 537.917969 660.828125 C 538.171875 661.492188 537.839844 662.234375 537.179688 662.484375 C 497.316406 677.839844 450.738281 685.613281 398.621094 685.613281 " fill-opacity="1" fill-rule="nonzero"/><path fill="#4f2b43" d="M 630.574219 66.617188 C 630.296875 66.617188 630.023438 66.527344 629.785156 66.339844 C 629.226562 65.90625 629.132812 65.101562 629.566406 64.542969 L 633.5625 59.441406 C 633.996094 58.882812 634.804688 58.785156 635.363281 59.21875 C 635.917969 59.660156 636.015625 60.464844 635.582031 61.019531 L 631.582031 66.121094 C 631.332031 66.445312 630.957031 66.617188 630.574219 66.617188 " fill-opacity="1" fill-rule="nonzero"/><path fill="#4f2b43" d="M 644.558594 48.757812 C 644.28125 48.757812 644.003906 48.671875 643.765625 48.484375 C 643.210938 48.050781 643.113281 47.242188 643.546875 46.683594 L 647.542969 41.582031 C 647.984375 41.027344 648.785156 40.925781 649.339844 41.363281 C 649.902344 41.800781 650 42.605469 649.558594 43.164062 L 645.5625 48.265625 C 645.3125 48.589844 644.9375 48.757812 644.558594 48.757812 " fill-opacity="1" fill-rule="nonzero"/><path fill="#4f2b43" d="M 651.09375 64.058594 C 650.820312 64.058594 650.546875 63.972656 650.308594 63.792969 L 645.1875 59.824219 C 644.625 59.394531 644.523438 58.589844 644.957031 58.027344 C 645.386719 57.46875 646.195312 57.367188 646.753906 57.800781 L 651.882812 61.765625 C 652.4375 62.195312 652.542969 63.003906 652.109375 63.566406 C 651.859375 63.890625 651.476562 64.058594 651.09375 64.058594 " fill-opacity="1" fill-rule="nonzero"/><path fill="#4f2b43" d="M 633.15625 50.179688 C 632.878906 50.179688 632.609375 50.089844 632.375 49.90625 L 627.25 45.945312 C 626.6875 45.511719 626.585938 44.703125 627.019531 44.144531 C 627.453125 43.582031 628.253906 43.480469 628.816406 43.914062 L 633.941406 47.882812 C 634.503906 48.316406 634.601562 49.121094 634.175781 49.679688 C 633.917969 50.007812 633.539062 50.179688 633.15625 50.179688 " fill-opacity="1" fill-rule="nonzero"/><path fill="#4f2b43" d="M 686.125 58.851562 C 681.996094 58.851562 678.636719 62.207031 678.636719 66.335938 C 678.636719 70.464844 681.996094 73.820312 686.125 73.820312 C 690.253906 73.820312 693.609375 70.464844 693.609375 66.335938 C 693.609375 62.207031 690.253906 58.851562 686.125 58.851562 Z M 686.125 76.382812 C 680.582031 76.382812 676.070312 71.878906 676.070312 66.335938 C 676.070312 60.792969 680.582031 56.285156 686.125 56.285156 C 691.660156 56.285156 696.171875 60.792969 696.171875 66.335938 C 696.171875 71.878906 691.660156 76.382812 686.125 76.382812 " fill-opacity="1" fill-rule="nonzero"/><path fill="#4f2b43" d="M 716.128906 88.109375 C 713.46875 88.109375 711.308594 90.273438 711.308594 92.929688 C 711.308594 95.585938 713.46875 97.75 716.128906 97.75 C 718.789062 97.75 720.949219 95.585938 720.949219 92.929688 C 720.949219 90.273438 718.789062 88.109375 716.128906 88.109375 Z M 716.128906 100.3125 C 712.058594 100.3125 708.746094 97 708.746094 92.929688 C 708.746094 88.855469 712.058594 85.546875 716.128906 85.546875 C 720.203125 85.546875 723.511719 88.855469 723.511719 92.929688 C 723.511719 97 720.203125 100.3125 716.128906 100.3125 " fill-opacity="1" fill-rule="nonzero"/><path fill="#9333ea" d="M 740.296875 645.117188 L 728.171875 651.699219 L 135.058594 548.628906 C 126.90625 547.082031 120.980469 539.988281 120.914062 531.6875 L 126.542969 34.898438 L 141.710938 29.820312 C 148.882812 27.421875 156.542969 26.871094 163.980469 28.230469 L 738.117188 132.792969 C 746.363281 134.316406 752.34375 141.511719 752.34375 149.890625 L 752.34375 622.050781 C 752.34375 627.386719 752.433594 633.484375 747.269531 639.566406 C 745.332031 641.847656 742.925781 643.691406 740.296875 645.117188 " fill-opacity="1" fill-rule="nonzero"/><path fill="#d2c7ff" d="M 714.667969 654.902344 L 130.214844 548.390625 C 121.945312 546.859375 115.945312 539.648438 115.945312 531.242188 L 115.945312 50.855469 C 115.945312 39.949219 125.839844 31.722656 136.558594 33.703125 L 721.011719 140.21875 C 729.277344 141.746094 735.273438 148.957031 735.273438 157.367188 L 735.273438 637.753906 C 735.273438 648.65625 725.386719 656.882812 714.667969 654.902344 " fill-opacity="1" fill-rule="nonzero"/><path fill="#bec4ed" d="M 734.847656 147.347656 C 734.386719 147.347656 733.9375 147.089844 733.707031 146.652344 C 733.382812 146.027344 733.625 145.25 734.253906 144.925781 L 743.902344 139.882812 C 744.527344 139.554688 745.308594 139.796875 745.628906 140.421875 C 745.960938 141.054688 745.714844 141.824219 745.089844 142.152344 L 735.441406 147.199219 C 735.246094 147.292969 735.046875 147.347656 734.847656 147.347656 " fill-opacity="1" fill-rule="nonzero"/><path fill="#ffffff" d="M 483.386719 592.09375 L 139.324219 529.304688 C 136.71875 528.828125 134.824219 526.558594 134.824219 523.90625 L 134.824219 59.007812 C 134.824219 55.585938 137.925781 52.996094 141.292969 53.613281 L 485.359375 116.398438 C 487.960938 116.878906 489.855469 119.148438 489.855469 121.796875 L 489.855469 586.695312 C 489.855469 590.121094 486.75 592.707031 483.386719 592.09375 " fill-opacity="1" fill-rule="nonzero"/><path fill="#4f2b43" d="M 140.304688 54.804688 C 139.328125 54.804688 138.378906 55.140625 137.617188 55.777344 C 136.65625 56.582031 136.105469 57.757812 136.105469 59.007812 L 136.105469 523.90625 C 136.105469 525.9375 137.554688 527.675781 139.554688 528.042969 L 483.613281 590.832031 C 484.851562 591.054688 486.101562 590.722656 487.0625 589.921875 C 488.023438 589.121094 488.570312 587.945312 488.570312 586.695312 L 488.570312 121.792969 C 488.570312 119.765625 487.121094 118.027344 485.125 117.660156 L 141.066406 54.871094 C 140.8125 54.824219 140.558594 54.804688 140.304688 54.804688 Z M 484.378906 593.460938 C 483.972656 593.460938 483.558594 593.425781 483.15625 593.351562 L 139.09375 530.5625 C 135.878906 529.976562 133.542969 527.175781 133.542969 523.90625 L 133.542969 59.007812 C 133.542969 56.996094 134.429688 55.097656 135.976562 53.8125 C 137.519531 52.519531 139.539062 51.988281 141.527344 52.351562 L 485.582031 115.136719 C 488.800781 115.726562 491.140625 118.523438 491.140625 121.792969 L 491.140625 586.695312 C 491.140625 588.707031 490.246094 590.601562 488.707031 591.890625 C 487.476562 592.917969 485.945312 593.460938 484.378906 593.460938 " fill-opacity="1" fill-rule="nonzero"/><path fill="#bec4ed" d="M 455.824219 309.097656 L 435.957031 305.472656 C 433.9375 305.105469 432.472656 303.34375 432.472656 301.292969 L 432.472656 188.171875 C 432.472656 185.527344 434.875 183.519531 437.480469 183.996094 L 457.347656 187.621094 C 459.371094 187.988281 460.835938 189.746094 460.835938 191.796875 L 460.835938 304.917969 C 460.835938 307.570312 458.433594 309.570312 455.824219 309.097656 " fill-opacity="1" fill-rule="nonzero"/><path fill="#d2c7ff" d="M 417.257812 301.460938 L 397.390625 297.839844 C 395.371094 297.464844 393.90625 295.710938 393.90625 293.660156 L 393.90625 211.960938 C 393.90625 209.308594 396.308594 207.304688 398.914062 207.78125 L 418.78125 211.40625 C 420.800781 211.773438 422.269531 213.53125 422.269531 215.585938 L 422.269531 297.28125 C 422.269531 299.933594 419.867188 301.9375 417.257812 301.460938 " fill-opacity="1" fill-rule="nonzero"/><path fill="#bec4ed" d="M 378.691406 293.824219 L 358.824219 290.199219 C 356.804688 289.832031 355.335938 288.078125 355.335938 286.023438 L 355.335938 248.761719 C 355.335938 246.113281 357.738281 244.109375 360.347656 244.585938 L 380.214844 248.210938 C 382.230469 248.578125 383.695312 250.335938 383.695312 252.386719 L 383.695312 289.652344 C 383.695312 292.300781 381.296875 294.300781 378.691406 293.824219 " fill-opacity="1" fill-rule="nonzero"/><path fill="#bec4ed" d="M 340.117188 286.191406 L 320.253906 282.570312 C 318.234375 282.199219 316.769531 280.441406 316.769531 278.390625 L 316.769531 254.535156 C 316.769531 251.882812 319.171875 249.878906 321.777344 250.355469 L 341.648438 253.984375 C 343.660156 254.351562 345.128906 256.109375 345.128906 258.164062 L 345.128906 282.015625 C 345.128906 284.667969 342.730469 286.667969 340.117188 286.191406 " fill-opacity="1" fill-rule="nonzero"/><path fill="#bec4ed" d="M 301.550781 278.5625 L 281.683594 274.9375 C 279.664062 274.566406 278.199219 272.8125 278.199219 270.757812 L 278.199219 221.539062 C 278.199219 218.890625 280.601562 216.890625 283.207031 217.367188 L 303.074219 220.992188 C 305.09375 221.359375 306.558594 223.117188 306.558594 225.171875 L 306.558594 274.382812 C 306.558594 277.035156 304.15625 279.039062 301.550781 278.5625 " fill-opacity="1" fill-rule="nonzero"/><path fill="#bec4ed" d="M 262.980469 270.929688 L 243.113281 267.300781 C 241.097656 266.933594 239.628906 265.175781 239.628906 263.121094 L 239.628906 250.710938 C 239.628906 248.0625 242.03125 246.058594 244.640625 246.535156 L 264.507812 250.160156 C 266.527344 250.53125 267.992188 252.285156 267.992188 254.339844 L 267.992188 266.75 C 267.992188 269.398438 265.589844 271.402344 262.980469 270.929688 " fill-opacity="1" fill-rule="nonzero"/><path fill="#bec4ed" d="M 224.414062 263.292969 L 204.542969 259.667969 C 202.527344 259.300781 201.0625 257.539062 201.0625 255.488281 L 201.0625 242.535156 C 201.0625 239.882812 203.460938 237.878906 206.070312 238.355469 L 225.9375 241.984375 C 227.957031 242.351562 229.421875 244.109375 229.421875 246.160156 L 229.421875 259.113281 C 229.421875 261.765625 227.019531 263.769531 224.414062 263.292969 " fill-opacity="1" fill-rule="nonzero"/><path fill="#bec4ed" d="M 185.84375 255.660156 L 165.976562 252.035156 C 163.957031 251.667969 162.492188 249.910156 162.492188 247.855469 L 162.492188 230.660156 C 162.492188 228.007812 164.894531 226.007812 167.5 226.480469 L 187.367188 230.109375 C 189.386719 230.476562 190.851562 232.234375 190.851562 234.285156 L 190.851562 251.484375 C 190.851562 254.132812 188.453125 256.136719 185.84375 255.660156 " fill-opacity="1" fill-rule="nonzero"/><path fill="#d2c7ff" d="M 339.570312 398.832031 L 339.570312 381.824219 L 369.34375 352.078125 C 372.164062 349.253906 376.742188 349.253906 379.5625 352.078125 L 399.964844 372.464844 C 402.675781 375.179688 407.027344 375.296875 409.886719 372.75 L 411.746094 371.089844 C 414.613281 368.527344 418.980469 368.660156 421.6875 371.390625 L 463.390625 413.433594 L 463.546875 418.945312 C 463.75 425.972656 457.359375 431.367188 450.464844 429.984375 L 348.363281 409.558594 C 343.25 408.535156 339.570312 404.046875 339.570312 398.832031 " fill-opacity="1" fill-rule="nonzero"/><path fill="#4f2b43" d="M 453.289062 431.085938 C 452.507812 431.085938 451.71875 431.007812 450.933594 430.851562 L 347.449219 410.164062 C 341.832031 409.039062 337.796875 404.0625 337.859375 398.335938 L 338.691406 320.929688 C 338.730469 317.414062 340.304688 314.113281 343.011719 311.867188 C 345.71875 309.628906 349.261719 308.695312 352.722656 309.3125 L 387.011719 315.441406 C 387.707031 315.566406 388.171875 316.230469 388.046875 316.925781 C 387.925781 317.628906 387.253906 318.09375 386.5625 317.964844 L 352.269531 311.835938 C 349.554688 311.355469 346.777344 312.082031 344.648438 313.84375 C 342.519531 315.605469 341.28125 318.199219 341.253906 320.957031 L 340.421875 398.363281 C 340.375 402.859375 343.542969 406.769531 347.953125 407.652344 L 451.4375 428.335938 C 454.199219 428.890625 457.035156 428.183594 459.210938 426.394531 C 461.394531 424.609375 462.644531 421.972656 462.644531 419.148438 L 462.644531 339.402344 C 462.644531 334.859375 459.398438 330.980469 454.921875 330.179688 L 433.441406 326.34375 C 432.742188 326.21875 432.28125 325.554688 432.402344 324.855469 C 432.53125 324.15625 433.199219 323.695312 433.890625 323.816406 L 455.375 327.660156 C 461.074219 328.675781 465.207031 333.617188 465.207031 339.402344 L 465.207031 419.148438 C 465.207031 422.742188 463.613281 426.101562 460.839844 428.375 C 458.683594 430.148438 456.019531 431.085938 453.289062 431.085938 " fill-opacity="1" fill-rule="nonzero"/><path fill="#d2c7ff" d="M 448.714844 354.199219 C 448.714844 360.519531 443.589844 365.644531 437.265625 365.644531 C 430.945312 365.644531 425.820312 360.519531 425.820312 354.199219 C 425.820312 347.878906 430.945312 342.753906 437.265625 342.753906 C 443.589844 342.753906 448.714844 347.878906 448.714844 354.199219 " fill-opacity="1" fill-rule="nonzero"/><path fill="#9333ea" d="M 160.199219 142.8125 L 160.199219 130.902344 L 181.054688 110.0625 C 183.03125 108.085938 186.234375 108.085938 188.210938 110.0625 L 202.503906 124.347656 C 204.402344 126.246094 207.449219 126.328125 209.453125 124.542969 L 210.753906 123.382812 C 212.761719 121.585938 215.824219 121.679688 217.722656 123.589844 L 246.929688 153.042969 L 247.042969 156.902344 C 247.179688 161.828125 242.707031 165.605469 237.875 164.632812 L 166.359375 150.328125 C 162.777344 149.613281 160.199219 146.46875 160.199219 142.8125 " fill-opacity="1" fill-rule="nonzero"/><path fill="#4f2b43" d="M 238.632812 163.105469 C 240.457031 163.464844 242.328125 163 243.765625 161.824219 C 245.199219 160.644531 246.023438 158.90625 246.023438 157.046875 L 246.023438 101.183594 C 246.023438 98.191406 243.882812 95.628906 240.933594 95.101562 L 169.03125 82.253906 C 167.238281 81.9375 165.40625 82.417969 164.003906 83.578125 C 162.601562 84.738281 161.785156 86.449219 161.765625 88.269531 L 161.183594 142.488281 C 161.148438 145.453125 163.238281 148.03125 166.148438 148.613281 Z M 239.859375 165.785156 C 239.285156 165.785156 238.707031 165.730469 238.132812 165.617188 L 165.648438 151.125 C 161.53125 150.304688 158.574219 146.65625 158.621094 142.457031 L 159.203125 88.242188 C 159.230469 85.664062 160.382812 83.246094 162.367188 81.605469 C 164.351562 79.957031 166.949219 79.277344 169.480469 79.730469 L 241.382812 92.578125 C 245.558594 93.324219 248.585938 96.941406 248.585938 101.183594 L 248.585938 157.046875 C 248.585938 159.675781 247.421875 162.136719 245.386719 163.800781 C 243.808594 165.097656 241.859375 165.785156 239.859375 165.785156 " fill-opacity="1" fill-rule="nonzero"/><path fill="#d2c7ff" d="M 236.652344 111.546875 C 236.652344 115.976562 233.0625 119.566406 228.632812 119.566406 C 224.207031 119.566406 220.617188 115.976562 220.617188 111.546875 C 220.617188 107.117188 224.207031 103.527344 228.632812 103.527344 C 233.0625 103.527344 236.652344 107.117188 236.652344 111.546875 " fill-opacity="1" fill-rule="nonzero"/><path fill="#4f2b43" d="M 343.554688 210.605469 C 343.21875 210.605469 342.886719 210.472656 342.636719 210.222656 L 303.75 170.449219 C 303.253906 169.941406 303.265625 169.132812 303.765625 168.640625 C 304.277344 168.144531 305.085938 168.152344 305.582031 168.65625 L 343.75 207.691406 L 425.972656 156.496094 C 426.578125 156.121094 427.367188 156.304688 427.742188 156.90625 C 428.121094 157.507812 427.933594 158.300781 427.332031 158.671875 L 344.230469 210.410156 C 344.023438 210.542969 343.785156 210.605469 343.554688 210.605469 " fill-opacity="1" fill-rule="nonzero"/><path fill="#4f2b43" d="M 239.117188 211.785156 C 238.789062 211.785156 238.460938 211.65625 238.214844 211.410156 L 211.417969 184.777344 C 210.917969 184.277344 210.914062 183.464844 211.414062 182.964844 C 211.914062 182.460938 212.722656 182.460938 213.226562 182.957031 L 239.300781 208.875 L 286.316406 179.503906 C 286.917969 179.132812 287.707031 179.3125 288.085938 179.914062 C 288.460938 180.515625 288.277344 181.304688 287.675781 181.679688 L 239.796875 211.589844 C 239.589844 211.71875 239.351562 211.785156 239.117188 211.785156 " fill-opacity="1" fill-rule="nonzero"/><path fill="#4f2b43" d="M 171.476562 210.730469 C 171.050781 210.730469 170.632812 210.515625 170.386719 210.128906 C 170.011719 209.53125 170.195312 208.738281 170.796875 208.363281 L 196.253906 192.414062 C 196.851562 192.039062 197.648438 192.222656 198.023438 192.816406 C 198.398438 193.421875 198.214844 194.214844 197.617188 194.585938 L 172.15625 210.53125 C 171.945312 210.667969 171.707031 210.730469 171.476562 210.730469 " fill-opacity="1" fill-rule="nonzero"/><path fill="#d2c7ff" d="M 315.34375 169.433594 C 315.34375 175.394531 310.507812 180.230469 304.542969 180.230469 C 298.578125 180.230469 293.742188 175.394531 293.742188 169.433594 C 293.742188 163.46875 298.578125 158.632812 304.542969 158.632812 C 310.507812 158.632812 315.34375 163.46875 315.34375 169.433594 " fill-opacity="1" fill-rule="nonzero"/><path fill="#4f2b43" d="M 304.546875 159.910156 C 299.296875 159.910156 295.027344 164.179688 295.027344 169.429688 C 295.027344 174.675781 299.296875 178.945312 304.546875 178.945312 C 309.796875 178.945312 314.0625 174.675781 314.0625 169.429688 C 314.0625 164.179688 309.796875 159.910156 304.546875 159.910156 Z M 304.546875 181.507812 C 297.882812 181.507812 292.464844 176.089844 292.464844 169.429688 C 292.464844 162.765625 297.882812 157.347656 304.546875 157.347656 C 311.207031 157.347656 316.625 162.765625 316.625 169.429688 C 316.625 176.089844 311.207031 181.507812 304.546875 181.507812 " fill-opacity="1" fill-rule="nonzero"/><path fill="#d2c7ff" d="M 223.292969 184.101562 C 223.292969 190.066406 218.457031 194.898438 212.496094 194.898438 C 206.53125 194.898438 201.695312 190.066406 201.695312 184.101562 C 201.695312 178.136719 206.53125 173.300781 212.496094 173.300781 C 218.457031 173.300781 223.292969 178.136719 223.292969 184.101562 " fill-opacity="1" fill-rule="nonzero"/><path fill="#4f2b43" d="M 212.496094 174.578125 C 207.25 174.578125 202.980469 178.847656 202.980469 184.097656 C 202.980469 189.339844 207.25 193.613281 212.496094 193.613281 C 217.746094 193.613281 222.015625 189.339844 222.015625 184.097656 C 222.015625 178.847656 217.746094 174.578125 212.496094 174.578125 Z M 212.496094 196.175781 C 205.835938 196.175781 200.414062 190.753906 200.414062 184.097656 C 200.414062 177.433594 205.835938 172.011719 212.496094 172.011719 C 219.160156 172.011719 224.578125 177.433594 224.578125 184.097656 C 224.578125 190.753906 219.160156 196.175781 212.496094 196.175781 " fill-opacity="1" fill-rule="nonzero"/><path fill="#bec4ed" d="M 250.890625 210.023438 C 250.890625 215.988281 246.054688 220.820312 240.089844 220.820312 C 234.125 220.820312 229.289062 215.988281 229.289062 210.023438 C 229.289062 204.054688 234.125 199.222656 240.089844 199.222656 C 246.054688 199.222656 250.890625 204.054688 250.890625 210.023438 " fill-opacity="1" fill-rule="nonzero"/><path fill="#4f2b43" d="M 240.089844 200.503906 C 234.839844 200.503906 230.570312 204.777344 230.570312 210.019531 C 230.570312 215.269531 234.839844 219.542969 240.089844 219.542969 C 245.335938 219.542969 249.605469 215.269531 249.605469 210.019531 C 249.605469 204.777344 245.335938 200.503906 240.089844 200.503906 Z M 240.089844 222.105469 C 233.429688 222.105469 228.007812 216.683594 228.007812 210.019531 C 228.007812 203.363281 233.429688 197.941406 240.089844 197.941406 C 246.75 197.941406 252.171875 203.363281 252.171875 210.019531 C 252.171875 216.683594 246.75 222.105469 240.089844 222.105469 " fill-opacity="1" fill-rule="nonzero"/><path fill="#bec4ed" d="M 183.089844 208.015625 C 183.089844 213.976562 178.253906 218.816406 172.289062 218.816406 C 166.324219 218.816406 161.488281 213.976562 161.488281 208.015625 C 161.488281 202.050781 166.324219 197.214844 172.289062 197.214844 C 178.253906 197.214844 183.089844 202.050781 183.089844 208.015625 " fill-opacity="1" fill-rule="nonzero"/><path fill="#4f2b43" d="M 172.289062 198.492188 C 167.042969 198.492188 162.773438 202.765625 162.773438 208.007812 C 162.773438 213.261719 167.042969 217.53125 172.289062 217.53125 C 177.539062 217.53125 181.808594 213.261719 181.808594 208.007812 C 181.808594 202.765625 177.539062 198.492188 172.289062 198.492188 Z M 172.289062 220.09375 C 165.628906 220.09375 160.207031 214.671875 160.207031 208.007812 C 160.207031 201.351562 165.628906 195.929688 172.289062 195.929688 C 178.953125 195.929688 184.371094 201.351562 184.371094 208.007812 C 184.371094 214.671875 178.953125 220.09375 172.289062 220.09375 " fill-opacity="1" fill-rule="nonzero"/><path fill="#bec4ed" d="M 354.519531 208.496094 C 354.519531 214.457031 349.683594 219.296875 343.71875 219.296875 C 337.753906 219.296875 332.917969 214.457031 332.917969 208.496094 C 332.917969 202.527344 337.753906 197.695312 343.71875 197.695312 C 349.683594 197.695312 354.519531 202.527344 354.519531 208.496094 " fill-opacity="1" fill-rule="nonzero"/><path fill="#4f2b43" d="M 343.722656 198.972656 C 338.472656 198.972656 334.203125 203.242188 334.203125 208.492188 C 334.203125 213.742188 338.472656 218.011719 343.722656 218.011719 C 348.972656 218.011719 353.242188 213.742188 353.242188 208.492188 C 353.242188 203.242188 348.972656 198.972656 343.722656 198.972656 Z M 343.722656 220.570312 C 337.058594 220.570312 331.640625 215.152344 331.640625 208.492188 C 331.640625 201.832031 337.058594 196.410156 343.722656 196.410156 C 350.382812 196.410156 355.800781 201.832031 355.800781 208.492188 C 355.800781 215.152344 350.382812 220.570312 343.722656 220.570312 " fill-opacity="1" fill-rule="nonzero"/><path fill="#bec4ed" d="M 459.085938 144.273438 C 459.085938 150.238281 454.25 155.074219 448.285156 155.074219 C 442.316406 155.074219 437.484375 150.238281 437.484375 144.273438 C 437.484375 138.3125 442.316406 133.472656 448.285156 133.472656 C 454.25 133.472656 459.085938 138.3125 459.085938 144.273438 " fill-opacity="1" fill-rule="nonzero"/><path fill="#4f2b43" d="M 448.285156 134.757812 C 443.035156 134.757812 438.761719 139.023438 438.761719 144.277344 C 438.761719 149.519531 443.035156 153.792969 448.285156 153.792969 C 453.535156 153.792969 457.800781 149.519531 457.800781 144.277344 C 457.800781 139.023438 453.535156 134.757812 448.285156 134.757812 Z M 448.285156 156.355469 C 441.625 156.355469 436.203125 150.9375 436.203125 144.277344 C 436.203125 137.613281 441.625 132.195312 448.285156 132.195312 C 454.945312 132.195312 460.367188 137.613281 460.367188 144.277344 C 460.367188 150.9375 454.945312 156.355469 448.285156 156.355469 " fill-opacity="1" fill-rule="nonzero"/><path fill="#bec4ed" d="M 456.039062 456.007812 L 187.199219 406.917969 C 180.613281 405.714844 174.546875 410.777344 174.546875 417.46875 C 174.546875 422.648438 178.25 427.089844 183.34375 428.015625 L 452.1875 477.113281 C 458.773438 478.3125 464.839844 473.253906 464.839844 466.558594 C 464.839844 461.378906 461.140625 456.941406 456.039062 456.007812 " fill-opacity="1" fill-rule="nonzero"/><path fill="#bec4ed" d="M 456.039062 499.203125 L 187.199219 450.113281 C 180.613281 448.910156 174.546875 453.96875 174.546875 460.664062 C 174.546875 465.84375 178.25 470.285156 183.34375 471.214844 L 452.1875 520.304688 C 458.773438 521.507812 464.839844 516.449219 464.839844 509.757812 C 464.839844 504.578125 461.140625 500.136719 456.039062 499.203125 " fill-opacity="1" fill-rule="nonzero"/><path fill="#bec4ed" d="M 456.039062 538.257812 L 187.199219 489.164062 C 180.613281 487.964844 174.546875 493.023438 174.546875 499.71875 C 174.546875 504.898438 178.25 509.335938 183.34375 510.269531 L 452.1875 559.359375 C 458.773438 560.5625 464.839844 555.503906 464.839844 548.808594 C 464.839844 543.628906 461.140625 539.1875 456.039062 538.257812 " fill-opacity="1" fill-rule="nonzero"/><path fill="#ffffff" d="M 711.058594 298.550781 L 509.679688 261.800781 C 508.160156 261.523438 507.046875 260.191406 507.046875 258.644531 L 507.046875 124.054688 C 507.046875 122.046875 508.863281 120.53125 510.832031 120.890625 L 712.210938 157.644531 C 713.734375 157.917969 714.84375 159.25 714.84375 160.804688 L 714.84375 295.398438 C 714.84375 297.398438 713.027344 298.914062 711.058594 298.550781 " fill-opacity="1" fill-rule="nonzero"/><path fill="#9333ea" d="M 524.332031 244.128906 C 523.972656 243.015625 524.980469 242.007812 525.949219 241.273438 C 527.964844 239.738281 531.652344 237.644531 535.628906 236.8125 C 541.832031 235.507812 547.808594 235.96875 548.390625 238.0625 C 548.984375 240.175781 558.804688 271.191406 558.804688 271.191406 L 527.742188 265.523438 L 527.417969 263.859375 L 526.027344 256.375 L 524.332031 244.128906 " fill-opacity="1" fill-rule="nonzero"/><path fill="#9333ea" d="M 573.695312 274.246094 C 573.695312 274.246094 581.660156 254.554688 586.992188 246.507812 C 591.273438 240.039062 596.652344 233.332031 602.78125 228.710938 C 624.96875 211.980469 657.792969 204.199219 689.492188 228.035156 C 703.03125 238.214844 703.335938 272.667969 702.082031 295.730469 C 702.082031 295.734375 701.972656 297.632812 701.972656 297.632812 L 573.695312 274.246094 " fill-opacity="1" fill-rule="nonzero"/><path fill="#ffffff" d="M 525.550781 200.414062 C 532.230469 195.664062 536.898438 209.839844 538.457031 218.109375 C 538.496094 218.316406 538.695312 218.3125 538.832031 218.164062 C 539.691406 217.203125 540.4375 217.316406 540.785156 212.742188 C 540.96875 210.296875 541.566406 207.484375 544.144531 208.882812 C 545.664062 209.707031 546.882812 215.066406 546.667969 218.988281 C 545.816406 234.457031 543.976562 240.019531 542.460938 241.363281 C 540.683594 242.945312 533.234375 245.128906 531.53125 244.558594 C 529.507812 243.886719 509.832031 211.585938 525.550781 200.414062 " fill-opacity="1" fill-rule="nonzero"/><path fill="#4f2b43" d="M 537.878906 217.304688 C 537.878906 217.304688 537.878906 217.304688 537.875 217.304688 C 537.878906 217.304688 537.878906 217.304688 537.878906 217.304688 Z M 532.050781 243.367188 C 533.566406 243.605469 540.125 241.722656 541.613281 240.402344 C 542.066406 240 544.390625 237.058594 545.390625 218.914062 C 545.613281 214.867188 544.292969 210.515625 543.527344 210 C 543.089844 209.765625 542.894531 209.777344 542.859375 209.796875 C 542.835938 209.8125 542.269531 210.148438 542.058594 212.835938 C 541.753906 216.882812 541.121094 217.75 540.113281 218.691406 C 540.011719 218.792969 539.902344 218.890625 539.792969 219.015625 C 539.386719 219.464844 538.792969 219.652344 538.238281 219.5 C 537.707031 219.351562 537.304688 218.910156 537.199219 218.347656 C 535.808594 210.964844 532.691406 202.367188 529.144531 200.933594 C 528.558594 200.703125 527.636719 200.503906 526.296875 201.457031 C 522.714844 204 520.859375 208.003906 520.792969 213.359375 C 520.625 226.121094 530.292969 241.769531 532.050781 243.367188 Z M 532.285156 245.921875 C 531.824219 245.921875 531.425781 245.875 531.125 245.777344 C 528.832031 245.011719 520.386719 230.429688 518.597656 218.464844 C 517.289062 209.652344 519.378906 203.226562 524.8125 199.367188 C 526.992188 197.816406 528.894531 198.070312 530.101562 198.558594 C 535.105469 200.574219 537.984375 210.238281 539.167969 215.273438 C 539.300781 214.691406 539.410156 213.867188 539.503906 212.640625 C 539.652344 210.726562 540.03125 208.421875 541.632812 207.546875 C 542.253906 207.207031 543.304688 206.964844 544.757812 207.75 C 547.222656 209.089844 548.132812 215.71875 547.949219 219.054688 C 547.207031 232.414062 545.65625 240.238281 543.316406 242.320312 C 541.566406 243.875 535.382812 245.921875 532.285156 245.921875 " fill-opacity="1" fill-rule="nonzero"/><path fill="#ffffff" d="M 655.65625 219.320312 L 658.925781 194.015625 L 636.722656 200.753906 L 634.433594 215.570312 C 633.882812 219.550781 636.851562 222.355469 636.851562 222.355469 C 640.472656 226.15625 646.402344 226.628906 651.167969 224.4375 L 652.269531 223.925781 C 654.117188 223.078125 655.394531 221.335938 655.65625 219.320312 " fill-opacity="1" fill-rule="nonzero"/><path fill="#4f2b43" d="M 637.867188 201.746094 L 635.707031 215.761719 C 635.25 219.035156 637.707031 221.394531 637.734375 221.421875 C 640.792969 224.625 646.078125 225.371094 650.632812 223.269531 L 651.738281 222.761719 C 653.191406 222.089844 654.1875 220.742188 654.390625 219.152344 L 657.40625 195.820312 Z M 645.238281 227.042969 C 641.675781 227.042969 638.3125 225.734375 635.925781 223.238281 C 635.835938 223.152344 632.535156 219.976562 633.167969 215.394531 L 635.460938 200.550781 C 635.539062 200.070312 635.886719 199.667969 636.355469 199.523438 L 658.554688 192.789062 C 658.976562 192.664062 659.425781 192.757812 659.757812 193.039062 C 660.089844 193.320312 660.257812 193.75 660.203125 194.179688 L 656.933594 219.480469 C 656.609375 221.949219 655.070312 224.046875 652.8125 225.089844 L 651.707031 225.597656 C 649.597656 226.570312 647.382812 227.042969 645.238281 227.042969 " fill-opacity="1" fill-rule="nonzero"/><path fill="#4f2b43" d="M 655.152344 158.164062 C 663.621094 158.097656 656.921875 170.023438 676.003906 170.625 C 678.609375 170.703125 680.382812 177.339844 679.121094 180.371094 C 677.351562 184.617188 674.507812 181.671875 669.53125 190.566406 C 666.035156 196.816406 664.226562 198.820312 663.03125 201.464844 C 659.324219 209.65625 662.539062 214.394531 647.515625 213.644531 C 638.882812 213.214844 637.582031 213.390625 630.832031 207.152344 C 629.621094 206.03125 629.601562 203.292969 630.316406 201.804688 C 631.222656 199.902344 633.285156 196.035156 633.769531 193.519531 C 636.238281 180.710938 638.625 180.71875 639.398438 178.875 C 640.761719 175.613281 621.347656 158.410156 655.152344 158.164062 " fill-opacity="1" fill-rule="nonzero"/><path fill="#ffffff" d="M 660.25 188.554688 C 658.097656 195.6875 653.398438 201.433594 647.304688 200.246094 C 646.019531 199.996094 642.273438 198.800781 640.957031 198.09375 C 633.890625 194.304688 636.539062 182.625 642.316406 176.515625 C 642.671875 176.132812 644.472656 174.957031 645.695312 175.039062 C 649.945312 175.332031 656.496094 179.304688 656.496094 179.304688 C 656.496094 179.304688 662.285156 181.804688 660.25 188.554688 " fill-opacity="1" fill-rule="nonzero"/><path fill="#4f2b43" d="M 645.554688 176.320312 C 644.882812 176.320312 643.570312 177.085938 643.238281 177.402344 C 639.550781 181.296875 637.40625 187.371094 638.121094 191.832031 C 638.515625 194.222656 639.667969 195.949219 641.558594 196.96875 C 642.734375 197.597656 646.339844 198.753906 647.550781 198.984375 C 653.285156 200.101562 657.3125 193.867188 659.023438 188.183594 C 660.664062 182.742188 656.464844 180.695312 655.980469 180.480469 L 655.835938 180.402344 C 655.769531 180.363281 649.492188 176.589844 645.613281 176.320312 C 645.59375 176.320312 645.574219 176.320312 645.554688 176.320312 Z M 648.847656 201.679688 C 648.257812 201.679688 647.660156 201.617188 647.054688 201.503906 C 645.640625 201.230469 641.792969 200 640.347656 199.222656 C 637.75 197.832031 636.105469 195.414062 635.59375 192.242188 C 634.742188 186.96875 637.121094 180.140625 641.382812 175.632812 C 641.921875 175.070312 644.09375 173.644531 645.789062 173.761719 C 650.089844 174.0625 656.308594 177.699219 657.085938 178.160156 C 659.464844 179.230469 663.328125 182.789062 661.476562 188.917969 L 661.476562 188.925781 C 659.078125 196.878906 654.242188 201.679688 648.847656 201.679688 " fill-opacity="1" fill-rule="nonzero"/><path fill="#ffffff" d="M 665.167969 196.882812 C 671.425781 198.609375 673.125 192.773438 671.550781 189.46875 C 670.890625 188.078125 668.90625 188.0625 668.175781 189.417969 L 664.710938 195.839844 C 664.488281 196.253906 664.714844 196.757812 665.167969 196.882812 " fill-opacity="1" fill-rule="nonzero"/><path fill="#4f2b43" d="M 665.511719 195.648438 Z M 666.191406 195.804688 C 667.445312 196.035156 668.929688 195.96875 669.90625 194.808594 C 670.898438 193.628906 671.113281 191.523438 670.394531 190.019531 C 670.265625 189.746094 670.015625 189.699219 669.878906 189.695312 C 669.757812 189.691406 669.46875 189.71875 669.304688 190.027344 Z M 667.300781 198.480469 C 666.566406 198.480469 665.746094 198.375 664.824219 198.117188 C 664.226562 197.953125 663.746094 197.53125 663.503906 196.96875 C 663.261719 196.40625 663.296875 195.773438 663.585938 195.234375 L 667.050781 188.8125 C 667.621094 187.746094 668.738281 187.097656 669.945312 187.132812 C 671.136719 187.160156 672.195312 187.84375 672.707031 188.914062 C 673.859375 191.335938 673.503906 194.507812 671.871094 196.457031 C 671.164062 197.296875 669.734375 198.480469 667.300781 198.480469 " fill-opacity="1" fill-rule="nonzero"/><path fill="#ffffff" d="M 638.074219 201.390625 C 637.664062 205.726562 641.722656 206.171875 643.714844 204.746094 C 644.5625 204.144531 644.34375 202.832031 643.359375 202.507812 L 638.710938 200.964844 C 638.414062 200.867188 638.109375 201.078125 638.074219 201.390625 " fill-opacity="1" fill-rule="nonzero"/><path fill="#4f2b43" d="M 510.257812 122.121094 C 509.808594 122.121094 509.371094 122.28125 509.023438 122.570312 C 508.582031 122.9375 508.332031 123.476562 508.332031 124.050781 L 508.332031 258.648438 C 508.332031 259.574219 508.996094 260.375 509.914062 260.542969 L 711.285156 297.289062 C 711.851562 297.394531 712.429688 297.242188 712.867188 296.878906 C 713.308594 296.511719 713.5625 295.96875 713.5625 295.394531 L 713.5625 160.800781 C 713.5625 159.867188 712.894531 159.074219 711.976562 158.90625 L 510.605469 122.15625 C 510.488281 122.132812 510.375 122.121094 510.257812 122.121094 Z M 711.632812 299.890625 C 711.367188 299.890625 711.09375 299.863281 710.828125 299.816406 L 509.449219 263.0625 C 507.316406 262.671875 505.769531 260.816406 505.769531 258.648438 L 505.769531 124.050781 C 505.769531 122.714844 506.351562 121.460938 507.378906 120.597656 C 508.40625 119.746094 509.75 119.390625 511.066406 119.632812 L 712.4375 156.382812 C 714.574219 156.773438 716.121094 158.632812 716.121094 160.800781 L 716.121094 295.394531 C 716.121094 296.730469 715.535156 297.988281 714.511719 298.84375 C 713.691406 299.519531 712.679688 299.890625 711.632812 299.890625 " fill-opacity="1" fill-rule="nonzero"/><path fill="#ffffff" d="M 711.058594 464.5625 L 509.679688 427.8125 C 508.160156 427.53125 507.046875 426.207031 507.046875 424.65625 L 507.046875 290.0625 C 507.046875 288.0625 508.863281 286.546875 510.832031 286.902344 L 712.210938 323.652344 C 713.734375 323.933594 714.84375 325.261719 714.84375 326.816406 L 714.84375 461.40625 C 714.84375 463.410156 713.027344 464.921875 711.058594 464.5625 " fill-opacity="1" fill-rule="nonzero"/><path fill="#9333ea" d="M 556.246094 436.816406 C 556.246094 436.816406 556.929688 435.214844 556.933594 435.203125 C 560.042969 428.746094 565.015625 420.792969 572.660156 414.253906 C 593.621094 396.316406 651.734375 385.023438 674.730469 456.679688 C 674.734375 456.703125 674.859375 458.46875 674.859375 458.46875 L 556.246094 436.816406 " fill-opacity="1" fill-rule="nonzero"/><path fill="#4f2b43" d="M 598.199219 354.820312 C 598.574219 343.246094 606.84375 331.898438 628.96875 336.421875 C 628.96875 336.421875 633.996094 321.210938 646.820312 325.609375 C 659.644531 330.007812 655.5 350.007812 642.671875 351.769531 C 642.671875 351.769531 653.394531 371.320312 639.765625 378.460938 C 636.316406 380.269531 632.308594 380.585938 628.5 379.761719 C 624.472656 378.886719 614.746094 373.285156 611.167969 371.402344 C 607.578125 369.515625 597.824219 366.386719 598.199219 354.820312 " fill-opacity="1" fill-rule="nonzero"/><path fill="#ffffff" d="M 627.34375 372.351562 L 624.003906 405.574219 C 624.003906 405.574219 634.128906 407.398438 641.328125 412.664062 C 642.113281 413.238281 611.570312 435.960938 583.03125 412.210938 L 583.417969 411.980469 C 589.519531 408.351562 596.28125 405.976562 603.308594 404.976562 L 604.78125 404.765625 L 607.195312 382.296875 L 627.34375 372.351562 " fill-opacity="1" fill-rule="nonzero"/><path fill="#4f2b43" d="M 640.242188 412.0625 Z M 585.285156 412.378906 C 594.542969 419.5625 604.882812 422.632812 616.050781 421.515625 C 627.773438 420.339844 636.527344 414.941406 639.324219 412.84375 C 632.570312 408.457031 623.871094 406.851562 623.777344 406.839844 C 623.117188 406.71875 622.65625 406.117188 622.730469 405.449219 L 625.835938 374.527344 L 608.390625 383.140625 L 606.050781 404.902344 C 605.992188 405.488281 605.535156 405.953125 604.957031 406.035156 L 603.488281 406.246094 C 597.050781 407.160156 590.9375 409.222656 585.285156 412.378906 Z M 611.679688 424.273438 C 602.746094 424.273438 592.378906 421.660156 582.207031 413.195312 C 581.882812 412.933594 581.714844 412.527344 581.746094 412.113281 C 581.78125 411.695312 582.015625 411.328125 582.371094 411.113281 L 582.757812 410.882812 C 589.042969 407.148438 595.890625 404.734375 603.128906 403.703125 L 603.609375 403.640625 L 605.917969 382.160156 C 605.964844 381.722656 606.234375 381.339844 606.625 381.148438 L 626.773438 371.207031 C 627.191406 371 627.691406 371.039062 628.070312 371.304688 C 628.453125 371.570312 628.660156 372.023438 628.617188 372.484375 L 625.390625 404.550781 C 628.320312 405.207031 636.101562 407.253906 642.082031 411.625 C 642.457031 411.902344 642.667969 412.40625 642.609375 412.871094 C 642.394531 414.566406 635.597656 418.527344 630.121094 420.675781 C 625.625 422.441406 619.15625 424.273438 611.679688 424.273438 " fill-opacity="1" fill-rule="nonzero"/><path fill="#ffffff" d="M 615.929688 364.621094 C 606.894531 369.976562 604.757812 351.917969 601.617188 374.789062 C 600.835938 380.511719 602.679688 395.578125 613.804688 395.144531 C 621.386719 394.839844 626.632812 390.230469 629.652344 372.421875 C 630.746094 365.972656 623.03125 360.414062 615.929688 364.621094 " fill-opacity="1" fill-rule="nonzero"/><path fill="#4f2b43" d="M 612.976562 396.425781 C 612.960938 396.425781 612.949219 396.425781 612.9375 396.425781 C 609.671875 396.320312 606.929688 394.976562 604.777344 392.4375 C 600.472656 387.339844 599.78125 378.796875 600.355469 374.613281 C 601.695312 364.835938 602.847656 362.570312 604.503906 361.808594 C 605.945312 361.144531 607.28125 362.003906 608.570312 362.835938 C 610.421875 364.027344 612.335938 365.261719 615.277344 363.519531 C 619.054688 361.28125 623.515625 361.34375 626.925781 363.683594 C 629.96875 365.777344 631.503906 369.207031 630.917969 372.636719 C 629.335938 381.957031 627.128906 388.035156 623.960938 391.746094 C 623.5 392.285156 622.691406 392.351562 622.144531 391.894531 C 621.609375 391.433594 621.550781 390.625 622.003906 390.078125 C 624.820312 386.78125 626.910156 380.933594 628.394531 372.207031 C 628.804688 369.773438 627.6875 367.316406 625.476562 365.796875 C 622.863281 364.003906 619.539062 363.976562 616.585938 365.726562 C 612.277344 368.277344 609.089844 366.214844 607.179688 364.992188 C 606.640625 364.644531 605.8125 364.117188 605.558594 364.144531 C 605.191406 364.304688 604.164062 365.6875 602.894531 374.960938 C 602.339844 378.988281 603.171875 386.558594 606.738281 390.78125 C 608.398438 392.746094 610.511719 393.78125 613.015625 393.863281 C 613.722656 393.882812 614.277344 394.476562 614.257812 395.183594 C 614.234375 395.878906 613.664062 396.425781 612.976562 396.425781 " fill-opacity="1" fill-rule="nonzero"/><path fill="#4f2b43" d="M 711.285156 463.300781 C 711.851562 463.40625 712.429688 463.253906 712.867188 462.886719 C 713.308594 462.519531 713.5625 461.976562 713.5625 461.40625 L 713.5625 326.808594 C 713.5625 325.882812 712.894531 325.082031 711.976562 324.914062 L 510.605469 288.164062 C 510.039062 288.066406 509.460938 288.214844 509.023438 288.582031 C 508.582031 288.949219 508.332031 289.488281 508.332031 290.066406 L 508.332031 424.65625 C 508.332031 425.585938 508.996094 426.386719 509.914062 426.550781 Z M 711.632812 465.894531 C 711.367188 465.894531 711.09375 465.875 710.828125 465.824219 L 509.449219 429.070312 C 507.316406 428.6875 505.769531 426.824219 505.769531 424.65625 L 505.769531 290.066406 C 505.769531 288.726562 506.351562 287.46875 507.378906 286.613281 C 508.40625 285.753906 509.75 285.40625 511.066406 285.644531 L 712.4375 322.394531 C 714.574219 322.78125 716.121094 324.636719 716.121094 326.808594 L 716.121094 461.40625 C 716.121094 462.738281 715.535156 463.996094 714.511719 464.855469 C 713.691406 465.535156 712.679688 465.894531 711.632812 465.894531 " fill-opacity="1" fill-rule="nonzero"/><path fill="#ffffff" d="M 711.058594 633.640625 L 509.679688 596.894531 C 508.160156 596.613281 507.046875 595.28125 507.046875 593.730469 L 507.046875 459.140625 C 507.046875 457.136719 508.863281 455.625 510.832031 455.984375 L 712.210938 492.730469 C 713.734375 493.007812 714.84375 494.339844 714.84375 495.890625 L 714.84375 630.484375 C 714.84375 632.484375 713.027344 634.003906 711.058594 633.640625 " fill-opacity="1" fill-rule="nonzero"/><path fill="#9333ea" d="M 546.976562 604.308594 C 550.210938 598.773438 557.589844 587.144531 571.074219 578.132812 C 595.226562 561.988281 629.648438 547.15625 662.640625 571.984375 C 674.085938 580.59375 675.574219 608.257812 674.511719 625.863281 L 674.285156 627.554688 C 674.285156 627.554688 546.976562 604.3125 546.976562 604.308594 " fill-opacity="1" fill-rule="nonzero"/><path fill="#4f2b43" d="M 607.5625 550.824219 C 596.339844 547.035156 591.28125 534.4375 597.40625 525.21875 C 607.46875 510.070312 616.816406 491.992188 638.855469 496.039062 C 661.828125 500.257812 666.542969 521.925781 665.925781 542.84375 C 665.589844 554.171875 653.792969 561.546875 642.3125 557.675781 L 607.5625 550.824219 " fill-opacity="1" fill-rule="nonzero"/><path fill="#ffffff" d="M 642.511719 530.335938 L 639.425781 561.515625 C 639.078125 565.027344 641.066406 568.34375 644.320312 569.6875 C 645.253906 570.070312 646.207031 570.492188 647.15625 570.933594 C 652.765625 573.535156 652.632812 581.527344 646.988281 584.046875 C 636.746094 588.609375 621.019531 592.582031 604.398438 585.46875 C 598.371094 582.890625 598.769531 574.183594 604.972656 572.0625 L 608.195312 570.957031 C 613.03125 569.300781 616.472656 564.996094 617.019531 559.90625 L 621.976562 529.886719 L 642.511719 530.335938 " fill-opacity="1" fill-rule="nonzero"/><path fill="#4f2b43" d="M 623.0625 531.191406 L 618.289062 560.113281 C 617.699219 565.601562 613.898438 570.359375 608.609375 572.167969 L 605.390625 573.273438 C 602.546875 574.246094 601.453125 576.710938 601.382812 578.691406 C 601.304688 580.636719 602.195312 583.128906 604.902344 584.289062 C 621.089844 591.21875 636.445312 587.34375 646.46875 582.875 C 648.636719 581.90625 649.996094 579.832031 650.015625 577.460938 C 650.03125 575.09375 648.761719 573.089844 646.617188 572.09375 C 645.636719 571.640625 644.699219 571.230469 643.832031 570.871094 C 640.035156 569.300781 637.746094 565.496094 638.152344 561.390625 L 641.105469 531.585938 Z M 623.371094 590.640625 C 617.222656 590.640625 610.632812 589.53125 603.894531 586.644531 C 600.628906 585.25 598.679688 582.160156 598.816406 578.59375 C 598.949219 575.035156 601.203125 571.996094 604.558594 570.847656 L 607.785156 569.742188 C 612.128906 568.253906 615.253906 564.339844 615.746094 559.769531 L 620.710938 529.679688 C 620.816406 529.046875 621.347656 528.59375 622.003906 528.605469 L 642.550781 529.050781 C 642.902344 529.058594 643.242188 529.21875 643.476562 529.484375 C 643.714844 529.753906 643.828125 530.105469 643.792969 530.460938 L 640.703125 561.640625 C 640.410156 564.609375 642.0625 567.367188 644.808594 568.5 C 645.714844 568.871094 646.6875 569.300781 647.699219 569.769531 C 650.734375 571.175781 652.601562 574.128906 652.578125 577.480469 C 652.550781 580.871094 650.609375 583.832031 647.515625 585.214844 C 641.167969 588.042969 632.78125 590.640625 623.371094 590.640625 " fill-opacity="1" fill-rule="nonzero"/><path fill="#ffffff" d="M 637.46875 517.742188 L 618.214844 520.859375 C 618.214844 520.859375 615.207031 544.933594 625.984375 548.695312 C 636.761719 552.453125 645.285156 535.65625 645.285156 535.65625 C 645.285156 535.65625 648.210938 535.824219 649.546875 534.484375 C 650.882812 533.144531 654.390625 527.464844 647.375 526.128906 L 646.578125 523.457031 C 645.40625 519.53125 641.507812 517.089844 637.46875 517.742188 " fill-opacity="1" fill-rule="nonzero"/><path fill="#4f2b43" d="M 619.386719 521.96875 C 618.984375 526.355469 617.867188 544.503906 626.40625 547.484375 C 636.011719 550.835938 644.054688 535.230469 644.136719 535.078125 C 644.371094 534.621094 644.824219 534.347656 645.359375 534.375 C 646.117188 534.414062 647.941406 534.277344 648.636719 533.578125 C 649.441406 532.777344 650.660156 530.652344 650.242188 529.277344 C 649.957031 528.363281 648.914062 527.726562 647.128906 527.386719 C 646.660156 527.296875 646.28125 526.953125 646.144531 526.492188 L 645.347656 523.820312 C 644.363281 520.527344 641.074219 518.460938 637.679688 519.007812 L 637.46875 517.742188 L 637.679688 519.007812 Z M 629.203125 550.535156 C 628.027344 550.535156 626.808594 550.34375 625.558594 549.902344 C 613.941406 545.847656 616.8125 521.726562 616.9375 520.703125 C 617.011719 520.136719 617.445312 519.6875 618.007812 519.597656 L 637.265625 516.480469 C 641.921875 515.722656 646.453125 518.566406 647.800781 523.089844 L 648.382812 525.042969 C 651.265625 525.792969 652.320312 527.324219 652.691406 528.523438 C 653.578125 531.414062 651.316406 534.527344 650.449219 535.390625 C 649.21875 536.625 647.199219 536.890625 646.046875 536.9375 C 644.433594 539.851562 637.910156 550.535156 629.203125 550.535156 " fill-opacity="1" fill-rule="nonzero"/><path fill="#4f2b43" d="M 711.285156 632.382812 C 711.851562 632.484375 712.429688 632.332031 712.867188 631.964844 C 713.308594 631.597656 713.5625 631.058594 713.5625 630.484375 L 713.5625 495.894531 C 713.5625 494.960938 712.894531 494.164062 711.976562 493.992188 L 510.605469 457.246094 C 510.039062 457.140625 509.460938 457.292969 509.023438 457.660156 C 508.582031 458.027344 508.332031 458.570312 508.332031 459.140625 L 508.332031 593.730469 C 508.332031 594.664062 508.996094 595.464844 509.914062 595.632812 Z M 711.632812 634.976562 C 711.367188 634.976562 711.09375 634.949219 710.828125 634.902344 L 509.449219 598.152344 C 507.316406 597.765625 505.769531 595.90625 505.769531 593.730469 L 505.769531 459.140625 C 505.769531 457.808594 506.351562 456.546875 507.382812 455.691406 C 508.40625 454.835938 509.75 454.480469 511.066406 454.722656 L 712.4375 491.472656 C 714.574219 491.859375 716.121094 493.722656 716.121094 495.894531 L 716.121094 630.484375 C 716.121094 631.820312 715.535156 633.078125 714.511719 633.933594 C 713.691406 634.613281 712.679688 634.976562 711.632812 634.976562 " fill-opacity="1" fill-rule="nonzero"/><path fill="#4f2b43" d="M 144.308594 563.257812 C 128.992188 584.484375 117.421875 621.292969 108.6875 663.886719 C 142.925781 701.984375 184.867188 709.566406 219.226562 719.007812 C 228.648438 721.597656 250.566406 726.152344 280.398438 729.796875 C 277.082031 667.273438 270.933594 589.195312 270.933594 589.195312 L 144.308594 563.257812 " fill-opacity="1" fill-rule="nonzero"/><path fill="#ffffff" d="M 302.480469 409.785156 C 302.480469 409.785156 336.710938 432.824219 352.710938 428.484375 C 375.222656 422.378906 385.132812 365.027344 386.101562 359.9375 C 387.070312 354.847656 391.410156 329.03125 395.910156 319.398438 C 400.136719 310.347656 402.710938 301.082031 404.066406 295.382812 C 404.886719 291.949219 407.222656 290.289062 409.542969 290.640625 C 411.578125 290.949219 412.929688 292.546875 411.785156 297.671875 C 410.464844 303.59375 409.28125 309.550781 408.199219 314.613281 C 407.859375 316.207031 407.210938 317.710938 408.332031 316.582031 C 410.945312 313.945312 414.363281 311.355469 417.035156 312.320312 C 422.054688 314.140625 427.410156 331.078125 422.015625 344.488281 C 416.621094 357.902344 407.992188 356.398438 406.503906 362.710938 C 405.011719 369.027344 397.230469 449.136719 391.007812 463.800781 C 382.054688 484.890625 296.207031 469.5 296.207031 469.5 L 302.480469 409.785156 " fill-opacity="1" fill-rule="nonzero"/><path fill="#4f2b43" d="M 297.609375 468.445312 C 322.050781 472.699219 382.925781 479.558594 389.828125 463.300781 C 394.183594 453.035156 399.425781 409.273438 402.554688 383.125 C 403.863281 372.203125 404.808594 364.3125 405.253906 362.417969 C 406.003906 359.242188 408.203125 357.785156 410.75 356.09375 C 413.921875 353.988281 417.867188 351.367188 420.824219 344.011719 C 424.390625 335.15625 423.035156 324.460938 420.265625 318.265625 C 419.128906 315.722656 417.757812 313.949219 416.597656 313.527344 C 414.996094 312.945312 412.3125 314.386719 409.242188 317.484375 C 408.929688 317.796875 408.101562 318.636719 407.121094 318.078125 C 406.128906 317.515625 406.402344 316.46875 406.695312 315.363281 C 406.777344 315.050781 406.867188 314.699219 406.945312 314.34375 C 407.34375 312.484375 407.753906 310.492188 408.183594 308.4375 C 408.925781 304.851562 409.695312 301.140625 410.535156 297.386719 C 411.246094 294.230469 410.824219 292.988281 410.507812 292.53125 C 410.347656 292.300781 410.074219 292.019531 409.347656 291.910156 C 407.523438 291.632812 405.917969 293.148438 405.3125 295.683594 C 403.847656 301.832031 401.230469 311.039062 397.070312 319.941406 C 393.152344 328.332031 389.273438 349.660156 387.816406 357.691406 C 387.621094 358.753906 387.472656 359.597656 387.359375 360.175781 L 387.234375 360.839844 C 383.738281 379.710938 373.398438 424.203125 353.046875 429.722656 C 338.609375 433.632812 310.875 416.722656 303.539062 412.003906 Z M 352.441406 476.191406 C 326.765625 476.191406 298.03125 471.128906 295.984375 470.757812 L 294.808594 470.550781 L 301.433594 407.53125 L 303.203125 408.722656 C 303.507812 408.929688 331.695312 427.753906 348.152344 427.753906 C 349.675781 427.757812 351.085938 427.59375 352.375 427.246094 C 371.855469 421.964844 382.054688 374.722656 384.71875 360.371094 L 384.84375 359.695312 C 384.953125 359.125 385.105469 358.285156 385.292969 357.234375 C 386.773438 349.113281 390.6875 327.546875 394.746094 318.859375 C 398.8125 310.148438 401.382812 301.125 402.824219 295.085938 C 403.738281 291.246094 406.566406 288.894531 409.734375 289.375 C 411.007812 289.566406 411.980469 290.140625 412.625 291.082031 C 413.609375 292.53125 413.746094 294.773438 413.039062 297.949219 C 412.203125 301.679688 411.4375 305.378906 410.695312 308.953125 C 410.367188 310.542969 410.042969 312.089844 409.730469 313.574219 C 412.714844 311.160156 415.308594 310.332031 417.472656 311.117188 C 419.847656 311.980469 421.574219 314.914062 422.609375 317.222656 C 425.6875 324.113281 427.066406 335.363281 423.203125 344.96875 C 419.949219 353.0625 415.449219 356.050781 412.167969 358.230469 C 409.816406 359.789062 408.269531 360.824219 407.75 363.003906 C 407.335938 364.761719 406.351562 372.996094 405.101562 383.429688 C 401.957031 409.710938 396.6875 453.703125 392.1875 464.304688 C 388.289062 473.492188 371.179688 476.191406 352.441406 476.191406 " fill-opacity="1" fill-rule="nonzero"/><path fill="#ffffff" d="M 100.175781 437.027344 L 75.75 493.992188 C 75.390625 494.828125 74.984375 495.632812 74.578125 496.445312 C 66.761719 512.164062 75.0625 531.335938 92.148438 536.230469 L 165.832031 557.332031 L 167.78125 526.082031 L 128.316406 513.738281 C 120.683594 511.351562 117.253906 502.484375 121.296875 495.582031 L 128.136719 483.910156 L 100.175781 437.027344 " fill-opacity="1" fill-rule="nonzero"/><path fill="#4f2b43" d="M 100.363281 439.84375 L 76.925781 494.5 C 76.585938 495.289062 76.207031 496.054688 75.835938 496.796875 L 75.726562 497.019531 C 72.152344 504.203125 71.96875 512.550781 75.21875 519.921875 C 78.460938 527.285156 84.761719 532.78125 92.503906 535 L 164.652344 555.660156 L 166.4375 527.003906 L 127.933594 514.960938 C 123.917969 513.707031 120.746094 510.734375 119.230469 506.8125 C 117.714844 502.890625 118.066406 498.5625 120.191406 494.933594 L 126.648438 483.914062 Z M 167.011719 559.003906 L 91.796875 537.464844 C 83.324219 535.035156 76.425781 529.019531 72.871094 520.957031 C 69.316406 512.886719 69.519531 503.746094 73.433594 495.875 L 73.542969 495.652344 C 73.910156 494.914062 74.261719 494.214844 74.570312 493.492188 L 99.988281 434.210938 L 129.625 483.902344 L 122.402344 496.226562 C 120.675781 499.179688 120.390625 502.699219 121.621094 505.890625 C 122.855469 509.082031 125.433594 511.492188 128.699219 512.515625 L 169.121094 525.15625 L 167.011719 559.003906 " fill-opacity="1" fill-rule="nonzero"/><path fill="#9333ea" d="M 158.425781 378.613281 C 199.6875 360.203125 279.429688 364.023438 335.371094 424.054688 C 341.949219 431.117188 322.949219 484.359375 306.007812 480.695312 C 291.03125 477.457031 278.828125 473.714844 277.683594 482.382812 C 276.105469 494.359375 286.847656 590.339844 271.207031 617.410156 C 243.265625 665.769531 159.929688 658.546875 117.046875 634.972656 C 105.726562 628.75 117.617188 611.621094 125.941406 555.742188 C 132.140625 514.113281 135.75 479.625 128.074219 492.929688 C 124.308594 499.460938 84.882812 460.191406 89 448.460938 C 98.023438 422.746094 113.898438 398.476562 158.425781 378.613281 " fill-opacity="1" fill-rule="nonzero"/><path fill="#ffffff" d="M 260.554688 283.71875 C 264.320312 284.546875 266.835938 291.824219 267.835938 295.546875 C 271.117188 307.8125 267.875 337.800781 259.046875 340.726562 C 250.347656 343.605469 250.652344 339.5 244.289062 344.03125 C 239.203125 347.644531 239.109375 353.234375 237.976562 365.410156 C 237.902344 366.183594 253.980469 368.835938 254.335938 369.53125 C 255.140625 371.101562 247.765625 392.371094 217.339844 391.945312 C 188.515625 391.542969 182.410156 372.722656 182.152344 371.382812 C 181.996094 370.582031 203.347656 366.6875 203.640625 365.867188 C 207.480469 355.109375 209.191406 336.929688 209.191406 336.929688 C 209.191406 336.929688 220.960938 275.023438 260.554688 283.71875 " fill-opacity="1" fill-rule="nonzero"/><path fill="#4f2b43" d="M 239.25 365.527344 L 239.25 365.53125 C 239.25 365.527344 239.25 365.527344 239.25 365.527344 Z M 183.714844 372.070312 C 185.148438 375.90625 192.234375 390.3125 217.359375 390.664062 C 233.53125 390.871094 242.609375 384.878906 247.410156 379.796875 C 251.261719 375.714844 252.75 371.855469 253.050781 370.378906 C 251.75 370.003906 248.75 369.382812 246.457031 368.902344 C 237.390625 367.015625 236.558594 366.800781 236.699219 365.292969 L 236.949219 362.539062 C 237.902344 351.964844 238.382812 346.65625 243.542969 342.984375 C 247.386719 340.25 249.238281 340.371094 251.371094 340.507812 C 253.039062 340.617188 254.921875 340.742188 258.644531 339.507812 C 266.386719 336.941406 269.761719 307.695312 266.59375 295.878906 C 265.347656 291.214844 262.941406 285.554688 260.277344 284.96875 C 251.816406 283.113281 244.007812 284.492188 237.066406 289.074219 C 217.683594 301.867188 210.773438 335.535156 210.460938 337.117188 C 210.328125 338.496094 208.621094 355.722656 204.847656 366.296875 C 204.515625 367.226562 204.464844 367.367188 193.40625 369.796875 C 190.015625 370.539062 185.582031 371.515625 183.714844 372.070312 Z M 218.226562 393.230469 C 217.929688 393.230469 217.628906 393.230469 217.324219 393.222656 C 186.386719 392.792969 180.933594 371.839844 180.894531 371.628906 C 180.609375 370.15625 182.0625 369.800781 185.246094 369.015625 C 187.332031 368.503906 190.140625 367.890625 192.855469 367.289062 C 196.429688 366.503906 201.214844 365.457031 202.59375 364.976562 C 206.222656 354.433594 207.898438 336.988281 207.914062 336.8125 L 207.929688 336.691406 C 208.210938 335.226562 215.007812 300.558594 235.65625 286.9375 C 243.195312 281.957031 251.664062 280.457031 260.828125 282.46875 C 265.292969 283.445312 267.910156 290.875 269.074219 295.21875 C 272.351562 307.460938 269.363281 338.660156 259.449219 341.941406 C 255.253906 343.328125 253.011719 343.1875 251.207031 343.066406 C 249.285156 342.941406 248.128906 342.871094 245.03125 345.074219 C 240.828125 348.058594 240.414062 352.671875 239.503906 362.769531 L 239.328125 364.660156 C 240.8125 365.109375 244.445312 365.867188 246.976562 366.394531 C 254.730469 368.007812 255.082031 368.171875 255.476562 368.945312 C 256.210938 370.371094 254.699219 373.996094 252.988281 376.753906 C 249.890625 381.746094 240.351562 393.230469 218.226562 393.230469 " fill-opacity="1" fill-rule="nonzero"/><path fill="#4f2b43" d="M 247.621094 316.53125 C 247.609375 316.53125 247.597656 316.53125 247.589844 316.53125 C 241.996094 316.398438 238.230469 310.777344 236.976562 305.269531 C 235.847656 300.308594 236.808594 296.246094 239.417969 294.914062 C 245.367188 291.878906 250.664062 300.710938 250.882812 301.085938 C 251.242188 301.699219 251.042969 302.480469 250.433594 302.84375 C 249.820312 303.203125 249.035156 302.996094 248.675781 302.390625 C 248.632812 302.320312 244.335938 295.289062 240.585938 297.199219 C 239.144531 297.929688 238.671875 301.15625 239.476562 304.699219 C 240.507812 309.242188 243.4375 313.867188 247.648438 313.96875 C 248.359375 313.988281 248.917969 314.574219 248.898438 315.28125 C 248.882812 315.980469 248.3125 316.53125 247.621094 316.53125 " fill-opacity="1" fill-rule="nonzero"/><path fill="#4f2b43" d="M 273.09375 270.160156 C 275.679688 278.730469 267.039062 281.71875 260.617188 287.957031 C 253.988281 294.402344 253.910156 302.628906 249.914062 302.835938 C 249.417969 302.863281 247.53125 300.902344 246.503906 298.417969 C 244.78125 294.261719 233.578125 294.09375 240.222656 309.203125 C 250.671875 332.972656 277.957031 390.503906 266.707031 433.976562 C 257.691406 468.804688 242.226562 486.132812 168.734375 487.617188 C 107.226562 488.855469 78.761719 417.332031 84.183594 388.660156 C 96.261719 324.816406 162.902344 392.601562 166.980469 304.296875 C 169.835938 242.386719 224.175781 208.882812 264.757812 254.332031 C 268.855469 258.925781 271.449219 264.714844 273.09375 270.160156 " fill-opacity="1" fill-rule="nonzero"/></svg>